%TF.GenerationSoftware,KiCad,Pcbnew,9.0.6*%
%TF.CreationDate,2026-05-26T13:56:52+03:00*%
%TF.ProjectId,Didactic_wire_bond_PCB,44696461-6374-4696-935f-776972655f62,rev?*%
%TF.SameCoordinates,Original*%
%TF.FileFunction,Copper,L6,Bot*%
%TF.FilePolarity,Positive*%
%FSLAX46Y46*%
G04 Gerber Fmt 4.6, Leading zero omitted, Abs format (unit mm)*
G04 Created by KiCad (PCBNEW 9.0.6) date 2026-05-26 13:56:52*
%MOMM*%
%LPD*%
G01*
G04 APERTURE LIST*
%TA.AperFunction,ComponentPad*%
%ADD10R,1.700000X1.700000*%
%TD*%
%TA.AperFunction,ComponentPad*%
%ADD11C,1.700000*%
%TD*%
%TA.AperFunction,ViaPad*%
%ADD12C,0.500000*%
%TD*%
G04 APERTURE END LIST*
D10*
%TO.P,J603,1,Pin_1*%
%TO.N,unconnected-(J603-Pin_1-Pad1)*%
X130175000Y-120650000D03*
D11*
%TO.P,J603,2,Pin_2*%
%TO.N,GND*%
X127635000Y-120650000D03*
%TO.P,J603,3,Pin_3*%
%TO.N,unconnected-(J603-Pin_3-Pad3)*%
X130175000Y-118110000D03*
%TO.P,J603,4,Pin_4*%
%TO.N,unconnected-(J603-Pin_4-Pad4)*%
X127635000Y-118110000D03*
%TO.P,J603,5,Pin_5*%
%TO.N,unconnected-(J603-Pin_5-Pad5)*%
X130175000Y-115570001D03*
%TO.P,J603,6,Pin_6*%
%TO.N,unconnected-(J603-Pin_6-Pad6)*%
X127635000Y-115570000D03*
%TO.P,J603,7,Pin_7*%
%TO.N,unconnected-(J603-Pin_7-Pad7)*%
X130175000Y-113030000D03*
%TO.P,J603,8,Pin_8*%
%TO.N,unconnected-(J603-Pin_8-Pad8)*%
X127635000Y-113030000D03*
%TO.P,J603,9,Pin_9*%
%TO.N,/GPIO0*%
X130175000Y-110490000D03*
%TO.P,J603,10,Pin_10*%
%TO.N,unconnected-(J603-Pin_10-Pad10)*%
X127635000Y-110490000D03*
%TO.P,J603,11,Pin_11*%
%TO.N,/GPIO2*%
X130175000Y-107950000D03*
%TO.P,J603,12,Pin_12*%
%TO.N,/GPIO1*%
X127635000Y-107950000D03*
%TO.P,J603,13,Pin_13*%
%TO.N,/GPIO4*%
X130175000Y-105410000D03*
%TO.P,J603,14,Pin_14*%
%TO.N,/GPIO3*%
X127635000Y-105410000D03*
%TO.P,J603,15,Pin_15*%
%TO.N,GND*%
X130175000Y-102869999D03*
%TO.P,J603,16,Pin_16*%
%TO.N,IOVDD*%
X127635000Y-102870000D03*
%TD*%
D10*
%TO.P,J201,1,Pin_1*%
%TO.N,GND*%
X155575000Y-102870000D03*
D11*
%TO.P,J201,2,Pin_2*%
%TO.N,CVDD*%
X158115000Y-102870000D03*
%TO.P,J201,3,Pin_3*%
%TO.N,/JTAG_TCK*%
X155575000Y-105410000D03*
%TO.P,J201,4,Pin_4*%
%TO.N,/JTAG_TDI*%
X158115000Y-105410000D03*
%TO.P,J201,5,Pin_5*%
%TO.N,/JTAG_TDO*%
X155575000Y-107949999D03*
%TO.P,J201,6,Pin_6*%
%TO.N,/P_BIAS*%
X158115000Y-107950000D03*
%TO.P,J201,7,Pin_7*%
%TO.N,/JTAG_TMS*%
X155575000Y-110490000D03*
%TO.P,J201,8,Pin_8*%
%TO.N,/JTAG_TRST*%
X158115000Y-110490000D03*
%TO.P,J201,9,Pin_9*%
%TO.N,/UART_RX*%
X155575000Y-113030000D03*
%TO.P,J201,10,Pin_10*%
%TO.N,/UART_TX*%
X158115000Y-113030000D03*
%TO.P,J201,11,Pin_11*%
%TO.N,/RST_N*%
X155575000Y-115570000D03*
%TO.P,J201,12,Pin_12*%
%TO.N,/CLK*%
X158115000Y-115570000D03*
%TO.P,J201,13,Pin_13*%
%TO.N,/SPI_CSN0*%
X155575000Y-118110000D03*
%TO.P,J201,14,Pin_14*%
%TO.N,/SPI_CSN1*%
X158115000Y-118110000D03*
%TO.P,J201,15,Pin_15*%
%TO.N,/SPI_DATA0*%
X155575000Y-120650001D03*
%TO.P,J201,16,Pin_16*%
%TO.N,/SPI_SCK*%
X158115000Y-120650000D03*
%TD*%
D10*
%TO.P,J202,1,Pin_1*%
%TO.N,GND*%
X151765000Y-123190000D03*
D11*
%TO.P,J202,2,Pin_2*%
%TO.N,CVDD*%
X151765000Y-125730000D03*
%TO.P,J202,3,Pin_3*%
%TO.N,/SPI_DATA1*%
X149225000Y-123190000D03*
%TO.P,J202,4,Pin_4*%
%TO.N,IOVDD*%
X149225000Y-125730000D03*
%TO.P,J202,5,Pin_5*%
%TO.N,/SPI_DATA3*%
X146685001Y-123190000D03*
%TO.P,J202,6,Pin_6*%
%TO.N,/SPI_DATA2*%
X146685000Y-125730000D03*
%TO.P,J202,7,Pin_7*%
%TO.N,unconnected-(J202-Pin_7-Pad7)*%
X144145000Y-123190000D03*
%TO.P,J202,8,Pin_8*%
%TO.N,unconnected-(J202-Pin_8-Pad8)*%
X144145000Y-125730000D03*
%TO.P,J202,9,Pin_9*%
%TO.N,unconnected-(J202-Pin_9-Pad9)*%
X141605000Y-123190000D03*
%TO.P,J202,10,Pin_10*%
%TO.N,unconnected-(J202-Pin_10-Pad10)*%
X141605000Y-125730000D03*
%TO.P,J202,11,Pin_11*%
%TO.N,unconnected-(J202-Pin_11-Pad11)*%
X139065000Y-123190000D03*
%TO.P,J202,12,Pin_12*%
%TO.N,unconnected-(J202-Pin_12-Pad12)*%
X139065000Y-125730000D03*
%TO.P,J202,13,Pin_13*%
%TO.N,unconnected-(J202-Pin_13-Pad13)*%
X136525000Y-123190000D03*
%TO.P,J202,14,Pin_14*%
%TO.N,unconnected-(J202-Pin_14-Pad14)*%
X136525000Y-125730000D03*
%TO.P,J202,15,Pin_15*%
%TO.N,unconnected-(J202-Pin_15-Pad15)*%
X133984999Y-123190000D03*
%TO.P,J202,16,Pin_16*%
%TO.N,unconnected-(J202-Pin_16-Pad16)*%
X133985000Y-125730000D03*
%TD*%
D10*
%TO.P,J601,1,Pin_1*%
%TO.N,GND*%
X133985000Y-100330000D03*
D11*
%TO.P,J601,2,Pin_2*%
%TO.N,CVDD*%
X133985000Y-97790000D03*
%TO.P,J601,3,Pin_3*%
%TO.N,/GPIO5*%
X136525000Y-100330000D03*
%TO.P,J601,4,Pin_4*%
%TO.N,/GPIO6*%
X136525000Y-97790000D03*
%TO.P,J601,5,Pin_5*%
%TO.N,/GPIO7*%
X139064999Y-100330000D03*
%TO.P,J601,6,Pin_6*%
%TO.N,/GPIO8*%
X139065000Y-97790000D03*
%TO.P,J601,7,Pin_7*%
%TO.N,/GPIO9*%
X141605000Y-100330000D03*
%TO.P,J601,8,Pin_8*%
%TO.N,/GPIO10*%
X141605000Y-97790000D03*
%TO.P,J601,9,Pin_9*%
%TO.N,/GPIO11*%
X144145000Y-100330000D03*
%TO.P,J601,10,Pin_10*%
%TO.N,/GPIO12*%
X144145000Y-97790000D03*
%TO.P,J601,11,Pin_11*%
%TO.N,/GPIO13*%
X146685000Y-100330000D03*
%TO.P,J601,12,Pin_12*%
%TO.N,/GPIO14*%
X146685000Y-97790000D03*
%TO.P,J601,13,Pin_13*%
%TO.N,/GPIO15*%
X149225000Y-100330000D03*
%TO.P,J601,14,Pin_14*%
%TO.N,/N_BIAS*%
X149225000Y-97790000D03*
%TO.P,J601,15,Pin_15*%
%TO.N,GND*%
X151765001Y-100330000D03*
%TO.P,J601,16,Pin_16*%
%TO.N,IOVDD*%
X151765000Y-97790000D03*
%TD*%
D12*
%TO.N,GND*%
X136500000Y-104150000D03*
X139750000Y-114975000D03*
X135550000Y-111950000D03*
X146625000Y-109800000D03*
X150075000Y-105225000D03*
X145710000Y-114860000D03*
X139842500Y-109067500D03*
X142725000Y-119525000D03*
X150225000Y-112175000D03*
X142120000Y-116610000D03*
X143625000Y-104200000D03*
X149000000Y-119600000D03*
X138030000Y-112710000D03*
X145750000Y-108950000D03*
X144850000Y-108030000D03*
X136475000Y-119700000D03*
%TO.N,CVDD*%
X144070000Y-113290000D03*
X141420000Y-113320000D03*
X144070000Y-110620000D03*
X141430000Y-110630000D03*
%TO.N,IOVDD*%
X143850000Y-109630000D03*
X141790000Y-109500000D03*
X145080000Y-110630000D03*
X140300000Y-112550000D03*
X145470000Y-113090000D03*
X142130000Y-114400000D03*
X140270000Y-110980000D03*
X143700000Y-114400000D03*
%TD*%
%TA.AperFunction,Conductor*%
%TO.N,GND*%
G36*
X159658691Y-96319407D02*
G01*
X159694655Y-96368907D01*
X159699500Y-96399500D01*
X159699500Y-127100500D01*
X159680593Y-127158691D01*
X159631093Y-127194655D01*
X159600500Y-127199500D01*
X126399500Y-127199500D01*
X126341309Y-127180593D01*
X126305345Y-127131093D01*
X126300500Y-127100500D01*
X126300500Y-125639450D01*
X132834500Y-125639450D01*
X132834500Y-125820549D01*
X132862828Y-125999406D01*
X132862829Y-125999409D01*
X132918789Y-126171639D01*
X133001004Y-126332994D01*
X133107447Y-126479501D01*
X133235499Y-126607553D01*
X133382006Y-126713996D01*
X133543361Y-126796211D01*
X133715591Y-126852171D01*
X133787136Y-126863502D01*
X133894451Y-126880500D01*
X133894454Y-126880500D01*
X134075549Y-126880500D01*
X134164977Y-126866335D01*
X134254409Y-126852171D01*
X134426639Y-126796211D01*
X134587994Y-126713996D01*
X134734501Y-126607553D01*
X134862553Y-126479501D01*
X134968996Y-126332994D01*
X135051211Y-126171639D01*
X135107171Y-125999409D01*
X135135500Y-125820546D01*
X135135500Y-125639454D01*
X135135500Y-125639450D01*
X135374500Y-125639450D01*
X135374500Y-125820549D01*
X135402828Y-125999406D01*
X135402829Y-125999409D01*
X135458789Y-126171639D01*
X135541004Y-126332994D01*
X135647447Y-126479501D01*
X135775499Y-126607553D01*
X135922006Y-126713996D01*
X136083361Y-126796211D01*
X136255591Y-126852171D01*
X136327136Y-126863502D01*
X136434451Y-126880500D01*
X136434454Y-126880500D01*
X136615549Y-126880500D01*
X136704977Y-126866335D01*
X136794409Y-126852171D01*
X136966639Y-126796211D01*
X137127994Y-126713996D01*
X137274501Y-126607553D01*
X137402553Y-126479501D01*
X137508996Y-126332994D01*
X137591211Y-126171639D01*
X137647171Y-125999409D01*
X137675500Y-125820546D01*
X137675500Y-125639454D01*
X137675500Y-125639450D01*
X137914500Y-125639450D01*
X137914500Y-125820549D01*
X137942828Y-125999406D01*
X137942829Y-125999409D01*
X137998789Y-126171639D01*
X138081004Y-126332994D01*
X138187447Y-126479501D01*
X138315499Y-126607553D01*
X138462006Y-126713996D01*
X138623361Y-126796211D01*
X138795591Y-126852171D01*
X138867136Y-126863502D01*
X138974451Y-126880500D01*
X138974454Y-126880500D01*
X139155549Y-126880500D01*
X139244977Y-126866335D01*
X139334409Y-126852171D01*
X139506639Y-126796211D01*
X139667994Y-126713996D01*
X139814501Y-126607553D01*
X139942553Y-126479501D01*
X140048996Y-126332994D01*
X140131211Y-126171639D01*
X140187171Y-125999409D01*
X140215500Y-125820546D01*
X140215500Y-125639454D01*
X140215500Y-125639450D01*
X140454500Y-125639450D01*
X140454500Y-125820549D01*
X140482828Y-125999406D01*
X140482829Y-125999409D01*
X140538789Y-126171639D01*
X140621004Y-126332994D01*
X140727447Y-126479501D01*
X140855499Y-126607553D01*
X141002006Y-126713996D01*
X141163361Y-126796211D01*
X141335591Y-126852171D01*
X141407136Y-126863502D01*
X141514451Y-126880500D01*
X141514454Y-126880500D01*
X141695549Y-126880500D01*
X141784977Y-126866335D01*
X141874409Y-126852171D01*
X142046639Y-126796211D01*
X142207994Y-126713996D01*
X142354501Y-126607553D01*
X142482553Y-126479501D01*
X142588996Y-126332994D01*
X142671211Y-126171639D01*
X142727171Y-125999409D01*
X142755500Y-125820546D01*
X142755500Y-125639454D01*
X142755500Y-125639450D01*
X142994500Y-125639450D01*
X142994500Y-125820549D01*
X143022828Y-125999406D01*
X143022829Y-125999409D01*
X143078789Y-126171639D01*
X143161004Y-126332994D01*
X143267447Y-126479501D01*
X143395499Y-126607553D01*
X143542006Y-126713996D01*
X143703361Y-126796211D01*
X143875591Y-126852171D01*
X143947136Y-126863502D01*
X144054451Y-126880500D01*
X144054454Y-126880500D01*
X144235549Y-126880500D01*
X144324977Y-126866335D01*
X144414409Y-126852171D01*
X144586639Y-126796211D01*
X144747994Y-126713996D01*
X144894501Y-126607553D01*
X145022553Y-126479501D01*
X145128996Y-126332994D01*
X145211211Y-126171639D01*
X145267171Y-125999409D01*
X145295500Y-125820546D01*
X145295500Y-125639454D01*
X145295500Y-125639450D01*
X145534500Y-125639450D01*
X145534500Y-125820549D01*
X145562828Y-125999406D01*
X145562829Y-125999409D01*
X145618789Y-126171639D01*
X145701004Y-126332994D01*
X145807447Y-126479501D01*
X145935499Y-126607553D01*
X146082006Y-126713996D01*
X146243361Y-126796211D01*
X146415591Y-126852171D01*
X146487136Y-126863502D01*
X146594451Y-126880500D01*
X146594454Y-126880500D01*
X146775549Y-126880500D01*
X146864977Y-126866335D01*
X146954409Y-126852171D01*
X147126639Y-126796211D01*
X147287994Y-126713996D01*
X147434501Y-126607553D01*
X147562553Y-126479501D01*
X147668996Y-126332994D01*
X147751211Y-126171639D01*
X147807171Y-125999409D01*
X147835500Y-125820546D01*
X147835500Y-125639454D01*
X147835500Y-125639450D01*
X148074500Y-125639450D01*
X148074500Y-125820549D01*
X148102828Y-125999406D01*
X148102829Y-125999409D01*
X148158789Y-126171639D01*
X148241004Y-126332994D01*
X148347447Y-126479501D01*
X148475499Y-126607553D01*
X148622006Y-126713996D01*
X148783361Y-126796211D01*
X148955591Y-126852171D01*
X149027136Y-126863502D01*
X149134451Y-126880500D01*
X149134454Y-126880500D01*
X149315549Y-126880500D01*
X149404977Y-126866335D01*
X149494409Y-126852171D01*
X149666639Y-126796211D01*
X149827994Y-126713996D01*
X149974501Y-126607553D01*
X150102553Y-126479501D01*
X150208996Y-126332994D01*
X150291211Y-126171639D01*
X150347171Y-125999409D01*
X150375500Y-125820546D01*
X150375500Y-125639454D01*
X150375500Y-125639450D01*
X150614500Y-125639450D01*
X150614500Y-125820549D01*
X150642828Y-125999406D01*
X150642829Y-125999409D01*
X150698789Y-126171639D01*
X150781004Y-126332994D01*
X150887447Y-126479501D01*
X151015499Y-126607553D01*
X151162006Y-126713996D01*
X151323361Y-126796211D01*
X151495591Y-126852171D01*
X151567136Y-126863502D01*
X151674451Y-126880500D01*
X151674454Y-126880500D01*
X151855549Y-126880500D01*
X151944977Y-126866335D01*
X152034409Y-126852171D01*
X152206639Y-126796211D01*
X152367994Y-126713996D01*
X152514501Y-126607553D01*
X152642553Y-126479501D01*
X152748996Y-126332994D01*
X152831211Y-126171639D01*
X152887171Y-125999409D01*
X152915500Y-125820546D01*
X152915500Y-125639454D01*
X152915500Y-125639450D01*
X152887171Y-125460593D01*
X152887171Y-125460591D01*
X152831211Y-125288361D01*
X152748996Y-125127006D01*
X152642553Y-124980499D01*
X152514501Y-124852447D01*
X152367994Y-124746004D01*
X152367993Y-124746003D01*
X152367991Y-124746002D01*
X152206637Y-124663788D01*
X152034406Y-124607828D01*
X151855549Y-124579500D01*
X151855546Y-124579500D01*
X151674454Y-124579500D01*
X151674451Y-124579500D01*
X151495593Y-124607828D01*
X151323362Y-124663788D01*
X151162008Y-124746002D01*
X151088752Y-124799225D01*
X151015499Y-124852447D01*
X150887447Y-124980499D01*
X150834225Y-125053752D01*
X150781002Y-125127008D01*
X150698788Y-125288362D01*
X150642828Y-125460593D01*
X150614500Y-125639450D01*
X150375500Y-125639450D01*
X150347171Y-125460593D01*
X150347171Y-125460591D01*
X150291211Y-125288361D01*
X150208996Y-125127006D01*
X150102553Y-124980499D01*
X149974501Y-124852447D01*
X149827994Y-124746004D01*
X149827993Y-124746003D01*
X149827991Y-124746002D01*
X149666637Y-124663788D01*
X149494406Y-124607828D01*
X149315549Y-124579500D01*
X149315546Y-124579500D01*
X149134454Y-124579500D01*
X149134451Y-124579500D01*
X148955593Y-124607828D01*
X148783362Y-124663788D01*
X148622008Y-124746002D01*
X148548752Y-124799225D01*
X148475499Y-124852447D01*
X148347447Y-124980499D01*
X148294225Y-125053752D01*
X148241002Y-125127008D01*
X148158788Y-125288362D01*
X148102828Y-125460593D01*
X148074500Y-125639450D01*
X147835500Y-125639450D01*
X147807171Y-125460593D01*
X147807171Y-125460591D01*
X147751211Y-125288361D01*
X147668996Y-125127006D01*
X147562553Y-124980499D01*
X147434501Y-124852447D01*
X147287994Y-124746004D01*
X147287993Y-124746003D01*
X147287991Y-124746002D01*
X147126637Y-124663788D01*
X146954406Y-124607828D01*
X146775549Y-124579500D01*
X146775546Y-124579500D01*
X146594454Y-124579500D01*
X146594451Y-124579500D01*
X146415593Y-124607828D01*
X146243362Y-124663788D01*
X146082008Y-124746002D01*
X146008752Y-124799225D01*
X145935499Y-124852447D01*
X145807447Y-124980499D01*
X145754225Y-125053752D01*
X145701002Y-125127008D01*
X145618788Y-125288362D01*
X145562828Y-125460593D01*
X145534500Y-125639450D01*
X145295500Y-125639450D01*
X145267171Y-125460593D01*
X145267171Y-125460591D01*
X145211211Y-125288361D01*
X145128996Y-125127006D01*
X145022553Y-124980499D01*
X144894501Y-124852447D01*
X144747994Y-124746004D01*
X144747993Y-124746003D01*
X144747991Y-124746002D01*
X144586637Y-124663788D01*
X144414406Y-124607828D01*
X144235549Y-124579500D01*
X144235546Y-124579500D01*
X144054454Y-124579500D01*
X144054451Y-124579500D01*
X143875593Y-124607828D01*
X143703362Y-124663788D01*
X143542008Y-124746002D01*
X143468752Y-124799225D01*
X143395499Y-124852447D01*
X143267447Y-124980499D01*
X143214225Y-125053752D01*
X143161002Y-125127008D01*
X143078788Y-125288362D01*
X143022828Y-125460593D01*
X142994500Y-125639450D01*
X142755500Y-125639450D01*
X142727171Y-125460593D01*
X142727171Y-125460591D01*
X142671211Y-125288361D01*
X142588996Y-125127006D01*
X142482553Y-124980499D01*
X142354501Y-124852447D01*
X142207994Y-124746004D01*
X142207993Y-124746003D01*
X142207991Y-124746002D01*
X142046637Y-124663788D01*
X141874406Y-124607828D01*
X141695549Y-124579500D01*
X141695546Y-124579500D01*
X141514454Y-124579500D01*
X141514451Y-124579500D01*
X141335593Y-124607828D01*
X141163362Y-124663788D01*
X141002008Y-124746002D01*
X140928752Y-124799225D01*
X140855499Y-124852447D01*
X140727447Y-124980499D01*
X140674225Y-125053752D01*
X140621002Y-125127008D01*
X140538788Y-125288362D01*
X140482828Y-125460593D01*
X140454500Y-125639450D01*
X140215500Y-125639450D01*
X140187171Y-125460593D01*
X140187171Y-125460591D01*
X140131211Y-125288361D01*
X140048996Y-125127006D01*
X139942553Y-124980499D01*
X139814501Y-124852447D01*
X139667994Y-124746004D01*
X139667993Y-124746003D01*
X139667991Y-124746002D01*
X139506637Y-124663788D01*
X139334406Y-124607828D01*
X139155549Y-124579500D01*
X139155546Y-124579500D01*
X138974454Y-124579500D01*
X138974451Y-124579500D01*
X138795593Y-124607828D01*
X138623362Y-124663788D01*
X138462008Y-124746002D01*
X138388752Y-124799225D01*
X138315499Y-124852447D01*
X138187447Y-124980499D01*
X138134225Y-125053752D01*
X138081002Y-125127008D01*
X137998788Y-125288362D01*
X137942828Y-125460593D01*
X137914500Y-125639450D01*
X137675500Y-125639450D01*
X137647171Y-125460593D01*
X137647171Y-125460591D01*
X137591211Y-125288361D01*
X137508996Y-125127006D01*
X137402553Y-124980499D01*
X137274501Y-124852447D01*
X137127994Y-124746004D01*
X137127993Y-124746003D01*
X137127991Y-124746002D01*
X136966637Y-124663788D01*
X136794406Y-124607828D01*
X136615549Y-124579500D01*
X136615546Y-124579500D01*
X136434454Y-124579500D01*
X136434451Y-124579500D01*
X136255593Y-124607828D01*
X136083362Y-124663788D01*
X135922008Y-124746002D01*
X135848752Y-124799225D01*
X135775499Y-124852447D01*
X135647447Y-124980499D01*
X135594225Y-125053752D01*
X135541002Y-125127008D01*
X135458788Y-125288362D01*
X135402828Y-125460593D01*
X135374500Y-125639450D01*
X135135500Y-125639450D01*
X135107171Y-125460593D01*
X135107171Y-125460591D01*
X135051211Y-125288361D01*
X134968996Y-125127006D01*
X134862553Y-124980499D01*
X134734501Y-124852447D01*
X134587994Y-124746004D01*
X134587993Y-124746003D01*
X134587991Y-124746002D01*
X134426637Y-124663788D01*
X134254406Y-124607828D01*
X134075549Y-124579500D01*
X134075546Y-124579500D01*
X133894454Y-124579500D01*
X133894451Y-124579500D01*
X133715593Y-124607828D01*
X133543362Y-124663788D01*
X133382008Y-124746002D01*
X133308752Y-124799225D01*
X133235499Y-124852447D01*
X133107447Y-124980499D01*
X133054225Y-125053752D01*
X133001002Y-125127008D01*
X132918788Y-125288362D01*
X132862828Y-125460593D01*
X132834500Y-125639450D01*
X126300500Y-125639450D01*
X126300500Y-123099450D01*
X132834499Y-123099450D01*
X132834499Y-123280549D01*
X132862827Y-123459406D01*
X132918787Y-123631637D01*
X132948524Y-123690000D01*
X133001003Y-123792994D01*
X133107446Y-123939501D01*
X133235498Y-124067553D01*
X133382005Y-124173996D01*
X133543360Y-124256211D01*
X133715590Y-124312171D01*
X133787135Y-124323502D01*
X133894450Y-124340500D01*
X133894453Y-124340500D01*
X134075548Y-124340500D01*
X134164976Y-124326335D01*
X134254408Y-124312171D01*
X134426638Y-124256211D01*
X134587993Y-124173996D01*
X134734500Y-124067553D01*
X134862552Y-123939501D01*
X134968995Y-123792994D01*
X135051210Y-123631639D01*
X135107170Y-123459409D01*
X135126082Y-123340001D01*
X135135499Y-123280549D01*
X135135499Y-123099450D01*
X135374500Y-123099450D01*
X135374500Y-123280549D01*
X135402828Y-123459406D01*
X135458788Y-123631637D01*
X135488525Y-123690000D01*
X135541004Y-123792994D01*
X135647447Y-123939501D01*
X135775499Y-124067553D01*
X135922006Y-124173996D01*
X136083361Y-124256211D01*
X136255591Y-124312171D01*
X136327136Y-124323502D01*
X136434451Y-124340500D01*
X136434454Y-124340500D01*
X136615549Y-124340500D01*
X136704977Y-124326335D01*
X136794409Y-124312171D01*
X136966639Y-124256211D01*
X137127994Y-124173996D01*
X137274501Y-124067553D01*
X137402553Y-123939501D01*
X137508996Y-123792994D01*
X137591211Y-123631639D01*
X137647171Y-123459409D01*
X137666083Y-123340001D01*
X137675500Y-123280549D01*
X137675500Y-123099450D01*
X137914500Y-123099450D01*
X137914500Y-123280549D01*
X137942828Y-123459406D01*
X137998788Y-123631637D01*
X138028525Y-123690000D01*
X138081004Y-123792994D01*
X138187447Y-123939501D01*
X138315499Y-124067553D01*
X138462006Y-124173996D01*
X138623361Y-124256211D01*
X138795591Y-124312171D01*
X138867136Y-124323502D01*
X138974451Y-124340500D01*
X138974454Y-124340500D01*
X139155549Y-124340500D01*
X139244977Y-124326335D01*
X139334409Y-124312171D01*
X139506639Y-124256211D01*
X139667994Y-124173996D01*
X139814501Y-124067553D01*
X139942553Y-123939501D01*
X140048996Y-123792994D01*
X140131211Y-123631639D01*
X140187171Y-123459409D01*
X140206083Y-123340001D01*
X140215500Y-123280549D01*
X140215500Y-123099450D01*
X140454500Y-123099450D01*
X140454500Y-123280549D01*
X140482828Y-123459406D01*
X140538788Y-123631637D01*
X140568525Y-123690000D01*
X140621004Y-123792994D01*
X140727447Y-123939501D01*
X140855499Y-124067553D01*
X141002006Y-124173996D01*
X141163361Y-124256211D01*
X141335591Y-124312171D01*
X141407136Y-124323502D01*
X141514451Y-124340500D01*
X141514454Y-124340500D01*
X141695549Y-124340500D01*
X141784977Y-124326335D01*
X141874409Y-124312171D01*
X142046639Y-124256211D01*
X142207994Y-124173996D01*
X142354501Y-124067553D01*
X142482553Y-123939501D01*
X142588996Y-123792994D01*
X142671211Y-123631639D01*
X142727171Y-123459409D01*
X142746083Y-123340001D01*
X142755500Y-123280549D01*
X142755500Y-123099450D01*
X142994500Y-123099450D01*
X142994500Y-123280549D01*
X143022828Y-123459406D01*
X143078788Y-123631637D01*
X143108525Y-123690000D01*
X143161004Y-123792994D01*
X143267447Y-123939501D01*
X143395499Y-124067553D01*
X143542006Y-124173996D01*
X143703361Y-124256211D01*
X143875591Y-124312171D01*
X143947136Y-124323502D01*
X144054451Y-124340500D01*
X144054454Y-124340500D01*
X144235549Y-124340500D01*
X144324977Y-124326335D01*
X144414409Y-124312171D01*
X144586639Y-124256211D01*
X144747994Y-124173996D01*
X144894501Y-124067553D01*
X145022553Y-123939501D01*
X145128996Y-123792994D01*
X145211211Y-123631639D01*
X145267171Y-123459409D01*
X145286083Y-123340001D01*
X145295500Y-123280549D01*
X145295500Y-123099450D01*
X145534501Y-123099450D01*
X145534501Y-123280549D01*
X145562829Y-123459406D01*
X145618789Y-123631637D01*
X145648526Y-123690000D01*
X145701005Y-123792994D01*
X145807448Y-123939501D01*
X145935500Y-124067553D01*
X146082007Y-124173996D01*
X146243362Y-124256211D01*
X146415592Y-124312171D01*
X146487137Y-124323502D01*
X146594452Y-124340500D01*
X146594455Y-124340500D01*
X146775550Y-124340500D01*
X146864978Y-124326335D01*
X146954410Y-124312171D01*
X147126640Y-124256211D01*
X147287995Y-124173996D01*
X147434502Y-124067553D01*
X147562554Y-123939501D01*
X147668997Y-123792994D01*
X147751212Y-123631639D01*
X147807172Y-123459409D01*
X147826084Y-123340001D01*
X147835501Y-123280549D01*
X147835501Y-123099450D01*
X148074500Y-123099450D01*
X148074500Y-123280549D01*
X148102828Y-123459406D01*
X148158788Y-123631637D01*
X148188525Y-123690000D01*
X148241004Y-123792994D01*
X148347447Y-123939501D01*
X148475499Y-124067553D01*
X148622006Y-124173996D01*
X148783361Y-124256211D01*
X148955591Y-124312171D01*
X149027136Y-124323502D01*
X149134451Y-124340500D01*
X149134454Y-124340500D01*
X149315549Y-124340500D01*
X149404977Y-124326335D01*
X149494409Y-124312171D01*
X149666639Y-124256211D01*
X149827994Y-124173996D01*
X149974501Y-124067553D01*
X150102553Y-123939501D01*
X150208996Y-123792994D01*
X150291211Y-123631639D01*
X150347171Y-123459409D01*
X150359274Y-123382993D01*
X150375032Y-123283506D01*
X150375500Y-123280548D01*
X150375500Y-123099450D01*
X150347171Y-122920593D01*
X150347171Y-122920591D01*
X150291211Y-122748361D01*
X150208996Y-122587006D01*
X150102553Y-122440499D01*
X149974501Y-122312447D01*
X149950765Y-122295202D01*
X150615000Y-122295202D01*
X150615000Y-123039999D01*
X150615001Y-123040000D01*
X151287555Y-123040000D01*
X151265000Y-123124174D01*
X151265000Y-123255826D01*
X151287555Y-123340000D01*
X150615002Y-123340000D01*
X150615001Y-123340001D01*
X150615001Y-124084791D01*
X150617909Y-124109874D01*
X150663213Y-124212477D01*
X150742522Y-124291786D01*
X150845127Y-124337090D01*
X150870203Y-124339999D01*
X151614998Y-124339999D01*
X151615000Y-124339998D01*
X151615000Y-123667445D01*
X151699174Y-123690000D01*
X151830826Y-123690000D01*
X151915000Y-123667445D01*
X151915000Y-124339998D01*
X151915001Y-124339999D01*
X152659790Y-124339999D01*
X152659791Y-124339998D01*
X152684874Y-124337090D01*
X152787477Y-124291786D01*
X152866786Y-124212477D01*
X152912090Y-124109872D01*
X152914999Y-124084797D01*
X152915000Y-124084795D01*
X152915000Y-123340001D01*
X152914999Y-123340000D01*
X152242445Y-123340000D01*
X152265000Y-123255826D01*
X152265000Y-123124174D01*
X152242445Y-123040000D01*
X152914998Y-123040000D01*
X152914999Y-123039999D01*
X152914999Y-122295210D01*
X152914998Y-122295208D01*
X152912090Y-122270125D01*
X152866786Y-122167522D01*
X152787477Y-122088213D01*
X152684872Y-122042909D01*
X152659797Y-122040000D01*
X151915001Y-122040000D01*
X151915000Y-122040001D01*
X151915000Y-122712554D01*
X151830826Y-122690000D01*
X151699174Y-122690000D01*
X151615000Y-122712554D01*
X151615000Y-122040001D01*
X151614999Y-122040000D01*
X150870210Y-122040000D01*
X150870207Y-122040001D01*
X150845125Y-122042909D01*
X150742522Y-122088213D01*
X150663213Y-122167522D01*
X150617909Y-122270127D01*
X150615000Y-122295202D01*
X149950765Y-122295202D01*
X149827994Y-122206004D01*
X149827993Y-122206003D01*
X149827991Y-122206002D01*
X149666637Y-122123788D01*
X149494406Y-122067828D01*
X149315549Y-122039500D01*
X149315546Y-122039500D01*
X149134454Y-122039500D01*
X149134451Y-122039500D01*
X148955593Y-122067828D01*
X148783362Y-122123788D01*
X148622008Y-122206002D01*
X148548752Y-122259225D01*
X148475499Y-122312447D01*
X148347447Y-122440499D01*
X148294225Y-122513752D01*
X148241002Y-122587008D01*
X148158788Y-122748362D01*
X148102828Y-122920593D01*
X148074500Y-123099450D01*
X147835501Y-123099450D01*
X147807172Y-122920593D01*
X147807172Y-122920591D01*
X147751212Y-122748361D01*
X147668997Y-122587006D01*
X147562554Y-122440499D01*
X147434502Y-122312447D01*
X147287995Y-122206004D01*
X147287994Y-122206003D01*
X147287992Y-122206002D01*
X147126638Y-122123788D01*
X146954407Y-122067828D01*
X146775550Y-122039500D01*
X146775547Y-122039500D01*
X146594455Y-122039500D01*
X146594452Y-122039500D01*
X146415594Y-122067828D01*
X146243363Y-122123788D01*
X146082009Y-122206002D01*
X146008753Y-122259225D01*
X145935500Y-122312447D01*
X145807448Y-122440499D01*
X145754226Y-122513752D01*
X145701003Y-122587008D01*
X145618789Y-122748362D01*
X145562829Y-122920593D01*
X145534501Y-123099450D01*
X145295500Y-123099450D01*
X145267171Y-122920593D01*
X145267171Y-122920591D01*
X145211211Y-122748361D01*
X145128996Y-122587006D01*
X145022553Y-122440499D01*
X144894501Y-122312447D01*
X144747994Y-122206004D01*
X144747993Y-122206003D01*
X144747991Y-122206002D01*
X144586637Y-122123788D01*
X144414406Y-122067828D01*
X144235549Y-122039500D01*
X144235546Y-122039500D01*
X144054454Y-122039500D01*
X144054451Y-122039500D01*
X143875593Y-122067828D01*
X143703362Y-122123788D01*
X143542008Y-122206002D01*
X143468752Y-122259225D01*
X143395499Y-122312447D01*
X143267447Y-122440499D01*
X143214225Y-122513752D01*
X143161002Y-122587008D01*
X143078788Y-122748362D01*
X143022828Y-122920593D01*
X142994500Y-123099450D01*
X142755500Y-123099450D01*
X142727171Y-122920593D01*
X142727171Y-122920591D01*
X142671211Y-122748361D01*
X142588996Y-122587006D01*
X142482553Y-122440499D01*
X142354501Y-122312447D01*
X142207994Y-122206004D01*
X142207993Y-122206003D01*
X142207991Y-122206002D01*
X142046637Y-122123788D01*
X141874406Y-122067828D01*
X141695549Y-122039500D01*
X141695546Y-122039500D01*
X141514454Y-122039500D01*
X141514451Y-122039500D01*
X141335593Y-122067828D01*
X141163362Y-122123788D01*
X141002008Y-122206002D01*
X140928752Y-122259225D01*
X140855499Y-122312447D01*
X140727447Y-122440499D01*
X140674225Y-122513752D01*
X140621002Y-122587008D01*
X140538788Y-122748362D01*
X140482828Y-122920593D01*
X140454500Y-123099450D01*
X140215500Y-123099450D01*
X140187171Y-122920593D01*
X140187171Y-122920591D01*
X140131211Y-122748361D01*
X140048996Y-122587006D01*
X139942553Y-122440499D01*
X139814501Y-122312447D01*
X139667994Y-122206004D01*
X139667993Y-122206003D01*
X139667991Y-122206002D01*
X139506637Y-122123788D01*
X139334406Y-122067828D01*
X139155549Y-122039500D01*
X139155546Y-122039500D01*
X138974454Y-122039500D01*
X138974451Y-122039500D01*
X138795593Y-122067828D01*
X138623362Y-122123788D01*
X138462008Y-122206002D01*
X138388752Y-122259225D01*
X138315499Y-122312447D01*
X138187447Y-122440499D01*
X138134225Y-122513752D01*
X138081002Y-122587008D01*
X137998788Y-122748362D01*
X137942828Y-122920593D01*
X137914500Y-123099450D01*
X137675500Y-123099450D01*
X137647171Y-122920593D01*
X137647171Y-122920591D01*
X137591211Y-122748361D01*
X137508996Y-122587006D01*
X137402553Y-122440499D01*
X137274501Y-122312447D01*
X137127994Y-122206004D01*
X137127993Y-122206003D01*
X137127991Y-122206002D01*
X136966637Y-122123788D01*
X136794406Y-122067828D01*
X136615549Y-122039500D01*
X136615546Y-122039500D01*
X136434454Y-122039500D01*
X136434451Y-122039500D01*
X136255593Y-122067828D01*
X136083362Y-122123788D01*
X135922008Y-122206002D01*
X135848752Y-122259225D01*
X135775499Y-122312447D01*
X135647447Y-122440499D01*
X135594225Y-122513752D01*
X135541002Y-122587008D01*
X135458788Y-122748362D01*
X135402828Y-122920593D01*
X135374500Y-123099450D01*
X135135499Y-123099450D01*
X135107170Y-122920593D01*
X135107170Y-122920591D01*
X135051210Y-122748361D01*
X134968995Y-122587006D01*
X134862552Y-122440499D01*
X134734500Y-122312447D01*
X134587993Y-122206004D01*
X134587992Y-122206003D01*
X134587990Y-122206002D01*
X134426636Y-122123788D01*
X134254405Y-122067828D01*
X134075548Y-122039500D01*
X134075545Y-122039500D01*
X133894453Y-122039500D01*
X133894450Y-122039500D01*
X133715592Y-122067828D01*
X133543361Y-122123788D01*
X133382007Y-122206002D01*
X133308751Y-122259225D01*
X133235498Y-122312447D01*
X133107446Y-122440499D01*
X133054224Y-122513752D01*
X133001001Y-122587008D01*
X132918787Y-122748362D01*
X132862827Y-122920593D01*
X132834499Y-123099450D01*
X126300500Y-123099450D01*
X126300500Y-120833535D01*
X126319407Y-120775344D01*
X126368907Y-120739380D01*
X126430093Y-120739380D01*
X126479593Y-120775344D01*
X126497281Y-120818048D01*
X126513316Y-120919289D01*
X126569250Y-121091440D01*
X126651430Y-121252728D01*
X126722424Y-121350442D01*
X127191328Y-120881536D01*
X127234901Y-120957007D01*
X127327993Y-121050099D01*
X127403460Y-121093670D01*
X126934556Y-121562574D01*
X126934556Y-121562575D01*
X127032263Y-121633564D01*
X127032269Y-121633568D01*
X127193559Y-121715749D01*
X127365710Y-121771683D01*
X127544490Y-121800000D01*
X127725510Y-121800000D01*
X127904289Y-121771683D01*
X128076440Y-121715749D01*
X128237730Y-121633568D01*
X128237735Y-121633564D01*
X128335442Y-121562575D01*
X128335442Y-121562574D01*
X127866538Y-121093670D01*
X127942007Y-121050099D01*
X128035099Y-120957007D01*
X128078670Y-120881538D01*
X128547574Y-121350442D01*
X128547575Y-121350442D01*
X128618564Y-121252735D01*
X128618568Y-121252730D01*
X128700749Y-121091440D01*
X128756683Y-120919289D01*
X128785000Y-120740510D01*
X128785000Y-120559489D01*
X128756683Y-120380710D01*
X128700749Y-120208559D01*
X128618568Y-120047269D01*
X128618564Y-120047263D01*
X128547575Y-119949556D01*
X128547574Y-119949556D01*
X128078670Y-120418460D01*
X128035099Y-120342993D01*
X127942007Y-120249901D01*
X127866536Y-120206328D01*
X128317736Y-119755130D01*
X129024500Y-119755130D01*
X129024500Y-121544860D01*
X129024501Y-121544863D01*
X129027414Y-121569990D01*
X129052756Y-121627385D01*
X129072794Y-121672765D01*
X129152235Y-121752206D01*
X129255009Y-121797585D01*
X129280135Y-121800500D01*
X131069864Y-121800499D01*
X131094991Y-121797585D01*
X131197765Y-121752206D01*
X131277206Y-121672765D01*
X131322585Y-121569991D01*
X131325500Y-121544865D01*
X131325499Y-120559451D01*
X154424500Y-120559451D01*
X154424500Y-120740550D01*
X154452828Y-120919407D01*
X154508788Y-121091638D01*
X154591001Y-121252991D01*
X154591004Y-121252995D01*
X154697447Y-121399502D01*
X154825499Y-121527554D01*
X154972006Y-121633997D01*
X155133361Y-121716212D01*
X155305591Y-121772172D01*
X155377136Y-121783503D01*
X155484451Y-121800501D01*
X155484454Y-121800501D01*
X155665549Y-121800501D01*
X155754977Y-121786336D01*
X155844409Y-121772172D01*
X156016639Y-121716212D01*
X156177994Y-121633997D01*
X156324501Y-121527554D01*
X156452553Y-121399502D01*
X156558996Y-121252995D01*
X156641211Y-121091640D01*
X156697171Y-120919410D01*
X156725500Y-120740547D01*
X156725500Y-120559455D01*
X156725500Y-120559454D01*
X156725500Y-120559451D01*
X156725500Y-120559450D01*
X156964500Y-120559450D01*
X156964500Y-120740549D01*
X156992828Y-120919406D01*
X157048788Y-121091637D01*
X157078525Y-121150000D01*
X157131004Y-121252994D01*
X157237447Y-121399501D01*
X157365499Y-121527553D01*
X157512006Y-121633996D01*
X157673361Y-121716211D01*
X157845591Y-121772171D01*
X157917136Y-121783502D01*
X158024451Y-121800500D01*
X158024454Y-121800500D01*
X158205549Y-121800500D01*
X158294977Y-121786335D01*
X158384409Y-121772171D01*
X158556639Y-121716211D01*
X158717994Y-121633996D01*
X158864501Y-121527553D01*
X158992553Y-121399501D01*
X159098996Y-121252994D01*
X159181211Y-121091639D01*
X159237171Y-120919409D01*
X159259989Y-120775344D01*
X159265500Y-120740549D01*
X159265500Y-120559450D01*
X159237171Y-120380593D01*
X159237171Y-120380592D01*
X159237171Y-120380591D01*
X159181211Y-120208361D01*
X159098996Y-120047006D01*
X158992553Y-119900499D01*
X158864501Y-119772447D01*
X158717994Y-119666004D01*
X158717993Y-119666003D01*
X158717991Y-119666002D01*
X158556637Y-119583788D01*
X158384406Y-119527828D01*
X158205549Y-119499500D01*
X158205546Y-119499500D01*
X158024454Y-119499500D01*
X158024451Y-119499500D01*
X157845593Y-119527828D01*
X157673362Y-119583788D01*
X157512008Y-119666002D01*
X157438752Y-119719225D01*
X157365499Y-119772447D01*
X157237447Y-119900499D01*
X157201805Y-119949556D01*
X157131002Y-120047008D01*
X157048788Y-120208362D01*
X156992828Y-120380593D01*
X156964500Y-120559450D01*
X156725500Y-120559450D01*
X156706242Y-120437866D01*
X156697171Y-120380592D01*
X156641211Y-120208362D01*
X156558996Y-120047007D01*
X156452553Y-119900500D01*
X156324501Y-119772448D01*
X156177994Y-119666005D01*
X156177993Y-119666004D01*
X156177991Y-119666003D01*
X156016637Y-119583789D01*
X155844406Y-119527829D01*
X155665549Y-119499501D01*
X155665546Y-119499501D01*
X155484454Y-119499501D01*
X155484451Y-119499501D01*
X155305593Y-119527829D01*
X155133362Y-119583789D01*
X154972008Y-119666003D01*
X154898752Y-119719226D01*
X154825499Y-119772448D01*
X154697447Y-119900500D01*
X154661806Y-119949556D01*
X154591002Y-120047009D01*
X154508788Y-120208363D01*
X154452828Y-120380594D01*
X154424500Y-120559451D01*
X131325499Y-120559451D01*
X131325499Y-119755136D01*
X131322585Y-119730009D01*
X131277206Y-119627235D01*
X131197765Y-119547794D01*
X131094991Y-119502415D01*
X131094990Y-119502414D01*
X131094988Y-119502414D01*
X131069868Y-119499500D01*
X129280139Y-119499500D01*
X129280136Y-119499501D01*
X129255009Y-119502414D01*
X129152235Y-119547794D01*
X129072794Y-119627235D01*
X129027414Y-119730011D01*
X129024500Y-119755130D01*
X128317736Y-119755130D01*
X128335442Y-119737424D01*
X128237728Y-119666430D01*
X128076440Y-119584250D01*
X127904289Y-119528316D01*
X127725510Y-119500000D01*
X127544490Y-119500000D01*
X127365710Y-119528316D01*
X127193559Y-119584250D01*
X127032269Y-119666431D01*
X127032265Y-119666433D01*
X126934556Y-119737423D01*
X127403461Y-120206328D01*
X127327993Y-120249901D01*
X127234901Y-120342993D01*
X127191328Y-120418461D01*
X126722423Y-119949556D01*
X126651433Y-120047265D01*
X126651431Y-120047269D01*
X126569250Y-120208559D01*
X126513316Y-120380710D01*
X126497281Y-120481951D01*
X126469503Y-120536468D01*
X126414987Y-120564245D01*
X126354555Y-120554674D01*
X126311290Y-120511409D01*
X126300500Y-120466464D01*
X126300500Y-118296732D01*
X126319407Y-118238541D01*
X126368907Y-118202577D01*
X126430093Y-118202577D01*
X126479593Y-118238541D01*
X126497281Y-118281245D01*
X126512828Y-118379406D01*
X126512829Y-118379409D01*
X126568789Y-118551639D01*
X126651004Y-118712994D01*
X126757447Y-118859501D01*
X126885499Y-118987553D01*
X127032006Y-119093996D01*
X127193361Y-119176211D01*
X127365591Y-119232171D01*
X127437136Y-119243502D01*
X127544451Y-119260500D01*
X127544454Y-119260500D01*
X127725549Y-119260500D01*
X127814977Y-119246335D01*
X127904409Y-119232171D01*
X128076639Y-119176211D01*
X128237994Y-119093996D01*
X128384501Y-118987553D01*
X128512553Y-118859501D01*
X128618996Y-118712994D01*
X128701211Y-118551639D01*
X128757171Y-118379409D01*
X128779482Y-118238541D01*
X128785500Y-118200549D01*
X128785500Y-118019450D01*
X129024500Y-118019450D01*
X129024500Y-118200549D01*
X129052828Y-118379406D01*
X129052829Y-118379409D01*
X129108789Y-118551639D01*
X129191004Y-118712994D01*
X129297447Y-118859501D01*
X129425499Y-118987553D01*
X129572006Y-119093996D01*
X129733361Y-119176211D01*
X129905591Y-119232171D01*
X129977136Y-119243502D01*
X130084451Y-119260500D01*
X130084454Y-119260500D01*
X130265549Y-119260500D01*
X130354977Y-119246335D01*
X130444409Y-119232171D01*
X130616639Y-119176211D01*
X130777994Y-119093996D01*
X130924501Y-118987553D01*
X131052553Y-118859501D01*
X131158996Y-118712994D01*
X131241211Y-118551639D01*
X131297171Y-118379409D01*
X131319482Y-118238541D01*
X131325500Y-118200549D01*
X131325500Y-118019450D01*
X154424500Y-118019450D01*
X154424500Y-118200549D01*
X154452828Y-118379406D01*
X154452829Y-118379409D01*
X154508789Y-118551639D01*
X154591004Y-118712994D01*
X154697447Y-118859501D01*
X154825499Y-118987553D01*
X154972006Y-119093996D01*
X155133361Y-119176211D01*
X155305591Y-119232171D01*
X155377136Y-119243502D01*
X155484451Y-119260500D01*
X155484454Y-119260500D01*
X155665549Y-119260500D01*
X155754977Y-119246335D01*
X155844409Y-119232171D01*
X156016639Y-119176211D01*
X156177994Y-119093996D01*
X156324501Y-118987553D01*
X156452553Y-118859501D01*
X156558996Y-118712994D01*
X156641211Y-118551639D01*
X156697171Y-118379409D01*
X156719482Y-118238541D01*
X156725500Y-118200549D01*
X156725500Y-118019450D01*
X156964500Y-118019450D01*
X156964500Y-118200549D01*
X156992828Y-118379406D01*
X156992829Y-118379409D01*
X157048789Y-118551639D01*
X157131004Y-118712994D01*
X157237447Y-118859501D01*
X157365499Y-118987553D01*
X157512006Y-119093996D01*
X157673361Y-119176211D01*
X157845591Y-119232171D01*
X157917136Y-119243502D01*
X158024451Y-119260500D01*
X158024454Y-119260500D01*
X158205549Y-119260500D01*
X158294977Y-119246335D01*
X158384409Y-119232171D01*
X158556639Y-119176211D01*
X158717994Y-119093996D01*
X158864501Y-118987553D01*
X158992553Y-118859501D01*
X159098996Y-118712994D01*
X159181211Y-118551639D01*
X159237171Y-118379409D01*
X159259482Y-118238541D01*
X159265500Y-118200549D01*
X159265500Y-118019450D01*
X159237171Y-117840593D01*
X159237171Y-117840591D01*
X159181211Y-117668361D01*
X159098996Y-117507006D01*
X158992553Y-117360499D01*
X158864501Y-117232447D01*
X158717994Y-117126004D01*
X158717993Y-117126003D01*
X158717991Y-117126002D01*
X158556637Y-117043788D01*
X158384406Y-116987828D01*
X158205549Y-116959500D01*
X158205546Y-116959500D01*
X158024454Y-116959500D01*
X158024451Y-116959500D01*
X157845593Y-116987828D01*
X157673362Y-117043788D01*
X157512008Y-117126002D01*
X157438752Y-117179225D01*
X157365499Y-117232447D01*
X157237447Y-117360499D01*
X157184225Y-117433752D01*
X157131002Y-117507008D01*
X157048788Y-117668362D01*
X156992828Y-117840593D01*
X156964500Y-118019450D01*
X156725500Y-118019450D01*
X156697171Y-117840593D01*
X156697171Y-117840591D01*
X156641211Y-117668361D01*
X156558996Y-117507006D01*
X156452553Y-117360499D01*
X156324501Y-117232447D01*
X156177994Y-117126004D01*
X156177993Y-117126003D01*
X156177991Y-117126002D01*
X156016637Y-117043788D01*
X155844406Y-116987828D01*
X155665549Y-116959500D01*
X155665546Y-116959500D01*
X155484454Y-116959500D01*
X155484451Y-116959500D01*
X155305593Y-116987828D01*
X155133362Y-117043788D01*
X154972008Y-117126002D01*
X154898752Y-117179225D01*
X154825499Y-117232447D01*
X154697447Y-117360499D01*
X154644225Y-117433752D01*
X154591002Y-117507008D01*
X154508788Y-117668362D01*
X154452828Y-117840593D01*
X154424500Y-118019450D01*
X131325500Y-118019450D01*
X131297171Y-117840593D01*
X131297171Y-117840591D01*
X131241211Y-117668361D01*
X131158996Y-117507006D01*
X131052553Y-117360499D01*
X130924501Y-117232447D01*
X130777994Y-117126004D01*
X130777993Y-117126003D01*
X130777991Y-117126002D01*
X130616637Y-117043788D01*
X130444406Y-116987828D01*
X130265549Y-116959500D01*
X130265546Y-116959500D01*
X130084454Y-116959500D01*
X130084451Y-116959500D01*
X129905593Y-116987828D01*
X129733362Y-117043788D01*
X129572008Y-117126002D01*
X129498752Y-117179225D01*
X129425499Y-117232447D01*
X129297447Y-117360499D01*
X129244225Y-117433752D01*
X129191002Y-117507008D01*
X129108788Y-117668362D01*
X129052828Y-117840593D01*
X129024500Y-118019450D01*
X128785500Y-118019450D01*
X128757171Y-117840593D01*
X128757171Y-117840591D01*
X128701211Y-117668361D01*
X128618996Y-117507006D01*
X128512553Y-117360499D01*
X128384501Y-117232447D01*
X128237994Y-117126004D01*
X128237993Y-117126003D01*
X128237991Y-117126002D01*
X128076637Y-117043788D01*
X127904406Y-116987828D01*
X127725549Y-116959500D01*
X127725546Y-116959500D01*
X127544454Y-116959500D01*
X127544451Y-116959500D01*
X127365593Y-116987828D01*
X127193362Y-117043788D01*
X127032008Y-117126002D01*
X126958752Y-117179225D01*
X126885499Y-117232447D01*
X126757447Y-117360499D01*
X126704225Y-117433752D01*
X126651002Y-117507008D01*
X126568788Y-117668362D01*
X126512828Y-117840593D01*
X126497281Y-117938754D01*
X126469504Y-117993271D01*
X126414987Y-118021048D01*
X126354555Y-118011477D01*
X126311290Y-117968212D01*
X126300500Y-117923267D01*
X126300500Y-115756732D01*
X126319407Y-115698541D01*
X126368907Y-115662577D01*
X126430093Y-115662577D01*
X126479593Y-115698541D01*
X126497281Y-115741245D01*
X126512828Y-115839406D01*
X126512829Y-115839409D01*
X126568789Y-116011639D01*
X126651004Y-116172994D01*
X126757447Y-116319501D01*
X126885499Y-116447553D01*
X127032006Y-116553996D01*
X127193361Y-116636211D01*
X127365591Y-116692171D01*
X127437136Y-116703502D01*
X127544451Y-116720500D01*
X127544454Y-116720500D01*
X127725549Y-116720500D01*
X127814977Y-116706335D01*
X127904409Y-116692171D01*
X128076639Y-116636211D01*
X128237994Y-116553996D01*
X128384501Y-116447553D01*
X128512553Y-116319501D01*
X128618996Y-116172994D01*
X128701211Y-116011639D01*
X128757171Y-115839409D01*
X128779482Y-115698541D01*
X128785500Y-115660549D01*
X128785500Y-115479451D01*
X129024500Y-115479451D01*
X129024500Y-115660550D01*
X129052828Y-115839407D01*
X129108788Y-116011638D01*
X129191001Y-116172991D01*
X129191004Y-116172995D01*
X129297447Y-116319502D01*
X129425499Y-116447554D01*
X129572006Y-116553997D01*
X129733361Y-116636212D01*
X129905591Y-116692172D01*
X129977136Y-116703503D01*
X130084451Y-116720501D01*
X130084454Y-116720501D01*
X130265549Y-116720501D01*
X130354977Y-116706336D01*
X130444409Y-116692172D01*
X130616639Y-116636212D01*
X130777994Y-116553997D01*
X130924501Y-116447554D01*
X131052553Y-116319502D01*
X131158996Y-116172995D01*
X131241211Y-116011640D01*
X131297171Y-115839410D01*
X131312719Y-115741245D01*
X131325500Y-115660550D01*
X131325500Y-115479451D01*
X131325500Y-115479450D01*
X154424500Y-115479450D01*
X154424500Y-115660549D01*
X154452828Y-115839406D01*
X154452829Y-115839409D01*
X154508789Y-116011639D01*
X154591004Y-116172994D01*
X154697447Y-116319501D01*
X154825499Y-116447553D01*
X154972006Y-116553996D01*
X155133361Y-116636211D01*
X155305591Y-116692171D01*
X155377136Y-116703502D01*
X155484451Y-116720500D01*
X155484454Y-116720500D01*
X155665549Y-116720500D01*
X155754977Y-116706335D01*
X155844409Y-116692171D01*
X156016639Y-116636211D01*
X156177994Y-116553996D01*
X156324501Y-116447553D01*
X156452553Y-116319501D01*
X156558996Y-116172994D01*
X156641211Y-116011639D01*
X156697171Y-115839409D01*
X156719482Y-115698541D01*
X156725500Y-115660549D01*
X156725500Y-115479450D01*
X156964500Y-115479450D01*
X156964500Y-115660549D01*
X156992828Y-115839406D01*
X156992829Y-115839409D01*
X157048789Y-116011639D01*
X157131004Y-116172994D01*
X157237447Y-116319501D01*
X157365499Y-116447553D01*
X157512006Y-116553996D01*
X157673361Y-116636211D01*
X157845591Y-116692171D01*
X157917136Y-116703502D01*
X158024451Y-116720500D01*
X158024454Y-116720500D01*
X158205549Y-116720500D01*
X158294977Y-116706335D01*
X158384409Y-116692171D01*
X158556639Y-116636211D01*
X158717994Y-116553996D01*
X158864501Y-116447553D01*
X158992553Y-116319501D01*
X159098996Y-116172994D01*
X159181211Y-116011639D01*
X159237171Y-115839409D01*
X159259482Y-115698541D01*
X159265500Y-115660549D01*
X159265500Y-115479450D01*
X159237171Y-115300593D01*
X159237171Y-115300592D01*
X159237171Y-115300591D01*
X159181211Y-115128361D01*
X159098996Y-114967006D01*
X158992553Y-114820499D01*
X158864501Y-114692447D01*
X158717994Y-114586004D01*
X158717993Y-114586003D01*
X158717991Y-114586002D01*
X158556637Y-114503788D01*
X158384406Y-114447828D01*
X158205549Y-114419500D01*
X158205546Y-114419500D01*
X158024454Y-114419500D01*
X158024451Y-114419500D01*
X157845593Y-114447828D01*
X157673362Y-114503788D01*
X157512008Y-114586002D01*
X157475552Y-114612489D01*
X157365499Y-114692447D01*
X157237447Y-114820499D01*
X157222909Y-114840509D01*
X157131002Y-114967008D01*
X157048788Y-115128362D01*
X156992828Y-115300593D01*
X156964500Y-115479450D01*
X156725500Y-115479450D01*
X156697171Y-115300593D01*
X156697171Y-115300592D01*
X156697171Y-115300591D01*
X156641211Y-115128361D01*
X156558996Y-114967006D01*
X156452553Y-114820499D01*
X156324501Y-114692447D01*
X156177994Y-114586004D01*
X156177993Y-114586003D01*
X156177991Y-114586002D01*
X156016637Y-114503788D01*
X155844406Y-114447828D01*
X155665549Y-114419500D01*
X155665546Y-114419500D01*
X155484454Y-114419500D01*
X155484451Y-114419500D01*
X155305593Y-114447828D01*
X155133362Y-114503788D01*
X154972008Y-114586002D01*
X154935552Y-114612489D01*
X154825499Y-114692447D01*
X154697447Y-114820499D01*
X154682909Y-114840509D01*
X154591002Y-114967008D01*
X154508788Y-115128362D01*
X154452828Y-115300593D01*
X154424500Y-115479450D01*
X131325500Y-115479450D01*
X131297171Y-115300594D01*
X131297171Y-115300593D01*
X131297171Y-115300592D01*
X131241211Y-115128362D01*
X131158996Y-114967007D01*
X131052553Y-114820500D01*
X130924501Y-114692448D01*
X130777994Y-114586005D01*
X130777993Y-114586004D01*
X130777991Y-114586003D01*
X130616637Y-114503789D01*
X130444406Y-114447829D01*
X130265549Y-114419501D01*
X130265546Y-114419501D01*
X130084454Y-114419501D01*
X130084451Y-114419501D01*
X129905593Y-114447829D01*
X129733362Y-114503789D01*
X129572008Y-114586003D01*
X129498752Y-114639226D01*
X129425499Y-114692448D01*
X129297447Y-114820500D01*
X129282910Y-114840509D01*
X129191002Y-114967009D01*
X129108788Y-115128363D01*
X129052828Y-115300594D01*
X129024500Y-115479451D01*
X128785500Y-115479451D01*
X128785500Y-115479450D01*
X128757171Y-115300593D01*
X128757171Y-115300592D01*
X128757171Y-115300591D01*
X128701211Y-115128361D01*
X128618996Y-114967006D01*
X128512553Y-114820499D01*
X128384501Y-114692447D01*
X128237994Y-114586004D01*
X128237993Y-114586003D01*
X128237991Y-114586002D01*
X128076637Y-114503788D01*
X127904406Y-114447828D01*
X127725549Y-114419500D01*
X127725546Y-114419500D01*
X127544454Y-114419500D01*
X127544451Y-114419500D01*
X127365593Y-114447828D01*
X127193362Y-114503788D01*
X127032008Y-114586002D01*
X126995552Y-114612489D01*
X126885499Y-114692447D01*
X126757447Y-114820499D01*
X126742909Y-114840509D01*
X126651002Y-114967008D01*
X126568788Y-115128362D01*
X126512828Y-115300593D01*
X126497281Y-115398754D01*
X126469504Y-115453271D01*
X126414987Y-115481048D01*
X126354555Y-115471477D01*
X126311290Y-115428212D01*
X126300500Y-115383267D01*
X126300500Y-114327525D01*
X141579500Y-114327525D01*
X141579500Y-114472475D01*
X141587891Y-114503789D01*
X141617017Y-114612489D01*
X141689487Y-114738010D01*
X141689489Y-114738012D01*
X141689491Y-114738015D01*
X141791985Y-114840509D01*
X141791987Y-114840510D01*
X141791989Y-114840512D01*
X141917511Y-114912982D01*
X141917512Y-114912982D01*
X141917515Y-114912984D01*
X142057525Y-114950500D01*
X142057526Y-114950500D01*
X142202474Y-114950500D01*
X142202475Y-114950500D01*
X142342485Y-114912984D01*
X142342487Y-114912982D01*
X142342489Y-114912982D01*
X142468010Y-114840512D01*
X142468010Y-114840511D01*
X142468015Y-114840509D01*
X142570509Y-114738015D01*
X142642984Y-114612485D01*
X142680500Y-114472475D01*
X142680500Y-114327525D01*
X143149500Y-114327525D01*
X143149500Y-114472475D01*
X143157891Y-114503789D01*
X143187017Y-114612489D01*
X143259487Y-114738010D01*
X143259489Y-114738012D01*
X143259491Y-114738015D01*
X143361985Y-114840509D01*
X143361987Y-114840510D01*
X143361989Y-114840512D01*
X143487511Y-114912982D01*
X143487512Y-114912982D01*
X143487515Y-114912984D01*
X143627525Y-114950500D01*
X143627526Y-114950500D01*
X143772474Y-114950500D01*
X143772475Y-114950500D01*
X143912485Y-114912984D01*
X143912487Y-114912982D01*
X143912489Y-114912982D01*
X144038010Y-114840512D01*
X144038010Y-114840511D01*
X144038015Y-114840509D01*
X144140509Y-114738015D01*
X144212984Y-114612485D01*
X144250500Y-114472475D01*
X144250500Y-114327525D01*
X144212984Y-114187515D01*
X144212982Y-114187512D01*
X144212982Y-114187510D01*
X144140512Y-114061989D01*
X144140510Y-114061987D01*
X144140509Y-114061985D01*
X144086970Y-114008446D01*
X144059195Y-113953932D01*
X144068766Y-113893500D01*
X144112031Y-113850235D01*
X144136344Y-113842686D01*
X144136208Y-113842179D01*
X144142474Y-113840500D01*
X144142475Y-113840500D01*
X144282485Y-113802984D01*
X144282487Y-113802982D01*
X144282489Y-113802982D01*
X144408010Y-113730512D01*
X144408010Y-113730511D01*
X144408015Y-113730509D01*
X144510509Y-113628015D01*
X144565661Y-113532489D01*
X144582982Y-113502489D01*
X144582982Y-113502487D01*
X144582984Y-113502485D01*
X144620500Y-113362475D01*
X144620500Y-113217525D01*
X144582984Y-113077515D01*
X144582982Y-113077512D01*
X144582982Y-113077510D01*
X144573182Y-113060536D01*
X144548349Y-113017525D01*
X144919500Y-113017525D01*
X144919500Y-113162474D01*
X144957017Y-113302489D01*
X145029487Y-113428010D01*
X145029489Y-113428012D01*
X145029491Y-113428015D01*
X145131985Y-113530509D01*
X145131987Y-113530510D01*
X145131989Y-113530512D01*
X145257511Y-113602982D01*
X145257512Y-113602982D01*
X145257515Y-113602984D01*
X145397525Y-113640500D01*
X145397526Y-113640500D01*
X145542474Y-113640500D01*
X145542475Y-113640500D01*
X145682485Y-113602984D01*
X145682487Y-113602982D01*
X145682489Y-113602982D01*
X145808010Y-113530512D01*
X145808010Y-113530511D01*
X145808015Y-113530509D01*
X145910509Y-113428015D01*
X145982984Y-113302485D01*
X146020500Y-113162475D01*
X146020500Y-113017525D01*
X146005404Y-112961186D01*
X146005404Y-112961184D01*
X145999580Y-112939450D01*
X154424500Y-112939450D01*
X154424500Y-113120549D01*
X154452828Y-113299406D01*
X154508788Y-113471637D01*
X154588464Y-113628010D01*
X154591004Y-113632994D01*
X154697447Y-113779501D01*
X154825499Y-113907553D01*
X154972006Y-114013996D01*
X155133361Y-114096211D01*
X155305591Y-114152171D01*
X155377136Y-114163502D01*
X155484451Y-114180500D01*
X155484454Y-114180500D01*
X155665549Y-114180500D01*
X155754977Y-114166335D01*
X155844409Y-114152171D01*
X156016639Y-114096211D01*
X156177994Y-114013996D01*
X156324501Y-113907553D01*
X156452553Y-113779501D01*
X156558996Y-113632994D01*
X156641211Y-113471639D01*
X156697171Y-113299409D01*
X156718859Y-113162475D01*
X156725500Y-113120549D01*
X156725500Y-112939450D01*
X156964500Y-112939450D01*
X156964500Y-113120549D01*
X156992828Y-113299406D01*
X157048788Y-113471637D01*
X157128464Y-113628010D01*
X157131004Y-113632994D01*
X157237447Y-113779501D01*
X157365499Y-113907553D01*
X157512006Y-114013996D01*
X157673361Y-114096211D01*
X157845591Y-114152171D01*
X157917136Y-114163502D01*
X158024451Y-114180500D01*
X158024454Y-114180500D01*
X158205549Y-114180500D01*
X158294977Y-114166335D01*
X158384409Y-114152171D01*
X158556639Y-114096211D01*
X158717994Y-114013996D01*
X158864501Y-113907553D01*
X158992553Y-113779501D01*
X159098996Y-113632994D01*
X159181211Y-113471639D01*
X159237171Y-113299409D01*
X159258859Y-113162475D01*
X159265500Y-113120549D01*
X159265500Y-112939450D01*
X159244524Y-112807016D01*
X159237171Y-112760591D01*
X159181211Y-112588361D01*
X159098996Y-112427006D01*
X158992553Y-112280499D01*
X158864501Y-112152447D01*
X158717994Y-112046004D01*
X158717993Y-112046003D01*
X158717991Y-112046002D01*
X158556637Y-111963788D01*
X158384406Y-111907828D01*
X158205549Y-111879500D01*
X158205546Y-111879500D01*
X158024454Y-111879500D01*
X158024451Y-111879500D01*
X157845593Y-111907828D01*
X157673362Y-111963788D01*
X157512008Y-112046002D01*
X157438752Y-112099225D01*
X157365499Y-112152447D01*
X157237447Y-112280499D01*
X157196026Y-112337510D01*
X157131002Y-112427008D01*
X157048788Y-112588362D01*
X156992828Y-112760593D01*
X156964500Y-112939450D01*
X156725500Y-112939450D01*
X156704524Y-112807016D01*
X156697171Y-112760591D01*
X156641211Y-112588361D01*
X156558996Y-112427006D01*
X156452553Y-112280499D01*
X156324501Y-112152447D01*
X156177994Y-112046004D01*
X156177993Y-112046003D01*
X156177991Y-112046002D01*
X156016637Y-111963788D01*
X155844406Y-111907828D01*
X155665549Y-111879500D01*
X155665546Y-111879500D01*
X155484454Y-111879500D01*
X155484451Y-111879500D01*
X155305593Y-111907828D01*
X155133362Y-111963788D01*
X154972008Y-112046002D01*
X154898752Y-112099225D01*
X154825499Y-112152447D01*
X154697447Y-112280499D01*
X154656026Y-112337510D01*
X154591002Y-112427008D01*
X154508788Y-112588362D01*
X154452828Y-112760593D01*
X154424500Y-112939450D01*
X145999580Y-112939450D01*
X145982984Y-112877515D01*
X145982982Y-112877511D01*
X145910512Y-112751989D01*
X145910510Y-112751987D01*
X145910509Y-112751985D01*
X145808015Y-112649491D01*
X145808012Y-112649489D01*
X145808010Y-112649487D01*
X145682488Y-112577017D01*
X145682489Y-112577017D01*
X145652896Y-112569087D01*
X145542475Y-112539500D01*
X145397525Y-112539500D01*
X145335790Y-112556041D01*
X145257510Y-112577017D01*
X145131989Y-112649487D01*
X145029487Y-112751989D01*
X144957017Y-112877510D01*
X144919500Y-113017525D01*
X144548349Y-113017525D01*
X144510512Y-112951989D01*
X144510510Y-112951987D01*
X144510509Y-112951985D01*
X144408015Y-112849491D01*
X144408012Y-112849489D01*
X144408010Y-112849487D01*
X144282488Y-112777017D01*
X144282489Y-112777017D01*
X144221194Y-112760593D01*
X144142475Y-112739500D01*
X143997525Y-112739500D01*
X143950931Y-112751985D01*
X143857510Y-112777017D01*
X143731989Y-112849487D01*
X143629487Y-112951989D01*
X143557017Y-113077510D01*
X143519500Y-113217525D01*
X143519500Y-113362474D01*
X143557017Y-113502489D01*
X143629487Y-113628010D01*
X143629489Y-113628012D01*
X143629491Y-113628015D01*
X143683028Y-113681552D01*
X143710804Y-113736067D01*
X143701233Y-113796499D01*
X143657968Y-113839764D01*
X143633656Y-113847315D01*
X143633792Y-113847821D01*
X143627526Y-113849500D01*
X143627525Y-113849500D01*
X143570795Y-113864700D01*
X143487510Y-113887017D01*
X143361989Y-113959487D01*
X143259487Y-114061989D01*
X143187017Y-114187510D01*
X143187016Y-114187515D01*
X143149500Y-114327525D01*
X142680500Y-114327525D01*
X142642984Y-114187515D01*
X142642982Y-114187512D01*
X142642982Y-114187510D01*
X142570512Y-114061989D01*
X142570510Y-114061987D01*
X142570509Y-114061985D01*
X142468015Y-113959491D01*
X142468012Y-113959489D01*
X142468010Y-113959487D01*
X142342488Y-113887017D01*
X142342489Y-113887017D01*
X142280847Y-113870500D01*
X142202475Y-113849500D01*
X142057525Y-113849500D01*
X141979153Y-113870500D01*
X141917511Y-113887017D01*
X141894370Y-113900377D01*
X141894345Y-113900392D01*
X141791985Y-113959491D01*
X141770155Y-113981320D01*
X141770150Y-113981324D01*
X141689491Y-114061984D01*
X141689487Y-114061989D01*
X141617017Y-114187510D01*
X141617016Y-114187515D01*
X141579500Y-114327525D01*
X126300500Y-114327525D01*
X126300500Y-113216732D01*
X126319407Y-113158541D01*
X126368907Y-113122577D01*
X126430093Y-113122577D01*
X126479593Y-113158541D01*
X126497281Y-113201245D01*
X126512828Y-113299406D01*
X126568788Y-113471637D01*
X126648464Y-113628010D01*
X126651004Y-113632994D01*
X126757447Y-113779501D01*
X126885499Y-113907553D01*
X127032006Y-114013996D01*
X127193361Y-114096211D01*
X127365591Y-114152171D01*
X127437136Y-114163502D01*
X127544451Y-114180500D01*
X127544454Y-114180500D01*
X127725549Y-114180500D01*
X127814977Y-114166335D01*
X127904409Y-114152171D01*
X128076639Y-114096211D01*
X128237994Y-114013996D01*
X128384501Y-113907553D01*
X128512553Y-113779501D01*
X128618996Y-113632994D01*
X128701211Y-113471639D01*
X128757171Y-113299409D01*
X128778859Y-113162475D01*
X128785500Y-113120549D01*
X128785500Y-112939450D01*
X129024500Y-112939450D01*
X129024500Y-113120549D01*
X129052828Y-113299406D01*
X129108788Y-113471637D01*
X129188464Y-113628010D01*
X129191004Y-113632994D01*
X129297447Y-113779501D01*
X129425499Y-113907553D01*
X129572006Y-114013996D01*
X129733361Y-114096211D01*
X129905591Y-114152171D01*
X129977136Y-114163502D01*
X130084451Y-114180500D01*
X130084454Y-114180500D01*
X130265549Y-114180500D01*
X130354977Y-114166335D01*
X130444409Y-114152171D01*
X130616639Y-114096211D01*
X130777994Y-114013996D01*
X130924501Y-113907553D01*
X131052553Y-113779501D01*
X131158996Y-113632994D01*
X131241211Y-113471639D01*
X131297171Y-113299409D01*
X131305389Y-113247525D01*
X140869500Y-113247525D01*
X140869500Y-113392474D01*
X140907017Y-113532489D01*
X140979487Y-113658010D01*
X140979489Y-113658012D01*
X140979491Y-113658015D01*
X141081985Y-113760509D01*
X141081987Y-113760510D01*
X141081989Y-113760512D01*
X141207511Y-113832982D01*
X141207512Y-113832982D01*
X141207515Y-113832984D01*
X141347525Y-113870500D01*
X141347526Y-113870500D01*
X141492474Y-113870500D01*
X141492475Y-113870500D01*
X141632485Y-113832984D01*
X141758015Y-113760509D01*
X141860509Y-113658015D01*
X141877830Y-113628015D01*
X141932982Y-113532489D01*
X141932982Y-113532487D01*
X141932984Y-113532485D01*
X141970500Y-113392475D01*
X141970500Y-113247525D01*
X141932984Y-113107515D01*
X141932982Y-113107512D01*
X141932982Y-113107510D01*
X141860512Y-112981989D01*
X141860510Y-112981987D01*
X141860509Y-112981985D01*
X141758015Y-112879491D01*
X141758012Y-112879489D01*
X141758010Y-112879487D01*
X141632488Y-112807017D01*
X141632489Y-112807017D01*
X141602896Y-112799087D01*
X141492475Y-112769500D01*
X141347525Y-112769500D01*
X141285790Y-112786041D01*
X141207510Y-112807017D01*
X141081989Y-112879487D01*
X140979487Y-112981989D01*
X140907017Y-113107510D01*
X140869500Y-113247525D01*
X131305389Y-113247525D01*
X131308870Y-113225549D01*
X131325500Y-113120549D01*
X131325500Y-112939450D01*
X131304524Y-112807016D01*
X131297171Y-112760591D01*
X131241211Y-112588361D01*
X131184737Y-112477525D01*
X139749500Y-112477525D01*
X139749500Y-112622474D01*
X139787017Y-112762489D01*
X139859487Y-112888010D01*
X139859489Y-112888012D01*
X139859491Y-112888015D01*
X139961985Y-112990509D01*
X139961987Y-112990510D01*
X139961989Y-112990512D01*
X140087511Y-113062982D01*
X140087512Y-113062982D01*
X140087515Y-113062984D01*
X140227525Y-113100500D01*
X140227526Y-113100500D01*
X140372474Y-113100500D01*
X140372475Y-113100500D01*
X140512485Y-113062984D01*
X140512487Y-113062982D01*
X140512489Y-113062982D01*
X140638010Y-112990512D01*
X140638010Y-112990511D01*
X140638015Y-112990509D01*
X140740509Y-112888015D01*
X140762753Y-112849487D01*
X140812982Y-112762489D01*
X140812982Y-112762487D01*
X140812984Y-112762485D01*
X140850500Y-112622475D01*
X140850500Y-112477525D01*
X140812984Y-112337515D01*
X140812982Y-112337512D01*
X140812982Y-112337510D01*
X140740512Y-112211989D01*
X140740510Y-112211987D01*
X140740509Y-112211985D01*
X140638015Y-112109491D01*
X140638012Y-112109489D01*
X140638010Y-112109487D01*
X140512488Y-112037017D01*
X140512489Y-112037017D01*
X140482896Y-112029087D01*
X140372475Y-111999500D01*
X140227525Y-111999500D01*
X140165790Y-112016041D01*
X140087510Y-112037017D01*
X139961989Y-112109487D01*
X139859487Y-112211989D01*
X139787017Y-112337510D01*
X139749500Y-112477525D01*
X131184737Y-112477525D01*
X131158996Y-112427006D01*
X131052553Y-112280499D01*
X130924501Y-112152447D01*
X130777994Y-112046004D01*
X130777993Y-112046003D01*
X130777991Y-112046002D01*
X130616637Y-111963788D01*
X130444406Y-111907828D01*
X130265549Y-111879500D01*
X130265546Y-111879500D01*
X130084454Y-111879500D01*
X130084451Y-111879500D01*
X129905593Y-111907828D01*
X129733362Y-111963788D01*
X129572008Y-112046002D01*
X129498752Y-112099225D01*
X129425499Y-112152447D01*
X129297447Y-112280499D01*
X129256026Y-112337510D01*
X129191002Y-112427008D01*
X129108788Y-112588362D01*
X129052828Y-112760593D01*
X129024500Y-112939450D01*
X128785500Y-112939450D01*
X128764524Y-112807016D01*
X128757171Y-112760591D01*
X128701211Y-112588361D01*
X128618996Y-112427006D01*
X128512553Y-112280499D01*
X128384501Y-112152447D01*
X128237994Y-112046004D01*
X128237993Y-112046003D01*
X128237991Y-112046002D01*
X128076637Y-111963788D01*
X127904406Y-111907828D01*
X127725549Y-111879500D01*
X127725546Y-111879500D01*
X127544454Y-111879500D01*
X127544451Y-111879500D01*
X127365593Y-111907828D01*
X127193362Y-111963788D01*
X127032008Y-112046002D01*
X126958752Y-112099225D01*
X126885499Y-112152447D01*
X126757447Y-112280499D01*
X126716026Y-112337510D01*
X126651002Y-112427008D01*
X126568788Y-112588362D01*
X126512828Y-112760593D01*
X126497281Y-112858754D01*
X126469504Y-112913271D01*
X126414987Y-112941048D01*
X126354555Y-112931477D01*
X126311290Y-112888212D01*
X126300500Y-112843267D01*
X126300500Y-110676732D01*
X126319407Y-110618541D01*
X126368907Y-110582577D01*
X126430093Y-110582577D01*
X126479593Y-110618541D01*
X126497281Y-110661245D01*
X126512828Y-110759406D01*
X126568788Y-110931637D01*
X126639548Y-111070512D01*
X126651004Y-111092994D01*
X126757447Y-111239501D01*
X126885499Y-111367553D01*
X127032006Y-111473996D01*
X127193361Y-111556211D01*
X127365591Y-111612171D01*
X127437136Y-111623502D01*
X127544451Y-111640500D01*
X127544454Y-111640500D01*
X127725549Y-111640500D01*
X127814977Y-111626335D01*
X127904409Y-111612171D01*
X128076639Y-111556211D01*
X128237994Y-111473996D01*
X128384501Y-111367553D01*
X128512553Y-111239501D01*
X128618996Y-111092994D01*
X128701211Y-110931639D01*
X128757171Y-110759409D01*
X128772719Y-110661245D01*
X128785500Y-110580549D01*
X128785500Y-110399450D01*
X129024500Y-110399450D01*
X129024500Y-110580549D01*
X129052828Y-110759406D01*
X129108788Y-110931637D01*
X129179548Y-111070512D01*
X129191004Y-111092994D01*
X129297447Y-111239501D01*
X129425499Y-111367553D01*
X129572006Y-111473996D01*
X129733361Y-111556211D01*
X129905591Y-111612171D01*
X129977136Y-111623502D01*
X130084451Y-111640500D01*
X130084454Y-111640500D01*
X130265549Y-111640500D01*
X130354977Y-111626335D01*
X130444409Y-111612171D01*
X130616639Y-111556211D01*
X130777994Y-111473996D01*
X130924501Y-111367553D01*
X131052553Y-111239501D01*
X131158996Y-111092994D01*
X131241211Y-110931639D01*
X131249046Y-110907525D01*
X139719500Y-110907525D01*
X139719500Y-111052475D01*
X139730357Y-111092994D01*
X139757017Y-111192489D01*
X139829487Y-111318010D01*
X139829489Y-111318012D01*
X139829491Y-111318015D01*
X139931985Y-111420509D01*
X139931987Y-111420510D01*
X139931989Y-111420512D01*
X140057511Y-111492982D01*
X140057512Y-111492982D01*
X140057515Y-111492984D01*
X140197525Y-111530500D01*
X140197526Y-111530500D01*
X140342474Y-111530500D01*
X140342475Y-111530500D01*
X140482485Y-111492984D01*
X140482487Y-111492982D01*
X140482489Y-111492982D01*
X140608010Y-111420512D01*
X140608010Y-111420511D01*
X140608015Y-111420509D01*
X140710509Y-111318015D01*
X140782984Y-111192485D01*
X140820500Y-111052475D01*
X140820500Y-111038031D01*
X140839407Y-110979840D01*
X140888907Y-110943876D01*
X140950093Y-110943876D01*
X140989501Y-110968025D01*
X141091985Y-111070509D01*
X141091987Y-111070510D01*
X141091989Y-111070512D01*
X141217511Y-111142982D01*
X141217512Y-111142982D01*
X141217515Y-111142984D01*
X141357525Y-111180500D01*
X141357526Y-111180500D01*
X141502474Y-111180500D01*
X141502475Y-111180500D01*
X141642485Y-111142984D01*
X141642487Y-111142982D01*
X141642489Y-111142982D01*
X141768010Y-111070512D01*
X141768010Y-111070511D01*
X141768015Y-111070509D01*
X141870509Y-110968015D01*
X141876283Y-110958015D01*
X141942982Y-110842489D01*
X141942982Y-110842487D01*
X141942984Y-110842485D01*
X141980500Y-110702475D01*
X141980500Y-110557525D01*
X141942984Y-110417515D01*
X141942982Y-110417512D01*
X141942982Y-110417510D01*
X141870512Y-110291989D01*
X141870510Y-110291987D01*
X141870509Y-110291985D01*
X141798025Y-110219501D01*
X141770250Y-110164987D01*
X141779821Y-110104555D01*
X141823086Y-110061290D01*
X141856301Y-110053315D01*
X141856042Y-110051347D01*
X141862472Y-110050500D01*
X141862475Y-110050500D01*
X142002485Y-110012984D01*
X142002487Y-110012982D01*
X142002489Y-110012982D01*
X142128010Y-109940512D01*
X142128010Y-109940511D01*
X142128015Y-109940509D01*
X142230509Y-109838015D01*
X142302984Y-109712485D01*
X142340500Y-109572475D01*
X142340500Y-109557525D01*
X143299500Y-109557525D01*
X143299500Y-109702475D01*
X143309688Y-109740497D01*
X143337017Y-109842489D01*
X143409487Y-109968010D01*
X143409489Y-109968012D01*
X143409491Y-109968015D01*
X143511985Y-110070509D01*
X143608819Y-110126416D01*
X143649758Y-110171884D01*
X143656154Y-110232734D01*
X143632571Y-110276172D01*
X143633440Y-110276839D01*
X143629487Y-110281989D01*
X143557017Y-110407510D01*
X143519500Y-110547525D01*
X143519500Y-110692474D01*
X143557017Y-110832489D01*
X143629487Y-110958010D01*
X143629489Y-110958012D01*
X143629491Y-110958015D01*
X143731985Y-111060509D01*
X143731987Y-111060510D01*
X143731989Y-111060512D01*
X143857511Y-111132982D01*
X143857512Y-111132982D01*
X143857515Y-111132984D01*
X143997525Y-111170500D01*
X143997526Y-111170500D01*
X144142474Y-111170500D01*
X144142475Y-111170500D01*
X144282485Y-111132984D01*
X144282487Y-111132982D01*
X144282489Y-111132982D01*
X144408010Y-111060512D01*
X144408010Y-111060511D01*
X144408015Y-111060509D01*
X144499998Y-110968525D01*
X144554513Y-110940750D01*
X144614945Y-110950321D01*
X144640000Y-110968524D01*
X144741985Y-111070509D01*
X144741987Y-111070510D01*
X144741989Y-111070512D01*
X144867511Y-111142982D01*
X144867512Y-111142982D01*
X144867515Y-111142984D01*
X145007525Y-111180500D01*
X145007526Y-111180500D01*
X145152474Y-111180500D01*
X145152475Y-111180500D01*
X145292485Y-111142984D01*
X145292487Y-111142982D01*
X145292489Y-111142982D01*
X145418010Y-111070512D01*
X145418010Y-111070511D01*
X145418015Y-111070509D01*
X145520509Y-110968015D01*
X145526283Y-110958015D01*
X145592982Y-110842489D01*
X145592982Y-110842487D01*
X145592984Y-110842485D01*
X145630500Y-110702475D01*
X145630500Y-110557525D01*
X145592984Y-110417515D01*
X145582554Y-110399450D01*
X154424500Y-110399450D01*
X154424500Y-110580549D01*
X154452828Y-110759406D01*
X154508788Y-110931637D01*
X154579548Y-111070512D01*
X154591004Y-111092994D01*
X154697447Y-111239501D01*
X154825499Y-111367553D01*
X154972006Y-111473996D01*
X155133361Y-111556211D01*
X155305591Y-111612171D01*
X155377136Y-111623502D01*
X155484451Y-111640500D01*
X155484454Y-111640500D01*
X155665549Y-111640500D01*
X155754977Y-111626335D01*
X155844409Y-111612171D01*
X156016639Y-111556211D01*
X156177994Y-111473996D01*
X156324501Y-111367553D01*
X156452553Y-111239501D01*
X156558996Y-111092994D01*
X156641211Y-110931639D01*
X156697171Y-110759409D01*
X156712719Y-110661245D01*
X156725500Y-110580549D01*
X156725500Y-110399450D01*
X156964500Y-110399450D01*
X156964500Y-110580549D01*
X156992828Y-110759406D01*
X157048788Y-110931637D01*
X157119548Y-111070512D01*
X157131004Y-111092994D01*
X157237447Y-111239501D01*
X157365499Y-111367553D01*
X157512006Y-111473996D01*
X157673361Y-111556211D01*
X157845591Y-111612171D01*
X157917136Y-111623502D01*
X158024451Y-111640500D01*
X158024454Y-111640500D01*
X158205549Y-111640500D01*
X158294977Y-111626335D01*
X158384409Y-111612171D01*
X158556639Y-111556211D01*
X158717994Y-111473996D01*
X158864501Y-111367553D01*
X158992553Y-111239501D01*
X159098996Y-111092994D01*
X159181211Y-110931639D01*
X159237171Y-110759409D01*
X159252719Y-110661245D01*
X159265500Y-110580549D01*
X159265500Y-110399450D01*
X159237171Y-110220593D01*
X159237171Y-110220591D01*
X159181211Y-110048361D01*
X159098996Y-109887006D01*
X158992553Y-109740499D01*
X158864501Y-109612447D01*
X158717994Y-109506004D01*
X158717993Y-109506003D01*
X158717991Y-109506002D01*
X158556637Y-109423788D01*
X158384406Y-109367828D01*
X158205549Y-109339500D01*
X158205546Y-109339500D01*
X158024454Y-109339500D01*
X158024451Y-109339500D01*
X157845593Y-109367828D01*
X157673362Y-109423788D01*
X157512008Y-109506002D01*
X157441093Y-109557525D01*
X157365499Y-109612447D01*
X157237447Y-109740499D01*
X157184225Y-109813752D01*
X157131002Y-109887008D01*
X157048788Y-110048362D01*
X156992828Y-110220593D01*
X156964500Y-110399450D01*
X156725500Y-110399450D01*
X156697171Y-110220593D01*
X156697171Y-110220591D01*
X156641211Y-110048361D01*
X156558996Y-109887006D01*
X156452553Y-109740499D01*
X156324501Y-109612447D01*
X156177994Y-109506004D01*
X156177993Y-109506003D01*
X156177991Y-109506002D01*
X156016637Y-109423788D01*
X155844406Y-109367828D01*
X155665549Y-109339500D01*
X155665546Y-109339500D01*
X155484454Y-109339500D01*
X155484451Y-109339500D01*
X155305593Y-109367828D01*
X155133362Y-109423788D01*
X154972008Y-109506002D01*
X154901093Y-109557525D01*
X154825499Y-109612447D01*
X154697447Y-109740499D01*
X154644225Y-109813752D01*
X154591002Y-109887008D01*
X154508788Y-110048362D01*
X154452828Y-110220593D01*
X154424500Y-110399450D01*
X145582554Y-110399450D01*
X145552972Y-110348212D01*
X145520512Y-110291989D01*
X145520510Y-110291987D01*
X145520509Y-110291985D01*
X145418015Y-110189491D01*
X145418012Y-110189489D01*
X145418010Y-110189487D01*
X145292488Y-110117017D01*
X145292489Y-110117017D01*
X145245980Y-110104555D01*
X145152475Y-110079500D01*
X145007525Y-110079500D01*
X144945790Y-110096041D01*
X144867510Y-110117017D01*
X144741989Y-110189487D01*
X144741988Y-110189488D01*
X144741985Y-110189490D01*
X144741985Y-110189491D01*
X144650001Y-110281474D01*
X144595487Y-110309250D01*
X144535055Y-110299679D01*
X144509999Y-110281475D01*
X144408015Y-110179491D01*
X144311180Y-110123583D01*
X144270241Y-110078115D01*
X144263845Y-110017265D01*
X144287431Y-109973829D01*
X144286560Y-109973161D01*
X144290505Y-109968018D01*
X144290509Y-109968015D01*
X144362984Y-109842485D01*
X144400500Y-109702475D01*
X144400500Y-109557525D01*
X144362984Y-109417515D01*
X144362982Y-109417512D01*
X144362982Y-109417510D01*
X144290512Y-109291989D01*
X144290510Y-109291987D01*
X144290509Y-109291985D01*
X144188015Y-109189491D01*
X144188012Y-109189489D01*
X144188010Y-109189487D01*
X144062488Y-109117017D01*
X144062489Y-109117017D01*
X144000843Y-109100499D01*
X143922475Y-109079500D01*
X143777525Y-109079500D01*
X143715790Y-109096041D01*
X143637510Y-109117017D01*
X143511989Y-109189487D01*
X143409487Y-109291989D01*
X143337017Y-109417510D01*
X143313306Y-109506002D01*
X143299500Y-109557525D01*
X142340500Y-109557525D01*
X142340500Y-109427525D01*
X142302984Y-109287515D01*
X142302982Y-109287512D01*
X142302982Y-109287510D01*
X142230512Y-109161989D01*
X142230510Y-109161987D01*
X142230509Y-109161985D01*
X142128015Y-109059491D01*
X142128012Y-109059489D01*
X142128010Y-109059487D01*
X142002488Y-108987017D01*
X142002489Y-108987017D01*
X141972896Y-108979087D01*
X141862475Y-108949500D01*
X141717525Y-108949500D01*
X141655790Y-108966041D01*
X141577510Y-108987017D01*
X141451989Y-109059487D01*
X141349487Y-109161989D01*
X141277017Y-109287510D01*
X141239500Y-109427525D01*
X141239500Y-109572474D01*
X141277017Y-109712489D01*
X141349487Y-109838010D01*
X141349489Y-109838012D01*
X141349491Y-109838015D01*
X141421974Y-109910498D01*
X141449750Y-109965013D01*
X141440179Y-110025445D01*
X141396914Y-110068710D01*
X141363698Y-110076684D01*
X141363958Y-110078653D01*
X141357527Y-110079499D01*
X141217510Y-110117017D01*
X141091989Y-110189487D01*
X140989487Y-110291989D01*
X140917017Y-110417510D01*
X140879500Y-110557525D01*
X140879500Y-110571969D01*
X140860593Y-110630160D01*
X140811093Y-110666124D01*
X140749907Y-110666124D01*
X140710498Y-110641974D01*
X140608015Y-110539491D01*
X140608012Y-110539489D01*
X140608010Y-110539487D01*
X140482488Y-110467017D01*
X140482489Y-110467017D01*
X140452896Y-110459087D01*
X140342475Y-110429500D01*
X140197525Y-110429500D01*
X140135790Y-110446041D01*
X140057510Y-110467017D01*
X139931989Y-110539487D01*
X139829487Y-110641989D01*
X139757017Y-110767510D01*
X139734562Y-110851313D01*
X139719500Y-110907525D01*
X131249046Y-110907525D01*
X131297171Y-110759409D01*
X131312719Y-110661245D01*
X131325500Y-110580549D01*
X131325500Y-110399450D01*
X131297171Y-110220593D01*
X131297171Y-110220591D01*
X131241211Y-110048361D01*
X131158996Y-109887006D01*
X131052553Y-109740499D01*
X130924501Y-109612447D01*
X130777994Y-109506004D01*
X130777993Y-109506003D01*
X130777991Y-109506002D01*
X130616637Y-109423788D01*
X130444406Y-109367828D01*
X130265549Y-109339500D01*
X130265546Y-109339500D01*
X130084454Y-109339500D01*
X130084451Y-109339500D01*
X129905593Y-109367828D01*
X129733362Y-109423788D01*
X129572008Y-109506002D01*
X129501093Y-109557525D01*
X129425499Y-109612447D01*
X129297447Y-109740499D01*
X129244225Y-109813752D01*
X129191002Y-109887008D01*
X129108788Y-110048362D01*
X129052828Y-110220593D01*
X129024500Y-110399450D01*
X128785500Y-110399450D01*
X128757171Y-110220593D01*
X128757171Y-110220591D01*
X128701211Y-110048361D01*
X128618996Y-109887006D01*
X128512553Y-109740499D01*
X128384501Y-109612447D01*
X128237994Y-109506004D01*
X128237993Y-109506003D01*
X128237991Y-109506002D01*
X128076637Y-109423788D01*
X127904406Y-109367828D01*
X127725549Y-109339500D01*
X127725546Y-109339500D01*
X127544454Y-109339500D01*
X127544451Y-109339500D01*
X127365593Y-109367828D01*
X127193362Y-109423788D01*
X127032008Y-109506002D01*
X126961093Y-109557525D01*
X126885499Y-109612447D01*
X126757447Y-109740499D01*
X126704225Y-109813752D01*
X126651002Y-109887008D01*
X126568788Y-110048362D01*
X126512828Y-110220593D01*
X126497281Y-110318754D01*
X126469504Y-110373271D01*
X126414987Y-110401048D01*
X126354555Y-110391477D01*
X126311290Y-110348212D01*
X126300500Y-110303267D01*
X126300500Y-108136732D01*
X126319407Y-108078541D01*
X126368907Y-108042577D01*
X126430093Y-108042577D01*
X126479593Y-108078541D01*
X126497281Y-108121245D01*
X126512828Y-108219406D01*
X126568788Y-108391637D01*
X126651001Y-108552990D01*
X126651004Y-108552994D01*
X126757447Y-108699501D01*
X126885499Y-108827553D01*
X127032006Y-108933996D01*
X127193361Y-109016211D01*
X127365591Y-109072171D01*
X127411865Y-109079500D01*
X127544451Y-109100500D01*
X127544454Y-109100500D01*
X127725549Y-109100500D01*
X127814977Y-109086335D01*
X127904409Y-109072171D01*
X128076639Y-109016211D01*
X128237994Y-108933996D01*
X128384501Y-108827553D01*
X128512553Y-108699501D01*
X128618996Y-108552994D01*
X128701211Y-108391639D01*
X128757171Y-108219409D01*
X128779482Y-108078541D01*
X128785500Y-108040549D01*
X128785500Y-107859450D01*
X129024500Y-107859450D01*
X129024500Y-108040549D01*
X129052828Y-108219406D01*
X129108788Y-108391637D01*
X129191001Y-108552990D01*
X129191004Y-108552994D01*
X129297447Y-108699501D01*
X129425499Y-108827553D01*
X129572006Y-108933996D01*
X129733361Y-109016211D01*
X129905591Y-109072171D01*
X129951865Y-109079500D01*
X130084451Y-109100500D01*
X130084454Y-109100500D01*
X130265549Y-109100500D01*
X130354977Y-109086335D01*
X130444409Y-109072171D01*
X130616639Y-109016211D01*
X130777994Y-108933996D01*
X130924501Y-108827553D01*
X131052553Y-108699501D01*
X131158996Y-108552994D01*
X131241211Y-108391639D01*
X131297171Y-108219409D01*
X131319482Y-108078541D01*
X131325500Y-108040549D01*
X131325500Y-107859450D01*
X131325500Y-107859449D01*
X154424500Y-107859449D01*
X154424500Y-108040548D01*
X154452828Y-108219405D01*
X154452829Y-108219408D01*
X154508789Y-108391638D01*
X154591004Y-108552993D01*
X154697447Y-108699500D01*
X154825499Y-108827552D01*
X154972006Y-108933995D01*
X155133361Y-109016210D01*
X155305591Y-109072170D01*
X155377136Y-109083501D01*
X155484451Y-109100499D01*
X155484454Y-109100499D01*
X155665549Y-109100499D01*
X155754977Y-109086334D01*
X155844409Y-109072170D01*
X156016639Y-109016210D01*
X156177994Y-108933995D01*
X156324501Y-108827552D01*
X156452553Y-108699500D01*
X156558996Y-108552993D01*
X156641211Y-108391638D01*
X156697171Y-108219408D01*
X156719482Y-108078541D01*
X156725500Y-108040548D01*
X156725500Y-107859450D01*
X156964500Y-107859450D01*
X156964500Y-108040549D01*
X156992828Y-108219406D01*
X157048788Y-108391637D01*
X157131001Y-108552990D01*
X157131004Y-108552994D01*
X157237447Y-108699501D01*
X157365499Y-108827553D01*
X157512006Y-108933996D01*
X157673361Y-109016211D01*
X157845591Y-109072171D01*
X157891865Y-109079500D01*
X158024451Y-109100500D01*
X158024454Y-109100500D01*
X158205549Y-109100500D01*
X158294977Y-109086335D01*
X158384409Y-109072171D01*
X158556639Y-109016211D01*
X158717994Y-108933996D01*
X158864501Y-108827553D01*
X158992553Y-108699501D01*
X159098996Y-108552994D01*
X159181211Y-108391639D01*
X159237171Y-108219409D01*
X159259482Y-108078541D01*
X159265500Y-108040549D01*
X159265500Y-107859450D01*
X159237171Y-107680593D01*
X159237171Y-107680592D01*
X159237171Y-107680591D01*
X159181211Y-107508361D01*
X159098996Y-107347006D01*
X158992553Y-107200499D01*
X158864501Y-107072447D01*
X158717994Y-106966004D01*
X158717993Y-106966003D01*
X158717991Y-106966002D01*
X158556637Y-106883788D01*
X158384406Y-106827828D01*
X158205549Y-106799500D01*
X158205546Y-106799500D01*
X158024454Y-106799500D01*
X158024451Y-106799500D01*
X157845593Y-106827828D01*
X157673362Y-106883788D01*
X157512008Y-106966002D01*
X157438752Y-107019225D01*
X157365499Y-107072447D01*
X157237447Y-107200499D01*
X157184225Y-107273752D01*
X157131002Y-107347008D01*
X157048788Y-107508362D01*
X156992828Y-107680593D01*
X156964500Y-107859450D01*
X156725500Y-107859450D01*
X156725500Y-107859449D01*
X156697171Y-107680592D01*
X156697171Y-107680591D01*
X156697171Y-107680590D01*
X156641211Y-107508360D01*
X156558996Y-107347005D01*
X156452553Y-107200498D01*
X156324501Y-107072446D01*
X156177994Y-106966003D01*
X156177993Y-106966002D01*
X156177991Y-106966001D01*
X156016637Y-106883787D01*
X155844406Y-106827827D01*
X155665549Y-106799499D01*
X155665546Y-106799499D01*
X155484454Y-106799499D01*
X155484451Y-106799499D01*
X155305593Y-106827827D01*
X155133362Y-106883787D01*
X154972008Y-106966001D01*
X154898752Y-107019224D01*
X154825499Y-107072446D01*
X154697447Y-107200498D01*
X154644225Y-107273751D01*
X154591002Y-107347007D01*
X154508788Y-107508361D01*
X154452828Y-107680592D01*
X154424500Y-107859449D01*
X131325500Y-107859449D01*
X131297171Y-107680593D01*
X131297171Y-107680592D01*
X131297171Y-107680591D01*
X131241211Y-107508361D01*
X131158996Y-107347006D01*
X131052553Y-107200499D01*
X130924501Y-107072447D01*
X130777994Y-106966004D01*
X130777993Y-106966003D01*
X130777991Y-106966002D01*
X130616637Y-106883788D01*
X130444406Y-106827828D01*
X130265549Y-106799500D01*
X130265546Y-106799500D01*
X130084454Y-106799500D01*
X130084451Y-106799500D01*
X129905593Y-106827828D01*
X129733362Y-106883788D01*
X129572008Y-106966002D01*
X129498752Y-107019225D01*
X129425499Y-107072447D01*
X129297447Y-107200499D01*
X129244225Y-107273752D01*
X129191002Y-107347008D01*
X129108788Y-107508362D01*
X129052828Y-107680593D01*
X129024500Y-107859450D01*
X128785500Y-107859450D01*
X128757171Y-107680593D01*
X128757171Y-107680592D01*
X128757171Y-107680591D01*
X128701211Y-107508361D01*
X128618996Y-107347006D01*
X128512553Y-107200499D01*
X128384501Y-107072447D01*
X128237994Y-106966004D01*
X128237993Y-106966003D01*
X128237991Y-106966002D01*
X128076637Y-106883788D01*
X127904406Y-106827828D01*
X127725549Y-106799500D01*
X127725546Y-106799500D01*
X127544454Y-106799500D01*
X127544451Y-106799500D01*
X127365593Y-106827828D01*
X127193362Y-106883788D01*
X127032008Y-106966002D01*
X126958752Y-107019225D01*
X126885499Y-107072447D01*
X126757447Y-107200499D01*
X126704225Y-107273752D01*
X126651002Y-107347008D01*
X126568788Y-107508362D01*
X126512828Y-107680593D01*
X126497281Y-107778754D01*
X126469504Y-107833271D01*
X126414987Y-107861048D01*
X126354555Y-107851477D01*
X126311290Y-107808212D01*
X126300500Y-107763267D01*
X126300500Y-105596732D01*
X126319407Y-105538541D01*
X126368907Y-105502577D01*
X126430093Y-105502577D01*
X126479593Y-105538541D01*
X126497281Y-105581245D01*
X126512828Y-105679406D01*
X126512829Y-105679409D01*
X126568789Y-105851639D01*
X126651004Y-106012994D01*
X126757447Y-106159501D01*
X126885499Y-106287553D01*
X127032006Y-106393996D01*
X127193361Y-106476211D01*
X127365591Y-106532171D01*
X127437136Y-106543502D01*
X127544451Y-106560500D01*
X127544454Y-106560500D01*
X127725549Y-106560500D01*
X127814977Y-106546335D01*
X127904409Y-106532171D01*
X128076639Y-106476211D01*
X128237994Y-106393996D01*
X128384501Y-106287553D01*
X128512553Y-106159501D01*
X128618996Y-106012994D01*
X128701211Y-105851639D01*
X128757171Y-105679409D01*
X128779482Y-105538541D01*
X128785500Y-105500549D01*
X128785500Y-105319450D01*
X129024500Y-105319450D01*
X129024500Y-105500549D01*
X129052828Y-105679406D01*
X129052829Y-105679409D01*
X129108789Y-105851639D01*
X129191004Y-106012994D01*
X129297447Y-106159501D01*
X129425499Y-106287553D01*
X129572006Y-106393996D01*
X129733361Y-106476211D01*
X129905591Y-106532171D01*
X129977136Y-106543502D01*
X130084451Y-106560500D01*
X130084454Y-106560500D01*
X130265549Y-106560500D01*
X130354977Y-106546335D01*
X130444409Y-106532171D01*
X130616639Y-106476211D01*
X130777994Y-106393996D01*
X130924501Y-106287553D01*
X131052553Y-106159501D01*
X131158996Y-106012994D01*
X131241211Y-105851639D01*
X131297171Y-105679409D01*
X131319482Y-105538541D01*
X131325500Y-105500549D01*
X131325500Y-105319450D01*
X154424500Y-105319450D01*
X154424500Y-105500549D01*
X154452828Y-105679406D01*
X154452829Y-105679409D01*
X154508789Y-105851639D01*
X154591004Y-106012994D01*
X154697447Y-106159501D01*
X154825499Y-106287553D01*
X154972006Y-106393996D01*
X155133361Y-106476211D01*
X155305591Y-106532171D01*
X155377136Y-106543502D01*
X155484451Y-106560500D01*
X155484454Y-106560500D01*
X155665549Y-106560500D01*
X155754977Y-106546335D01*
X155844409Y-106532171D01*
X156016639Y-106476211D01*
X156177994Y-106393996D01*
X156324501Y-106287553D01*
X156452553Y-106159501D01*
X156558996Y-106012994D01*
X156641211Y-105851639D01*
X156697171Y-105679409D01*
X156719482Y-105538541D01*
X156725500Y-105500549D01*
X156725500Y-105319450D01*
X156964500Y-105319450D01*
X156964500Y-105500549D01*
X156992828Y-105679406D01*
X156992829Y-105679409D01*
X157048789Y-105851639D01*
X157131004Y-106012994D01*
X157237447Y-106159501D01*
X157365499Y-106287553D01*
X157512006Y-106393996D01*
X157673361Y-106476211D01*
X157845591Y-106532171D01*
X157917136Y-106543502D01*
X158024451Y-106560500D01*
X158024454Y-106560500D01*
X158205549Y-106560500D01*
X158294977Y-106546335D01*
X158384409Y-106532171D01*
X158556639Y-106476211D01*
X158717994Y-106393996D01*
X158864501Y-106287553D01*
X158992553Y-106159501D01*
X159098996Y-106012994D01*
X159181211Y-105851639D01*
X159237171Y-105679409D01*
X159259482Y-105538541D01*
X159265500Y-105500549D01*
X159265500Y-105319450D01*
X159237171Y-105140593D01*
X159237171Y-105140591D01*
X159181211Y-104968361D01*
X159098996Y-104807006D01*
X158992553Y-104660499D01*
X158864501Y-104532447D01*
X158717994Y-104426004D01*
X158717993Y-104426003D01*
X158717991Y-104426002D01*
X158556637Y-104343788D01*
X158384406Y-104287828D01*
X158205549Y-104259500D01*
X158205546Y-104259500D01*
X158024454Y-104259500D01*
X158024451Y-104259500D01*
X157845593Y-104287828D01*
X157673362Y-104343788D01*
X157512008Y-104426002D01*
X157438752Y-104479225D01*
X157365499Y-104532447D01*
X157237447Y-104660499D01*
X157184225Y-104733752D01*
X157131002Y-104807008D01*
X157048788Y-104968362D01*
X156992828Y-105140593D01*
X156964500Y-105319450D01*
X156725500Y-105319450D01*
X156697171Y-105140593D01*
X156697171Y-105140591D01*
X156641211Y-104968361D01*
X156558996Y-104807006D01*
X156452553Y-104660499D01*
X156324501Y-104532447D01*
X156177994Y-104426004D01*
X156177993Y-104426003D01*
X156177991Y-104426002D01*
X156016637Y-104343788D01*
X155844406Y-104287828D01*
X155665549Y-104259500D01*
X155665546Y-104259500D01*
X155484454Y-104259500D01*
X155484451Y-104259500D01*
X155305593Y-104287828D01*
X155133362Y-104343788D01*
X154972008Y-104426002D01*
X154898752Y-104479225D01*
X154825499Y-104532447D01*
X154697447Y-104660499D01*
X154644225Y-104733752D01*
X154591002Y-104807008D01*
X154508788Y-104968362D01*
X154452828Y-105140593D01*
X154424500Y-105319450D01*
X131325500Y-105319450D01*
X131297171Y-105140593D01*
X131297171Y-105140591D01*
X131241211Y-104968361D01*
X131158996Y-104807006D01*
X131052553Y-104660499D01*
X130924501Y-104532447D01*
X130777994Y-104426004D01*
X130777993Y-104426003D01*
X130777991Y-104426002D01*
X130616637Y-104343788D01*
X130444406Y-104287828D01*
X130265549Y-104259500D01*
X130265546Y-104259500D01*
X130084454Y-104259500D01*
X130084451Y-104259500D01*
X129905593Y-104287828D01*
X129733362Y-104343788D01*
X129572008Y-104426002D01*
X129498752Y-104479225D01*
X129425499Y-104532447D01*
X129297447Y-104660499D01*
X129244225Y-104733752D01*
X129191002Y-104807008D01*
X129108788Y-104968362D01*
X129052828Y-105140593D01*
X129024500Y-105319450D01*
X128785500Y-105319450D01*
X128757171Y-105140593D01*
X128757171Y-105140591D01*
X128701211Y-104968361D01*
X128618996Y-104807006D01*
X128512553Y-104660499D01*
X128384501Y-104532447D01*
X128237994Y-104426004D01*
X128237993Y-104426003D01*
X128237991Y-104426002D01*
X128076637Y-104343788D01*
X127904406Y-104287828D01*
X127725549Y-104259500D01*
X127725546Y-104259500D01*
X127544454Y-104259500D01*
X127544451Y-104259500D01*
X127365593Y-104287828D01*
X127193362Y-104343788D01*
X127032008Y-104426002D01*
X126958752Y-104479225D01*
X126885499Y-104532447D01*
X126757447Y-104660499D01*
X126704225Y-104733752D01*
X126651002Y-104807008D01*
X126568788Y-104968362D01*
X126512828Y-105140593D01*
X126497281Y-105238754D01*
X126469504Y-105293271D01*
X126414987Y-105321048D01*
X126354555Y-105311477D01*
X126311290Y-105268212D01*
X126300500Y-105223267D01*
X126300500Y-103056732D01*
X126319407Y-102998541D01*
X126368907Y-102962577D01*
X126430093Y-102962577D01*
X126479593Y-102998541D01*
X126497281Y-103041245D01*
X126512828Y-103139406D01*
X126568788Y-103311637D01*
X126650871Y-103472734D01*
X126651004Y-103472994D01*
X126757447Y-103619501D01*
X126885499Y-103747553D01*
X127032006Y-103853996D01*
X127193361Y-103936211D01*
X127365591Y-103992171D01*
X127437136Y-104003502D01*
X127544451Y-104020500D01*
X127544454Y-104020500D01*
X127725549Y-104020500D01*
X127814977Y-104006335D01*
X127904409Y-103992171D01*
X128076639Y-103936211D01*
X128237994Y-103853996D01*
X128384501Y-103747553D01*
X128512553Y-103619501D01*
X128618996Y-103472994D01*
X128701211Y-103311639D01*
X128757171Y-103139409D01*
X128776083Y-103020001D01*
X128785500Y-102960549D01*
X128785500Y-102779488D01*
X129025000Y-102779488D01*
X129025000Y-102960509D01*
X129053316Y-103139288D01*
X129109250Y-103311439D01*
X129191430Y-103472727D01*
X129262424Y-103570441D01*
X129731328Y-103101535D01*
X129774901Y-103177006D01*
X129867993Y-103270098D01*
X129943460Y-103313669D01*
X129474556Y-103782573D01*
X129474556Y-103782574D01*
X129572263Y-103853563D01*
X129572269Y-103853567D01*
X129733559Y-103935748D01*
X129905710Y-103991682D01*
X130084490Y-104019999D01*
X130265510Y-104019999D01*
X130444289Y-103991682D01*
X130616440Y-103935748D01*
X130777730Y-103853567D01*
X130777735Y-103853563D01*
X130875442Y-103782574D01*
X130875442Y-103782573D01*
X130406538Y-103313669D01*
X130482007Y-103270098D01*
X130575099Y-103177006D01*
X130618670Y-103101537D01*
X131087574Y-103570441D01*
X131087575Y-103570441D01*
X131158564Y-103472734D01*
X131158568Y-103472729D01*
X131240749Y-103311439D01*
X131296683Y-103139288D01*
X131324525Y-102963506D01*
X131324526Y-102963503D01*
X131324526Y-102963501D01*
X131325000Y-102960509D01*
X131325000Y-102779488D01*
X131296683Y-102600709D01*
X131240749Y-102428558D01*
X131158568Y-102267268D01*
X131158564Y-102267262D01*
X131087575Y-102169555D01*
X131087574Y-102169555D01*
X130618670Y-102638459D01*
X130575099Y-102562992D01*
X130482007Y-102469900D01*
X130406536Y-102426327D01*
X130857663Y-101975202D01*
X154425000Y-101975202D01*
X154425000Y-102719999D01*
X154425001Y-102720000D01*
X155097555Y-102720000D01*
X155075000Y-102804174D01*
X155075000Y-102935826D01*
X155097555Y-103020000D01*
X154425002Y-103020000D01*
X154425001Y-103020001D01*
X154425001Y-103764791D01*
X154427909Y-103789874D01*
X154473213Y-103892477D01*
X154552522Y-103971786D01*
X154655127Y-104017090D01*
X154680203Y-104019999D01*
X155424998Y-104019999D01*
X155425000Y-104019998D01*
X155425000Y-103347445D01*
X155509174Y-103370000D01*
X155640826Y-103370000D01*
X155725000Y-103347445D01*
X155725000Y-104019998D01*
X155725001Y-104019999D01*
X156469790Y-104019999D01*
X156469791Y-104019998D01*
X156494874Y-104017090D01*
X156597477Y-103971786D01*
X156676786Y-103892477D01*
X156722090Y-103789872D01*
X156724999Y-103764797D01*
X156725000Y-103764795D01*
X156725000Y-103020001D01*
X156724999Y-103020000D01*
X156052445Y-103020000D01*
X156075000Y-102935826D01*
X156075000Y-102804174D01*
X156068375Y-102779450D01*
X156964500Y-102779450D01*
X156964500Y-102960549D01*
X156992828Y-103139406D01*
X157048788Y-103311637D01*
X157130871Y-103472734D01*
X157131004Y-103472994D01*
X157237447Y-103619501D01*
X157365499Y-103747553D01*
X157512006Y-103853996D01*
X157673361Y-103936211D01*
X157845591Y-103992171D01*
X157917136Y-104003502D01*
X158024451Y-104020500D01*
X158024454Y-104020500D01*
X158205549Y-104020500D01*
X158294977Y-104006335D01*
X158384409Y-103992171D01*
X158556639Y-103936211D01*
X158717994Y-103853996D01*
X158864501Y-103747553D01*
X158992553Y-103619501D01*
X159098996Y-103472994D01*
X159181211Y-103311639D01*
X159237171Y-103139409D01*
X159256083Y-103020001D01*
X159265500Y-102960549D01*
X159265500Y-102779450D01*
X159246242Y-102657865D01*
X159237171Y-102600591D01*
X159181211Y-102428361D01*
X159098996Y-102267006D01*
X158992553Y-102120499D01*
X158864501Y-101992447D01*
X158717994Y-101886004D01*
X158717993Y-101886003D01*
X158717991Y-101886002D01*
X158556637Y-101803788D01*
X158384406Y-101747828D01*
X158205549Y-101719500D01*
X158205546Y-101719500D01*
X158024454Y-101719500D01*
X158024451Y-101719500D01*
X157845593Y-101747828D01*
X157673362Y-101803788D01*
X157512008Y-101886002D01*
X157438752Y-101939225D01*
X157365499Y-101992447D01*
X157237447Y-102120499D01*
X157201806Y-102169555D01*
X157131002Y-102267008D01*
X157048788Y-102428362D01*
X156992828Y-102600593D01*
X156964500Y-102779450D01*
X156068375Y-102779450D01*
X156052445Y-102720000D01*
X156724998Y-102720000D01*
X156724999Y-102719999D01*
X156724999Y-101975210D01*
X156724998Y-101975208D01*
X156722090Y-101950125D01*
X156676786Y-101847522D01*
X156597477Y-101768213D01*
X156494872Y-101722909D01*
X156469797Y-101720000D01*
X155725001Y-101720000D01*
X155725000Y-101720001D01*
X155725000Y-102392554D01*
X155640826Y-102370000D01*
X155509174Y-102370000D01*
X155425000Y-102392554D01*
X155425000Y-101720001D01*
X155424999Y-101720000D01*
X154680210Y-101720000D01*
X154680207Y-101720001D01*
X154655125Y-101722909D01*
X154552522Y-101768213D01*
X154473213Y-101847522D01*
X154427909Y-101950127D01*
X154425000Y-101975202D01*
X130857663Y-101975202D01*
X130875442Y-101957423D01*
X130777728Y-101886429D01*
X130616440Y-101804249D01*
X130444289Y-101748315D01*
X130265510Y-101719999D01*
X130084490Y-101719999D01*
X129905710Y-101748315D01*
X129733559Y-101804249D01*
X129572269Y-101886430D01*
X129572265Y-101886432D01*
X129474556Y-101957422D01*
X129943461Y-102426327D01*
X129867993Y-102469900D01*
X129774901Y-102562992D01*
X129731328Y-102638460D01*
X129262423Y-102169555D01*
X129191433Y-102267264D01*
X129191431Y-102267268D01*
X129109250Y-102428558D01*
X129053316Y-102600709D01*
X129025000Y-102779488D01*
X128785500Y-102779488D01*
X128785500Y-102779450D01*
X128766242Y-102657865D01*
X128757171Y-102600591D01*
X128701211Y-102428361D01*
X128618996Y-102267006D01*
X128512553Y-102120499D01*
X128384501Y-101992447D01*
X128237994Y-101886004D01*
X128237993Y-101886003D01*
X128237991Y-101886002D01*
X128076637Y-101803788D01*
X127904406Y-101747828D01*
X127725549Y-101719500D01*
X127725546Y-101719500D01*
X127544454Y-101719500D01*
X127544451Y-101719500D01*
X127365593Y-101747828D01*
X127193362Y-101803788D01*
X127032008Y-101886002D01*
X126958752Y-101939225D01*
X126885499Y-101992447D01*
X126757447Y-102120499D01*
X126721806Y-102169555D01*
X126651002Y-102267008D01*
X126568788Y-102428362D01*
X126512828Y-102600593D01*
X126497281Y-102698754D01*
X126469504Y-102753271D01*
X126414987Y-102781048D01*
X126354555Y-102771477D01*
X126311290Y-102728212D01*
X126300500Y-102683267D01*
X126300500Y-99435202D01*
X132835000Y-99435202D01*
X132835000Y-100179999D01*
X132835001Y-100180000D01*
X133507555Y-100180000D01*
X133485000Y-100264174D01*
X133485000Y-100395826D01*
X133507555Y-100480000D01*
X132835002Y-100480000D01*
X132835001Y-100480001D01*
X132835001Y-101224791D01*
X132837909Y-101249874D01*
X132883213Y-101352477D01*
X132962522Y-101431786D01*
X133065127Y-101477090D01*
X133090203Y-101479999D01*
X133834998Y-101479999D01*
X133835000Y-101479998D01*
X133835000Y-100807445D01*
X133919174Y-100830000D01*
X134050826Y-100830000D01*
X134135000Y-100807445D01*
X134135000Y-101479998D01*
X134135001Y-101479999D01*
X134879790Y-101479999D01*
X134879791Y-101479998D01*
X134904874Y-101477090D01*
X135007477Y-101431786D01*
X135086786Y-101352477D01*
X135132090Y-101249872D01*
X135134999Y-101224797D01*
X135135000Y-101224795D01*
X135135000Y-100480001D01*
X135134999Y-100480000D01*
X134462445Y-100480000D01*
X134485000Y-100395826D01*
X134485000Y-100264174D01*
X134478375Y-100239450D01*
X135374500Y-100239450D01*
X135374500Y-100420549D01*
X135402828Y-100599406D01*
X135458788Y-100771637D01*
X135488525Y-100830000D01*
X135541004Y-100932994D01*
X135647447Y-101079501D01*
X135775499Y-101207553D01*
X135922006Y-101313996D01*
X136083361Y-101396211D01*
X136255591Y-101452171D01*
X136327136Y-101463502D01*
X136434451Y-101480500D01*
X136434454Y-101480500D01*
X136615549Y-101480500D01*
X136704977Y-101466335D01*
X136794409Y-101452171D01*
X136966639Y-101396211D01*
X137127994Y-101313996D01*
X137274501Y-101207553D01*
X137402553Y-101079501D01*
X137508996Y-100932994D01*
X137591211Y-100771639D01*
X137647171Y-100599409D01*
X137666083Y-100480001D01*
X137675500Y-100420549D01*
X137675500Y-100239450D01*
X137914499Y-100239450D01*
X137914499Y-100420549D01*
X137942827Y-100599406D01*
X137998787Y-100771637D01*
X138028524Y-100830000D01*
X138081003Y-100932994D01*
X138187446Y-101079501D01*
X138315498Y-101207553D01*
X138462005Y-101313996D01*
X138623360Y-101396211D01*
X138795590Y-101452171D01*
X138867135Y-101463502D01*
X138974450Y-101480500D01*
X138974453Y-101480500D01*
X139155548Y-101480500D01*
X139244976Y-101466335D01*
X139334408Y-101452171D01*
X139506638Y-101396211D01*
X139667993Y-101313996D01*
X139814500Y-101207553D01*
X139942552Y-101079501D01*
X140048995Y-100932994D01*
X140131210Y-100771639D01*
X140187170Y-100599409D01*
X140206082Y-100480001D01*
X140215499Y-100420549D01*
X140215499Y-100239450D01*
X140454500Y-100239450D01*
X140454500Y-100420549D01*
X140482828Y-100599406D01*
X140538788Y-100771637D01*
X140568525Y-100830000D01*
X140621004Y-100932994D01*
X140727447Y-101079501D01*
X140855499Y-101207553D01*
X141002006Y-101313996D01*
X141163361Y-101396211D01*
X141335591Y-101452171D01*
X141407136Y-101463502D01*
X141514451Y-101480500D01*
X141514454Y-101480500D01*
X141695549Y-101480500D01*
X141784977Y-101466335D01*
X141874409Y-101452171D01*
X142046639Y-101396211D01*
X142207994Y-101313996D01*
X142354501Y-101207553D01*
X142482553Y-101079501D01*
X142588996Y-100932994D01*
X142671211Y-100771639D01*
X142727171Y-100599409D01*
X142746083Y-100480001D01*
X142755500Y-100420549D01*
X142755500Y-100239450D01*
X142994500Y-100239450D01*
X142994500Y-100420549D01*
X143022828Y-100599406D01*
X143078788Y-100771637D01*
X143108525Y-100830000D01*
X143161004Y-100932994D01*
X143267447Y-101079501D01*
X143395499Y-101207553D01*
X143542006Y-101313996D01*
X143703361Y-101396211D01*
X143875591Y-101452171D01*
X143947136Y-101463502D01*
X144054451Y-101480500D01*
X144054454Y-101480500D01*
X144235549Y-101480500D01*
X144324977Y-101466335D01*
X144414409Y-101452171D01*
X144586639Y-101396211D01*
X144747994Y-101313996D01*
X144894501Y-101207553D01*
X145022553Y-101079501D01*
X145128996Y-100932994D01*
X145211211Y-100771639D01*
X145267171Y-100599409D01*
X145286083Y-100480001D01*
X145295500Y-100420549D01*
X145295500Y-100239450D01*
X145534500Y-100239450D01*
X145534500Y-100420549D01*
X145562828Y-100599406D01*
X145618788Y-100771637D01*
X145648525Y-100830000D01*
X145701004Y-100932994D01*
X145807447Y-101079501D01*
X145935499Y-101207553D01*
X146082006Y-101313996D01*
X146243361Y-101396211D01*
X146415591Y-101452171D01*
X146487136Y-101463502D01*
X146594451Y-101480500D01*
X146594454Y-101480500D01*
X146775549Y-101480500D01*
X146864977Y-101466335D01*
X146954409Y-101452171D01*
X147126639Y-101396211D01*
X147287994Y-101313996D01*
X147434501Y-101207553D01*
X147562553Y-101079501D01*
X147668996Y-100932994D01*
X147751211Y-100771639D01*
X147807171Y-100599409D01*
X147826083Y-100480001D01*
X147835500Y-100420549D01*
X147835500Y-100239450D01*
X148074500Y-100239450D01*
X148074500Y-100420549D01*
X148102828Y-100599406D01*
X148158788Y-100771637D01*
X148188525Y-100830000D01*
X148241004Y-100932994D01*
X148347447Y-101079501D01*
X148475499Y-101207553D01*
X148622006Y-101313996D01*
X148783361Y-101396211D01*
X148955591Y-101452171D01*
X149027136Y-101463502D01*
X149134451Y-101480500D01*
X149134454Y-101480500D01*
X149315549Y-101480500D01*
X149404977Y-101466335D01*
X149494409Y-101452171D01*
X149666639Y-101396211D01*
X149827994Y-101313996D01*
X149974501Y-101207553D01*
X150102553Y-101079501D01*
X150208996Y-100932994D01*
X150291211Y-100771639D01*
X150347171Y-100599409D01*
X150366083Y-100480001D01*
X150375500Y-100420549D01*
X150375500Y-100239489D01*
X150615001Y-100239489D01*
X150615001Y-100420510D01*
X150643317Y-100599289D01*
X150699251Y-100771440D01*
X150781431Y-100932728D01*
X150852425Y-101030442D01*
X151321329Y-100561536D01*
X151364902Y-100637007D01*
X151457994Y-100730099D01*
X151533461Y-100773670D01*
X151064557Y-101242574D01*
X151064557Y-101242575D01*
X151162264Y-101313564D01*
X151162270Y-101313568D01*
X151323560Y-101395749D01*
X151495711Y-101451683D01*
X151674491Y-101480000D01*
X151855511Y-101480000D01*
X152034290Y-101451683D01*
X152206441Y-101395749D01*
X152367731Y-101313568D01*
X152367736Y-101313564D01*
X152465443Y-101242575D01*
X152465443Y-101242574D01*
X151996539Y-100773670D01*
X152072008Y-100730099D01*
X152165100Y-100637007D01*
X152208671Y-100561538D01*
X152677575Y-101030442D01*
X152677576Y-101030442D01*
X152748565Y-100932735D01*
X152748569Y-100932730D01*
X152830750Y-100771440D01*
X152886684Y-100599289D01*
X152915001Y-100420510D01*
X152915001Y-100239489D01*
X152886684Y-100060710D01*
X152830750Y-99888559D01*
X152748569Y-99727269D01*
X152748565Y-99727263D01*
X152677576Y-99629556D01*
X152677575Y-99629556D01*
X152208671Y-100098460D01*
X152165100Y-100022993D01*
X152072008Y-99929901D01*
X151996537Y-99886328D01*
X152465443Y-99417424D01*
X152367729Y-99346430D01*
X152206441Y-99264250D01*
X152034290Y-99208316D01*
X151855511Y-99180000D01*
X151674491Y-99180000D01*
X151495711Y-99208316D01*
X151323560Y-99264250D01*
X151162270Y-99346431D01*
X151162266Y-99346433D01*
X151064557Y-99417423D01*
X151533462Y-99886328D01*
X151457994Y-99929901D01*
X151364902Y-100022993D01*
X151321329Y-100098461D01*
X150852424Y-99629556D01*
X150781434Y-99727265D01*
X150781432Y-99727269D01*
X150699251Y-99888559D01*
X150643317Y-100060710D01*
X150615001Y-100239489D01*
X150375500Y-100239489D01*
X150375500Y-100239450D01*
X150347171Y-100060593D01*
X150347171Y-100060591D01*
X150291211Y-99888361D01*
X150208996Y-99727006D01*
X150102553Y-99580499D01*
X149974501Y-99452447D01*
X149827994Y-99346004D01*
X149827993Y-99346003D01*
X149827991Y-99346002D01*
X149666637Y-99263788D01*
X149494406Y-99207828D01*
X149315549Y-99179500D01*
X149315546Y-99179500D01*
X149134454Y-99179500D01*
X149134451Y-99179500D01*
X148955593Y-99207828D01*
X148783362Y-99263788D01*
X148622008Y-99346002D01*
X148548752Y-99399225D01*
X148475499Y-99452447D01*
X148347447Y-99580499D01*
X148311805Y-99629556D01*
X148241002Y-99727008D01*
X148158788Y-99888362D01*
X148102828Y-100060593D01*
X148074500Y-100239450D01*
X147835500Y-100239450D01*
X147807171Y-100060593D01*
X147807171Y-100060591D01*
X147751211Y-99888361D01*
X147668996Y-99727006D01*
X147562553Y-99580499D01*
X147434501Y-99452447D01*
X147287994Y-99346004D01*
X147287993Y-99346003D01*
X147287991Y-99346002D01*
X147126637Y-99263788D01*
X146954406Y-99207828D01*
X146775549Y-99179500D01*
X146775546Y-99179500D01*
X146594454Y-99179500D01*
X146594451Y-99179500D01*
X146415593Y-99207828D01*
X146243362Y-99263788D01*
X146082008Y-99346002D01*
X146008752Y-99399225D01*
X145935499Y-99452447D01*
X145807447Y-99580499D01*
X145771805Y-99629556D01*
X145701002Y-99727008D01*
X145618788Y-99888362D01*
X145562828Y-100060593D01*
X145534500Y-100239450D01*
X145295500Y-100239450D01*
X145267171Y-100060593D01*
X145267171Y-100060591D01*
X145211211Y-99888361D01*
X145128996Y-99727006D01*
X145022553Y-99580499D01*
X144894501Y-99452447D01*
X144747994Y-99346004D01*
X144747993Y-99346003D01*
X144747991Y-99346002D01*
X144586637Y-99263788D01*
X144414406Y-99207828D01*
X144235549Y-99179500D01*
X144235546Y-99179500D01*
X144054454Y-99179500D01*
X144054451Y-99179500D01*
X143875593Y-99207828D01*
X143703362Y-99263788D01*
X143542008Y-99346002D01*
X143468752Y-99399225D01*
X143395499Y-99452447D01*
X143267447Y-99580499D01*
X143231805Y-99629556D01*
X143161002Y-99727008D01*
X143078788Y-99888362D01*
X143022828Y-100060593D01*
X142994500Y-100239450D01*
X142755500Y-100239450D01*
X142727171Y-100060593D01*
X142727171Y-100060591D01*
X142671211Y-99888361D01*
X142588996Y-99727006D01*
X142482553Y-99580499D01*
X142354501Y-99452447D01*
X142207994Y-99346004D01*
X142207993Y-99346003D01*
X142207991Y-99346002D01*
X142046637Y-99263788D01*
X141874406Y-99207828D01*
X141695549Y-99179500D01*
X141695546Y-99179500D01*
X141514454Y-99179500D01*
X141514451Y-99179500D01*
X141335593Y-99207828D01*
X141163362Y-99263788D01*
X141002008Y-99346002D01*
X140928752Y-99399225D01*
X140855499Y-99452447D01*
X140727447Y-99580499D01*
X140691805Y-99629556D01*
X140621002Y-99727008D01*
X140538788Y-99888362D01*
X140482828Y-100060593D01*
X140454500Y-100239450D01*
X140215499Y-100239450D01*
X140187170Y-100060593D01*
X140187170Y-100060591D01*
X140131210Y-99888361D01*
X140048995Y-99727006D01*
X139942552Y-99580499D01*
X139814500Y-99452447D01*
X139667993Y-99346004D01*
X139667992Y-99346003D01*
X139667990Y-99346002D01*
X139506636Y-99263788D01*
X139334405Y-99207828D01*
X139155548Y-99179500D01*
X139155545Y-99179500D01*
X138974453Y-99179500D01*
X138974450Y-99179500D01*
X138795592Y-99207828D01*
X138623361Y-99263788D01*
X138462007Y-99346002D01*
X138388751Y-99399225D01*
X138315498Y-99452447D01*
X138187446Y-99580499D01*
X138151804Y-99629556D01*
X138081001Y-99727008D01*
X137998787Y-99888362D01*
X137942827Y-100060593D01*
X137914499Y-100239450D01*
X137675500Y-100239450D01*
X137647171Y-100060593D01*
X137647171Y-100060591D01*
X137591211Y-99888361D01*
X137508996Y-99727006D01*
X137402553Y-99580499D01*
X137274501Y-99452447D01*
X137127994Y-99346004D01*
X137127993Y-99346003D01*
X137127991Y-99346002D01*
X136966637Y-99263788D01*
X136794406Y-99207828D01*
X136615549Y-99179500D01*
X136615546Y-99179500D01*
X136434454Y-99179500D01*
X136434451Y-99179500D01*
X136255593Y-99207828D01*
X136083362Y-99263788D01*
X135922008Y-99346002D01*
X135848752Y-99399225D01*
X135775499Y-99452447D01*
X135647447Y-99580499D01*
X135611805Y-99629556D01*
X135541002Y-99727008D01*
X135458788Y-99888362D01*
X135402828Y-100060593D01*
X135374500Y-100239450D01*
X134478375Y-100239450D01*
X134462445Y-100180000D01*
X135134998Y-100180000D01*
X135134999Y-100179999D01*
X135134999Y-99435210D01*
X135134998Y-99435208D01*
X135132090Y-99410125D01*
X135086786Y-99307522D01*
X135007477Y-99228213D01*
X134904872Y-99182909D01*
X134879797Y-99180000D01*
X134135001Y-99180000D01*
X134135000Y-99180001D01*
X134135000Y-99852554D01*
X134050826Y-99830000D01*
X133919174Y-99830000D01*
X133835000Y-99852554D01*
X133835000Y-99180001D01*
X133834999Y-99180000D01*
X133090210Y-99180000D01*
X133090207Y-99180001D01*
X133065125Y-99182909D01*
X132962522Y-99228213D01*
X132883213Y-99307522D01*
X132837909Y-99410127D01*
X132835000Y-99435202D01*
X126300500Y-99435202D01*
X126300500Y-97699450D01*
X132834500Y-97699450D01*
X132834500Y-97880549D01*
X132862828Y-98059406D01*
X132862829Y-98059409D01*
X132918789Y-98231639D01*
X133001004Y-98392994D01*
X133107447Y-98539501D01*
X133235499Y-98667553D01*
X133382006Y-98773996D01*
X133543361Y-98856211D01*
X133715591Y-98912171D01*
X133787136Y-98923502D01*
X133894451Y-98940500D01*
X133894454Y-98940500D01*
X134075549Y-98940500D01*
X134164977Y-98926335D01*
X134254409Y-98912171D01*
X134426639Y-98856211D01*
X134587994Y-98773996D01*
X134734501Y-98667553D01*
X134862553Y-98539501D01*
X134968996Y-98392994D01*
X135051211Y-98231639D01*
X135107171Y-98059409D01*
X135135500Y-97880546D01*
X135135500Y-97699454D01*
X135135500Y-97699450D01*
X135374500Y-97699450D01*
X135374500Y-97880549D01*
X135402828Y-98059406D01*
X135402829Y-98059409D01*
X135458789Y-98231639D01*
X135541004Y-98392994D01*
X135647447Y-98539501D01*
X135775499Y-98667553D01*
X135922006Y-98773996D01*
X136083361Y-98856211D01*
X136255591Y-98912171D01*
X136327136Y-98923502D01*
X136434451Y-98940500D01*
X136434454Y-98940500D01*
X136615549Y-98940500D01*
X136704977Y-98926335D01*
X136794409Y-98912171D01*
X136966639Y-98856211D01*
X137127994Y-98773996D01*
X137274501Y-98667553D01*
X137402553Y-98539501D01*
X137508996Y-98392994D01*
X137591211Y-98231639D01*
X137647171Y-98059409D01*
X137675500Y-97880546D01*
X137675500Y-97699454D01*
X137675500Y-97699450D01*
X137914500Y-97699450D01*
X137914500Y-97880549D01*
X137942828Y-98059406D01*
X137942829Y-98059409D01*
X137998789Y-98231639D01*
X138081004Y-98392994D01*
X138187447Y-98539501D01*
X138315499Y-98667553D01*
X138462006Y-98773996D01*
X138623361Y-98856211D01*
X138795591Y-98912171D01*
X138867136Y-98923502D01*
X138974451Y-98940500D01*
X138974454Y-98940500D01*
X139155549Y-98940500D01*
X139244977Y-98926335D01*
X139334409Y-98912171D01*
X139506639Y-98856211D01*
X139667994Y-98773996D01*
X139814501Y-98667553D01*
X139942553Y-98539501D01*
X140048996Y-98392994D01*
X140131211Y-98231639D01*
X140187171Y-98059409D01*
X140215500Y-97880546D01*
X140215500Y-97699454D01*
X140215500Y-97699450D01*
X140454500Y-97699450D01*
X140454500Y-97880549D01*
X140482828Y-98059406D01*
X140482829Y-98059409D01*
X140538789Y-98231639D01*
X140621004Y-98392994D01*
X140727447Y-98539501D01*
X140855499Y-98667553D01*
X141002006Y-98773996D01*
X141163361Y-98856211D01*
X141335591Y-98912171D01*
X141407136Y-98923502D01*
X141514451Y-98940500D01*
X141514454Y-98940500D01*
X141695549Y-98940500D01*
X141784977Y-98926335D01*
X141874409Y-98912171D01*
X142046639Y-98856211D01*
X142207994Y-98773996D01*
X142354501Y-98667553D01*
X142482553Y-98539501D01*
X142588996Y-98392994D01*
X142671211Y-98231639D01*
X142727171Y-98059409D01*
X142755500Y-97880546D01*
X142755500Y-97699454D01*
X142755500Y-97699450D01*
X142994500Y-97699450D01*
X142994500Y-97880549D01*
X143022828Y-98059406D01*
X143022829Y-98059409D01*
X143078789Y-98231639D01*
X143161004Y-98392994D01*
X143267447Y-98539501D01*
X143395499Y-98667553D01*
X143542006Y-98773996D01*
X143703361Y-98856211D01*
X143875591Y-98912171D01*
X143947136Y-98923502D01*
X144054451Y-98940500D01*
X144054454Y-98940500D01*
X144235549Y-98940500D01*
X144324977Y-98926335D01*
X144414409Y-98912171D01*
X144586639Y-98856211D01*
X144747994Y-98773996D01*
X144894501Y-98667553D01*
X145022553Y-98539501D01*
X145128996Y-98392994D01*
X145211211Y-98231639D01*
X145267171Y-98059409D01*
X145295500Y-97880546D01*
X145295500Y-97699454D01*
X145295500Y-97699450D01*
X145534500Y-97699450D01*
X145534500Y-97880549D01*
X145562828Y-98059406D01*
X145562829Y-98059409D01*
X145618789Y-98231639D01*
X145701004Y-98392994D01*
X145807447Y-98539501D01*
X145935499Y-98667553D01*
X146082006Y-98773996D01*
X146243361Y-98856211D01*
X146415591Y-98912171D01*
X146487136Y-98923502D01*
X146594451Y-98940500D01*
X146594454Y-98940500D01*
X146775549Y-98940500D01*
X146864977Y-98926335D01*
X146954409Y-98912171D01*
X147126639Y-98856211D01*
X147287994Y-98773996D01*
X147434501Y-98667553D01*
X147562553Y-98539501D01*
X147668996Y-98392994D01*
X147751211Y-98231639D01*
X147807171Y-98059409D01*
X147835500Y-97880546D01*
X147835500Y-97699454D01*
X147835500Y-97699450D01*
X148074500Y-97699450D01*
X148074500Y-97880549D01*
X148102828Y-98059406D01*
X148102829Y-98059409D01*
X148158789Y-98231639D01*
X148241004Y-98392994D01*
X148347447Y-98539501D01*
X148475499Y-98667553D01*
X148622006Y-98773996D01*
X148783361Y-98856211D01*
X148955591Y-98912171D01*
X149027136Y-98923502D01*
X149134451Y-98940500D01*
X149134454Y-98940500D01*
X149315549Y-98940500D01*
X149404977Y-98926335D01*
X149494409Y-98912171D01*
X149666639Y-98856211D01*
X149827994Y-98773996D01*
X149974501Y-98667553D01*
X150102553Y-98539501D01*
X150208996Y-98392994D01*
X150291211Y-98231639D01*
X150347171Y-98059409D01*
X150375500Y-97880546D01*
X150375500Y-97699454D01*
X150375500Y-97699450D01*
X150614500Y-97699450D01*
X150614500Y-97880549D01*
X150642828Y-98059406D01*
X150642829Y-98059409D01*
X150698789Y-98231639D01*
X150781004Y-98392994D01*
X150887447Y-98539501D01*
X151015499Y-98667553D01*
X151162006Y-98773996D01*
X151323361Y-98856211D01*
X151495591Y-98912171D01*
X151567136Y-98923502D01*
X151674451Y-98940500D01*
X151674454Y-98940500D01*
X151855549Y-98940500D01*
X151944977Y-98926335D01*
X152034409Y-98912171D01*
X152206639Y-98856211D01*
X152367994Y-98773996D01*
X152514501Y-98667553D01*
X152642553Y-98539501D01*
X152748996Y-98392994D01*
X152831211Y-98231639D01*
X152887171Y-98059409D01*
X152915500Y-97880546D01*
X152915500Y-97699454D01*
X152915500Y-97699450D01*
X152887171Y-97520593D01*
X152887171Y-97520591D01*
X152831211Y-97348361D01*
X152748996Y-97187006D01*
X152642553Y-97040499D01*
X152514501Y-96912447D01*
X152367994Y-96806004D01*
X152367993Y-96806003D01*
X152367991Y-96806002D01*
X152206637Y-96723788D01*
X152034406Y-96667828D01*
X151855549Y-96639500D01*
X151855546Y-96639500D01*
X151674454Y-96639500D01*
X151674451Y-96639500D01*
X151495593Y-96667828D01*
X151323362Y-96723788D01*
X151162008Y-96806002D01*
X151088752Y-96859225D01*
X151015499Y-96912447D01*
X150887447Y-97040499D01*
X150834225Y-97113752D01*
X150781002Y-97187008D01*
X150698788Y-97348362D01*
X150642828Y-97520593D01*
X150614500Y-97699450D01*
X150375500Y-97699450D01*
X150347171Y-97520593D01*
X150347171Y-97520591D01*
X150291211Y-97348361D01*
X150208996Y-97187006D01*
X150102553Y-97040499D01*
X149974501Y-96912447D01*
X149827994Y-96806004D01*
X149827993Y-96806003D01*
X149827991Y-96806002D01*
X149666637Y-96723788D01*
X149494406Y-96667828D01*
X149315549Y-96639500D01*
X149315546Y-96639500D01*
X149134454Y-96639500D01*
X149134451Y-96639500D01*
X148955593Y-96667828D01*
X148783362Y-96723788D01*
X148622008Y-96806002D01*
X148548752Y-96859225D01*
X148475499Y-96912447D01*
X148347447Y-97040499D01*
X148294225Y-97113752D01*
X148241002Y-97187008D01*
X148158788Y-97348362D01*
X148102828Y-97520593D01*
X148074500Y-97699450D01*
X147835500Y-97699450D01*
X147807171Y-97520593D01*
X147807171Y-97520591D01*
X147751211Y-97348361D01*
X147668996Y-97187006D01*
X147562553Y-97040499D01*
X147434501Y-96912447D01*
X147287994Y-96806004D01*
X147287993Y-96806003D01*
X147287991Y-96806002D01*
X147126637Y-96723788D01*
X146954406Y-96667828D01*
X146775549Y-96639500D01*
X146775546Y-96639500D01*
X146594454Y-96639500D01*
X146594451Y-96639500D01*
X146415593Y-96667828D01*
X146243362Y-96723788D01*
X146082008Y-96806002D01*
X146008752Y-96859225D01*
X145935499Y-96912447D01*
X145807447Y-97040499D01*
X145754225Y-97113752D01*
X145701002Y-97187008D01*
X145618788Y-97348362D01*
X145562828Y-97520593D01*
X145534500Y-97699450D01*
X145295500Y-97699450D01*
X145267171Y-97520593D01*
X145267171Y-97520591D01*
X145211211Y-97348361D01*
X145128996Y-97187006D01*
X145022553Y-97040499D01*
X144894501Y-96912447D01*
X144747994Y-96806004D01*
X144747993Y-96806003D01*
X144747991Y-96806002D01*
X144586637Y-96723788D01*
X144414406Y-96667828D01*
X144235549Y-96639500D01*
X144235546Y-96639500D01*
X144054454Y-96639500D01*
X144054451Y-96639500D01*
X143875593Y-96667828D01*
X143703362Y-96723788D01*
X143542008Y-96806002D01*
X143468752Y-96859225D01*
X143395499Y-96912447D01*
X143267447Y-97040499D01*
X143214225Y-97113752D01*
X143161002Y-97187008D01*
X143078788Y-97348362D01*
X143022828Y-97520593D01*
X142994500Y-97699450D01*
X142755500Y-97699450D01*
X142727171Y-97520593D01*
X142727171Y-97520591D01*
X142671211Y-97348361D01*
X142588996Y-97187006D01*
X142482553Y-97040499D01*
X142354501Y-96912447D01*
X142207994Y-96806004D01*
X142207993Y-96806003D01*
X142207991Y-96806002D01*
X142046637Y-96723788D01*
X141874406Y-96667828D01*
X141695549Y-96639500D01*
X141695546Y-96639500D01*
X141514454Y-96639500D01*
X141514451Y-96639500D01*
X141335593Y-96667828D01*
X141163362Y-96723788D01*
X141002008Y-96806002D01*
X140928752Y-96859225D01*
X140855499Y-96912447D01*
X140727447Y-97040499D01*
X140674225Y-97113752D01*
X140621002Y-97187008D01*
X140538788Y-97348362D01*
X140482828Y-97520593D01*
X140454500Y-97699450D01*
X140215500Y-97699450D01*
X140187171Y-97520593D01*
X140187171Y-97520591D01*
X140131211Y-97348361D01*
X140048996Y-97187006D01*
X139942553Y-97040499D01*
X139814501Y-96912447D01*
X139667994Y-96806004D01*
X139667993Y-96806003D01*
X139667991Y-96806002D01*
X139506637Y-96723788D01*
X139334406Y-96667828D01*
X139155549Y-96639500D01*
X139155546Y-96639500D01*
X138974454Y-96639500D01*
X138974451Y-96639500D01*
X138795593Y-96667828D01*
X138623362Y-96723788D01*
X138462008Y-96806002D01*
X138388752Y-96859225D01*
X138315499Y-96912447D01*
X138187447Y-97040499D01*
X138134225Y-97113752D01*
X138081002Y-97187008D01*
X137998788Y-97348362D01*
X137942828Y-97520593D01*
X137914500Y-97699450D01*
X137675500Y-97699450D01*
X137647171Y-97520593D01*
X137647171Y-97520591D01*
X137591211Y-97348361D01*
X137508996Y-97187006D01*
X137402553Y-97040499D01*
X137274501Y-96912447D01*
X137127994Y-96806004D01*
X137127993Y-96806003D01*
X137127991Y-96806002D01*
X136966637Y-96723788D01*
X136794406Y-96667828D01*
X136615549Y-96639500D01*
X136615546Y-96639500D01*
X136434454Y-96639500D01*
X136434451Y-96639500D01*
X136255593Y-96667828D01*
X136083362Y-96723788D01*
X135922008Y-96806002D01*
X135848752Y-96859225D01*
X135775499Y-96912447D01*
X135647447Y-97040499D01*
X135594225Y-97113752D01*
X135541002Y-97187008D01*
X135458788Y-97348362D01*
X135402828Y-97520593D01*
X135374500Y-97699450D01*
X135135500Y-97699450D01*
X135107171Y-97520593D01*
X135107171Y-97520591D01*
X135051211Y-97348361D01*
X134968996Y-97187006D01*
X134862553Y-97040499D01*
X134734501Y-96912447D01*
X134587994Y-96806004D01*
X134587993Y-96806003D01*
X134587991Y-96806002D01*
X134426637Y-96723788D01*
X134254406Y-96667828D01*
X134075549Y-96639500D01*
X134075546Y-96639500D01*
X133894454Y-96639500D01*
X133894451Y-96639500D01*
X133715593Y-96667828D01*
X133543362Y-96723788D01*
X133382008Y-96806002D01*
X133308752Y-96859225D01*
X133235499Y-96912447D01*
X133107447Y-97040499D01*
X133054225Y-97113752D01*
X133001002Y-97187008D01*
X132918788Y-97348362D01*
X132862828Y-97520593D01*
X132834500Y-97699450D01*
X126300500Y-97699450D01*
X126300500Y-96399500D01*
X126319407Y-96341309D01*
X126368907Y-96305345D01*
X126399500Y-96300500D01*
X159600500Y-96300500D01*
X159658691Y-96319407D01*
G37*
%TD.AperFunction*%
%TD*%
M02*
