%TF.GenerationSoftware,KiCad,Pcbnew,9.0.6*%
%TF.CreationDate,2026-05-26T13:49:29+03:00*%
%TF.ProjectId,Didactic_main_PCB,44696461-6374-4696-935f-6d61696e5f50,rev?*%
%TF.SameCoordinates,Original*%
%TF.FileFunction,Paste,Bot*%
%TF.FilePolarity,Positive*%
%FSLAX46Y46*%
G04 Gerber Fmt 4.6, Leading zero omitted, Abs format (unit mm)*
G04 Created by KiCad (PCBNEW 9.0.6) date 2026-05-26 13:49:29*
%MOMM*%
%LPD*%
G01*
G04 APERTURE LIST*
G04 Aperture macros list*
%AMRoundRect*
0 Rectangle with rounded corners*
0 $1 Rounding radius*
0 $2 $3 $4 $5 $6 $7 $8 $9 X,Y pos of 4 corners*
0 Add a 4 corners polygon primitive as box body*
4,1,4,$2,$3,$4,$5,$6,$7,$8,$9,$2,$3,0*
0 Add four circle primitives for the rounded corners*
1,1,$1+$1,$2,$3*
1,1,$1+$1,$4,$5*
1,1,$1+$1,$6,$7*
1,1,$1+$1,$8,$9*
0 Add four rect primitives between the rounded corners*
20,1,$1+$1,$2,$3,$4,$5,0*
20,1,$1+$1,$4,$5,$6,$7,0*
20,1,$1+$1,$6,$7,$8,$9,0*
20,1,$1+$1,$8,$9,$2,$3,0*%
G04 Aperture macros list end*
%ADD10RoundRect,0.225000X-0.225000X-0.250000X0.225000X-0.250000X0.225000X0.250000X-0.225000X0.250000X0*%
%ADD11RoundRect,0.200000X-0.200000X-0.275000X0.200000X-0.275000X0.200000X0.275000X-0.200000X0.275000X0*%
%ADD12RoundRect,0.225000X0.250000X-0.225000X0.250000X0.225000X-0.250000X0.225000X-0.250000X-0.225000X0*%
%ADD13RoundRect,0.225000X0.225000X0.250000X-0.225000X0.250000X-0.225000X-0.250000X0.225000X-0.250000X0*%
%ADD14RoundRect,0.200000X0.275000X-0.200000X0.275000X0.200000X-0.275000X0.200000X-0.275000X-0.200000X0*%
%ADD15RoundRect,0.225000X-0.250000X0.225000X-0.250000X-0.225000X0.250000X-0.225000X0.250000X0.225000X0*%
%ADD16RoundRect,0.200000X0.200000X0.275000X-0.200000X0.275000X-0.200000X-0.275000X0.200000X-0.275000X0*%
%ADD17RoundRect,0.250000X-0.475000X0.250000X-0.475000X-0.250000X0.475000X-0.250000X0.475000X0.250000X0*%
%ADD18RoundRect,0.250000X0.250000X0.475000X-0.250000X0.475000X-0.250000X-0.475000X0.250000X-0.475000X0*%
G04 APERTURE END LIST*
D10*
%TO.C,C312*%
X151975000Y-84900000D03*
X153525000Y-84900000D03*
%TD*%
D11*
%TO.C,R418*%
X84773000Y-125095000D03*
X86423000Y-125095000D03*
%TD*%
%TO.C,R422*%
X84773000Y-120015000D03*
X86423000Y-120015000D03*
%TD*%
D12*
%TO.C,C718*%
X101070000Y-114335000D03*
X101070000Y-112785000D03*
%TD*%
D13*
%TO.C,C321*%
X142925000Y-88350000D03*
X141375000Y-88350000D03*
%TD*%
D14*
%TO.C,R409*%
X102108000Y-138493000D03*
X102108000Y-136843000D03*
%TD*%
D12*
%TO.C,C410*%
X102449998Y-152909998D03*
X102449998Y-151359998D03*
%TD*%
D13*
%TO.C,C713*%
X110145000Y-126130000D03*
X108595000Y-126130000D03*
%TD*%
D12*
%TO.C,C318*%
X149750000Y-83125000D03*
X149750000Y-81575000D03*
%TD*%
D13*
%TO.C,C313*%
X142925000Y-89950000D03*
X141375000Y-89950000D03*
%TD*%
D12*
%TO.C,C726*%
X110900000Y-118505000D03*
X110900000Y-116955000D03*
%TD*%
D10*
%TO.C,C314*%
X151975000Y-89750000D03*
X153525000Y-89750000D03*
%TD*%
D12*
%TO.C,C727*%
X105670000Y-117460000D03*
X105670000Y-115910000D03*
%TD*%
D15*
%TO.C,C310*%
X143400000Y-92050000D03*
X143400000Y-93600000D03*
%TD*%
D12*
%TO.C,C725*%
X109330000Y-119965000D03*
X109330000Y-118415000D03*
%TD*%
%TO.C,C405*%
X99099998Y-152909999D03*
X99099998Y-151359999D03*
%TD*%
D16*
%TO.C,R207*%
X123735000Y-118760000D03*
X122085000Y-118760000D03*
%TD*%
D14*
%TO.C,R407*%
X104648000Y-138493000D03*
X104648000Y-136843000D03*
%TD*%
D13*
%TO.C,C715*%
X100015000Y-117440000D03*
X98465000Y-117440000D03*
%TD*%
D10*
%TO.C,C411*%
X106150000Y-156609997D03*
X107700000Y-156609997D03*
%TD*%
D11*
%TO.C,R206*%
X113945000Y-118710000D03*
X115595000Y-118710000D03*
%TD*%
%TO.C,R416*%
X84773000Y-127635000D03*
X86423000Y-127635000D03*
%TD*%
D17*
%TO.C,C719*%
X102330000Y-123500000D03*
X102330000Y-125400000D03*
%TD*%
D12*
%TO.C,C717*%
X102670000Y-114335000D03*
X102670000Y-112785000D03*
%TD*%
D10*
%TO.C,C408*%
X106174999Y-158310000D03*
X107724999Y-158310000D03*
%TD*%
D14*
%TO.C,R415*%
X94234000Y-138493000D03*
X94234000Y-136843000D03*
%TD*%
D17*
%TO.C,C729*%
X105020000Y-111060000D03*
X105020000Y-112960000D03*
%TD*%
D13*
%TO.C,C716*%
X100495000Y-120520000D03*
X98945000Y-120520000D03*
%TD*%
%TO.C,C724*%
X102125000Y-115910000D03*
X100575000Y-115910000D03*
%TD*%
D10*
%TO.C,C319*%
X151975000Y-86550000D03*
X153525000Y-86550000D03*
%TD*%
D15*
%TO.C,C722*%
X106000000Y-121890000D03*
X106000000Y-123440000D03*
%TD*%
%TO.C,C311*%
X151200000Y-92100000D03*
X151200000Y-93650000D03*
%TD*%
%TO.C,C317*%
X145100000Y-92075000D03*
X145100000Y-93625000D03*
%TD*%
D18*
%TO.C,C730*%
X111790000Y-122960000D03*
X109890000Y-122960000D03*
%TD*%
D16*
%TO.C,R204*%
X123735000Y-113630000D03*
X122085000Y-113630000D03*
%TD*%
D13*
%TO.C,C406*%
X100774999Y-158259998D03*
X99224999Y-158259998D03*
%TD*%
D12*
%TO.C,C721*%
X104130000Y-117460000D03*
X104130000Y-115910000D03*
%TD*%
D11*
%TO.C,R203*%
X113965000Y-113640000D03*
X115615000Y-113640000D03*
%TD*%
D15*
%TO.C,C714*%
X104430000Y-124335000D03*
X104430000Y-125885000D03*
%TD*%
%TO.C,C728*%
X107560000Y-121885000D03*
X107560000Y-123435000D03*
%TD*%
D13*
%TO.C,C308*%
X142925000Y-85850000D03*
X141375000Y-85850000D03*
%TD*%
D12*
%TO.C,C316*%
X144200000Y-83125000D03*
X144200000Y-81575000D03*
%TD*%
D15*
%TO.C,C320*%
X148500000Y-92075000D03*
X148500000Y-93625000D03*
%TD*%
D11*
%TO.C,R420*%
X84773000Y-122555000D03*
X86423000Y-122555000D03*
%TD*%
D12*
%TO.C,C409*%
X100699999Y-152885000D03*
X100699999Y-151335000D03*
%TD*%
D15*
%TO.C,C315*%
X146800000Y-92075000D03*
X146800000Y-93625000D03*
%TD*%
D17*
%TO.C,C720*%
X98200000Y-111414999D03*
X98200000Y-113314999D03*
%TD*%
D15*
%TO.C,C309*%
X141700000Y-92050000D03*
X141700000Y-93600000D03*
%TD*%
D14*
%TO.C,R411*%
X99550000Y-138493000D03*
X99550000Y-136843000D03*
%TD*%
D11*
%TO.C,R205*%
X113975000Y-116160000D03*
X115625000Y-116160000D03*
%TD*%
D14*
%TO.C,R413*%
X97028000Y-138493000D03*
X97028000Y-136843000D03*
%TD*%
D12*
%TO.C,C711*%
X107460000Y-114665000D03*
X107460000Y-113115000D03*
%TD*%
%TO.C,C412*%
X103999996Y-152909998D03*
X103999996Y-151359998D03*
%TD*%
D13*
%TO.C,C723*%
X102115000Y-118960000D03*
X100565000Y-118960000D03*
%TD*%
D15*
%TO.C,C712*%
X110840000Y-113455000D03*
X110840000Y-115005000D03*
%TD*%
%TO.C,C407*%
X104649997Y-158284998D03*
X104649997Y-159834998D03*
%TD*%
M02*
