%TF.GenerationSoftware,KiCad,Pcbnew,9.0.6*%
%TF.CreationDate,2026-05-26T13:49:29+03:00*%
%TF.ProjectId,Didactic_main_PCB,44696461-6374-4696-935f-6d61696e5f50,rev?*%
%TF.SameCoordinates,Original*%
%TF.FileFunction,Copper,L4,Bot*%
%TF.FilePolarity,Positive*%
%FSLAX46Y46*%
G04 Gerber Fmt 4.6, Leading zero omitted, Abs format (unit mm)*
G04 Created by KiCad (PCBNEW 9.0.6) date 2026-05-26 13:49:29*
%MOMM*%
%LPD*%
G01*
G04 APERTURE LIST*
G04 Aperture macros list*
%AMRoundRect*
0 Rectangle with rounded corners*
0 $1 Rounding radius*
0 $2 $3 $4 $5 $6 $7 $8 $9 X,Y pos of 4 corners*
0 Add a 4 corners polygon primitive as box body*
4,1,4,$2,$3,$4,$5,$6,$7,$8,$9,$2,$3,0*
0 Add four circle primitives for the rounded corners*
1,1,$1+$1,$2,$3*
1,1,$1+$1,$4,$5*
1,1,$1+$1,$6,$7*
1,1,$1+$1,$8,$9*
0 Add four rect primitives between the rounded corners*
20,1,$1+$1,$2,$3,$4,$5,0*
20,1,$1+$1,$4,$5,$6,$7,0*
20,1,$1+$1,$6,$7,$8,$9,0*
20,1,$1+$1,$8,$9,$2,$3,0*%
G04 Aperture macros list end*
%TA.AperFunction,ComponentPad*%
%ADD10R,1.700000X1.700000*%
%TD*%
%TA.AperFunction,ComponentPad*%
%ADD11C,1.700000*%
%TD*%
%TA.AperFunction,ComponentPad*%
%ADD12C,1.600000*%
%TD*%
%TA.AperFunction,ComponentPad*%
%ADD13R,1.500000X1.500000*%
%TD*%
%TA.AperFunction,ComponentPad*%
%ADD14O,1.700000X1.700000*%
%TD*%
%TA.AperFunction,ComponentPad*%
%ADD15R,1.508000X1.508000*%
%TD*%
%TA.AperFunction,ComponentPad*%
%ADD16C,1.508000*%
%TD*%
%TA.AperFunction,SMDPad,CuDef*%
%ADD17RoundRect,0.225000X-0.225000X-0.250000X0.225000X-0.250000X0.225000X0.250000X-0.225000X0.250000X0*%
%TD*%
%TA.AperFunction,SMDPad,CuDef*%
%ADD18RoundRect,0.200000X-0.200000X-0.275000X0.200000X-0.275000X0.200000X0.275000X-0.200000X0.275000X0*%
%TD*%
%TA.AperFunction,SMDPad,CuDef*%
%ADD19RoundRect,0.225000X0.250000X-0.225000X0.250000X0.225000X-0.250000X0.225000X-0.250000X-0.225000X0*%
%TD*%
%TA.AperFunction,SMDPad,CuDef*%
%ADD20RoundRect,0.225000X0.225000X0.250000X-0.225000X0.250000X-0.225000X-0.250000X0.225000X-0.250000X0*%
%TD*%
%TA.AperFunction,SMDPad,CuDef*%
%ADD21RoundRect,0.200000X0.275000X-0.200000X0.275000X0.200000X-0.275000X0.200000X-0.275000X-0.200000X0*%
%TD*%
%TA.AperFunction,SMDPad,CuDef*%
%ADD22RoundRect,0.225000X-0.250000X0.225000X-0.250000X-0.225000X0.250000X-0.225000X0.250000X0.225000X0*%
%TD*%
%TA.AperFunction,SMDPad,CuDef*%
%ADD23RoundRect,0.200000X0.200000X0.275000X-0.200000X0.275000X-0.200000X-0.275000X0.200000X-0.275000X0*%
%TD*%
%TA.AperFunction,SMDPad,CuDef*%
%ADD24RoundRect,0.250000X-0.475000X0.250000X-0.475000X-0.250000X0.475000X-0.250000X0.475000X0.250000X0*%
%TD*%
%TA.AperFunction,SMDPad,CuDef*%
%ADD25RoundRect,0.250000X0.250000X0.475000X-0.250000X0.475000X-0.250000X-0.475000X0.250000X-0.475000X0*%
%TD*%
%TA.AperFunction,ViaPad*%
%ADD26C,0.500000*%
%TD*%
%TA.AperFunction,Conductor*%
%ADD27C,0.300000*%
%TD*%
%TA.AperFunction,Conductor*%
%ADD28C,0.250000*%
%TD*%
%TA.AperFunction,Conductor*%
%ADD29C,0.200000*%
%TD*%
%TA.AperFunction,Conductor*%
%ADD30C,0.500000*%
%TD*%
%TA.AperFunction,Conductor*%
%ADD31C,0.184000*%
%TD*%
G04 APERTURE END LIST*
D10*
%TO.P,J401,1,Pin_1*%
%TO.N,3V3_AO*%
X101180000Y-142290800D03*
D11*
%TO.P,J401,2,Pin_2*%
%TO.N,GND*%
X103720000Y-142290800D03*
%TO.P,J401,3,Pin_3*%
%TO.N,/PowerMCU/SSD1306_SCL*%
X106259999Y-142290800D03*
%TO.P,J401,4,Pin_4*%
%TO.N,/PowerMCU/SSD1306_SDA*%
X108800000Y-142290800D03*
%TD*%
D10*
%TO.P,JP301,1,A*%
%TO.N,GND*%
X139460000Y-105810000D03*
D11*
%TO.P,JP301,2,C*%
%TO.N,Net-(D301-K)*%
X136920000Y-105810000D03*
%TO.P,JP301,3,B*%
%TO.N,IOVDD*%
X134380001Y-105810000D03*
%TD*%
D12*
%TO.P,J605,01,01*%
%TO.N,/PMOD/PMODA_1*%
X82550000Y-87630000D03*
%TO.P,J605,02,02*%
%TO.N,/PMOD/PMODA_2*%
X85090000Y-87630000D03*
%TO.P,J605,03,03*%
%TO.N,/PMOD/PMODA_3*%
X87630000Y-87630000D03*
%TO.P,J605,04,04*%
%TO.N,/PMOD/PMODA_4*%
X90170000Y-87630000D03*
%TO.P,J605,05,05*%
%TO.N,GND*%
X92710000Y-87630000D03*
%TO.P,J605,06,06*%
%TO.N,3V3_IO*%
X95250000Y-87630000D03*
D13*
%TO.P,J605,07,07*%
%TO.N,/PMOD/PMODA_5*%
X82550000Y-85090000D03*
D12*
%TO.P,J605,08,08*%
%TO.N,/PMOD/PMODA_6*%
X85090000Y-85090000D03*
%TO.P,J605,09,09*%
%TO.N,/PMOD/PMODA_7*%
X87630000Y-85090000D03*
%TO.P,J605,10,10*%
%TO.N,/PMOD/PMODA_8*%
X90170000Y-85090000D03*
%TO.P,J605,11,11*%
%TO.N,GND*%
X92710000Y-85090000D03*
%TO.P,J605,12,12*%
%TO.N,3V3_IO*%
X95250000Y-85090000D03*
%TD*%
D10*
%TO.P,JP302,1,A*%
%TO.N,GND*%
X135540000Y-89580000D03*
D11*
%TO.P,JP302,2,C*%
%TO.N,Net-(D302-K)*%
X133000000Y-89580000D03*
%TO.P,JP302,3,B*%
%TO.N,IOVDD*%
X130460001Y-89580000D03*
%TD*%
D10*
%TO.P,JP702,1,A*%
%TO.N,Net-(IC701-OUT_1)*%
X67930000Y-136030000D03*
D11*
%TO.P,JP702,2,B*%
%TO.N,CORE_CURR_SENS+*%
X70470000Y-136030000D03*
%TD*%
D10*
%TO.P,JP501,1,A*%
%TO.N,Net-(JP501-A)*%
X57324997Y-108545000D03*
D14*
%TO.P,JP501,2,B*%
%TO.N,IO_3V3_CURR_SENS+*%
X57324997Y-111085000D03*
%TD*%
D10*
%TO.P,J402,1,Pin_1*%
%TO.N,GND*%
X101190000Y-145920800D03*
D11*
%TO.P,J402,2,Pin_2*%
%TO.N,3V3_AO*%
X103730000Y-145920800D03*
%TO.P,J402,3,Pin_3*%
%TO.N,/PowerMCU/SSD1306_SCL*%
X106269999Y-145920800D03*
%TO.P,J402,4,Pin_4*%
%TO.N,/PowerMCU/SSD1306_SDA*%
X108810000Y-145920800D03*
%TD*%
D10*
%TO.P,JP601,1,A*%
%TO.N,/PMOD/N_BIAS*%
X117300000Y-103780000D03*
D11*
%TO.P,JP601,2,B*%
%TO.N,GND*%
X117300000Y-106320000D03*
%TD*%
D10*
%TO.P,J603,1,Pin_1*%
%TO.N,/PMOD/IN_MINUS*%
X92000000Y-128880000D03*
D11*
%TO.P,J603,2,Pin_2*%
%TO.N,GND*%
X89460000Y-128880000D03*
%TO.P,J603,3,Pin_3*%
%TO.N,/PMOD/VDD_IN*%
X92000000Y-126340000D03*
%TO.P,J603,4,Pin_4*%
%TO.N,/PMOD/IN_PLUS*%
X89460000Y-126340000D03*
%TO.P,J603,5,Pin_5*%
%TO.N,/PMOD/VDD_PLL2*%
X92000000Y-123800001D03*
%TO.P,J603,6,Pin_6*%
%TO.N,/PMOD/GND_LINE*%
X89460000Y-123800000D03*
%TO.P,J603,7,Pin_7*%
%TO.N,/PMOD/VDD_PLL1*%
X92000000Y-121260000D03*
%TO.P,J603,8,Pin_8*%
%TO.N,/PMOD/VDD_VCO2*%
X89460000Y-121260000D03*
%TO.P,J603,9,Pin_9*%
%TO.N,/PMOD/GPIO0*%
X92000000Y-118720000D03*
%TO.P,J603,10,Pin_10*%
%TO.N,/PMOD/VDD_VCO1*%
X89460000Y-118720000D03*
%TO.P,J603,11,Pin_11*%
%TO.N,/PMOD/GPIO2*%
X92000000Y-116180000D03*
%TO.P,J603,12,Pin_12*%
%TO.N,/PMOD/GPIO1*%
X89460000Y-116180000D03*
%TO.P,J603,13,Pin_13*%
%TO.N,/PMOD/GPIO4*%
X92000000Y-113640000D03*
%TO.P,J603,14,Pin_14*%
%TO.N,/PMOD/GPIO3*%
X89460000Y-113640000D03*
%TO.P,J603,15,Pin_15*%
%TO.N,GND*%
X92000000Y-111099999D03*
%TO.P,J603,16,Pin_16*%
%TO.N,IOVDD*%
X89460000Y-111100000D03*
%TD*%
D15*
%TO.P,RV701,1*%
%TO.N,Net-(IC701-FB)*%
X69570000Y-125910000D03*
D16*
%TO.P,RV701,2*%
%TO.N,Net-(IC701-OUT_1)*%
X69570000Y-128410000D03*
%TO.P,RV701,3*%
X69570000Y-130910000D03*
%TD*%
D10*
%TO.P,JP502,1,A*%
%TO.N,Net-(JP501-A)*%
X61224998Y-108570000D03*
D14*
%TO.P,JP502,2,B*%
%TO.N,IO_3V3_CURR_SENS+*%
X61224998Y-111110000D03*
%TD*%
D10*
%TO.P,JP703,1,A*%
%TO.N,Net-(IC702-OUT_1)*%
X68145000Y-152760000D03*
D11*
%TO.P,JP703,2,B*%
%TO.N,IO_CURR_SENS+*%
X70685000Y-152760000D03*
%TD*%
D10*
%TO.P,J204,1,Pin_1*%
%TO.N,GND*%
X170290000Y-109130000D03*
D11*
%TO.P,J204,2,Pin_2*%
X172830000Y-109130000D03*
%TO.P,J204,3,Pin_3*%
%TO.N,/SysCtrl/SysCtrl_JTAG_TCK-3V3*%
X170290000Y-111670000D03*
%TO.P,J204,4,Pin_4*%
%TO.N,/SysCtrl/SysCtrl_JTAG_TDI_3V3*%
X172830000Y-111670000D03*
%TO.P,J204,5,Pin_5*%
%TO.N,GND*%
X170290000Y-114210000D03*
%TO.P,J204,6,Pin_6*%
X172830000Y-114210000D03*
%TO.P,J204,7,Pin_7*%
%TO.N,/SysCtrl/SysCtrl_JTAG_TDO_3V3*%
X170290000Y-116750000D03*
%TO.P,J204,8,Pin_8*%
%TO.N,/SysCtrl/SysCtrl_JTAG_TMS_3V3*%
X172830000Y-116750000D03*
%TO.P,J204,9,Pin_9*%
%TO.N,GND*%
X170290000Y-119290000D03*
%TO.P,J204,10,Pin_10*%
X172830000Y-119290000D03*
%TO.P,J204,11,Pin_11*%
%TO.N,/SysCtrl/SysCtrl_JTAG_TRST_3V3*%
X170290000Y-121830000D03*
%TO.P,J204,12,Pin_12*%
%TO.N,/SysCtrl/SysCtrl_UART_RX_3V3*%
X172830000Y-121830000D03*
%TO.P,J204,13,Pin_13*%
%TO.N,GND*%
X170290000Y-124370000D03*
%TO.P,J204,14,Pin_14*%
X172830000Y-124370000D03*
%TO.P,J204,15,Pin_15*%
%TO.N,/SysCtrl/SysCtrl_UART_TX_3V3*%
X170290000Y-126910000D03*
%TO.P,J204,16,Pin_16*%
%TO.N,/SysCtrl/SysCtrl_RSTN_3V3*%
X172830000Y-126910000D03*
%TO.P,J204,17,Pin_17*%
%TO.N,GND*%
X170290000Y-129450000D03*
%TO.P,J204,18,Pin_18*%
X172830000Y-129450000D03*
%TO.P,J204,19,Pin_19*%
%TO.N,/SysCtrl/SPI_CSN0_3V3*%
X170290000Y-131990000D03*
%TO.P,J204,20,Pin_20*%
%TO.N,/SysCtrl/SPI_CSN1_3V3*%
X172830000Y-131990000D03*
%TO.P,J204,21,Pin_21*%
%TO.N,GND*%
X170290000Y-134530000D03*
%TO.P,J204,22,Pin_22*%
X172830000Y-134530000D03*
%TO.P,J204,23,Pin_23*%
%TO.N,/SysCtrl/SPI_DATA0_3V3*%
X170290000Y-137070000D03*
%TO.P,J204,24,Pin_24*%
%TO.N,/SysCtrl/SPI_SCK_3V3*%
X172830000Y-137070000D03*
%TO.P,J204,25,Pin_25*%
%TO.N,GND*%
X170290000Y-139610000D03*
%TO.P,J204,26,Pin_26*%
X172830000Y-139610000D03*
%TO.P,J204,27,Pin_27*%
%TO.N,/SysCtrl/SPI_DATA1_3V3*%
X170290000Y-142150000D03*
%TO.P,J204,28,Pin_28*%
%TO.N,/SysCtrl/SPI_DATA2_3V3*%
X172830000Y-142150000D03*
%TO.P,J204,29,Pin_29*%
%TO.N,GND*%
X170290000Y-144690000D03*
%TO.P,J204,30,Pin_30*%
X172830000Y-144690000D03*
%TO.P,J204,31,Pin_31*%
%TO.N,/SysCtrl/SPI_DATA3_3V3*%
X170290000Y-147230000D03*
%TO.P,J204,32,Pin_32*%
%TO.N,3V3_IO*%
X172830000Y-147230000D03*
%TO.P,J204,33,Pin_33*%
X170290000Y-149770000D03*
%TO.P,J204,34,Pin_34*%
X172830000Y-149770000D03*
%TO.P,J204,35,Pin_35*%
X170290000Y-152310000D03*
%TO.P,J204,36,Pin_36*%
X172830000Y-152310000D03*
%TD*%
D10*
%TO.P,J202,1,Pin_1*%
%TO.N,GND*%
X113590000Y-131445000D03*
D11*
%TO.P,J202,2,Pin_2*%
%TO.N,CVDD*%
X113590000Y-133985000D03*
%TO.P,J202,3,Pin_3*%
%TO.N,/SysCtrl/SPI_DATA1*%
X111050000Y-131445000D03*
%TO.P,J202,4,Pin_4*%
%TO.N,IOVDD*%
X111050000Y-133985000D03*
%TO.P,J202,5,Pin_5*%
%TO.N,/SysCtrl/SPI_DATA3*%
X108510001Y-131445000D03*
%TO.P,J202,6,Pin_6*%
%TO.N,/SysCtrl/SPI_DATA2*%
X108510000Y-133985000D03*
%TO.P,J202,7,Pin_7*%
%TO.N,VDD_SUB3*%
X105970000Y-131445000D03*
%TO.P,J202,8,Pin_8*%
%TO.N,INIT*%
X105970000Y-133985000D03*
%TO.P,J202,9,Pin_9*%
%TO.N,OUT_XTAL*%
X103430000Y-131445000D03*
%TO.P,J202,10,Pin_10*%
%TO.N,VDD_OUT_XTAL*%
X103430000Y-133985000D03*
%TO.P,J202,11,Pin_11*%
%TO.N,XO*%
X100890000Y-131445000D03*
%TO.P,J202,12,Pin_12*%
%TO.N,VDD_XTAL*%
X100890000Y-133985000D03*
%TO.P,J202,13,Pin_13*%
%TO.N,VDD_OUT*%
X98350000Y-131445000D03*
%TO.P,J202,14,Pin_14*%
%TO.N,XI*%
X98350000Y-133985000D03*
%TO.P,J202,15,Pin_15*%
%TO.N,OUT_PLUS*%
X95809999Y-131445000D03*
%TO.P,J202,16,Pin_16*%
%TO.N,OUT_MINUS*%
X95810000Y-133985000D03*
%TD*%
D10*
%TO.P,J601,1,Pin_1*%
%TO.N,GND*%
X95810000Y-108560000D03*
D11*
%TO.P,J601,2,Pin_2*%
%TO.N,CVDD*%
X95810000Y-106020000D03*
%TO.P,J601,3,Pin_3*%
%TO.N,/PMOD/GPIO5*%
X98350000Y-108560000D03*
%TO.P,J601,4,Pin_4*%
%TO.N,/PMOD/GPIO6*%
X98350000Y-106020000D03*
%TO.P,J601,5,Pin_5*%
%TO.N,/PMOD/GPIO7*%
X100889999Y-108560000D03*
%TO.P,J601,6,Pin_6*%
%TO.N,/PMOD/GPIO8*%
X100890000Y-106020000D03*
%TO.P,J601,7,Pin_7*%
%TO.N,/PMOD/GPIO9*%
X103430000Y-108560000D03*
%TO.P,J601,8,Pin_8*%
%TO.N,/PMOD/GPIO10*%
X103430000Y-106020000D03*
%TO.P,J601,9,Pin_9*%
%TO.N,/PMOD/GPIO11*%
X105970000Y-108560000D03*
%TO.P,J601,10,Pin_10*%
%TO.N,/PMOD/GPIO12*%
X105970000Y-106020000D03*
%TO.P,J601,11,Pin_11*%
%TO.N,/PMOD/GPIO13*%
X108510000Y-108560000D03*
%TO.P,J601,12,Pin_12*%
%TO.N,/PMOD/GPIO14*%
X108510000Y-106020000D03*
%TO.P,J601,13,Pin_13*%
%TO.N,/PMOD/GPIO15*%
X111050000Y-108560000D03*
%TO.P,J601,14,Pin_14*%
%TO.N,/PMOD/N_BIAS*%
X111050000Y-106020000D03*
%TO.P,J601,15,Pin_15*%
%TO.N,GND*%
X113590001Y-108560000D03*
%TO.P,J601,16,Pin_16*%
%TO.N,IOVDD*%
X113590000Y-106020000D03*
%TD*%
D10*
%TO.P,J203,1,Pin_1*%
%TO.N,Net-(J203-Pin_1)*%
X126949200Y-141020800D03*
D11*
%TO.P,J203,2,Pin_2*%
%TO.N,GND*%
X126949200Y-143560800D03*
%TD*%
D15*
%TO.P,RV702,1*%
%TO.N,Net-(R716-Pad1)*%
X69820000Y-142760000D03*
D16*
%TO.P,RV702,2*%
%TO.N,Net-(IC702-OUT_1)*%
X69820000Y-145260000D03*
%TO.P,RV702,3*%
X69820000Y-147760000D03*
%TD*%
D12*
%TO.P,J604,01,01*%
%TO.N,/PMOD/PMODB_1*%
X105410000Y-87630000D03*
%TO.P,J604,02,02*%
%TO.N,/PMOD/PMODB_2*%
X107950000Y-87630000D03*
%TO.P,J604,03,03*%
%TO.N,/PMOD/PMODB_3*%
X110490000Y-87630000D03*
%TO.P,J604,04,04*%
%TO.N,/PMOD/PMODB_4*%
X113030000Y-87630000D03*
%TO.P,J604,05,05*%
%TO.N,GND*%
X115570000Y-87630000D03*
%TO.P,J604,06,06*%
%TO.N,3V3_IO*%
X118110000Y-87630000D03*
D13*
%TO.P,J604,07,07*%
%TO.N,/PMOD/PMODB_5*%
X105410000Y-85090000D03*
D12*
%TO.P,J604,08,08*%
%TO.N,/PMOD/PMODB_6*%
X107950000Y-85090000D03*
%TO.P,J604,09,09*%
%TO.N,/PMOD/PMODB_7*%
X110490000Y-85090000D03*
%TO.P,J604,10,10*%
%TO.N,/PMOD/PMODB_8*%
X113030000Y-85090000D03*
%TO.P,J604,11,11*%
%TO.N,GND*%
X115570000Y-85090000D03*
%TO.P,J604,12,12*%
%TO.N,3V3_IO*%
X118110000Y-85090000D03*
%TD*%
D10*
%TO.P,J201,1,Pin_1*%
%TO.N,GND*%
X117400000Y-111100000D03*
D11*
%TO.P,J201,2,Pin_2*%
%TO.N,CVDD*%
X119940000Y-111100000D03*
%TO.P,J201,3,Pin_3*%
%TO.N,SysCtrl_JTAG_TCK*%
X117400000Y-113640000D03*
%TO.P,J201,4,Pin_4*%
%TO.N,SysCtrl_JTAG_TDI*%
X119940000Y-113640000D03*
%TO.P,J201,5,Pin_5*%
%TO.N,SysCtrl_JTAG_TDO*%
X117400000Y-116180000D03*
%TO.P,J201,6,Pin_6*%
%TO.N,P_BIAS*%
X119940000Y-116180000D03*
%TO.P,J201,7,Pin_7*%
%TO.N,SysCtrl_JTAG_TMS*%
X117400000Y-118720000D03*
%TO.P,J201,8,Pin_8*%
%TO.N,SysCtrl_JTAG_TRST*%
X119940000Y-118720000D03*
%TO.P,J201,9,Pin_9*%
%TO.N,SysCtrl_UART_RX*%
X117400000Y-121260000D03*
%TO.P,J201,10,Pin_10*%
%TO.N,SysCtrl_UART_TX*%
X119940000Y-121260000D03*
%TO.P,J201,11,Pin_11*%
%TO.N,DIDACTIC_RST_N*%
X117400000Y-123800000D03*
%TO.P,J201,12,Pin_12*%
%TO.N,/SysCtrl/CLK*%
X119940000Y-123800000D03*
%TO.P,J201,13,Pin_13*%
%TO.N,/SysCtrl/SPI_CSN0*%
X117400000Y-126340000D03*
%TO.P,J201,14,Pin_14*%
%TO.N,/SysCtrl/SPI_CSN1*%
X119940000Y-126340000D03*
%TO.P,J201,15,Pin_15*%
%TO.N,/SysCtrl/SPI_DATA0*%
X117400000Y-128880000D03*
%TO.P,J201,16,Pin_16*%
%TO.N,/SysCtrl/SPI_SCK*%
X119940000Y-128880000D03*
%TD*%
D10*
%TO.P,JP602,1,A*%
%TO.N,P_BIAS*%
X121000000Y-103760000D03*
D11*
%TO.P,JP602,2,B*%
%TO.N,GND*%
X121000000Y-106300000D03*
%TD*%
D10*
%TO.P,J405,1,Pin_1*%
%TO.N,GND*%
X101000000Y-165460000D03*
D11*
%TO.P,J405,2,Pin_2*%
%TO.N,/PowerMCU/SWCLK*%
X101000000Y-168000000D03*
%TO.P,J405,3,Pin_3*%
%TO.N,/PowerMCU/SWD*%
X101000000Y-170540000D03*
%TO.P,J405,4,Pin_4*%
%TO.N,3V3_AO*%
X101000000Y-173080000D03*
%TD*%
D10*
%TO.P,JP303,1,A*%
%TO.N,Net-(J301-VCC)*%
X162400000Y-94460000D03*
D14*
%TO.P,JP303,2,B*%
%TO.N,+5V*%
X162400000Y-97000000D03*
%TD*%
D10*
%TO.P,JP201,1,A*%
%TO.N,IOVDD*%
X129060000Y-134950000D03*
D11*
%TO.P,JP201,2,C*%
%TO.N,/SysCtrl/3V3_IO_LS_EN*%
X131600000Y-134950000D03*
%TO.P,JP201,3,B*%
%TO.N,GND*%
X134139999Y-134950000D03*
%TD*%
D17*
%TO.P,C312,1*%
%TO.N,Net-(U304-VREGOUT)*%
X151975000Y-84900000D03*
%TO.P,C312,2*%
%TO.N,GND*%
X153525000Y-84900000D03*
%TD*%
D18*
%TO.P,R418,1*%
%TO.N,GND*%
X84773000Y-125095000D03*
%TO.P,R418,2*%
%TO.N,/PMOD/VDD_IN*%
X86423000Y-125095000D03*
%TD*%
%TO.P,R422,1*%
%TO.N,GND*%
X84773000Y-120015000D03*
%TO.P,R422,2*%
%TO.N,/PMOD/VDD_PLL1*%
X86423000Y-120015000D03*
%TD*%
D19*
%TO.P,C718,1*%
%TO.N,GND*%
X101070000Y-114335000D03*
%TO.P,C718,2*%
%TO.N,IOVDD*%
X101070000Y-112785000D03*
%TD*%
D20*
%TO.P,C321,1*%
%TO.N,3V3_AO*%
X142925000Y-88350000D03*
%TO.P,C321,2*%
%TO.N,GND*%
X141375000Y-88350000D03*
%TD*%
D21*
%TO.P,R409,1*%
%TO.N,GND*%
X102108000Y-138493000D03*
%TO.P,R409,2*%
%TO.N,OUT_XTAL*%
X102108000Y-136843000D03*
%TD*%
D19*
%TO.P,C410,1*%
%TO.N,GND*%
X102449998Y-152909998D03*
%TO.P,C410,2*%
%TO.N,3V3_AO*%
X102449998Y-151359998D03*
%TD*%
D20*
%TO.P,C713,1*%
%TO.N,GND*%
X110145000Y-126130000D03*
%TO.P,C713,2*%
%TO.N,IOVDD*%
X108595000Y-126130000D03*
%TD*%
D19*
%TO.P,C318,1*%
%TO.N,3V3_AO*%
X149750000Y-83125000D03*
%TO.P,C318,2*%
%TO.N,GND*%
X149750000Y-81575000D03*
%TD*%
D20*
%TO.P,C313,1*%
%TO.N,3V3_AO*%
X142925000Y-89950000D03*
%TO.P,C313,2*%
%TO.N,GND*%
X141375000Y-89950000D03*
%TD*%
D19*
%TO.P,C726,1*%
%TO.N,GND*%
X110900000Y-118505000D03*
%TO.P,C726,2*%
%TO.N,CVDD*%
X110900000Y-116955000D03*
%TD*%
D17*
%TO.P,C314,1*%
%TO.N,3V3_AO*%
X151975000Y-89750000D03*
%TO.P,C314,2*%
%TO.N,GND*%
X153525000Y-89750000D03*
%TD*%
D19*
%TO.P,C727,1*%
%TO.N,GND*%
X105670000Y-117460000D03*
%TO.P,C727,2*%
%TO.N,CVDD*%
X105670000Y-115910000D03*
%TD*%
D22*
%TO.P,C310,1*%
%TO.N,Net-(U304-VREGOUT)*%
X143400000Y-92050000D03*
%TO.P,C310,2*%
%TO.N,GND*%
X143400000Y-93600000D03*
%TD*%
D19*
%TO.P,C725,1*%
%TO.N,GND*%
X109330000Y-119965000D03*
%TO.P,C725,2*%
%TO.N,CVDD*%
X109330000Y-118415000D03*
%TD*%
%TO.P,C405,1*%
%TO.N,GND*%
X99099998Y-152909999D03*
%TO.P,C405,2*%
%TO.N,3V3_AO*%
X99099998Y-151359999D03*
%TD*%
D23*
%TO.P,R207,1*%
%TO.N,IOVDD*%
X123735000Y-118760000D03*
%TO.P,R207,2*%
%TO.N,SysCtrl_JTAG_TRST*%
X122085000Y-118760000D03*
%TD*%
D21*
%TO.P,R407,1*%
%TO.N,GND*%
X104648000Y-138493000D03*
%TO.P,R407,2*%
%TO.N,VDD_SUB3*%
X104648000Y-136843000D03*
%TD*%
D20*
%TO.P,C715,1*%
%TO.N,GND*%
X100015000Y-117440000D03*
%TO.P,C715,2*%
%TO.N,IOVDD*%
X98465000Y-117440000D03*
%TD*%
D17*
%TO.P,C411,1*%
%TO.N,GND*%
X106150000Y-156609997D03*
%TO.P,C411,2*%
%TO.N,3V3_AO*%
X107700000Y-156609997D03*
%TD*%
D18*
%TO.P,R206,1*%
%TO.N,IOVDD*%
X113945000Y-118710000D03*
%TO.P,R206,2*%
%TO.N,SysCtrl_JTAG_TMS*%
X115595000Y-118710000D03*
%TD*%
%TO.P,R416,1*%
%TO.N,GND*%
X84773000Y-127635000D03*
%TO.P,R416,2*%
%TO.N,/PMOD/IN_MINUS*%
X86423000Y-127635000D03*
%TD*%
D24*
%TO.P,C719,1*%
%TO.N,GND*%
X102330000Y-123500000D03*
%TO.P,C719,2*%
%TO.N,IOVDD*%
X102330000Y-125400000D03*
%TD*%
D19*
%TO.P,C717,1*%
%TO.N,GND*%
X102670000Y-114335000D03*
%TO.P,C717,2*%
%TO.N,IOVDD*%
X102670000Y-112785000D03*
%TD*%
D17*
%TO.P,C408,1*%
%TO.N,GND*%
X106174999Y-158310000D03*
%TO.P,C408,2*%
%TO.N,3V3_AO*%
X107724999Y-158310000D03*
%TD*%
D21*
%TO.P,R415,1*%
%TO.N,GND*%
X94234000Y-138493000D03*
%TO.P,R415,2*%
%TO.N,OUT_PLUS*%
X94234000Y-136843000D03*
%TD*%
D24*
%TO.P,C729,1*%
%TO.N,GND*%
X105020000Y-111060000D03*
%TO.P,C729,2*%
%TO.N,CVDD*%
X105020000Y-112960000D03*
%TD*%
D20*
%TO.P,C716,1*%
%TO.N,GND*%
X100495000Y-120520000D03*
%TO.P,C716,2*%
%TO.N,IOVDD*%
X98945000Y-120520000D03*
%TD*%
%TO.P,C724,1*%
%TO.N,GND*%
X102125000Y-115910000D03*
%TO.P,C724,2*%
%TO.N,CVDD*%
X100575000Y-115910000D03*
%TD*%
D17*
%TO.P,C319,1*%
%TO.N,3V3_AO*%
X151975000Y-86550000D03*
%TO.P,C319,2*%
%TO.N,GND*%
X153525000Y-86550000D03*
%TD*%
D22*
%TO.P,C722,1*%
%TO.N,GND*%
X106000000Y-121890000D03*
%TO.P,C722,2*%
%TO.N,CVDD*%
X106000000Y-123440000D03*
%TD*%
%TO.P,C311,1*%
%TO.N,Net-(U304-VREGOUT)*%
X151200000Y-92100000D03*
%TO.P,C311,2*%
%TO.N,GND*%
X151200000Y-93650000D03*
%TD*%
%TO.P,C317,1*%
%TO.N,3V3_AO*%
X145100000Y-92075000D03*
%TO.P,C317,2*%
%TO.N,GND*%
X145100000Y-93625000D03*
%TD*%
D25*
%TO.P,C730,1*%
%TO.N,GND*%
X111790000Y-122960000D03*
%TO.P,C730,2*%
%TO.N,CVDD*%
X109890000Y-122960000D03*
%TD*%
D23*
%TO.P,R204,1*%
%TO.N,IOVDD*%
X123735000Y-113630000D03*
%TO.P,R204,2*%
%TO.N,SysCtrl_JTAG_TDI*%
X122085000Y-113630000D03*
%TD*%
D20*
%TO.P,C406,1*%
%TO.N,GND*%
X100774999Y-158259998D03*
%TO.P,C406,2*%
%TO.N,3V3_AO*%
X99224999Y-158259998D03*
%TD*%
D19*
%TO.P,C721,1*%
%TO.N,GND*%
X104130000Y-117460000D03*
%TO.P,C721,2*%
%TO.N,CVDD*%
X104130000Y-115910000D03*
%TD*%
D18*
%TO.P,R203,1*%
%TO.N,GND*%
X113965000Y-113640000D03*
%TO.P,R203,2*%
%TO.N,SysCtrl_JTAG_TCK*%
X115615000Y-113640000D03*
%TD*%
D22*
%TO.P,C714,1*%
%TO.N,GND*%
X104430000Y-124335000D03*
%TO.P,C714,2*%
%TO.N,IOVDD*%
X104430000Y-125885000D03*
%TD*%
%TO.P,C728,1*%
%TO.N,GND*%
X107560000Y-121885000D03*
%TO.P,C728,2*%
%TO.N,CVDD*%
X107560000Y-123435000D03*
%TD*%
D20*
%TO.P,C308,1*%
%TO.N,Net-(U304-VREGOUT)*%
X142925000Y-85850000D03*
%TO.P,C308,2*%
%TO.N,GND*%
X141375000Y-85850000D03*
%TD*%
D19*
%TO.P,C316,1*%
%TO.N,3V3_AO*%
X144200000Y-83125000D03*
%TO.P,C316,2*%
%TO.N,GND*%
X144200000Y-81575000D03*
%TD*%
D22*
%TO.P,C320,1*%
%TO.N,3V3_AO*%
X148500000Y-92075000D03*
%TO.P,C320,2*%
%TO.N,GND*%
X148500000Y-93625000D03*
%TD*%
D18*
%TO.P,R420,1*%
%TO.N,GND*%
X84773000Y-122555000D03*
%TO.P,R420,2*%
%TO.N,/PMOD/VDD_PLL2*%
X86423000Y-122555000D03*
%TD*%
D19*
%TO.P,C409,1*%
%TO.N,GND*%
X100699999Y-152885000D03*
%TO.P,C409,2*%
%TO.N,3V3_AO*%
X100699999Y-151335000D03*
%TD*%
D22*
%TO.P,C315,1*%
%TO.N,3V3_AO*%
X146800000Y-92075000D03*
%TO.P,C315,2*%
%TO.N,GND*%
X146800000Y-93625000D03*
%TD*%
D24*
%TO.P,C720,1*%
%TO.N,GND*%
X98200000Y-111414999D03*
%TO.P,C720,2*%
%TO.N,IOVDD*%
X98200000Y-113314999D03*
%TD*%
D22*
%TO.P,C309,1*%
%TO.N,Net-(U304-VREGOUT)*%
X141700000Y-92050000D03*
%TO.P,C309,2*%
%TO.N,GND*%
X141700000Y-93600000D03*
%TD*%
D21*
%TO.P,R411,1*%
%TO.N,GND*%
X99550000Y-138493000D03*
%TO.P,R411,2*%
%TO.N,XO*%
X99550000Y-136843000D03*
%TD*%
D18*
%TO.P,R205,1*%
%TO.N,IOVDD*%
X113975000Y-116160000D03*
%TO.P,R205,2*%
%TO.N,SysCtrl_JTAG_TDO*%
X115625000Y-116160000D03*
%TD*%
D21*
%TO.P,R413,1*%
%TO.N,GND*%
X97028000Y-138493000D03*
%TO.P,R413,2*%
%TO.N,VDD_OUT*%
X97028000Y-136843000D03*
%TD*%
D19*
%TO.P,C711,1*%
%TO.N,GND*%
X107460000Y-114665000D03*
%TO.P,C711,2*%
%TO.N,IOVDD*%
X107460000Y-113115000D03*
%TD*%
%TO.P,C412,1*%
%TO.N,GND*%
X103999996Y-152909998D03*
%TO.P,C412,2*%
%TO.N,3V3_AO*%
X103999996Y-151359998D03*
%TD*%
D20*
%TO.P,C723,1*%
%TO.N,GND*%
X102115000Y-118960000D03*
%TO.P,C723,2*%
%TO.N,CVDD*%
X100565000Y-118960000D03*
%TD*%
D22*
%TO.P,C712,1*%
%TO.N,GND*%
X110840000Y-113455000D03*
%TO.P,C712,2*%
%TO.N,IOVDD*%
X110840000Y-115005000D03*
%TD*%
%TO.P,C407,1*%
%TO.N,GND*%
X104649997Y-158284998D03*
%TO.P,C407,2*%
%TO.N,3V3_AO*%
X104649997Y-159834998D03*
%TD*%
D26*
%TO.N,IOVDD*%
X129265000Y-96700000D03*
X75445000Y-148110000D03*
X107620000Y-126150000D03*
X101990000Y-111850000D03*
X78760000Y-96400000D03*
X135400000Y-112430000D03*
X129650000Y-86400000D03*
X129950000Y-121090000D03*
X100025000Y-113185000D03*
X75445000Y-147360000D03*
X114640000Y-115485000D03*
X134010000Y-79330000D03*
X138360000Y-122800000D03*
X97880000Y-115910000D03*
X129650000Y-84850000D03*
X113048172Y-119345001D03*
X122080000Y-139710000D03*
X123390000Y-114660000D03*
X92020000Y-96010000D03*
X75445000Y-148860000D03*
X73945000Y-148860000D03*
X76195000Y-148110000D03*
X104700000Y-126992297D03*
X114980000Y-95910000D03*
X111080000Y-138060000D03*
X128385000Y-82725000D03*
X135400000Y-124460000D03*
X134000000Y-79910000D03*
X82850000Y-99700000D03*
X138500000Y-110800000D03*
X76195000Y-147360000D03*
X101510000Y-96590000D03*
X127135001Y-95400000D03*
X73195000Y-148860000D03*
X75445000Y-149610000D03*
X76195000Y-149610000D03*
X74695000Y-148860000D03*
X136115001Y-100560000D03*
X75445000Y-150360000D03*
X76195000Y-150360000D03*
X108540000Y-113120000D03*
X105680000Y-99680000D03*
X124621587Y-118421587D03*
X76195000Y-148860000D03*
X130025000Y-102459999D03*
X97603413Y-119806587D03*
X110830000Y-115920000D03*
%TO.N,GND*%
X106000000Y-119000000D03*
X59310000Y-128860000D03*
X53760000Y-108750000D03*
X55260000Y-95749999D03*
X140500000Y-88350000D03*
X54260000Y-102750000D03*
X56315000Y-145940000D03*
X68909999Y-160450000D03*
X64760000Y-96250000D03*
X66000000Y-164000000D03*
X79000000Y-167000000D03*
X64760000Y-105250000D03*
X71000000Y-170500000D03*
X62000000Y-164000000D03*
X76000000Y-83000000D03*
X66000000Y-166000000D03*
X134275000Y-82745000D03*
X53260000Y-94750000D03*
X85000000Y-171000000D03*
X64000000Y-164000000D03*
X64760000Y-118750000D03*
X105000000Y-119000000D03*
X163755002Y-104749999D03*
X53000000Y-136000000D03*
X55260000Y-94750001D03*
X127700001Y-172375001D03*
X156280000Y-89410000D03*
X59300571Y-133839130D03*
X62945000Y-155110000D03*
X124060000Y-164420000D03*
X53259999Y-101750000D03*
X60195000Y-147860000D03*
X133295000Y-94090000D03*
X141167800Y-96685000D03*
X172905002Y-104774998D03*
X140512800Y-143865600D03*
X148252600Y-141120100D03*
X55260000Y-102750000D03*
X63760001Y-101750000D03*
X65760000Y-118750000D03*
X63760000Y-93250000D03*
X104650000Y-139370000D03*
X103249997Y-152259998D03*
X66760000Y-107249999D03*
X66760000Y-118749999D03*
X53200000Y-153650000D03*
X62500000Y-138200000D03*
X110960000Y-93780000D03*
X147650000Y-93650000D03*
X152750000Y-92100000D03*
X106149997Y-155659999D03*
X53760000Y-112750000D03*
X127145000Y-96940000D03*
X71000000Y-165500000D03*
X108870000Y-114790000D03*
X142100000Y-90850000D03*
X106149998Y-157509998D03*
X71000000Y-164500000D03*
X53000000Y-138000000D03*
X65760000Y-119750000D03*
X154500000Y-86550000D03*
X118625001Y-172400001D03*
X64000000Y-168000000D03*
X154630000Y-89460000D03*
X53760000Y-111750000D03*
X83000000Y-167000000D03*
X164880000Y-88510000D03*
X64760000Y-106250000D03*
X62195000Y-155110000D03*
X83890000Y-122570000D03*
X79320000Y-79090000D03*
X123620001Y-141564198D03*
X142600000Y-109400000D03*
X65760000Y-107250000D03*
X59195000Y-148860000D03*
X135855000Y-121455000D03*
X53260000Y-102749999D03*
X105458295Y-158725732D03*
X85000000Y-164000000D03*
X53200000Y-154650000D03*
X64760000Y-94250000D03*
X168920000Y-85650000D03*
X102120000Y-139360000D03*
X63760000Y-121750000D03*
X85000000Y-166000000D03*
X60250000Y-138200000D03*
X84000000Y-168000000D03*
X74495000Y-144750000D03*
X53200000Y-151650000D03*
X63760000Y-94250000D03*
X138665000Y-77715000D03*
X55990000Y-129050000D03*
X65195000Y-155110000D03*
X76000000Y-80000000D03*
X64445000Y-155110000D03*
X117450000Y-156520000D03*
X62760000Y-115750000D03*
X85000000Y-168000000D03*
X115349998Y-156659997D03*
X96850000Y-110890000D03*
X123645001Y-150489198D03*
X58820000Y-132010000D03*
X132537200Y-168859200D03*
X79730000Y-92220000D03*
X59820000Y-131010000D03*
X59195000Y-147860000D03*
X118070001Y-149564198D03*
X53760000Y-114750000D03*
X53260000Y-95750000D03*
X142950000Y-131900000D03*
X63760001Y-95250000D03*
X66001227Y-167998268D03*
X88160000Y-91590000D03*
X53760000Y-110750000D03*
X144250000Y-92950000D03*
X54260000Y-93750000D03*
X83890000Y-117460000D03*
X93660000Y-161880000D03*
X102240800Y-79578800D03*
X64330000Y-128440000D03*
X74500000Y-81500000D03*
X142655000Y-121445000D03*
X172100000Y-96800000D03*
X170860000Y-85660000D03*
X63760000Y-102749999D03*
X84000000Y-165000000D03*
X133025000Y-77435000D03*
X102449996Y-153909998D03*
X83890000Y-120000000D03*
X84000000Y-167000000D03*
X97660000Y-168880000D03*
X64760000Y-107250000D03*
X59760000Y-145760000D03*
X71000000Y-169500000D03*
X64260000Y-111250001D03*
X84000000Y-164000000D03*
X151200000Y-94600000D03*
X103999997Y-153909999D03*
X170850000Y-94550000D03*
X53200000Y-150650000D03*
X108380000Y-124650000D03*
X53260000Y-103750000D03*
X99390000Y-115170000D03*
X145950000Y-93650000D03*
X106000000Y-120000000D03*
X59755000Y-150710000D03*
X116425001Y-174050001D03*
X151389935Y-95761561D03*
X64760000Y-117750000D03*
X143465000Y-129735000D03*
X144200000Y-80600000D03*
X150618413Y-84518413D03*
X53259999Y-115750000D03*
X104000000Y-119000000D03*
X85000000Y-170000000D03*
X110849997Y-154859999D03*
X58820000Y-131010000D03*
X85000000Y-165000000D03*
X160528000Y-167589200D03*
X112450001Y-174050001D03*
X85000000Y-169000000D03*
X133585000Y-102589999D03*
X97030000Y-139360000D03*
X140500000Y-89950000D03*
X123320001Y-153264197D03*
X73595000Y-144760000D03*
X146025000Y-89200000D03*
X61000000Y-138200000D03*
X83890000Y-127630000D03*
X53260000Y-119750000D03*
X85000000Y-167000000D03*
X53260000Y-96750000D03*
X136795000Y-82755000D03*
X143430000Y-117720000D03*
X99550000Y-139370000D03*
X84000000Y-170000000D03*
X76000000Y-81500000D03*
X103000000Y-119000000D03*
X84000000Y-171000000D03*
X99510000Y-124420000D03*
X53760000Y-107750000D03*
X149750000Y-80650000D03*
X63760000Y-96250000D03*
X81000000Y-168000000D03*
X64759999Y-120750000D03*
X105000000Y-121000000D03*
X102420000Y-99100000D03*
X122930000Y-167192500D03*
X105650000Y-163310000D03*
X73320000Y-128260000D03*
X54260000Y-94750000D03*
X84000000Y-166000000D03*
X97820000Y-152380000D03*
X82000000Y-168000000D03*
X53260000Y-118750000D03*
X53260000Y-116750000D03*
X64760000Y-121750000D03*
X61760000Y-101750000D03*
X107000000Y-120000000D03*
X68845000Y-97680000D03*
X136100000Y-109400000D03*
X151937943Y-92986167D03*
X110990000Y-91450000D03*
X103000000Y-121000000D03*
X147218400Y-146304000D03*
X62000000Y-166000000D03*
X148850000Y-86175000D03*
X74070000Y-128260000D03*
X109310000Y-115190000D03*
X164000000Y-90500000D03*
X74500000Y-83000000D03*
X104000000Y-120000000D03*
X142550000Y-93650000D03*
X54260000Y-98750000D03*
X107190000Y-167540000D03*
X114899997Y-158409998D03*
X53260000Y-104750000D03*
X165440000Y-88510000D03*
X60080000Y-128040000D03*
X54380000Y-129050000D03*
X68800000Y-99320000D03*
X54260000Y-115750000D03*
X131300000Y-129800000D03*
X121520001Y-143914198D03*
X88760000Y-170780000D03*
X100499998Y-157259998D03*
X111350000Y-153110000D03*
X94760000Y-165180000D03*
X142695001Y-119870000D03*
X64260000Y-109750000D03*
X129405000Y-102969999D03*
X54260000Y-99750000D03*
X127905000Y-79085000D03*
X88760000Y-168880000D03*
X107021232Y-110521232D03*
X64000000Y-138200000D03*
X53260000Y-105750000D03*
X63695000Y-155110000D03*
X73000000Y-167500000D03*
X81000000Y-167000000D03*
X62760000Y-117750000D03*
X62760000Y-101750000D03*
X94240000Y-139360000D03*
X138065000Y-96685000D03*
X102450000Y-92130000D03*
X144250000Y-93600000D03*
X109200000Y-124500000D03*
X101599998Y-152410000D03*
X90380000Y-95980000D03*
X168560000Y-88500000D03*
X79000000Y-168000000D03*
X60195000Y-148860000D03*
X55260000Y-96750000D03*
X65760000Y-112750000D03*
X133295000Y-96680000D03*
X54260000Y-96750000D03*
X84000000Y-169000000D03*
X129590000Y-156510000D03*
X65760000Y-115750000D03*
X71000000Y-166500000D03*
X53260000Y-100750000D03*
X53760000Y-109750000D03*
X114824997Y-151460000D03*
X147200000Y-82250000D03*
X53760000Y-113750000D03*
X174070000Y-155900000D03*
X64615000Y-145400000D03*
X61760000Y-100750000D03*
X93537500Y-148562500D03*
X118670001Y-151464198D03*
X65760000Y-106250000D03*
X136725000Y-77685000D03*
X63760001Y-106750000D03*
X148262600Y-139070100D03*
X55260000Y-93750000D03*
X83000000Y-168000000D03*
X53000000Y-134000000D03*
X65760000Y-120750000D03*
X54260000Y-116750000D03*
X54260000Y-101750000D03*
X65760000Y-109750000D03*
X55260000Y-100750000D03*
X107000000Y-119000000D03*
X59820000Y-132010000D03*
X54260000Y-100750000D03*
X64760000Y-119750000D03*
X60695000Y-155110000D03*
X53260000Y-117750000D03*
X74500000Y-84500000D03*
X128225000Y-94259999D03*
X99802270Y-114770890D03*
X141380000Y-84910000D03*
X128225001Y-92390000D03*
X128330000Y-83610000D03*
X153540000Y-83860000D03*
X54260000Y-97750000D03*
X65760000Y-117750000D03*
X65760000Y-111250000D03*
X156551814Y-92897779D03*
X55260000Y-101750000D03*
X53200000Y-149650000D03*
X76000000Y-84500000D03*
X54715000Y-145930000D03*
X106000000Y-121000000D03*
X107000000Y-121000000D03*
X113380000Y-95910000D03*
X53000000Y-133000000D03*
X140520400Y-146260800D03*
X53259999Y-106750000D03*
X66760000Y-106250001D03*
X100699999Y-153860000D03*
X155969301Y-97564848D03*
X151000000Y-88990000D03*
X94760000Y-168580000D03*
X64759999Y-95250000D03*
X168800000Y-94540000D03*
X72000000Y-167500000D03*
X68800000Y-102570000D03*
X82000000Y-167000000D03*
X71000000Y-167500000D03*
X53200000Y-152650000D03*
X88150000Y-93850000D03*
X64260000Y-112750000D03*
X62000000Y-168000000D03*
X64260000Y-114250000D03*
X66760000Y-120750000D03*
X128075000Y-97860000D03*
X64760000Y-93250000D03*
X91075000Y-152162500D03*
X61445000Y-155110000D03*
X105000000Y-120000000D03*
X103000000Y-120000000D03*
X83890000Y-125090000D03*
X71000000Y-168500000D03*
X63250000Y-138200000D03*
X62760000Y-100750000D03*
X80000000Y-167000000D03*
X64260000Y-115750000D03*
X97660000Y-170880000D03*
X62760000Y-102750000D03*
X64750000Y-138200000D03*
X160528000Y-164439600D03*
X142067800Y-102085000D03*
X146025000Y-86175000D03*
X54260000Y-117750000D03*
X64000000Y-166000000D03*
X148052600Y-142900100D03*
X53000000Y-135000000D03*
X132537200Y-165709600D03*
X142050000Y-84850000D03*
X66760000Y-119750000D03*
X61750000Y-138200000D03*
X80000000Y-168000000D03*
X104000000Y-121000000D03*
X149000000Y-89250000D03*
X74500000Y-80000000D03*
X164320000Y-88510000D03*
X159910000Y-100670000D03*
X63760000Y-117750000D03*
X104649997Y-157309997D03*
X66760000Y-117750001D03*
X53000000Y-137000000D03*
X79690000Y-98890000D03*
X54260000Y-95750000D03*
X65760000Y-114250000D03*
X117720001Y-145464199D03*
%TO.N,+5V*%
X61010000Y-95250000D03*
X164300000Y-98800000D03*
X80000000Y-173500000D03*
X77000000Y-173500000D03*
X69000000Y-89500000D03*
X74000000Y-173500000D03*
X74000000Y-172500000D03*
X69000000Y-91500000D03*
X163200000Y-98800000D03*
X164300000Y-97900000D03*
X76000000Y-172500000D03*
X62010000Y-93250000D03*
X76000000Y-173500000D03*
X75000000Y-173500000D03*
X62010000Y-95250000D03*
X162000000Y-98800000D03*
X69000000Y-92500000D03*
X69000000Y-90500000D03*
X77000000Y-172500000D03*
X59760000Y-98500001D03*
X78000000Y-169500000D03*
X165400000Y-98800000D03*
X67500000Y-90500000D03*
X67500000Y-92500000D03*
X61010000Y-97500000D03*
X61010000Y-98500000D03*
X79000000Y-173500000D03*
X78000000Y-173500000D03*
X67500000Y-91500000D03*
X78000000Y-170500000D03*
X61010000Y-93249999D03*
X78000000Y-172500000D03*
X61010000Y-94250000D03*
X80000000Y-172500000D03*
X75000000Y-172500000D03*
X78000000Y-171500000D03*
X60010000Y-93250000D03*
X79000000Y-172500000D03*
X67500000Y-89500000D03*
X61009999Y-96500000D03*
X62010000Y-94250000D03*
%TO.N,CVDD*%
X99424998Y-118920000D03*
X72820000Y-132010000D03*
X75070000Y-133510000D03*
X113560000Y-137950000D03*
X99410000Y-116420000D03*
X75070000Y-130510000D03*
X75820000Y-131260000D03*
X73570000Y-132010000D03*
X75070000Y-131260000D03*
X109330000Y-116420000D03*
X75070000Y-132760000D03*
X107237702Y-124619999D03*
X75820000Y-130510000D03*
X104130000Y-114719998D03*
X105630000Y-114719998D03*
X75820000Y-132760000D03*
X106512298Y-124620000D03*
X75820000Y-133510000D03*
X75820000Y-132010000D03*
X74320000Y-132010000D03*
X75070000Y-132010000D03*
X109340000Y-117420000D03*
%TO.N,IO_CURR_SENS+*%
X80800000Y-150550000D03*
X80800000Y-149200000D03*
%TO.N,SysCtrl_JTAG_TDO*%
X125370000Y-110910000D03*
X125380000Y-113700000D03*
%TO.N,SysCtrl_JTAG_TDI*%
X124440000Y-110910000D03*
X124660000Y-113050000D03*
%TO.N,SysCtrl_JTAG_TMS*%
X126300000Y-114350000D03*
X126300000Y-110900000D03*
%TO.N,EN_CVDD*%
X78260000Y-154720000D03*
X78260000Y-149070000D03*
%TO.N,SysCtrl_UART_RX*%
X130710000Y-115650000D03*
X130700000Y-110820000D03*
%TO.N,SysCtrl_UART_TX*%
X131350000Y-116300000D03*
X131350000Y-110390000D03*
%TO.N,/PMOD/PMODA_7*%
X86750000Y-90350000D03*
%TO.N,/PMOD/PMODA_8*%
X87400000Y-90810000D03*
%TO.N,Net-(U304-VREGOUT)*%
X150850000Y-90900000D03*
X144000000Y-90800000D03*
X143950000Y-85850000D03*
X150900000Y-85850000D03*
%TO.N,Net-(JP501-A)*%
X67980000Y-95100000D03*
X67975001Y-108570000D03*
%TO.N,Net-(D301-K)*%
X136915000Y-97800000D03*
%TO.N,/PMOD/PMODB_7*%
X109570000Y-90500000D03*
%TO.N,/PMOD/PMODB_8*%
X110220000Y-90970000D03*
%TO.N,3V3_AO*%
X78000000Y-160500000D03*
X103750000Y-149640000D03*
X77000000Y-162500000D03*
X108120000Y-173340000D03*
X78000000Y-164500000D03*
X148267800Y-102060000D03*
X138717799Y-102085000D03*
X80000000Y-162500000D03*
X80000000Y-160500000D03*
X98249998Y-158260000D03*
X78000000Y-165500000D03*
X144800000Y-90900000D03*
X138645000Y-79265000D03*
X87775000Y-152162500D03*
X77000000Y-160500000D03*
X122910000Y-165502500D03*
X155500000Y-84050000D03*
X151025000Y-89850000D03*
X75000000Y-162500000D03*
X106199997Y-160909998D03*
X147250000Y-91150000D03*
X78000000Y-162500000D03*
X141045000Y-100485000D03*
X77000000Y-161500000D03*
X144200000Y-84050000D03*
X103750000Y-150140000D03*
X85237500Y-148562500D03*
X108880000Y-158420000D03*
X138145000Y-100465000D03*
X100699999Y-150159999D03*
X149700000Y-84050000D03*
X146592800Y-102960000D03*
X79000000Y-161500000D03*
X76000000Y-162500000D03*
X99899998Y-151359998D03*
X130045000Y-96689999D03*
X78000000Y-161500000D03*
X80000000Y-161500000D03*
X79000000Y-162500000D03*
X143775000Y-88350000D03*
X141700000Y-95000000D03*
X124050000Y-162900000D03*
X151025000Y-87350000D03*
X78000000Y-163500000D03*
X129785000Y-92380000D03*
X79000000Y-160500000D03*
X139250000Y-79270000D03*
X102499998Y-150109997D03*
%TO.N,MCU_SCL*%
X106653097Y-154770000D03*
X127550000Y-150580000D03*
%TO.N,MCU_SDA*%
X126930000Y-148250000D03*
X106630000Y-153870000D03*
%TO.N,/SysCtrl/CLK*%
X120570000Y-137617200D03*
%TO.N,DIDACTIC_RST_N*%
X132130000Y-110750000D03*
X131270000Y-117550000D03*
X116750000Y-138170000D03*
%TO.N,IO_3V3_CURR_SENS+*%
X69400000Y-123900000D03*
X62000000Y-114100000D03*
%TO.N,EN_3V3_IOVDD*%
X96560000Y-153260000D03*
X96550000Y-145300000D03*
%TO.N,/PowerMCU/CORE_CURR_SENSE*%
X95030000Y-146610000D03*
X84690000Y-146610000D03*
%TO.N,3V3_IO*%
X154000000Y-152000000D03*
X58500000Y-134500000D03*
X61300000Y-117050000D03*
X136415000Y-137722498D03*
X58500000Y-135500000D03*
X57000000Y-121000000D03*
X58500000Y-155000000D03*
X58500000Y-138500000D03*
X57500000Y-155000000D03*
X58500000Y-136500000D03*
X58500000Y-151000000D03*
X57500000Y-137500000D03*
X78770000Y-94670000D03*
X155605000Y-137732498D03*
X59000000Y-122000000D03*
X144492600Y-139070100D03*
X58500000Y-154000000D03*
X57500000Y-138500000D03*
X155000000Y-151000000D03*
X155000000Y-153000000D03*
X67850000Y-122900000D03*
X155000000Y-152000000D03*
X101500000Y-94590000D03*
X153005000Y-137742498D03*
X58500000Y-153000000D03*
X57500000Y-154000000D03*
X58000000Y-123000000D03*
X145491200Y-146304000D03*
X155000000Y-150000000D03*
X82840000Y-91540000D03*
X117720001Y-147014198D03*
X57500000Y-151000000D03*
X59000000Y-119000000D03*
X143005000Y-137682498D03*
X144712600Y-142890100D03*
X59000000Y-120000000D03*
X140180000Y-122800000D03*
X57500000Y-152000000D03*
X138080000Y-137715000D03*
X58500000Y-137500000D03*
X57000000Y-123000000D03*
X154000000Y-150000000D03*
X154000000Y-151000000D03*
X57500000Y-135500000D03*
X155000000Y-149000000D03*
X124880000Y-146627500D03*
X57500000Y-134500000D03*
X58000000Y-121000000D03*
X58000000Y-122000000D03*
X154000000Y-153000000D03*
X143550000Y-124450000D03*
X57500000Y-153000000D03*
X59000000Y-121000000D03*
X154000000Y-149000000D03*
X143500000Y-112400000D03*
X140200000Y-110800000D03*
X150615000Y-137752498D03*
X144502600Y-141130100D03*
X108930000Y-148720000D03*
X59000000Y-123000000D03*
X105690000Y-91500000D03*
X58500000Y-152000000D03*
X57000000Y-122000000D03*
X57500000Y-136500000D03*
%TO.N,/PowerMCU/BTN1*%
X112400000Y-162730000D03*
X117540000Y-162730000D03*
%TO.N,/SysCtrl/SPI_SCK_3V3*%
X143000000Y-141470000D03*
X150230000Y-126385000D03*
%TO.N,/SysCtrl/SPI_CSN1_3V3*%
X168290000Y-154790000D03*
%TO.N,/SysCtrl/SPI_DATA1_3V3*%
X138070000Y-141530000D03*
X149180000Y-127035000D03*
%TO.N,/SysCtrl/3V3_IO_LS_EN*%
X135869999Y-119860000D03*
%TO.N,/SysCtrl/SPI_DATA0_3V3*%
X151770000Y-125735000D03*
X150500000Y-141480000D03*
%TO.N,/SysCtrl/SPI_CSN0_3V3*%
X153000000Y-141430000D03*
X154240000Y-123685000D03*
%TO.N,/PMOD/PMODA_5*%
X85450000Y-90270000D03*
%TO.N,/PMOD/PMODA_6*%
X86100000Y-90800000D03*
%TO.N,/PMOD/PMODB_5*%
X108290000Y-90500000D03*
%TO.N,/PMOD/PMODB_6*%
X108920000Y-90970000D03*
%TO.N,/PowerMCU/SSD1306_SDA*%
X103620000Y-157380000D03*
%TO.N,/PowerMCU/SSD1306_SCL*%
X101690000Y-156760000D03*
%TO.N,/PowerMCU/MCU_RST*%
X111570000Y-160770000D03*
X111570000Y-166680000D03*
%TD*%
D27*
%TO.N,IOVDD*%
X113683173Y-118710000D02*
X113048172Y-119345001D01*
X98465000Y-117440000D02*
X98465000Y-116725000D01*
X102330000Y-125925001D02*
X104389999Y-125925001D01*
X124283174Y-118760000D02*
X124621587Y-118421587D01*
X99370000Y-113840000D02*
X100025000Y-113185000D01*
X98200000Y-113840000D02*
X99370000Y-113840000D01*
X98945000Y-120520000D02*
X98316826Y-120520000D01*
D28*
X101990000Y-111850000D02*
X101990000Y-112180000D01*
D27*
X104430000Y-125885000D02*
X104430000Y-126722297D01*
X113975000Y-116160000D02*
X113975000Y-116150000D01*
D28*
X102595000Y-112785000D02*
X102670000Y-112785000D01*
X101990000Y-112180000D02*
X102595000Y-112785000D01*
D27*
X107640000Y-126130000D02*
X107620000Y-126150000D01*
X123735000Y-114315000D02*
X123390000Y-114660000D01*
X108595000Y-126130000D02*
X107640000Y-126130000D01*
X113945000Y-118710000D02*
X113683173Y-118710000D01*
X98316826Y-120520000D02*
X97603413Y-119806587D01*
X104389999Y-125925001D02*
X104430000Y-125885000D01*
D28*
X110830000Y-115015000D02*
X110840000Y-115005000D01*
D27*
X107460000Y-113115000D02*
X108535000Y-113115000D01*
X104430000Y-126722297D02*
X104700000Y-126992297D01*
X97880000Y-116140000D02*
X97880000Y-115910000D01*
D28*
X110830000Y-115920000D02*
X110830000Y-115015000D01*
D27*
X108535000Y-113115000D02*
X108540000Y-113120000D01*
X100425000Y-112785000D02*
X100025000Y-113185000D01*
X98465000Y-116725000D02*
X97880000Y-116140000D01*
X123735000Y-113630000D02*
X123735000Y-114315000D01*
X113975000Y-116150000D02*
X114640000Y-115485000D01*
X123735000Y-118760000D02*
X124283174Y-118760000D01*
X101070000Y-112785000D02*
X100425000Y-112785000D01*
D28*
%TO.N,GND*%
X141700000Y-93600000D02*
X142500000Y-93600000D01*
X150618413Y-84518413D02*
X150706095Y-84606095D01*
X145925000Y-93625000D02*
X145950000Y-93650000D01*
D27*
X144200000Y-81575000D02*
X144200000Y-80600000D01*
D28*
X148500000Y-93625000D02*
X147675000Y-93625000D01*
X98349999Y-152909999D02*
X97820000Y-152380000D01*
X142600000Y-93600000D02*
X142550000Y-93650000D01*
D27*
X153525000Y-84900000D02*
X153525000Y-83875000D01*
X141375000Y-85850000D02*
X141375000Y-84915000D01*
X104648000Y-138493000D02*
X104648000Y-139368000D01*
X99550000Y-138493000D02*
X99550000Y-139370000D01*
D28*
X151200000Y-93650000D02*
X151200000Y-94600000D01*
D27*
X112405000Y-113455000D02*
X110840000Y-113455000D01*
X104648000Y-139368000D02*
X104650000Y-139370000D01*
X96850002Y-110889998D02*
X96850000Y-110890000D01*
X153525000Y-83875000D02*
X153540000Y-83860000D01*
D28*
X106174998Y-157534999D02*
X106149998Y-157509998D01*
D27*
X102108000Y-139348000D02*
X102120000Y-139360000D01*
D28*
X140500000Y-89950000D02*
X141375000Y-89950000D01*
X145100000Y-93625000D02*
X145925000Y-93625000D01*
D27*
X154340000Y-89750000D02*
X154630000Y-89460000D01*
X102108000Y-138493000D02*
X102108000Y-139348000D01*
X94234000Y-138493000D02*
X94234000Y-139354000D01*
D28*
X106174998Y-158309998D02*
X106174998Y-157534999D01*
X143400000Y-93600000D02*
X144250000Y-93600000D01*
X106149999Y-156609999D02*
X106149997Y-155659999D01*
X145975000Y-93625000D02*
X145950000Y-93650000D01*
X100774999Y-157534998D02*
X100499998Y-157259998D01*
D27*
X94234000Y-139354000D02*
X94240000Y-139360000D01*
D28*
X146800000Y-93625000D02*
X145975000Y-93625000D01*
X147625000Y-93625000D02*
X147650000Y-93650000D01*
D27*
X112590000Y-113640000D02*
X112405000Y-113455000D01*
D28*
X142500000Y-93600000D02*
X142550000Y-93650000D01*
X103999998Y-152909999D02*
X103999997Y-153909999D01*
X100774999Y-158259999D02*
X100774999Y-157534998D01*
D27*
X105020000Y-110534999D02*
X107007465Y-110534999D01*
D28*
X102449997Y-152909998D02*
X102449996Y-153909998D01*
X144275000Y-93625000D02*
X144250000Y-93600000D01*
D27*
X84773000Y-120015000D02*
X83905000Y-120015000D01*
X97028000Y-138493000D02*
X97028000Y-139358000D01*
X84773000Y-127635000D02*
X83895000Y-127635000D01*
X83895000Y-125095000D02*
X83890000Y-125090000D01*
D28*
X145100000Y-93625000D02*
X144275000Y-93625000D01*
D27*
X97028000Y-139358000D02*
X97030000Y-139360000D01*
X98200000Y-110889998D02*
X96850002Y-110889998D01*
X83895000Y-127635000D02*
X83890000Y-127630000D01*
X83905000Y-120015000D02*
X83890000Y-120000000D01*
X141375000Y-84915000D02*
X141380000Y-84910000D01*
D28*
X107007465Y-110534999D02*
X107021232Y-110521232D01*
D27*
X84773000Y-122555000D02*
X83905000Y-122555000D01*
D28*
X143400000Y-93600000D02*
X142600000Y-93600000D01*
D27*
X141375000Y-88350000D02*
X140500000Y-88350000D01*
D28*
X104649997Y-158284998D02*
X104649997Y-157309997D01*
X100699999Y-152884999D02*
X100699999Y-153860000D01*
D27*
X153525000Y-89750000D02*
X154340000Y-89750000D01*
D28*
X99099998Y-152909999D02*
X98349999Y-152909999D01*
X146800000Y-93625000D02*
X147625000Y-93625000D01*
D27*
X84773000Y-125095000D02*
X83895000Y-125095000D01*
X113965000Y-113640000D02*
X112590000Y-113640000D01*
X153525000Y-86550000D02*
X154500000Y-86550000D01*
D28*
X147675000Y-93625000D02*
X147650000Y-93650000D01*
D27*
X83905000Y-122555000D02*
X83890000Y-122570000D01*
X149750000Y-81575000D02*
X149750000Y-80650000D01*
%TO.N,CVDD*%
X109330000Y-118415000D02*
X109330000Y-117430000D01*
D28*
X113560000Y-137950000D02*
X113590000Y-137920000D01*
D27*
X107560000Y-124297701D02*
X107237702Y-124619999D01*
X106000000Y-123440000D02*
X106000000Y-124107702D01*
X105630000Y-114090000D02*
X105630000Y-114719998D01*
D28*
X99424998Y-118920000D02*
X100525000Y-118920000D01*
D27*
X105020000Y-113485001D02*
X105025001Y-113485001D01*
X109330000Y-117430000D02*
X109340000Y-117420000D01*
X105020000Y-113485001D02*
X104624999Y-113485001D01*
X107560000Y-123435000D02*
X107560000Y-124297701D01*
X100575000Y-115910000D02*
X99920000Y-115910000D01*
X108890000Y-123435000D02*
X109365000Y-122960000D01*
X104130000Y-115910000D02*
X104130000Y-114719998D01*
X104130000Y-113980000D02*
X104130000Y-114719998D01*
D28*
X113590000Y-137920000D02*
X113590000Y-133960000D01*
D27*
X110255000Y-116955000D02*
X109720000Y-116420000D01*
X107560000Y-123435000D02*
X108890000Y-123435000D01*
X105670000Y-114759998D02*
X105630000Y-114719998D01*
X105670000Y-115910000D02*
X105670000Y-114759998D01*
D28*
X100525000Y-118920000D02*
X100565000Y-118960000D01*
D27*
X110900000Y-116955000D02*
X110255000Y-116955000D01*
X109720000Y-116420000D02*
X109330000Y-116420000D01*
X106000000Y-124107702D02*
X106512298Y-124620000D01*
X105025001Y-113485001D02*
X105630000Y-114090000D01*
X99920000Y-115910000D02*
X99410000Y-116420000D01*
X104624999Y-113485001D02*
X104130000Y-113980000D01*
%TO.N,IO_CURR_SENS+*%
X80800000Y-149200000D02*
X80800000Y-150550000D01*
D28*
%TO.N,SysCtrl_JTAG_TDO*%
X115645000Y-116180000D02*
X115625000Y-116160000D01*
X117400000Y-116180000D02*
X115645000Y-116180000D01*
X125370000Y-110910000D02*
X125370000Y-113690000D01*
X125370000Y-113690000D02*
X125380000Y-113700000D01*
D29*
%TO.N,SysCtrl_JTAG_TDI*%
X119940000Y-113640000D02*
X122075000Y-113640000D01*
X122075000Y-113640000D02*
X122085000Y-113630000D01*
D28*
X124440000Y-110910000D02*
X124440000Y-112830000D01*
X124440000Y-112830000D02*
X124660000Y-113050000D01*
%TO.N,SysCtrl_JTAG_TMS*%
X115595000Y-118710000D02*
X117390000Y-118710000D01*
X126300000Y-110900000D02*
X126300000Y-114350000D01*
X117390000Y-118710000D02*
X117400000Y-118720000D01*
%TO.N,SysCtrl_JTAG_TCK*%
X117400000Y-113640000D02*
X115615000Y-113640000D01*
%TO.N,EN_CVDD*%
X78260000Y-154720000D02*
X78260000Y-149070000D01*
%TO.N,SysCtrl_UART_RX*%
X130700000Y-115640000D02*
X130710000Y-115650000D01*
X130700000Y-110820000D02*
X130700000Y-115640000D01*
%TO.N,SysCtrl_UART_TX*%
X131350000Y-110390000D02*
X131350000Y-116300000D01*
%TO.N,/PMOD/PMODA_7*%
X88910000Y-86370001D02*
X87629999Y-85090000D01*
X88560000Y-89000000D02*
X88910000Y-88650000D01*
X86750000Y-89520000D02*
X87270000Y-89000000D01*
X86750000Y-90350000D02*
X86750000Y-89520000D01*
X87270000Y-89000000D02*
X88560000Y-89000000D01*
X88910000Y-88650000D02*
X88910000Y-86370001D01*
%TO.N,/PMOD/PMODA_8*%
X87400000Y-90810000D02*
X89730000Y-90810000D01*
X91450000Y-89090000D02*
X91450000Y-86370000D01*
X91450000Y-86370000D02*
X90170000Y-85090000D01*
X89730000Y-90810000D02*
X91450000Y-89090000D01*
%TO.N,Net-(U304-VREGOUT)*%
X143950000Y-85850000D02*
X142925000Y-85850000D01*
X151200000Y-92100000D02*
X151200000Y-91550000D01*
X150850000Y-91200000D02*
X150850000Y-90900000D01*
X143400000Y-92050000D02*
X143400000Y-91400000D01*
X141700000Y-92050000D02*
X143400000Y-92050000D01*
X150900000Y-85050000D02*
X150900000Y-85850000D01*
X151050000Y-84900000D02*
X150900000Y-85050000D01*
X151200000Y-91550000D02*
X150850000Y-91200000D01*
X143400000Y-91400000D02*
X144000000Y-90800000D01*
X151975000Y-84900000D02*
X151050000Y-84900000D01*
D30*
%TO.N,Net-(JP501-A)*%
X61224998Y-108570000D02*
X67975001Y-108570000D01*
X67980000Y-108565001D02*
X67980000Y-95100000D01*
X67975001Y-108570000D02*
X67980000Y-108565001D01*
D28*
%TO.N,Net-(D301-K)*%
X136920000Y-105810000D02*
X136920000Y-97805000D01*
X136920000Y-97805000D02*
X136915000Y-97800000D01*
%TO.N,/PMOD/PMODB_7*%
X110120000Y-89080000D02*
X111240000Y-89080000D01*
X111240000Y-89080000D02*
X111770000Y-88550000D01*
X109570000Y-89630000D02*
X110120000Y-89080000D01*
X111770000Y-88550000D02*
X111770000Y-86370001D01*
X111770000Y-86370001D02*
X110489999Y-85090000D01*
X109570000Y-90500000D02*
X109570000Y-89630000D01*
%TO.N,/PMOD/PMODB_8*%
X113540000Y-89820000D02*
X114280000Y-89080000D01*
X110220000Y-90350000D02*
X110750000Y-89820000D01*
X110750000Y-89820000D02*
X113540000Y-89820000D01*
X114280000Y-89080000D02*
X114280000Y-86340000D01*
X110220000Y-90970000D02*
X110220000Y-90350000D01*
X114280000Y-86340000D02*
X113030000Y-85090000D01*
%TO.N,3V3_AO*%
X151025000Y-87350000D02*
X151025000Y-86875000D01*
D27*
X103750000Y-149488000D02*
X103730000Y-149468000D01*
D28*
X151025000Y-86875000D02*
X151350000Y-86550000D01*
X100699999Y-150159999D02*
X100699999Y-151334998D01*
X108719999Y-158259999D02*
X107774996Y-158259999D01*
D27*
X103750000Y-149640000D02*
X103750000Y-149488000D01*
D28*
X146800000Y-92075000D02*
X146800000Y-91400000D01*
X148500000Y-91350000D02*
X148300000Y-91150000D01*
X100674997Y-151359998D02*
X100699999Y-151334998D01*
X106199997Y-160909998D02*
X106199997Y-160059998D01*
D27*
X103730000Y-149468000D02*
X103730000Y-145920800D01*
D28*
X106199997Y-160059998D02*
X105975000Y-159835000D01*
X148300000Y-91150000D02*
X147250000Y-91150000D01*
X149700000Y-83175000D02*
X149750000Y-83125000D01*
X100699999Y-151334998D02*
X99924999Y-151335000D01*
X145100000Y-91200000D02*
X144800000Y-90900000D01*
X151025000Y-89850000D02*
X151875000Y-89850000D01*
X102449998Y-151359999D02*
X103999997Y-151359998D01*
D27*
X103730000Y-144840800D02*
X101180000Y-142290800D01*
D28*
X143775000Y-89625000D02*
X143775000Y-88350000D01*
X148500000Y-92075000D02*
X148500000Y-91350000D01*
X146800000Y-91400000D02*
X147050000Y-91150000D01*
X151875000Y-89850000D02*
X151975000Y-89750000D01*
X147050000Y-91150000D02*
X147250000Y-91150000D01*
X102449997Y-150159999D02*
X102499998Y-150109997D01*
X143775000Y-88350000D02*
X142925000Y-88350000D01*
X107724998Y-158309999D02*
X107699999Y-158285000D01*
X145100000Y-92075000D02*
X145100000Y-91200000D01*
X102449998Y-151359999D02*
X102449997Y-150159999D01*
X144200000Y-84050000D02*
X144200000Y-83125000D01*
X108880000Y-158420000D02*
X108719999Y-158259999D01*
X99924999Y-151335000D02*
X99899998Y-151359998D01*
X149700000Y-84050000D02*
X149700000Y-83175000D01*
X143450000Y-89950000D02*
X143775000Y-89625000D01*
X151350000Y-86550000D02*
X151975000Y-86550000D01*
X98249998Y-158260000D02*
X99224996Y-158259999D01*
X142925000Y-89950000D02*
X143450000Y-89950000D01*
D27*
X103730000Y-145920800D02*
X103730000Y-144840800D01*
D28*
X105975000Y-159835000D02*
X104649997Y-159834999D01*
X99099999Y-151359999D02*
X99899998Y-151359998D01*
X107774996Y-158259999D02*
X107724998Y-158309999D01*
D27*
X103750000Y-149640000D02*
X103750000Y-150140000D01*
D28*
X107699999Y-158285000D02*
X107699996Y-156609998D01*
%TO.N,MCU_SCL*%
X127550000Y-153580000D02*
X127550000Y-150580000D01*
X106653097Y-154770000D02*
X109190000Y-154770000D01*
X109190000Y-154770000D02*
X109855999Y-155435999D01*
X109855999Y-155435999D02*
X125694001Y-155435999D01*
X125694001Y-155435999D02*
X127550000Y-153580000D01*
%TO.N,MCU_SDA*%
X126930000Y-152950000D02*
X126930000Y-148250000D01*
X106630000Y-153870000D02*
X126010000Y-153870000D01*
X126010000Y-153870000D02*
X126930000Y-152950000D01*
D31*
%TO.N,/SysCtrl/CLK*%
X120570000Y-133990000D02*
X122060000Y-132500000D01*
X120570000Y-137617200D02*
X120570000Y-133990000D01*
X122060000Y-125920000D02*
X119940000Y-123800000D01*
X122060000Y-132500000D02*
X122060000Y-125920000D01*
D28*
%TO.N,DIDACTIC_RST_N*%
X115750000Y-130750000D02*
X115750000Y-125450000D01*
X116750000Y-138170000D02*
X116750000Y-131750000D01*
X132130000Y-116690000D02*
X131270000Y-117550000D01*
X116750000Y-131750000D02*
X115750000Y-130750000D01*
X115750000Y-125450000D02*
X117400000Y-123800000D01*
X132130000Y-110750000D02*
X132130000Y-116690000D01*
D27*
%TO.N,IO_3V3_CURR_SENS+*%
X62000000Y-114100000D02*
X63014998Y-114100000D01*
X63614998Y-113500000D02*
X67350000Y-113500000D01*
X63014998Y-114100000D02*
X63614998Y-113500000D01*
X68700000Y-123200000D02*
X69400000Y-123900000D01*
X67350000Y-113500000D02*
X68700000Y-114850000D01*
X68700000Y-114850000D02*
X68700000Y-123200000D01*
D28*
%TO.N,EN_3V3_IOVDD*%
X96560000Y-153260000D02*
X96560000Y-145310000D01*
X96560000Y-145310000D02*
X96550000Y-145300000D01*
%TO.N,/PowerMCU/CORE_CURR_SENSE*%
X84690000Y-146610000D02*
X95030000Y-146610000D01*
D27*
%TO.N,3V3_IO*%
X67000000Y-117050000D02*
X67850000Y-117900000D01*
X61300000Y-117050000D02*
X67000000Y-117050000D01*
X67850000Y-117900000D02*
X67850000Y-122900000D01*
D28*
%TO.N,/PowerMCU/BTN1*%
X117540000Y-162730000D02*
X112400000Y-162730000D01*
%TO.N,SysCtrl_JTAG_TRST*%
X119980000Y-118760000D02*
X119940000Y-118720000D01*
X122085000Y-118760000D02*
X119980000Y-118760000D01*
%TO.N,/SysCtrl/SPI_SCK_3V3*%
X143610000Y-134540000D02*
X150230000Y-127920000D01*
X143610000Y-140860000D02*
X143610000Y-134540000D01*
X143000000Y-141470000D02*
X143610000Y-140860000D01*
X150230000Y-127920000D02*
X150230000Y-126385000D01*
%TO.N,/SysCtrl/SPI_CSN1_3V3*%
X171550000Y-133270000D02*
X172830000Y-131990000D01*
X171550000Y-154150000D02*
X171550000Y-133270000D01*
X168290000Y-154790000D02*
X170910000Y-154790000D01*
X170910000Y-154790000D02*
X171550000Y-154150000D01*
%TO.N,/SysCtrl/SPI_DATA1_3V3*%
X139270000Y-137990000D02*
X149180000Y-128080000D01*
X138070000Y-141530000D02*
X139270000Y-140330000D01*
X149180000Y-128080000D02*
X149180000Y-127035000D01*
X139270000Y-140330000D02*
X139270000Y-137990000D01*
%TO.N,/SysCtrl/3V3_IO_LS_EN*%
X133720000Y-119860000D02*
X135869999Y-119860000D01*
X132390000Y-121190000D02*
X133720000Y-119860000D01*
X132390000Y-134160000D02*
X132390000Y-121190000D01*
X131600000Y-134950000D02*
X132390000Y-134160000D01*
%TO.N,/SysCtrl/SPI_DATA0_3V3*%
X150500000Y-141480000D02*
X151760000Y-140220000D01*
X151760000Y-125745000D02*
X151770000Y-125735000D01*
X151760000Y-140220000D02*
X151760000Y-125745000D01*
D27*
%TO.N,/SysCtrl/SPI_CSN0_3V3*%
X154250000Y-123695000D02*
X154240000Y-123685000D01*
X154250000Y-140180000D02*
X154250000Y-123695000D01*
X153000000Y-141430000D02*
X154250000Y-140180000D01*
D28*
%TO.N,OUT_XTAL*%
X102108000Y-136843000D02*
X102108000Y-132742000D01*
X102108000Y-132742000D02*
X103430000Y-131420000D01*
%TO.N,OUT_PLUS*%
X94234000Y-136843000D02*
X94234000Y-132995999D01*
X94234000Y-132995999D02*
X95809999Y-131420000D01*
%TO.N,XO*%
X99550000Y-132760000D02*
X100890000Y-131420000D01*
X99550000Y-136843000D02*
X99550000Y-132760000D01*
%TO.N,VDD_OUT*%
X97028000Y-132742000D02*
X98350000Y-131420000D01*
X97028000Y-136843000D02*
X97028000Y-132742000D01*
%TO.N,VDD_SUB3*%
X104648000Y-132742000D02*
X105970000Y-131420000D01*
X104648000Y-136843000D02*
X104648000Y-132742000D01*
%TO.N,P_BIAS*%
X122900000Y-104500000D02*
X122160000Y-103760000D01*
X119940000Y-116180000D02*
X121020000Y-116180000D01*
X122900000Y-114300000D02*
X122900000Y-104500000D01*
X122160000Y-103760000D02*
X121000000Y-103760000D01*
X121020000Y-116180000D02*
X122900000Y-114300000D01*
%TO.N,/PMOD/VDD_PLL2*%
X86423000Y-122555000D02*
X90754999Y-122555000D01*
X90754999Y-122555000D02*
X92000000Y-123800001D01*
%TO.N,/PMOD/IN_MINUS*%
X90755000Y-127635000D02*
X92000000Y-128880000D01*
X86423000Y-127635000D02*
X90755000Y-127635000D01*
%TO.N,/PMOD/VDD_IN*%
X90755000Y-125095000D02*
X92000000Y-126340000D01*
X86423000Y-125095000D02*
X90755000Y-125095000D01*
%TO.N,/PMOD/VDD_PLL1*%
X86423000Y-120015000D02*
X90755000Y-120015000D01*
X90755000Y-120015000D02*
X92000000Y-121260000D01*
%TO.N,/PMOD/PMODA_5*%
X83840000Y-86380000D02*
X82550000Y-85090000D01*
X85450000Y-90270000D02*
X85450000Y-90250000D01*
X85450000Y-90250000D02*
X83840000Y-88640000D01*
X83840000Y-88640000D02*
X83840000Y-86380000D01*
%TO.N,/PMOD/PMODA_6*%
X86100000Y-88660000D02*
X86420000Y-88340000D01*
X86420000Y-88340000D02*
X86420000Y-86420000D01*
X86100000Y-90800000D02*
X86100000Y-88660000D01*
X86420000Y-86420000D02*
X85090000Y-85090000D01*
%TO.N,/PMOD/PMODB_5*%
X106680000Y-86360000D02*
X105410000Y-85090000D01*
X106980000Y-89180000D02*
X106680000Y-88880000D01*
X106680000Y-88880000D02*
X106680000Y-86360000D01*
X108290000Y-90500000D02*
X106980000Y-89190000D01*
X106980000Y-89190000D02*
X106980000Y-89180000D01*
%TO.N,/PMOD/PMODB_6*%
X108920000Y-88410000D02*
X109190000Y-88140000D01*
X109190000Y-88140000D02*
X109190000Y-86330000D01*
X108920000Y-90970000D02*
X108920000Y-88410000D01*
X109190000Y-86330000D02*
X107950000Y-85090000D01*
%TO.N,/PowerMCU/SSD1306_SDA*%
X106781600Y-152806400D02*
X106781600Y-150520400D01*
X106070400Y-153517600D02*
X106781600Y-152806400D01*
X107645200Y-147085600D02*
X108810000Y-145920800D01*
X106781600Y-150520400D02*
X107645200Y-149656800D01*
X106070400Y-154330400D02*
X106070400Y-153517600D01*
X108810000Y-142300800D02*
X108800000Y-142290800D01*
X108810000Y-145920800D02*
X108810000Y-142300800D01*
X107645200Y-149656800D02*
X107645200Y-147085600D01*
X103620000Y-156780800D02*
X106070400Y-154330400D01*
X103620000Y-157380000D02*
X103620000Y-156780800D01*
%TO.N,/PowerMCU/SSD1306_SCL*%
X105359200Y-154127200D02*
X105359200Y-153212800D01*
X102726400Y-156760000D02*
X105359200Y-154127200D01*
X106269999Y-142300800D02*
X106259999Y-142290800D01*
X105359200Y-153212800D02*
X106121200Y-152450800D01*
X101690000Y-156760000D02*
X102726400Y-156760000D01*
X106269999Y-145920800D02*
X106269999Y-142300800D01*
X106269999Y-149355601D02*
X106269999Y-145920800D01*
X106121200Y-149504400D02*
X106269999Y-149355601D01*
X106121200Y-152450800D02*
X106121200Y-149504400D01*
D29*
%TO.N,/PowerMCU/MCU_RST*%
X111570000Y-166680000D02*
X111570000Y-160770000D01*
%TD*%
%TA.AperFunction,Conductor*%
%TO.N,GND*%
G36*
X111611278Y-112669723D02*
G01*
X111645845Y-112684271D01*
X111660000Y-112718722D01*
X111660000Y-116607421D01*
X111645648Y-116642069D01*
X111611000Y-116656421D01*
X111576352Y-116642069D01*
X111562603Y-116615088D01*
X111559719Y-116596874D01*
X111553924Y-116585500D01*
X111498532Y-116476786D01*
X111498527Y-116476779D01*
X111403220Y-116381472D01*
X111403213Y-116381467D01*
X111283128Y-116320282D01*
X111283127Y-116320281D01*
X111283126Y-116320281D01*
X111191378Y-116305749D01*
X111159402Y-116286154D01*
X111150647Y-116249688D01*
X111164393Y-116222708D01*
X111190489Y-116196613D01*
X111249799Y-116093886D01*
X111274902Y-116000201D01*
X111280500Y-115979311D01*
X111280500Y-115860688D01*
X111249799Y-115746115D01*
X111249798Y-115746111D01*
X111222089Y-115698119D01*
X111217194Y-115660937D01*
X111240024Y-115631184D01*
X111242247Y-115629975D01*
X111343220Y-115578528D01*
X111438528Y-115483220D01*
X111499719Y-115363126D01*
X111515500Y-115263488D01*
X111515500Y-114746512D01*
X111499719Y-114646874D01*
X111448379Y-114546113D01*
X111438532Y-114526786D01*
X111438527Y-114526779D01*
X111343220Y-114431472D01*
X111343213Y-114431467D01*
X111223129Y-114370282D01*
X111223127Y-114370281D01*
X111223126Y-114370281D01*
X111123488Y-114354500D01*
X110556512Y-114354500D01*
X110456874Y-114370281D01*
X110456872Y-114370281D01*
X110456870Y-114370282D01*
X110336786Y-114431467D01*
X110336779Y-114431472D01*
X110241472Y-114526779D01*
X110241467Y-114526786D01*
X110180282Y-114646870D01*
X110180281Y-114646872D01*
X110180281Y-114646874D01*
X110164500Y-114746512D01*
X110164500Y-115263488D01*
X110180281Y-115363126D01*
X110180281Y-115363127D01*
X110180282Y-115363129D01*
X110241467Y-115483213D01*
X110241472Y-115483220D01*
X110336779Y-115578527D01*
X110336786Y-115578532D01*
X110422266Y-115622086D01*
X110446623Y-115650603D01*
X110443680Y-115687990D01*
X110442456Y-115690245D01*
X110410201Y-115746111D01*
X110410200Y-115746115D01*
X110379500Y-115860688D01*
X110379500Y-115979311D01*
X110410200Y-116093884D01*
X110410201Y-116093887D01*
X110469511Y-116196613D01*
X110519733Y-116246835D01*
X110534085Y-116281483D01*
X110519733Y-116316131D01*
X110507331Y-116325142D01*
X110396784Y-116381468D01*
X110396778Y-116381473D01*
X110321614Y-116456637D01*
X110286966Y-116470989D01*
X110252318Y-116456637D01*
X110111812Y-116316131D01*
X109935212Y-116139530D01*
X109855290Y-116093386D01*
X109855286Y-116093385D01*
X109766147Y-116069500D01*
X109766144Y-116069500D01*
X109636263Y-116069500D01*
X109609750Y-116060499D01*
X109609394Y-116061117D01*
X109606613Y-116059511D01*
X109567895Y-116037157D01*
X109503887Y-116000201D01*
X109503884Y-116000200D01*
X109389312Y-115969500D01*
X109389309Y-115969500D01*
X109270691Y-115969500D01*
X109270688Y-115969500D01*
X109156115Y-116000200D01*
X109156112Y-116000201D01*
X109053386Y-116059511D01*
X109053386Y-116059512D01*
X108969512Y-116143386D01*
X108969511Y-116143386D01*
X108910201Y-116246112D01*
X108910200Y-116246115D01*
X108879500Y-116360688D01*
X108879500Y-116479311D01*
X108910200Y-116593884D01*
X108910201Y-116593887D01*
X108946306Y-116656421D01*
X108969511Y-116696613D01*
X109053387Y-116780489D01*
X109156114Y-116839799D01*
X109184758Y-116847474D01*
X109270688Y-116870500D01*
X109270691Y-116870500D01*
X109389312Y-116870500D01*
X109389312Y-116870499D01*
X109503886Y-116839799D01*
X109511334Y-116835499D01*
X109560227Y-116807270D01*
X109597409Y-116802374D01*
X109619375Y-116815057D01*
X109804519Y-117000200D01*
X109974531Y-117170212D01*
X110039788Y-117235469D01*
X110119712Y-117281614D01*
X110141998Y-117287585D01*
X110208853Y-117305500D01*
X110212037Y-117305919D01*
X110211796Y-117307748D01*
X110241016Y-117319852D01*
X110250027Y-117332255D01*
X110301467Y-117433213D01*
X110301472Y-117433220D01*
X110396779Y-117528527D01*
X110396786Y-117528532D01*
X110473349Y-117567542D01*
X110516874Y-117589719D01*
X110616512Y-117605500D01*
X110616514Y-117605500D01*
X111183486Y-117605500D01*
X111183488Y-117605500D01*
X111283126Y-117589719D01*
X111345699Y-117557836D01*
X111403213Y-117528532D01*
X111403215Y-117528530D01*
X111403220Y-117528528D01*
X111498528Y-117433220D01*
X111499859Y-117430609D01*
X111549972Y-117332255D01*
X111559719Y-117313126D01*
X111562603Y-117294911D01*
X111582199Y-117262936D01*
X111618665Y-117254181D01*
X111650642Y-117273777D01*
X111660000Y-117302578D01*
X111660000Y-118160612D01*
X111645648Y-118195260D01*
X111611000Y-118209612D01*
X111576352Y-118195260D01*
X111562603Y-118168277D01*
X111559238Y-118147030D01*
X111498122Y-118027083D01*
X111498117Y-118027076D01*
X111402923Y-117931882D01*
X111402918Y-117931878D01*
X111282971Y-117870763D01*
X111282972Y-117870763D01*
X111183449Y-117855000D01*
X111050000Y-117855000D01*
X111050000Y-119154999D01*
X111183449Y-119154999D01*
X111282968Y-119139238D01*
X111402916Y-119078122D01*
X111402923Y-119078117D01*
X111498117Y-118982923D01*
X111498121Y-118982918D01*
X111559236Y-118862971D01*
X111562603Y-118841719D01*
X111582199Y-118809742D01*
X111618665Y-118800987D01*
X111650642Y-118820583D01*
X111660000Y-118849384D01*
X111660000Y-121069999D01*
X111660000Y-121070000D01*
X113468833Y-121758143D01*
X113496113Y-121783876D01*
X113500405Y-121803345D01*
X113529759Y-124220177D01*
X113516390Y-124254413D01*
X111004379Y-126914771D01*
X110970157Y-126930110D01*
X110969054Y-126930129D01*
X109419910Y-126939691D01*
X109385174Y-126925553D01*
X109370609Y-126890994D01*
X109370612Y-126890091D01*
X109371656Y-126804998D01*
X109376460Y-126413449D01*
X109495001Y-126413449D01*
X109510761Y-126512968D01*
X109571877Y-126632916D01*
X109571882Y-126632923D01*
X109667076Y-126728117D01*
X109667081Y-126728121D01*
X109787028Y-126789236D01*
X109787027Y-126789236D01*
X109886550Y-126804999D01*
X109994999Y-126804999D01*
X110295000Y-126804999D01*
X110403449Y-126804999D01*
X110502968Y-126789238D01*
X110622916Y-126728122D01*
X110622923Y-126728117D01*
X110718117Y-126632923D01*
X110718121Y-126632918D01*
X110779236Y-126512972D01*
X110795000Y-126413449D01*
X110795000Y-126280000D01*
X110295000Y-126280000D01*
X110295000Y-126804999D01*
X109994999Y-126804999D01*
X109995000Y-126804998D01*
X109995000Y-126280000D01*
X109495001Y-126280000D01*
X109495001Y-126413449D01*
X109376460Y-126413449D01*
X109383416Y-125846550D01*
X109495000Y-125846550D01*
X109495000Y-125980000D01*
X109995000Y-125980000D01*
X110295000Y-125980000D01*
X110794999Y-125980000D01*
X110794999Y-125846550D01*
X110779238Y-125747031D01*
X110718122Y-125627083D01*
X110718117Y-125627076D01*
X110622923Y-125531882D01*
X110622918Y-125531878D01*
X110502971Y-125470763D01*
X110502972Y-125470763D01*
X110403449Y-125455000D01*
X110295000Y-125455000D01*
X110295000Y-125980000D01*
X109995000Y-125980000D01*
X109995000Y-125455000D01*
X109886550Y-125455000D01*
X109787031Y-125470761D01*
X109667083Y-125531877D01*
X109667076Y-125531882D01*
X109571882Y-125627076D01*
X109571878Y-125627081D01*
X109510763Y-125747027D01*
X109495000Y-125846550D01*
X109383416Y-125846550D01*
X109390000Y-125310000D01*
X109389999Y-125309999D01*
X109390000Y-125309999D01*
X104825808Y-125252078D01*
X104816975Y-125250621D01*
X104816934Y-125250884D01*
X104761732Y-125242141D01*
X104713488Y-125234500D01*
X104146512Y-125234500D01*
X104098262Y-125242141D01*
X104089976Y-125242740D01*
X103303878Y-125232764D01*
X103269415Y-125217974D01*
X103255500Y-125183768D01*
X103255500Y-125095743D01*
X103255499Y-125095724D01*
X103252646Y-125065301D01*
X103252646Y-125065300D01*
X103207795Y-124937123D01*
X103207791Y-124937114D01*
X103127150Y-124827849D01*
X103017885Y-124747208D01*
X103017876Y-124747204D01*
X102889698Y-124702353D01*
X102859275Y-124699500D01*
X102859266Y-124699500D01*
X101800734Y-124699500D01*
X101800724Y-124699500D01*
X101770301Y-124702353D01*
X101770300Y-124702353D01*
X101642123Y-124747204D01*
X101642114Y-124747208D01*
X101532849Y-124827849D01*
X101459607Y-124927088D01*
X101427485Y-124946444D01*
X101391085Y-124937416D01*
X101375681Y-124918499D01*
X101225903Y-124593449D01*
X103755001Y-124593449D01*
X103770761Y-124692968D01*
X103831877Y-124812916D01*
X103831882Y-124812923D01*
X103927076Y-124908117D01*
X103927081Y-124908121D01*
X104047028Y-124969236D01*
X104047027Y-124969236D01*
X104146550Y-124984999D01*
X104279999Y-124984999D01*
X104580000Y-124984999D01*
X104713449Y-124984999D01*
X104812968Y-124969238D01*
X104932916Y-124908122D01*
X104932923Y-124908117D01*
X105028117Y-124812923D01*
X105028121Y-124812918D01*
X105089236Y-124692972D01*
X105105000Y-124593449D01*
X105105000Y-124485000D01*
X104580000Y-124485000D01*
X104580000Y-124984999D01*
X104279999Y-124984999D01*
X104280000Y-124984998D01*
X104280000Y-124485000D01*
X103755001Y-124485000D01*
X103755001Y-124593449D01*
X101225903Y-124593449D01*
X100862225Y-123804191D01*
X101405001Y-123804191D01*
X101405002Y-123804215D01*
X101407850Y-123834602D01*
X101407851Y-123834608D01*
X101452651Y-123962640D01*
X101452655Y-123962648D01*
X101533207Y-124071792D01*
X101642351Y-124152344D01*
X101642359Y-124152348D01*
X101770395Y-124197149D01*
X101800785Y-124199998D01*
X101800806Y-124199999D01*
X102179999Y-124199999D01*
X102480000Y-124199999D01*
X102859191Y-124199999D01*
X102859215Y-124199997D01*
X102889602Y-124197149D01*
X102889608Y-124197148D01*
X103017640Y-124152348D01*
X103017648Y-124152344D01*
X103120346Y-124076550D01*
X103755000Y-124076550D01*
X103755000Y-124185000D01*
X104280000Y-124185000D01*
X104580000Y-124185000D01*
X105104999Y-124185000D01*
X105104999Y-124076550D01*
X105089238Y-123977031D01*
X105028122Y-123857083D01*
X105028117Y-123857076D01*
X104932923Y-123761882D01*
X104932918Y-123761878D01*
X104812971Y-123700763D01*
X104812972Y-123700763D01*
X104713449Y-123685000D01*
X104580000Y-123685000D01*
X104580000Y-124185000D01*
X104280000Y-124185000D01*
X104280000Y-123685000D01*
X104146550Y-123685000D01*
X104047031Y-123700761D01*
X103927083Y-123761877D01*
X103927076Y-123761882D01*
X103831882Y-123857076D01*
X103831878Y-123857081D01*
X103770763Y-123977027D01*
X103755000Y-124076550D01*
X103120346Y-124076550D01*
X103126790Y-124071794D01*
X103146176Y-124045527D01*
X103146177Y-124045525D01*
X103207344Y-123962648D01*
X103207348Y-123962640D01*
X103252149Y-123834605D01*
X103252149Y-123834603D01*
X103254998Y-123804214D01*
X103255000Y-123804193D01*
X103255000Y-123650000D01*
X102480000Y-123650000D01*
X102480000Y-124199999D01*
X102179999Y-124199999D01*
X102180000Y-124199998D01*
X102180000Y-123650000D01*
X101405001Y-123650000D01*
X101405001Y-123804191D01*
X100862225Y-123804191D01*
X100581891Y-123195806D01*
X101405000Y-123195806D01*
X101405000Y-123350000D01*
X102180000Y-123350000D01*
X102480000Y-123350000D01*
X103254999Y-123350000D01*
X103254999Y-123195808D01*
X103254997Y-123195786D01*
X103253908Y-123184161D01*
X103253908Y-123184159D01*
X103253660Y-123181512D01*
X105324500Y-123181512D01*
X105324500Y-123698488D01*
X105340281Y-123798126D01*
X105340281Y-123798127D01*
X105340282Y-123798129D01*
X105401467Y-123918213D01*
X105401472Y-123918220D01*
X105496779Y-124013527D01*
X105496786Y-124013532D01*
X105620310Y-124076470D01*
X105619658Y-124077749D01*
X105644158Y-124098672D01*
X105648935Y-124113499D01*
X105649500Y-124117186D01*
X105649500Y-124153846D01*
X105661921Y-124200201D01*
X105662619Y-124202806D01*
X105673385Y-124242989D01*
X105673386Y-124242992D01*
X105719530Y-124322914D01*
X106047894Y-124651278D01*
X106060278Y-124676391D01*
X106060966Y-124676207D01*
X106092498Y-124793884D01*
X106092499Y-124793887D01*
X106112108Y-124827850D01*
X106151809Y-124896613D01*
X106235685Y-124980489D01*
X106310883Y-125023905D01*
X106338408Y-125039797D01*
X106338412Y-125039799D01*
X106367056Y-125047474D01*
X106452986Y-125070500D01*
X106452989Y-125070500D01*
X106571609Y-125070500D01*
X106628895Y-125055149D01*
X106686184Y-125039799D01*
X106788911Y-124980489D01*
X106840354Y-124929045D01*
X106875000Y-124914695D01*
X106909646Y-124929045D01*
X106961089Y-124980488D01*
X107063816Y-125039798D01*
X107092460Y-125047473D01*
X107178390Y-125070499D01*
X107178393Y-125070499D01*
X107297013Y-125070499D01*
X107354299Y-125055148D01*
X107411588Y-125039798D01*
X107514315Y-124980488D01*
X107598191Y-124896612D01*
X107657501Y-124793885D01*
X107682027Y-124702354D01*
X107689034Y-124676206D01*
X107689725Y-124676391D01*
X107702104Y-124651278D01*
X107840470Y-124512913D01*
X107886614Y-124432989D01*
X107894170Y-124404788D01*
X107910500Y-124343845D01*
X107910500Y-124115920D01*
X107924852Y-124081272D01*
X107939965Y-124072010D01*
X107939690Y-124071470D01*
X108063213Y-124008532D01*
X108063215Y-124008530D01*
X108063220Y-124008528D01*
X108158528Y-123913220D01*
X108158532Y-123913213D01*
X108209973Y-123812255D01*
X108238490Y-123787898D01*
X108253632Y-123785500D01*
X108936146Y-123785500D01*
X108990698Y-123770882D01*
X109025288Y-123761614D01*
X109033020Y-123757150D01*
X109105212Y-123715470D01*
X109169597Y-123651084D01*
X109204241Y-123636734D01*
X109238890Y-123651085D01*
X109243667Y-123656637D01*
X109317848Y-123757149D01*
X109317849Y-123757150D01*
X109427114Y-123837791D01*
X109427117Y-123837792D01*
X109427118Y-123837793D01*
X109427120Y-123837793D01*
X109427123Y-123837795D01*
X109553878Y-123882148D01*
X109555301Y-123882646D01*
X109585734Y-123885500D01*
X109585744Y-123885500D01*
X110194256Y-123885500D01*
X110194266Y-123885500D01*
X110224699Y-123882646D01*
X110352882Y-123837793D01*
X110353491Y-123837344D01*
X110462150Y-123757150D01*
X110462152Y-123757149D01*
X110542791Y-123647885D01*
X110542791Y-123647884D01*
X110542793Y-123647882D01*
X110587646Y-123519699D01*
X110590500Y-123489266D01*
X110590500Y-123489191D01*
X111090001Y-123489191D01*
X111090002Y-123489215D01*
X111092850Y-123519602D01*
X111092851Y-123519608D01*
X111137651Y-123647640D01*
X111137655Y-123647648D01*
X111218207Y-123756792D01*
X111327351Y-123837344D01*
X111327359Y-123837348D01*
X111455395Y-123882149D01*
X111485785Y-123884999D01*
X111639999Y-123884999D01*
X111940000Y-123884999D01*
X112094191Y-123884999D01*
X112094215Y-123884997D01*
X112124602Y-123882149D01*
X112124608Y-123882148D01*
X112252640Y-123837348D01*
X112252648Y-123837344D01*
X112361792Y-123756792D01*
X112442344Y-123647648D01*
X112442348Y-123647640D01*
X112487149Y-123519605D01*
X112487149Y-123519603D01*
X112489998Y-123489214D01*
X112490000Y-123489193D01*
X112490000Y-123110000D01*
X111940000Y-123110000D01*
X111940000Y-123884999D01*
X111639999Y-123884999D01*
X111640000Y-123884998D01*
X111640000Y-123110000D01*
X111090001Y-123110000D01*
X111090001Y-123489191D01*
X110590500Y-123489191D01*
X110590500Y-122430806D01*
X111090000Y-122430806D01*
X111090000Y-122810000D01*
X111640000Y-122810000D01*
X111940000Y-122810000D01*
X112489999Y-122810000D01*
X112489999Y-122430808D01*
X112489997Y-122430784D01*
X112487149Y-122400397D01*
X112487148Y-122400391D01*
X112442348Y-122272359D01*
X112442344Y-122272351D01*
X112361792Y-122163207D01*
X112252648Y-122082655D01*
X112252640Y-122082651D01*
X112124604Y-122037850D01*
X112094214Y-122035001D01*
X112094193Y-122035000D01*
X111940000Y-122035000D01*
X111940000Y-122810000D01*
X111640000Y-122810000D01*
X111640000Y-122035000D01*
X111485808Y-122035000D01*
X111485784Y-122035002D01*
X111455397Y-122037850D01*
X111455391Y-122037851D01*
X111327359Y-122082651D01*
X111327351Y-122082655D01*
X111218207Y-122163207D01*
X111137655Y-122272351D01*
X111137651Y-122272359D01*
X111092850Y-122400394D01*
X111092850Y-122400396D01*
X111090001Y-122430785D01*
X111090000Y-122430806D01*
X110590500Y-122430806D01*
X110590500Y-122430734D01*
X110587646Y-122400301D01*
X110576316Y-122367923D01*
X110542795Y-122272123D01*
X110542791Y-122272114D01*
X110462150Y-122162849D01*
X110352885Y-122082208D01*
X110352876Y-122082204D01*
X110224698Y-122037353D01*
X110194275Y-122034500D01*
X110194266Y-122034500D01*
X109585734Y-122034500D01*
X109585724Y-122034500D01*
X109555301Y-122037353D01*
X109555300Y-122037353D01*
X109427123Y-122082204D01*
X109427114Y-122082208D01*
X109317849Y-122162849D01*
X109237208Y-122272114D01*
X109237204Y-122272123D01*
X109192353Y-122400300D01*
X109192353Y-122400301D01*
X109189500Y-122430724D01*
X109189500Y-122628312D01*
X109175148Y-122662960D01*
X109165001Y-122670747D01*
X109149790Y-122679529D01*
X109149783Y-122679534D01*
X108759170Y-123070148D01*
X108724522Y-123084500D01*
X108253632Y-123084500D01*
X108218984Y-123070148D01*
X108209973Y-123057745D01*
X108158532Y-122956786D01*
X108158527Y-122956779D01*
X108063220Y-122861472D01*
X108063213Y-122861467D01*
X107943129Y-122800282D01*
X107943127Y-122800281D01*
X107943126Y-122800281D01*
X107843488Y-122784500D01*
X107276512Y-122784500D01*
X107176874Y-122800281D01*
X107176872Y-122800281D01*
X107176870Y-122800282D01*
X107056786Y-122861467D01*
X107056779Y-122861472D01*
X106961472Y-122956779D01*
X106961467Y-122956786D01*
X106900282Y-123076870D01*
X106900281Y-123076872D01*
X106900281Y-123076874D01*
X106884500Y-123176512D01*
X106884500Y-123693488D01*
X106900281Y-123793126D01*
X106900281Y-123793127D01*
X106900282Y-123793129D01*
X106961467Y-123913213D01*
X106961472Y-123913220D01*
X107056779Y-124008527D01*
X107056786Y-124008532D01*
X107180310Y-124071470D01*
X107179658Y-124072749D01*
X107184447Y-124076839D01*
X107195148Y-124081272D01*
X107198164Y-124088553D01*
X107204158Y-124093672D01*
X107209500Y-124115920D01*
X107209500Y-124123564D01*
X107195148Y-124158212D01*
X107173183Y-124170894D01*
X107063815Y-124200200D01*
X107063814Y-124200200D01*
X106961090Y-124259509D01*
X106909647Y-124310952D01*
X106874999Y-124325303D01*
X106840351Y-124310951D01*
X106788911Y-124259511D01*
X106686185Y-124200201D01*
X106686182Y-124200200D01*
X106568505Y-124168668D01*
X106568689Y-124167980D01*
X106543576Y-124155596D01*
X106483528Y-124095548D01*
X106469176Y-124060900D01*
X106483528Y-124026252D01*
X106495930Y-124017242D01*
X106503220Y-124013528D01*
X106598528Y-123918220D01*
X106601080Y-123913213D01*
X106629682Y-123857076D01*
X106659719Y-123798126D01*
X106675500Y-123698488D01*
X106675500Y-123181512D01*
X106659719Y-123081874D01*
X106647425Y-123057745D01*
X106598532Y-122961786D01*
X106598527Y-122961779D01*
X106503220Y-122866472D01*
X106503213Y-122866467D01*
X106383129Y-122805282D01*
X106383127Y-122805281D01*
X106383126Y-122805281D01*
X106283488Y-122789500D01*
X105716512Y-122789500D01*
X105616874Y-122805281D01*
X105616872Y-122805281D01*
X105616870Y-122805282D01*
X105496786Y-122866467D01*
X105496779Y-122866472D01*
X105401472Y-122961779D01*
X105401467Y-122961786D01*
X105340282Y-123081870D01*
X105340281Y-123081872D01*
X105340281Y-123081874D01*
X105324500Y-123181512D01*
X103253660Y-123181512D01*
X103252149Y-123165398D01*
X103252148Y-123165391D01*
X103207348Y-123037359D01*
X103207344Y-123037351D01*
X103126792Y-122928207D01*
X103017648Y-122847655D01*
X103017640Y-122847651D01*
X102889604Y-122802850D01*
X102859214Y-122800001D01*
X102859193Y-122800000D01*
X102480000Y-122800000D01*
X102480000Y-123350000D01*
X102180000Y-123350000D01*
X102180000Y-122800000D01*
X101800808Y-122800000D01*
X101800784Y-122800002D01*
X101770397Y-122802850D01*
X101770391Y-122802851D01*
X101642359Y-122847651D01*
X101642351Y-122847655D01*
X101533207Y-122928207D01*
X101452655Y-123037351D01*
X101452651Y-123037359D01*
X101407850Y-123165394D01*
X101407850Y-123165396D01*
X101405001Y-123195785D01*
X101405000Y-123195806D01*
X100581891Y-123195806D01*
X100241977Y-122458121D01*
X100099286Y-122148449D01*
X105325001Y-122148449D01*
X105340761Y-122247968D01*
X105401877Y-122367916D01*
X105401882Y-122367923D01*
X105497076Y-122463117D01*
X105497081Y-122463121D01*
X105617028Y-122524236D01*
X105617027Y-122524236D01*
X105716550Y-122539999D01*
X105849999Y-122539999D01*
X106150000Y-122539999D01*
X106283449Y-122539999D01*
X106382968Y-122524238D01*
X106502916Y-122463122D01*
X106502923Y-122463117D01*
X106598117Y-122367923D01*
X106598121Y-122367918D01*
X106659236Y-122247972D01*
X106675000Y-122148449D01*
X106675000Y-122143449D01*
X106885001Y-122143449D01*
X106900761Y-122242968D01*
X106961877Y-122362916D01*
X106961882Y-122362923D01*
X107057076Y-122458117D01*
X107057081Y-122458121D01*
X107177028Y-122519236D01*
X107177027Y-122519236D01*
X107276550Y-122534999D01*
X107409999Y-122534999D01*
X107710000Y-122534999D01*
X107843449Y-122534999D01*
X107942968Y-122519238D01*
X108062916Y-122458122D01*
X108062923Y-122458117D01*
X108158117Y-122362923D01*
X108158121Y-122362918D01*
X108219236Y-122242972D01*
X108235000Y-122143449D01*
X108235000Y-122035000D01*
X107710000Y-122035000D01*
X107710000Y-122534999D01*
X107409999Y-122534999D01*
X107410000Y-122534998D01*
X107410000Y-122035000D01*
X106885001Y-122035000D01*
X106885001Y-122143449D01*
X106675000Y-122143449D01*
X106675000Y-122040000D01*
X106150000Y-122040000D01*
X106150000Y-122539999D01*
X105849999Y-122539999D01*
X105850000Y-122539998D01*
X105850000Y-122040000D01*
X105325001Y-122040000D01*
X105325001Y-122148449D01*
X100099286Y-122148449D01*
X100049411Y-122040210D01*
X99869668Y-121650130D01*
X99861107Y-121631550D01*
X105325000Y-121631550D01*
X105325000Y-121740000D01*
X105850000Y-121740000D01*
X106150000Y-121740000D01*
X106674999Y-121740000D01*
X106674999Y-121631550D01*
X106674207Y-121626550D01*
X106885000Y-121626550D01*
X106885000Y-121735000D01*
X107410000Y-121735000D01*
X107710000Y-121735000D01*
X108234999Y-121735000D01*
X108234999Y-121626550D01*
X108219238Y-121527031D01*
X108158122Y-121407083D01*
X108158117Y-121407076D01*
X108062923Y-121311882D01*
X108062918Y-121311878D01*
X107942971Y-121250763D01*
X107942972Y-121250763D01*
X107843449Y-121235000D01*
X107710000Y-121235000D01*
X107710000Y-121735000D01*
X107410000Y-121735000D01*
X107410000Y-121235000D01*
X107276550Y-121235000D01*
X107177031Y-121250761D01*
X107057083Y-121311877D01*
X107057076Y-121311882D01*
X106961882Y-121407076D01*
X106961878Y-121407081D01*
X106900763Y-121527027D01*
X106885000Y-121626550D01*
X106674207Y-121626550D01*
X106659238Y-121532030D01*
X106598122Y-121412083D01*
X106598117Y-121412076D01*
X106502923Y-121316882D01*
X106502918Y-121316878D01*
X106382971Y-121255763D01*
X106382972Y-121255763D01*
X106283449Y-121240000D01*
X106150000Y-121240000D01*
X106150000Y-121740000D01*
X105850000Y-121740000D01*
X105850000Y-121240000D01*
X105716550Y-121240000D01*
X105617031Y-121255761D01*
X105497083Y-121316877D01*
X105497076Y-121316882D01*
X105401882Y-121412076D01*
X105401878Y-121412081D01*
X105340763Y-121532027D01*
X105325000Y-121631550D01*
X99861107Y-121631550D01*
X99634497Y-121139759D01*
X99630000Y-121119253D01*
X99630000Y-120803449D01*
X99845001Y-120803449D01*
X99860761Y-120902968D01*
X99921877Y-121022916D01*
X99921882Y-121022923D01*
X100017076Y-121118117D01*
X100017081Y-121118121D01*
X100137028Y-121179236D01*
X100137027Y-121179236D01*
X100236550Y-121194999D01*
X100344999Y-121194999D01*
X100645000Y-121194999D01*
X100753449Y-121194999D01*
X100852968Y-121179238D01*
X100972916Y-121118122D01*
X100972923Y-121118117D01*
X101068117Y-121022923D01*
X101068121Y-121022918D01*
X101129236Y-120902972D01*
X101145000Y-120803449D01*
X101145000Y-120670000D01*
X100645000Y-120670000D01*
X100645000Y-121194999D01*
X100344999Y-121194999D01*
X100345000Y-121194998D01*
X100345000Y-120670000D01*
X99845001Y-120670000D01*
X99845001Y-120803449D01*
X99630000Y-120803449D01*
X99630000Y-120236550D01*
X99845000Y-120236550D01*
X99845000Y-120370000D01*
X100345000Y-120370000D01*
X100645000Y-120370000D01*
X101144999Y-120370000D01*
X101144999Y-120236550D01*
X101142924Y-120223449D01*
X108655001Y-120223449D01*
X108670761Y-120322968D01*
X108731877Y-120442916D01*
X108731882Y-120442923D01*
X108827076Y-120538117D01*
X108827081Y-120538121D01*
X108947028Y-120599236D01*
X108947027Y-120599236D01*
X109046550Y-120614999D01*
X109179999Y-120614999D01*
X109480000Y-120614999D01*
X109613449Y-120614999D01*
X109712968Y-120599238D01*
X109832916Y-120538122D01*
X109832923Y-120538117D01*
X109928117Y-120442923D01*
X109928121Y-120442918D01*
X109989236Y-120322972D01*
X110005000Y-120223449D01*
X110005000Y-120115000D01*
X109480000Y-120115000D01*
X109480000Y-120614999D01*
X109179999Y-120614999D01*
X109180000Y-120614998D01*
X109180000Y-120115000D01*
X108655001Y-120115000D01*
X108655001Y-120223449D01*
X101142924Y-120223449D01*
X101129238Y-120137032D01*
X101119006Y-120116950D01*
X101119005Y-120116948D01*
X101068122Y-120017083D01*
X101068117Y-120017076D01*
X100972923Y-119921882D01*
X100972918Y-119921878D01*
X100852971Y-119860763D01*
X100852972Y-119860763D01*
X100753449Y-119845000D01*
X100645000Y-119845000D01*
X100645000Y-120370000D01*
X100345000Y-120370000D01*
X100345000Y-119845000D01*
X100236550Y-119845000D01*
X100137031Y-119860761D01*
X100017083Y-119921877D01*
X100017076Y-119921882D01*
X99921882Y-120017076D01*
X99921878Y-120017081D01*
X99860763Y-120137027D01*
X99845000Y-120236550D01*
X99630000Y-120236550D01*
X99630000Y-119706550D01*
X108655000Y-119706550D01*
X108655000Y-119815000D01*
X109180000Y-119815000D01*
X109480000Y-119815000D01*
X110004999Y-119815000D01*
X110004999Y-119706550D01*
X109989238Y-119607031D01*
X109928122Y-119487083D01*
X109928117Y-119487076D01*
X109832923Y-119391882D01*
X109832918Y-119391878D01*
X109712971Y-119330763D01*
X109712972Y-119330763D01*
X109613449Y-119315000D01*
X109480000Y-119315000D01*
X109480000Y-119815000D01*
X109180000Y-119815000D01*
X109180000Y-119315000D01*
X109046550Y-119315000D01*
X108947031Y-119330761D01*
X108827083Y-119391877D01*
X108827076Y-119391882D01*
X108731882Y-119487076D01*
X108731878Y-119487081D01*
X108670763Y-119607027D01*
X108655000Y-119706550D01*
X99630000Y-119706550D01*
X99630000Y-119350123D01*
X99631625Y-119346198D01*
X99630668Y-119342060D01*
X99637304Y-119332487D01*
X99644352Y-119315475D01*
X99650525Y-119310246D01*
X99652443Y-119308876D01*
X99701611Y-119280489D01*
X99725119Y-119256980D01*
X99728421Y-119254623D01*
X99743036Y-119251240D01*
X99756896Y-119245500D01*
X99872969Y-119245500D01*
X99907617Y-119259852D01*
X99921365Y-119286833D01*
X99930281Y-119343126D01*
X99930281Y-119343127D01*
X99930282Y-119343128D01*
X99991467Y-119463213D01*
X99991472Y-119463220D01*
X100086779Y-119558527D01*
X100086786Y-119558532D01*
X100181972Y-119607031D01*
X100206874Y-119619719D01*
X100306512Y-119635500D01*
X100306514Y-119635500D01*
X100823486Y-119635500D01*
X100823488Y-119635500D01*
X100923126Y-119619719D01*
X100985699Y-119587836D01*
X101043213Y-119558532D01*
X101043215Y-119558530D01*
X101043220Y-119558528D01*
X101138528Y-119463220D01*
X101138680Y-119462923D01*
X101168544Y-119404310D01*
X101199719Y-119343126D01*
X101215500Y-119243488D01*
X101215500Y-119243449D01*
X101465001Y-119243449D01*
X101480761Y-119342968D01*
X101541877Y-119462916D01*
X101541882Y-119462923D01*
X101637076Y-119558117D01*
X101637081Y-119558121D01*
X101757028Y-119619236D01*
X101757027Y-119619236D01*
X101856550Y-119634999D01*
X101964999Y-119634999D01*
X102265000Y-119634999D01*
X102373449Y-119634999D01*
X102472968Y-119619238D01*
X102592916Y-119558122D01*
X102592923Y-119558117D01*
X102688117Y-119462923D01*
X102688121Y-119462918D01*
X102749236Y-119342972D01*
X102765000Y-119243449D01*
X102765000Y-119110000D01*
X102265000Y-119110000D01*
X102265000Y-119634999D01*
X101964999Y-119634999D01*
X101965000Y-119634998D01*
X101965000Y-119110000D01*
X101465001Y-119110000D01*
X101465001Y-119243449D01*
X101215500Y-119243449D01*
X101215500Y-118676550D01*
X101465000Y-118676550D01*
X101465000Y-118810000D01*
X101965000Y-118810000D01*
X102265000Y-118810000D01*
X102764999Y-118810000D01*
X102764999Y-118676550D01*
X102749238Y-118577031D01*
X102688122Y-118457083D01*
X102688117Y-118457076D01*
X102592923Y-118361882D01*
X102592918Y-118361878D01*
X102472971Y-118300763D01*
X102472972Y-118300763D01*
X102373449Y-118285000D01*
X102265000Y-118285000D01*
X102265000Y-118810000D01*
X101965000Y-118810000D01*
X101965000Y-118285000D01*
X101856550Y-118285000D01*
X101757031Y-118300761D01*
X101637083Y-118361877D01*
X101637076Y-118361882D01*
X101541882Y-118457076D01*
X101541878Y-118457081D01*
X101480763Y-118577027D01*
X101465000Y-118676550D01*
X101215500Y-118676550D01*
X101215500Y-118676512D01*
X101199719Y-118576874D01*
X101190872Y-118559511D01*
X101138532Y-118456786D01*
X101138527Y-118456779D01*
X101043220Y-118361472D01*
X101043213Y-118361467D01*
X100923129Y-118300282D01*
X100923127Y-118300281D01*
X100923126Y-118300281D01*
X100823488Y-118284500D01*
X100306512Y-118284500D01*
X100206874Y-118300281D01*
X100206872Y-118300281D01*
X100206870Y-118300282D01*
X100086786Y-118361467D01*
X100086779Y-118361472D01*
X99991472Y-118456779D01*
X99991467Y-118456786D01*
X99934932Y-118567745D01*
X99906415Y-118592102D01*
X99891273Y-118594500D01*
X99756896Y-118594500D01*
X99728420Y-118585377D01*
X99725121Y-118583021D01*
X99701611Y-118559511D01*
X99652452Y-118531128D01*
X99650524Y-118529752D01*
X99641752Y-118515698D01*
X99631669Y-118502556D01*
X99631166Y-118498735D01*
X99630668Y-118497937D01*
X99630918Y-118496854D01*
X99630000Y-118489875D01*
X99630000Y-118420001D01*
X99629999Y-118419998D01*
X99604132Y-118355000D01*
X99525143Y-118156512D01*
X108654500Y-118156512D01*
X108654500Y-118673488D01*
X108670281Y-118773126D01*
X108670281Y-118773127D01*
X108670282Y-118773129D01*
X108731467Y-118893213D01*
X108731472Y-118893220D01*
X108826779Y-118988527D01*
X108826786Y-118988532D01*
X108946870Y-119049717D01*
X108946874Y-119049719D01*
X109046512Y-119065500D01*
X109046514Y-119065500D01*
X109613486Y-119065500D01*
X109613488Y-119065500D01*
X109713126Y-119049719D01*
X109778285Y-119016519D01*
X109833213Y-118988532D01*
X109833215Y-118988530D01*
X109833220Y-118988528D01*
X109928528Y-118893220D01*
X109945103Y-118860691D01*
X109989717Y-118773129D01*
X109989719Y-118773126D01*
X109991252Y-118763449D01*
X110225001Y-118763449D01*
X110240761Y-118862968D01*
X110301877Y-118982916D01*
X110301882Y-118982923D01*
X110397076Y-119078117D01*
X110397081Y-119078121D01*
X110517028Y-119139236D01*
X110517027Y-119139236D01*
X110616550Y-119154999D01*
X110749999Y-119154999D01*
X110750000Y-119154998D01*
X110750000Y-118655000D01*
X110225001Y-118655000D01*
X110225001Y-118763449D01*
X109991252Y-118763449D01*
X110005500Y-118673488D01*
X110005500Y-118246550D01*
X110225000Y-118246550D01*
X110225000Y-118355000D01*
X110750000Y-118355000D01*
X110750000Y-117855000D01*
X110616550Y-117855000D01*
X110517031Y-117870761D01*
X110397083Y-117931877D01*
X110397076Y-117931882D01*
X110301882Y-118027076D01*
X110301878Y-118027081D01*
X110240763Y-118147027D01*
X110225000Y-118246550D01*
X110005500Y-118246550D01*
X110005500Y-118156512D01*
X109989719Y-118056874D01*
X109980371Y-118038528D01*
X109928532Y-117936786D01*
X109928527Y-117936779D01*
X109833220Y-117841472D01*
X109833213Y-117841467D01*
X109709691Y-117778530D01*
X109710732Y-117776485D01*
X109687929Y-117756939D01*
X109685052Y-117719546D01*
X109696980Y-117700121D01*
X109700489Y-117696613D01*
X109759799Y-117593886D01*
X109777312Y-117528527D01*
X109790500Y-117479311D01*
X109790500Y-117360688D01*
X109764306Y-117262936D01*
X109759799Y-117246114D01*
X109700489Y-117143387D01*
X109616613Y-117059511D01*
X109612046Y-117056874D01*
X109513887Y-117000201D01*
X109513884Y-117000200D01*
X109399312Y-116969500D01*
X109399309Y-116969500D01*
X109280691Y-116969500D01*
X109280688Y-116969500D01*
X109166115Y-117000200D01*
X109166112Y-117000201D01*
X109063386Y-117059511D01*
X109063386Y-117059512D01*
X108979512Y-117143386D01*
X108979511Y-117143386D01*
X108920201Y-117246112D01*
X108920200Y-117246115D01*
X108889500Y-117360688D01*
X108889500Y-117479311D01*
X108920200Y-117593884D01*
X108920201Y-117593886D01*
X108972935Y-117685223D01*
X108979500Y-117709722D01*
X108979500Y-117734079D01*
X108965148Y-117768727D01*
X108950034Y-117777990D01*
X108950309Y-117778530D01*
X108826786Y-117841467D01*
X108826779Y-117841472D01*
X108731472Y-117936779D01*
X108731467Y-117936786D01*
X108670282Y-118056870D01*
X108670281Y-118056872D01*
X108670281Y-118056874D01*
X108654500Y-118156512D01*
X99525143Y-118156512D01*
X99511083Y-118121182D01*
X99511606Y-118083684D01*
X99538492Y-118057538D01*
X99575991Y-118058061D01*
X99578856Y-118059406D01*
X99657028Y-118099236D01*
X99657027Y-118099236D01*
X99756550Y-118114999D01*
X99864999Y-118114999D01*
X100165000Y-118114999D01*
X100273449Y-118114999D01*
X100372968Y-118099238D01*
X100492916Y-118038122D01*
X100492923Y-118038117D01*
X100588117Y-117942923D01*
X100588121Y-117942918D01*
X100649236Y-117822972D01*
X100665000Y-117723449D01*
X100665000Y-117718449D01*
X103455001Y-117718449D01*
X103470761Y-117817968D01*
X103531877Y-117937916D01*
X103531882Y-117937923D01*
X103627076Y-118033117D01*
X103627081Y-118033121D01*
X103747028Y-118094236D01*
X103747027Y-118094236D01*
X103846550Y-118109999D01*
X103979999Y-118109999D01*
X104280000Y-118109999D01*
X104413449Y-118109999D01*
X104512968Y-118094238D01*
X104632916Y-118033122D01*
X104632923Y-118033117D01*
X104728117Y-117937923D01*
X104728121Y-117937918D01*
X104789236Y-117817972D01*
X104805000Y-117718449D01*
X104995001Y-117718449D01*
X105010761Y-117817968D01*
X105071877Y-117937916D01*
X105071882Y-117937923D01*
X105167076Y-118033117D01*
X105167081Y-118033121D01*
X105287028Y-118094236D01*
X105287027Y-118094236D01*
X105386550Y-118109999D01*
X105519999Y-118109999D01*
X105820000Y-118109999D01*
X105953449Y-118109999D01*
X105977500Y-118106190D01*
X105977501Y-118106189D01*
X106052968Y-118094238D01*
X106172916Y-118033122D01*
X106172923Y-118033117D01*
X106268117Y-117937923D01*
X106268121Y-117937918D01*
X106329236Y-117817972D01*
X106345000Y-117718449D01*
X106345000Y-117610000D01*
X105820000Y-117610000D01*
X105820000Y-118109999D01*
X105519999Y-118109999D01*
X105520000Y-118109998D01*
X105520000Y-117610000D01*
X104995001Y-117610000D01*
X104995001Y-117718449D01*
X104805000Y-117718449D01*
X104805000Y-117610000D01*
X104280000Y-117610000D01*
X104280000Y-118109999D01*
X103979999Y-118109999D01*
X103980000Y-118109998D01*
X103980000Y-117610000D01*
X103455001Y-117610000D01*
X103455001Y-117718449D01*
X100665000Y-117718449D01*
X100665000Y-117590000D01*
X100165000Y-117590000D01*
X100165000Y-118114999D01*
X99864999Y-118114999D01*
X99865000Y-118114998D01*
X99865000Y-117590000D01*
X99356614Y-117590000D01*
X99336279Y-117598422D01*
X99301632Y-117584068D01*
X99290756Y-117567542D01*
X99243473Y-117448727D01*
X99240000Y-117430609D01*
X99240000Y-116904698D01*
X99254352Y-116870050D01*
X99289000Y-116855698D01*
X99301681Y-116857367D01*
X99317966Y-116861731D01*
X99350689Y-116870500D01*
X99395843Y-116870500D01*
X99430491Y-116884852D01*
X99444843Y-116919500D01*
X99439502Y-116941745D01*
X99380763Y-117057025D01*
X99380763Y-117057027D01*
X99365000Y-117156550D01*
X99365000Y-117290000D01*
X99865000Y-117290000D01*
X100165000Y-117290000D01*
X100664999Y-117290000D01*
X100664999Y-117201550D01*
X103455000Y-117201550D01*
X103455000Y-117310000D01*
X103980000Y-117310000D01*
X104280000Y-117310000D01*
X104804999Y-117310000D01*
X104804999Y-117201550D01*
X104995000Y-117201550D01*
X104995000Y-117310000D01*
X105520000Y-117310000D01*
X105820000Y-117310000D01*
X106344999Y-117310000D01*
X106344999Y-117201550D01*
X106329238Y-117102031D01*
X106268122Y-116982083D01*
X106268117Y-116982076D01*
X106172923Y-116886882D01*
X106172918Y-116886878D01*
X106052971Y-116825763D01*
X106052972Y-116825763D01*
X105953449Y-116810000D01*
X105820000Y-116810000D01*
X105820000Y-117310000D01*
X105520000Y-117310000D01*
X105520000Y-116810000D01*
X105386550Y-116810000D01*
X105287031Y-116825761D01*
X105167083Y-116886877D01*
X105167076Y-116886882D01*
X105071882Y-116982076D01*
X105071878Y-116982081D01*
X105010763Y-117102027D01*
X104995000Y-117201550D01*
X104804999Y-117201550D01*
X104789238Y-117102031D01*
X104728122Y-116982083D01*
X104728117Y-116982076D01*
X104632923Y-116886882D01*
X104632918Y-116886878D01*
X104512971Y-116825763D01*
X104512972Y-116825763D01*
X104413449Y-116810000D01*
X104280000Y-116810000D01*
X104280000Y-117310000D01*
X103980000Y-117310000D01*
X103980000Y-116810000D01*
X103846550Y-116810000D01*
X103747031Y-116825761D01*
X103627083Y-116886877D01*
X103627076Y-116886882D01*
X103531882Y-116982076D01*
X103531878Y-116982081D01*
X103470763Y-117102027D01*
X103455000Y-117201550D01*
X100664999Y-117201550D01*
X100664999Y-117156550D01*
X100649238Y-117057031D01*
X100588122Y-116937083D01*
X100588117Y-116937076D01*
X100492923Y-116841882D01*
X100492918Y-116841878D01*
X100372971Y-116780763D01*
X100372972Y-116780763D01*
X100273449Y-116765000D01*
X100165000Y-116765000D01*
X100165000Y-117290000D01*
X99865000Y-117290000D01*
X99865000Y-116765000D01*
X99815875Y-116765000D01*
X99781227Y-116750648D01*
X99766875Y-116716000D01*
X99773438Y-116691504D01*
X99829799Y-116593886D01*
X99852781Y-116508117D01*
X99861332Y-116476207D01*
X99862023Y-116476392D01*
X99874401Y-116451280D01*
X99923740Y-116401940D01*
X99958386Y-116387590D01*
X99993034Y-116401942D01*
X99999045Y-116410216D01*
X99999206Y-116410100D01*
X100001468Y-116413213D01*
X100001472Y-116413220D01*
X100001475Y-116413223D01*
X100096779Y-116508527D01*
X100096786Y-116508532D01*
X100215926Y-116569236D01*
X100216874Y-116569719D01*
X100316512Y-116585500D01*
X100316514Y-116585500D01*
X100833486Y-116585500D01*
X100833488Y-116585500D01*
X100933126Y-116569719D01*
X100995699Y-116537836D01*
X101053213Y-116508532D01*
X101053215Y-116508530D01*
X101053220Y-116508528D01*
X101148528Y-116413220D01*
X101148680Y-116412923D01*
X101202560Y-116307176D01*
X101209719Y-116293126D01*
X101225500Y-116193488D01*
X101225500Y-116193449D01*
X101475001Y-116193449D01*
X101490761Y-116292968D01*
X101551877Y-116412916D01*
X101551882Y-116412923D01*
X101647076Y-116508117D01*
X101647081Y-116508121D01*
X101767028Y-116569236D01*
X101767027Y-116569236D01*
X101866550Y-116584999D01*
X101974999Y-116584999D01*
X102275000Y-116584999D01*
X102383449Y-116584999D01*
X102482968Y-116569238D01*
X102602916Y-116508122D01*
X102602923Y-116508117D01*
X102698117Y-116412923D01*
X102698121Y-116412918D01*
X102759236Y-116292972D01*
X102775000Y-116193449D01*
X102775000Y-116060000D01*
X102275000Y-116060000D01*
X102275000Y-116584999D01*
X101974999Y-116584999D01*
X101975000Y-116584998D01*
X101975000Y-116060000D01*
X101475001Y-116060000D01*
X101475001Y-116193449D01*
X101225500Y-116193449D01*
X101225500Y-115626550D01*
X101475000Y-115626550D01*
X101475000Y-115760000D01*
X101975000Y-115760000D01*
X102275000Y-115760000D01*
X102774999Y-115760000D01*
X102774999Y-115626550D01*
X102759238Y-115527031D01*
X102698122Y-115407083D01*
X102698117Y-115407076D01*
X102602923Y-115311882D01*
X102602918Y-115311878D01*
X102482971Y-115250763D01*
X102482972Y-115250763D01*
X102383449Y-115235000D01*
X102275000Y-115235000D01*
X102275000Y-115760000D01*
X101975000Y-115760000D01*
X101975000Y-115235000D01*
X101866550Y-115235000D01*
X101767031Y-115250761D01*
X101647083Y-115311877D01*
X101647076Y-115311882D01*
X101551882Y-115407076D01*
X101551878Y-115407081D01*
X101490763Y-115527027D01*
X101475000Y-115626550D01*
X101225500Y-115626550D01*
X101225500Y-115626512D01*
X101209719Y-115526874D01*
X101188129Y-115484501D01*
X101148532Y-115406786D01*
X101148527Y-115406779D01*
X101053220Y-115311472D01*
X101053213Y-115311467D01*
X100933129Y-115250282D01*
X100933127Y-115250281D01*
X100933126Y-115250281D01*
X100833488Y-115234500D01*
X100316512Y-115234500D01*
X100216874Y-115250281D01*
X100216872Y-115250281D01*
X100216870Y-115250282D01*
X100096786Y-115311467D01*
X100096779Y-115311472D01*
X100001472Y-115406779D01*
X100001467Y-115406786D01*
X99938530Y-115530310D01*
X99937250Y-115529658D01*
X99916328Y-115554158D01*
X99894080Y-115559500D01*
X99873853Y-115559500D01*
X99784713Y-115583385D01*
X99784709Y-115583386D01*
X99704787Y-115629530D01*
X99378721Y-115955596D01*
X99356430Y-115968364D01*
X99352071Y-115969500D01*
X99350691Y-115969500D01*
X99301641Y-115982642D01*
X99301357Y-115982717D01*
X99282929Y-115980162D01*
X99264500Y-115977736D01*
X99264389Y-115977591D01*
X99264210Y-115977567D01*
X99253003Y-115962753D01*
X99241670Y-115947983D01*
X99241636Y-115947727D01*
X99241584Y-115947658D01*
X99241606Y-115947498D01*
X99240000Y-115935301D01*
X99240000Y-114966625D01*
X99250117Y-114936807D01*
X99513444Y-114593449D01*
X100395001Y-114593449D01*
X100410761Y-114692968D01*
X100471877Y-114812916D01*
X100471882Y-114812923D01*
X100567076Y-114908117D01*
X100567081Y-114908121D01*
X100687028Y-114969236D01*
X100687027Y-114969236D01*
X100786550Y-114984999D01*
X100919999Y-114984999D01*
X101220000Y-114984999D01*
X101353449Y-114984999D01*
X101452968Y-114969238D01*
X101572916Y-114908122D01*
X101572923Y-114908117D01*
X101668117Y-114812923D01*
X101668121Y-114812918D01*
X101729236Y-114692972D01*
X101745000Y-114593449D01*
X101995001Y-114593449D01*
X102010761Y-114692968D01*
X102071877Y-114812916D01*
X102071882Y-114812923D01*
X102167076Y-114908117D01*
X102167081Y-114908121D01*
X102287028Y-114969236D01*
X102287027Y-114969236D01*
X102386550Y-114984999D01*
X102519999Y-114984999D01*
X102820000Y-114984999D01*
X102953449Y-114984999D01*
X103052968Y-114969238D01*
X103172916Y-114908122D01*
X103172923Y-114908117D01*
X103268117Y-114812923D01*
X103268121Y-114812918D01*
X103329236Y-114692972D01*
X103345000Y-114593449D01*
X103345000Y-114485000D01*
X102820000Y-114485000D01*
X102820000Y-114984999D01*
X102519999Y-114984999D01*
X102520000Y-114984998D01*
X102520000Y-114485000D01*
X101995001Y-114485000D01*
X101995001Y-114593449D01*
X101745000Y-114593449D01*
X101745000Y-114485000D01*
X101220000Y-114485000D01*
X101220000Y-114984999D01*
X100919999Y-114984999D01*
X100920000Y-114984998D01*
X100920000Y-114485000D01*
X100395001Y-114485000D01*
X100395001Y-114593449D01*
X99513444Y-114593449D01*
X100245416Y-113639015D01*
X100277888Y-113620257D01*
X100283952Y-113619837D01*
X100646239Y-113617384D01*
X100680984Y-113631501D01*
X100695570Y-113666051D01*
X100681453Y-113700796D01*
X100668817Y-113710042D01*
X100567081Y-113761878D01*
X100567076Y-113761882D01*
X100471882Y-113857076D01*
X100471878Y-113857081D01*
X100410763Y-113977027D01*
X100395000Y-114076550D01*
X100395000Y-114185000D01*
X101744999Y-114185000D01*
X101744999Y-114076550D01*
X101729238Y-113977031D01*
X101668122Y-113857083D01*
X101668117Y-113857076D01*
X101572923Y-113761882D01*
X101572918Y-113761878D01*
X101460075Y-113704382D01*
X101435719Y-113675865D01*
X101438662Y-113638477D01*
X101467179Y-113614121D01*
X101481984Y-113611724D01*
X102267794Y-113606403D01*
X102302537Y-113620519D01*
X102317123Y-113655069D01*
X102303006Y-113689814D01*
X102290370Y-113699060D01*
X102167081Y-113761878D01*
X102167076Y-113761882D01*
X102071882Y-113857076D01*
X102071878Y-113857081D01*
X102010763Y-113977027D01*
X101995000Y-114076550D01*
X101995000Y-114185000D01*
X103344999Y-114185000D01*
X103344999Y-114076550D01*
X103329238Y-113977031D01*
X103268122Y-113857083D01*
X103268117Y-113857076D01*
X103172923Y-113761882D01*
X103172918Y-113761878D01*
X103052971Y-113700763D01*
X103052972Y-113700763D01*
X103038855Y-113698527D01*
X103006878Y-113678931D01*
X102998124Y-113642464D01*
X103017720Y-113610487D01*
X103046186Y-113601131D01*
X103900346Y-113595347D01*
X103935088Y-113609463D01*
X103949674Y-113644013D01*
X103935557Y-113678758D01*
X103935324Y-113678993D01*
X103849529Y-113764789D01*
X103849525Y-113764794D01*
X103832747Y-113793856D01*
X103803386Y-113844709D01*
X103803385Y-113844713D01*
X103779500Y-113933853D01*
X103779500Y-114413734D01*
X103770501Y-114440248D01*
X103771117Y-114440604D01*
X103710201Y-114546110D01*
X103710200Y-114546113D01*
X103679500Y-114660686D01*
X103679500Y-114779309D01*
X103710200Y-114893882D01*
X103710201Y-114893885D01*
X103771117Y-114999392D01*
X103770499Y-114999748D01*
X103779500Y-115026261D01*
X103779500Y-115229079D01*
X103765148Y-115263727D01*
X103750034Y-115272990D01*
X103750309Y-115273530D01*
X103626786Y-115336467D01*
X103626779Y-115336472D01*
X103531472Y-115431779D01*
X103531467Y-115431786D01*
X103470282Y-115551870D01*
X103470281Y-115551872D01*
X103470281Y-115551874D01*
X103454500Y-115651512D01*
X103454500Y-116168488D01*
X103470281Y-116268126D01*
X103470281Y-116268127D01*
X103470282Y-116268129D01*
X103531467Y-116388213D01*
X103531472Y-116388220D01*
X103626779Y-116483527D01*
X103626786Y-116483532D01*
X103746870Y-116544717D01*
X103746874Y-116544719D01*
X103846512Y-116560500D01*
X103846514Y-116560500D01*
X104413486Y-116560500D01*
X104413488Y-116560500D01*
X104513126Y-116544719D01*
X104584954Y-116508121D01*
X104633213Y-116483532D01*
X104633215Y-116483530D01*
X104633220Y-116483528D01*
X104728528Y-116388220D01*
X104731967Y-116381472D01*
X104769822Y-116307176D01*
X104789719Y-116268126D01*
X104805500Y-116168488D01*
X104805500Y-115651512D01*
X104789719Y-115551874D01*
X104778732Y-115530310D01*
X104728532Y-115431786D01*
X104728527Y-115431779D01*
X104633220Y-115336472D01*
X104633213Y-115336467D01*
X104509691Y-115273530D01*
X104510341Y-115272253D01*
X104485837Y-115251317D01*
X104480500Y-115229079D01*
X104480500Y-115026261D01*
X104489500Y-114999748D01*
X104488883Y-114999392D01*
X104497193Y-114984999D01*
X104549799Y-114893884D01*
X104571494Y-114812918D01*
X104580500Y-114779309D01*
X104580500Y-114660686D01*
X104549799Y-114546113D01*
X104549798Y-114546110D01*
X104531836Y-114515000D01*
X104490489Y-114443385D01*
X104490488Y-114443384D01*
X104488883Y-114440604D01*
X104489498Y-114440248D01*
X104480500Y-114413734D01*
X104480500Y-114145477D01*
X104494852Y-114110829D01*
X104755828Y-113849853D01*
X104790476Y-113835501D01*
X104859523Y-113835501D01*
X104894171Y-113849853D01*
X105265148Y-114220830D01*
X105279500Y-114255478D01*
X105279500Y-114413734D01*
X105270501Y-114440248D01*
X105271117Y-114440604D01*
X105210201Y-114546110D01*
X105210200Y-114546113D01*
X105179500Y-114660686D01*
X105179500Y-114779309D01*
X105210200Y-114893882D01*
X105210201Y-114893885D01*
X105269511Y-114996611D01*
X105305148Y-115032248D01*
X105319500Y-115066896D01*
X105319500Y-115229079D01*
X105305148Y-115263727D01*
X105290034Y-115272990D01*
X105290309Y-115273530D01*
X105166786Y-115336467D01*
X105166779Y-115336472D01*
X105071472Y-115431779D01*
X105071467Y-115431786D01*
X105010282Y-115551870D01*
X105010281Y-115551872D01*
X105010281Y-115551874D01*
X104994500Y-115651512D01*
X104994500Y-116168488D01*
X105010281Y-116268126D01*
X105010281Y-116268127D01*
X105010282Y-116268129D01*
X105071467Y-116388213D01*
X105071472Y-116388220D01*
X105166779Y-116483527D01*
X105166786Y-116483532D01*
X105286870Y-116544717D01*
X105286874Y-116544719D01*
X105386512Y-116560500D01*
X105386514Y-116560500D01*
X105953486Y-116560500D01*
X105953488Y-116560500D01*
X106053126Y-116544719D01*
X106124954Y-116508121D01*
X106173213Y-116483532D01*
X106173215Y-116483530D01*
X106173220Y-116483528D01*
X106268528Y-116388220D01*
X106271967Y-116381472D01*
X106309822Y-116307176D01*
X106329719Y-116268126D01*
X106345500Y-116168488D01*
X106345500Y-115651512D01*
X106329719Y-115551874D01*
X106318732Y-115530310D01*
X106268532Y-115431786D01*
X106268527Y-115431779D01*
X106173220Y-115336472D01*
X106173213Y-115336467D01*
X106049691Y-115273530D01*
X106050341Y-115272253D01*
X106025837Y-115251317D01*
X106020500Y-115229079D01*
X106020500Y-114957759D01*
X106027064Y-114933260D01*
X106032729Y-114923449D01*
X106785001Y-114923449D01*
X106800761Y-115022968D01*
X106861877Y-115142916D01*
X106861882Y-115142923D01*
X106957076Y-115238117D01*
X106957081Y-115238121D01*
X107077028Y-115299236D01*
X107077027Y-115299236D01*
X107176550Y-115314999D01*
X107309999Y-115314999D01*
X107610000Y-115314999D01*
X107743449Y-115314999D01*
X107842968Y-115299238D01*
X107962916Y-115238122D01*
X107962923Y-115238117D01*
X108058117Y-115142923D01*
X108058121Y-115142918D01*
X108119236Y-115022972D01*
X108135000Y-114923449D01*
X108135000Y-114815000D01*
X107610000Y-114815000D01*
X107610000Y-115314999D01*
X107309999Y-115314999D01*
X107310000Y-115314998D01*
X107310000Y-114815000D01*
X106785001Y-114815000D01*
X106785001Y-114923449D01*
X106032729Y-114923449D01*
X106049799Y-114893884D01*
X106071494Y-114812918D01*
X106079773Y-114782022D01*
X106079773Y-114782019D01*
X106080500Y-114779306D01*
X106080500Y-114660686D01*
X106049799Y-114546113D01*
X106049798Y-114546110D01*
X106031836Y-114515000D01*
X105990489Y-114443385D01*
X105990488Y-114443384D01*
X105988883Y-114440604D01*
X105989498Y-114440248D01*
X105980500Y-114413734D01*
X105980500Y-114406550D01*
X106785000Y-114406550D01*
X106785000Y-114515000D01*
X107310000Y-114515000D01*
X107610000Y-114515000D01*
X108134999Y-114515000D01*
X108134999Y-114406550D01*
X108119238Y-114307031D01*
X108058122Y-114187083D01*
X108058117Y-114187076D01*
X107962923Y-114091882D01*
X107962918Y-114091878D01*
X107842971Y-114030763D01*
X107842972Y-114030763D01*
X107743449Y-114015000D01*
X107610000Y-114015000D01*
X107610000Y-114515000D01*
X107310000Y-114515000D01*
X107310000Y-114015000D01*
X107176550Y-114015000D01*
X107077031Y-114030761D01*
X106957083Y-114091877D01*
X106957076Y-114091882D01*
X106861882Y-114187076D01*
X106861878Y-114187081D01*
X106800763Y-114307027D01*
X106785000Y-114406550D01*
X105980500Y-114406550D01*
X105980500Y-114043853D01*
X105956615Y-113954716D01*
X105956614Y-113954712D01*
X105944573Y-113933856D01*
X105944031Y-113932918D01*
X105935434Y-113918026D01*
X105910470Y-113874788D01*
X105713962Y-113678280D01*
X105712486Y-113674717D01*
X105709183Y-113672727D01*
X105705486Y-113657819D01*
X105699610Y-113643632D01*
X105701085Y-113640069D01*
X105700158Y-113636327D01*
X105708084Y-113623173D01*
X105713962Y-113608984D01*
X105719494Y-113604222D01*
X105735657Y-113592293D01*
X105764413Y-113582724D01*
X106823338Y-113575553D01*
X106858081Y-113589669D01*
X106859065Y-113590813D01*
X106956779Y-113688527D01*
X106956786Y-113688532D01*
X107076870Y-113749717D01*
X107076874Y-113749719D01*
X107176512Y-113765500D01*
X107176514Y-113765500D01*
X107743486Y-113765500D01*
X107743488Y-113765500D01*
X107843126Y-113749719D01*
X107914310Y-113713449D01*
X110165001Y-113713449D01*
X110180761Y-113812968D01*
X110241877Y-113932916D01*
X110241882Y-113932923D01*
X110337076Y-114028117D01*
X110337081Y-114028121D01*
X110457028Y-114089236D01*
X110457027Y-114089236D01*
X110556550Y-114104999D01*
X110689999Y-114104999D01*
X110990000Y-114104999D01*
X111123449Y-114104999D01*
X111222968Y-114089238D01*
X111342916Y-114028122D01*
X111342923Y-114028117D01*
X111438117Y-113932923D01*
X111438121Y-113932918D01*
X111499236Y-113812972D01*
X111515000Y-113713449D01*
X111515000Y-113605000D01*
X110990000Y-113605000D01*
X110990000Y-114104999D01*
X110689999Y-114104999D01*
X110690000Y-114104998D01*
X110690000Y-113605000D01*
X110165001Y-113605000D01*
X110165001Y-113713449D01*
X107914310Y-113713449D01*
X107963213Y-113688532D01*
X107963215Y-113688530D01*
X107963220Y-113688528D01*
X108058528Y-113593220D01*
X108058530Y-113593214D01*
X108060796Y-113590098D01*
X108061700Y-113590755D01*
X108086818Y-113569296D01*
X108101633Y-113566896D01*
X108451618Y-113564526D01*
X108464623Y-113566194D01*
X108467241Y-113566896D01*
X108480688Y-113570500D01*
X108480691Y-113570500D01*
X108599307Y-113570500D01*
X108599309Y-113570500D01*
X108619947Y-113564969D01*
X108632285Y-113563302D01*
X109120000Y-113560000D01*
X109434990Y-113196550D01*
X110165000Y-113196550D01*
X110165000Y-113305000D01*
X110690000Y-113305000D01*
X110990000Y-113305000D01*
X111514999Y-113305000D01*
X111514999Y-113196550D01*
X111499238Y-113097031D01*
X111438122Y-112977083D01*
X111438117Y-112977076D01*
X111342923Y-112881882D01*
X111342918Y-112881878D01*
X111222971Y-112820763D01*
X111222972Y-112820763D01*
X111123449Y-112805000D01*
X110990000Y-112805000D01*
X110990000Y-113305000D01*
X110690000Y-113305000D01*
X110690000Y-112805000D01*
X110556550Y-112805000D01*
X110457031Y-112820761D01*
X110337083Y-112881877D01*
X110337076Y-112881882D01*
X110241882Y-112977076D01*
X110241878Y-112977081D01*
X110180763Y-113097027D01*
X110165000Y-113196550D01*
X109434990Y-113196550D01*
X109885236Y-112677034D01*
X109918774Y-112660252D01*
X109922540Y-112660128D01*
X111611278Y-112669723D01*
G37*
%TD.AperFunction*%
%TD*%
M02*
