M48
; DRILL file {KiCad 9.0.6} date 2026-05-26T13:56:54+0300
; FORMAT={-:-/ absolute / metric / decimal}
; #@! TF.CreationDate,2026-05-26T13:56:54+03:00
; #@! TF.GenerationSoftware,Kicad,Pcbnew,9.0.6
; #@! TF.FileFunction,Plated,1,6,PTH
FMAT,2
METRIC
; #@! TA.AperFunction,Plated,PTH,ViaDrill
T1C0.150
; #@! TA.AperFunction,Plated,PTH,ComponentDrill
T2C1.000
%
G90
G05
T1
X135.55Y-111.95
X136.475Y-119.7
X136.5Y-104.15
X138.03Y-112.71
X139.75Y-114.975
X139.843Y-109.067
X140.27Y-110.98
X140.3Y-112.55
X141.42Y-113.32
X141.43Y-110.63
X141.79Y-109.5
X142.12Y-116.61
X142.13Y-114.4
X142.725Y-119.525
X143.625Y-104.2
X143.7Y-114.4
X143.85Y-109.63
X144.07Y-110.62
X144.07Y-113.29
X144.85Y-108.03
X145.08Y-110.63
X145.47Y-113.09
X145.71Y-114.86
X145.75Y-108.95
X146.625Y-109.8
X149.0Y-119.6
X150.075Y-105.225
X150.225Y-112.175
T2
X127.635Y-102.87
X127.635Y-105.41
X127.635Y-107.95
X127.635Y-110.49
X127.635Y-113.03
X127.635Y-115.57
X127.635Y-118.11
X127.635Y-120.65
X130.175Y-102.87
X130.175Y-105.41
X130.175Y-107.95
X130.175Y-110.49
X130.175Y-113.03
X130.175Y-115.57
X130.175Y-118.11
X130.175Y-120.65
X133.985Y-123.19
X133.985Y-97.79
X133.985Y-100.33
X133.985Y-125.73
X136.525Y-97.79
X136.525Y-100.33
X136.525Y-123.19
X136.525Y-125.73
X139.065Y-100.33
X139.065Y-97.79
X139.065Y-123.19
X139.065Y-125.73
X141.605Y-97.79
X141.605Y-100.33
X141.605Y-123.19
X141.605Y-125.73
X144.145Y-97.79
X144.145Y-100.33
X144.145Y-123.19
X144.145Y-125.73
X146.685Y-97.79
X146.685Y-100.33
X146.685Y-125.73
X146.685Y-123.19
X149.225Y-97.79
X149.225Y-100.33
X149.225Y-123.19
X149.225Y-125.73
X151.765Y-97.79
X151.765Y-123.19
X151.765Y-125.73
X151.765Y-100.33
X155.575Y-102.87
X155.575Y-105.41
X155.575Y-107.95
X155.575Y-110.49
X155.575Y-113.03
X155.575Y-115.57
X155.575Y-118.11
X155.575Y-120.65
X158.115Y-102.87
X158.115Y-105.41
X158.115Y-107.95
X158.115Y-110.49
X158.115Y-113.03
X158.115Y-115.57
X158.115Y-118.11
X158.115Y-120.65
M30
