M48
; DRILL file {KiCad 9.0.6} date 2026-05-26T13:49:32+0300
; FORMAT={-:-/ absolute / metric / decimal}
; #@! TF.CreationDate,2026-05-26T13:49:32+03:00
; #@! TF.GenerationSoftware,Kicad,Pcbnew,9.0.6
; #@! TF.FileFunction,Plated,1,4,PTH
FMAT,2
METRIC
; #@! TA.AperFunction,Plated,PTH,ViaDrill
T1C0.150
; #@! TA.AperFunction,Plated,PTH,ViaDrill
T2C0.200
; #@! TA.AperFunction,Plated,PTH,ComponentDrill
T3C1.000
; #@! TA.AperFunction,Plated,PTH,ComponentDrill
T4C1.040
%
G90
G05
T1
X53.0Y-133.0
X53.0Y-134.0
X53.0Y-135.0
X53.0Y-136.0
X53.0Y-137.0
X53.0Y-138.0
X53.2Y-149.65
X53.2Y-150.65
X53.2Y-151.65
X53.2Y-152.65
X53.2Y-153.65
X53.2Y-154.65
X53.26Y-101.75
X53.26Y-106.75
X53.26Y-115.75
X53.26Y-94.75
X53.26Y-95.75
X53.26Y-96.75
X53.26Y-100.75
X53.26Y-102.75
X53.26Y-103.75
X53.26Y-104.75
X53.26Y-105.75
X53.26Y-116.75
X53.26Y-117.75
X53.26Y-118.75
X53.26Y-119.75
X53.76Y-107.75
X53.76Y-108.75
X53.76Y-109.75
X53.76Y-110.75
X53.76Y-111.75
X53.76Y-112.75
X53.76Y-113.75
X53.76Y-114.75
X54.26Y-93.75
X54.26Y-94.75
X54.26Y-95.75
X54.26Y-96.75
X54.26Y-97.75
X54.26Y-98.75
X54.26Y-99.75
X54.26Y-100.75
X54.26Y-101.75
X54.26Y-102.75
X54.26Y-115.75
X54.26Y-116.75
X54.26Y-117.75
X54.38Y-129.05
X54.715Y-145.93
X55.26Y-93.75
X55.26Y-94.75
X55.26Y-95.75
X55.26Y-96.75
X55.26Y-100.75
X55.26Y-101.75
X55.26Y-102.75
X55.99Y-129.05
X56.315Y-145.94
X57.0Y-121.0
X57.0Y-122.0
X57.0Y-123.0
X57.5Y-134.5
X57.5Y-135.5
X57.5Y-136.5
X57.5Y-137.5
X57.5Y-138.5
X57.5Y-151.0
X57.5Y-152.0
X57.5Y-153.0
X57.5Y-154.0
X57.5Y-155.0
X58.0Y-121.0
X58.0Y-122.0
X58.0Y-123.0
X58.5Y-134.5
X58.5Y-135.5
X58.5Y-136.5
X58.5Y-137.5
X58.5Y-138.5
X58.5Y-151.0
X58.5Y-152.0
X58.5Y-153.0
X58.5Y-154.0
X58.5Y-155.0
X58.82Y-131.01
X58.82Y-132.01
X59.0Y-119.0
X59.0Y-120.0
X59.0Y-121.0
X59.0Y-122.0
X59.0Y-123.0
X59.195Y-147.86
X59.195Y-148.86
X59.301Y-133.839
X59.31Y-128.86
X59.755Y-150.71
X59.76Y-98.5
X59.76Y-145.76
X59.82Y-131.01
X59.82Y-132.01
X60.01Y-93.25
X60.08Y-128.04
X60.195Y-147.86
X60.195Y-148.86
X60.25Y-138.2
X60.695Y-155.11
X61.0Y-138.2
X61.01Y-96.5
X61.01Y-93.25
X61.01Y-94.25
X61.01Y-95.25
X61.01Y-97.5
X61.01Y-98.5
X61.3Y-117.05
X61.445Y-155.11
X61.75Y-138.2
X61.76Y-100.75
X61.76Y-101.75
X62.0Y-114.1
X62.0Y-164.0
X62.0Y-166.0
X62.0Y-168.0
X62.01Y-93.25
X62.01Y-94.25
X62.01Y-95.25
X62.195Y-155.11
X62.5Y-138.2
X62.76Y-100.75
X62.76Y-101.75
X62.76Y-102.75
X62.76Y-115.75
X62.76Y-117.75
X62.945Y-155.11
X63.25Y-138.2
X63.695Y-155.11
X63.76Y-93.25
X63.76Y-94.25
X63.76Y-96.25
X63.76Y-102.75
X63.76Y-117.75
X63.76Y-121.75
X63.76Y-95.25
X63.76Y-101.75
X63.76Y-106.75
X64.0Y-138.2
X64.0Y-164.0
X64.0Y-166.0
X64.0Y-168.0
X64.26Y-109.75
X64.26Y-111.25
X64.26Y-112.75
X64.26Y-114.25
X64.26Y-115.75
X64.33Y-128.44
X64.445Y-155.11
X64.615Y-145.4
X64.75Y-138.2
X64.76Y-95.25
X64.76Y-120.75
X64.76Y-93.25
X64.76Y-94.25
X64.76Y-96.25
X64.76Y-105.25
X64.76Y-106.25
X64.76Y-107.25
X64.76Y-117.75
X64.76Y-118.75
X64.76Y-119.75
X64.76Y-121.75
X65.195Y-155.11
X65.76Y-106.25
X65.76Y-107.25
X65.76Y-109.75
X65.76Y-111.25
X65.76Y-112.75
X65.76Y-114.25
X65.76Y-115.75
X65.76Y-117.75
X65.76Y-118.75
X65.76Y-119.75
X65.76Y-120.75
X66.0Y-164.0
X66.0Y-166.0
X66.001Y-167.998
X66.76Y-106.25
X66.76Y-107.25
X66.76Y-117.75
X66.76Y-118.75
X66.76Y-119.75
X66.76Y-120.75
X67.5Y-89.5
X67.5Y-90.5
X67.5Y-91.5
X67.5Y-92.5
X67.85Y-122.9
X67.975Y-108.57
X68.8Y-99.32
X68.8Y-102.57
X68.845Y-97.68
X68.91Y-160.45
X69.0Y-89.5
X69.0Y-90.5
X69.0Y-91.5
X69.0Y-92.5
X69.4Y-123.9
X71.0Y-164.5
X71.0Y-165.5
X71.0Y-166.5
X71.0Y-167.5
X71.0Y-168.5
X71.0Y-169.5
X71.0Y-170.5
X72.0Y-167.5
X72.82Y-132.01
X73.0Y-167.5
X73.195Y-148.86
X73.32Y-128.26
X73.57Y-132.01
X73.595Y-144.76
X73.945Y-148.86
X74.0Y-172.5
X74.0Y-173.5
X74.07Y-128.26
X74.32Y-132.01
X74.495Y-144.75
X74.5Y-80.0
X74.5Y-81.5
X74.5Y-83.0
X74.5Y-84.5
X74.695Y-148.86
X75.0Y-162.5
X75.0Y-172.5
X75.0Y-173.5
X75.07Y-130.51
X75.07Y-131.26
X75.07Y-132.01
X75.07Y-132.76
X75.07Y-133.51
X75.445Y-147.36
X75.445Y-148.11
X75.445Y-148.86
X75.445Y-149.61
X75.445Y-150.36
X75.82Y-130.51
X75.82Y-131.26
X75.82Y-132.01
X75.82Y-132.76
X75.82Y-133.51
X76.0Y-80.0
X76.0Y-81.5
X76.0Y-83.0
X76.0Y-84.5
X76.0Y-162.5
X76.0Y-172.5
X76.0Y-173.5
X76.195Y-147.36
X76.195Y-148.11
X76.195Y-148.86
X76.195Y-149.61
X76.195Y-150.36
X77.0Y-160.5
X77.0Y-161.5
X77.0Y-162.5
X77.0Y-172.5
X77.0Y-173.5
X78.0Y-160.5
X78.0Y-161.5
X78.0Y-162.5
X78.0Y-163.5
X78.0Y-164.5
X78.0Y-165.5
X78.0Y-169.5
X78.0Y-170.5
X78.0Y-171.5
X78.0Y-172.5
X78.0Y-173.5
X78.26Y-149.07
X78.26Y-154.72
X78.76Y-96.4
X78.77Y-94.67
X79.0Y-160.5
X79.0Y-161.5
X79.0Y-162.5
X79.0Y-167.0
X79.0Y-168.0
X79.0Y-172.5
X79.0Y-173.5
X79.69Y-98.89
X79.73Y-92.22
X80.0Y-160.5
X80.0Y-161.5
X80.0Y-162.5
X80.0Y-167.0
X80.0Y-168.0
X80.0Y-172.5
X80.0Y-173.5
X80.8Y-149.2
X80.8Y-150.55
X81.0Y-167.0
X81.0Y-168.0
X82.0Y-167.0
X82.0Y-168.0
X82.84Y-91.54
X82.85Y-99.7
X83.0Y-167.0
X83.0Y-168.0
X83.89Y-117.46
X83.89Y-120.0
X83.89Y-122.57
X83.89Y-125.09
X83.89Y-127.63
X84.0Y-164.0
X84.0Y-165.0
X84.0Y-166.0
X84.0Y-167.0
X84.0Y-168.0
X84.0Y-169.0
X84.0Y-170.0
X84.0Y-171.0
X84.69Y-146.61
X85.0Y-164.0
X85.0Y-165.0
X85.0Y-166.0
X85.0Y-167.0
X85.0Y-168.0
X85.0Y-169.0
X85.0Y-170.0
X85.0Y-171.0
X85.237Y-148.562
X85.45Y-90.27
X86.1Y-90.8
X86.75Y-90.35
X87.4Y-90.81
X87.775Y-152.162
X88.15Y-93.85
X88.16Y-91.59
X88.76Y-168.88
X88.76Y-170.78
X90.38Y-95.98
X91.075Y-152.162
X92.02Y-96.01
X93.537Y-148.562
X93.66Y-161.88
X94.24Y-139.36
X94.76Y-165.18
X94.76Y-168.58
X95.03Y-146.61
X96.55Y-145.3
X96.56Y-153.26
X96.85Y-110.89
X97.03Y-139.36
X97.603Y-119.807
X97.66Y-168.88
X97.66Y-170.88
X97.82Y-152.38
X97.88Y-115.91
X98.25Y-158.26
X99.39Y-115.17
X99.41Y-116.42
X99.425Y-118.92
X99.51Y-124.42
X99.55Y-139.37
X99.802Y-114.771
X99.9Y-151.36
X100.025Y-113.185
X100.5Y-157.26
X100.7Y-150.16
X100.7Y-153.86
X101.5Y-94.59
X101.51Y-96.59
X101.6Y-152.41
X101.69Y-156.76
X101.99Y-111.85
X102.12Y-139.36
X102.42Y-99.1
X102.45Y-153.91
X102.45Y-92.13
X102.5Y-150.11
X103.0Y-119.0
X103.0Y-120.0
X103.0Y-121.0
X103.25Y-152.26
X103.62Y-157.38
X103.75Y-149.64
X103.75Y-150.14
X104.0Y-153.91
X104.0Y-119.0
X104.0Y-120.0
X104.0Y-121.0
X104.13Y-114.72
X104.65Y-157.31
X104.65Y-139.37
X104.7Y-126.992
X105.0Y-119.0
X105.0Y-120.0
X105.0Y-121.0
X105.458Y-158.726
X105.63Y-114.72
X105.65Y-163.31
X105.68Y-99.68
X105.69Y-91.5
X106.0Y-119.0
X106.0Y-120.0
X106.0Y-121.0
X106.15Y-155.66
X106.15Y-157.51
X106.2Y-160.91
X106.512Y-124.62
X106.63Y-153.87
X106.653Y-154.77
X107.0Y-119.0
X107.0Y-120.0
X107.0Y-121.0
X107.021Y-110.521
X107.19Y-167.54
X107.238Y-124.62
X107.62Y-126.15
X108.12Y-173.34
X108.29Y-90.5
X108.38Y-124.65
X108.54Y-113.12
X108.87Y-114.79
X108.88Y-158.42
X108.92Y-90.97
X108.93Y-148.72
X109.2Y-124.5
X109.31Y-115.19
X109.33Y-116.42
X109.34Y-117.42
X109.57Y-90.5
X110.22Y-90.97
X110.83Y-115.92
X110.85Y-154.86
X110.96Y-93.78
X110.99Y-91.45
X111.08Y-138.06
X111.35Y-153.11
X111.57Y-160.77
X111.57Y-166.68
X112.4Y-162.73
X112.45Y-174.05
X113.048Y-119.345
X113.38Y-95.91
X113.56Y-137.95
X114.64Y-115.485
X114.825Y-151.46
X114.9Y-158.41
X114.98Y-95.91
X115.35Y-156.66
X116.425Y-174.05
X116.75Y-138.17
X117.45Y-156.52
X117.54Y-162.73
X117.72Y-145.464
X117.72Y-147.014
X118.07Y-149.564
X118.625Y-172.4
X118.67Y-151.464
X120.57Y-137.617
X121.52Y-143.914
X122.08Y-139.71
X122.91Y-165.502
X122.93Y-167.192
X123.32Y-153.264
X123.39Y-114.66
X123.62Y-141.564
X123.645Y-150.489
X124.05Y-162.9
X124.06Y-164.42
X124.44Y-110.91
X124.622Y-118.422
X124.66Y-113.05
X124.88Y-146.627
X125.37Y-110.91
X125.38Y-113.7
X126.3Y-110.9
X126.3Y-114.35
X126.93Y-148.25
X127.135Y-95.4
X127.145Y-96.94
X127.55Y-150.58
X127.7Y-172.375
X127.905Y-79.085
X128.075Y-97.86
X128.225Y-94.26
X128.225Y-92.39
X128.33Y-83.61
X128.385Y-82.725
X129.265Y-96.7
X129.405Y-102.97
X129.59Y-156.51
X129.65Y-84.85
X129.65Y-86.4
X129.785Y-92.38
X129.95Y-121.09
X130.025Y-102.46
X130.045Y-96.69
X130.7Y-110.82
X130.71Y-115.65
X131.27Y-117.55
X131.3Y-129.8
X131.35Y-110.39
X131.35Y-116.3
X132.13Y-110.75
X133.025Y-77.435
X133.295Y-94.09
X133.295Y-96.68
X133.585Y-102.59
X134.0Y-79.91
X134.01Y-79.33
X134.275Y-82.745
X135.4Y-112.43
X135.4Y-124.46
X135.855Y-121.455
X135.87Y-119.86
X136.1Y-109.4
X136.115Y-100.56
X136.415Y-137.722
X136.725Y-77.685
X136.795Y-82.755
X136.915Y-97.8
X138.065Y-96.685
X138.07Y-141.53
X138.08Y-137.715
X138.145Y-100.465
X138.36Y-122.8
X138.5Y-110.8
X138.645Y-79.265
X138.665Y-77.715
X138.718Y-102.085
X139.25Y-79.27
X140.18Y-122.8
X140.2Y-110.8
X140.5Y-88.35
X140.5Y-89.95
X141.045Y-100.485
X141.168Y-96.685
X141.38Y-84.91
X141.7Y-95.0
X142.05Y-84.85
X142.068Y-102.085
X142.1Y-90.85
X142.55Y-93.65
X142.6Y-109.4
X142.655Y-121.445
X142.695Y-119.87
X142.95Y-131.9
X143.0Y-141.47
X143.005Y-137.682
X143.43Y-117.72
X143.465Y-129.735
X143.5Y-112.4
X143.55Y-124.45
X143.775Y-88.35
X143.95Y-85.85
X144.0Y-90.8
X144.2Y-80.6
X144.2Y-84.05
X144.25Y-92.95
X144.25Y-93.6
X144.8Y-90.9
X145.95Y-93.65
X146.025Y-86.175
X146.025Y-89.2
X146.593Y-102.96
X147.2Y-82.25
X147.25Y-91.15
X147.65Y-93.65
X148.268Y-102.06
X148.85Y-86.175
X149.0Y-89.25
X149.18Y-127.035
X149.7Y-84.05
X149.75Y-80.65
X150.23Y-126.385
X150.5Y-141.48
X150.615Y-137.752
X150.618Y-84.518
X150.85Y-90.9
X150.9Y-85.85
X151.0Y-88.99
X151.025Y-87.35
X151.025Y-89.85
X151.2Y-94.6
X151.39Y-95.762
X151.77Y-125.735
X151.938Y-92.986
X152.75Y-92.1
X153.0Y-141.43
X153.005Y-137.742
X153.54Y-83.86
X154.0Y-149.0
X154.0Y-150.0
X154.0Y-151.0
X154.0Y-152.0
X154.0Y-153.0
X154.24Y-123.685
X154.5Y-86.55
X154.63Y-89.46
X155.0Y-149.0
X155.0Y-150.0
X155.0Y-151.0
X155.0Y-152.0
X155.0Y-153.0
X155.5Y-84.05
X155.605Y-137.732
X155.969Y-97.565
X156.28Y-89.41
X156.552Y-92.898
X159.91Y-100.67
X162.0Y-98.8
X163.2Y-98.8
X163.755Y-104.75
X164.0Y-90.5
X164.3Y-97.9
X164.3Y-98.8
X164.32Y-88.51
X164.88Y-88.51
X165.4Y-98.8
X165.44Y-88.51
X168.56Y-88.5
X168.8Y-94.54
X168.92Y-85.65
X170.85Y-94.55
X170.86Y-85.66
X172.1Y-96.8
X172.905Y-104.775
T2
X67.98Y-95.1
X79.32Y-79.09
X102.241Y-79.579
X132.537Y-165.71
X132.537Y-168.859
X140.513Y-143.866
X140.52Y-146.261
X144.493Y-139.07
X144.503Y-141.13
X144.713Y-142.89
X145.491Y-146.304
X147.218Y-146.304
X148.053Y-142.9
X148.253Y-141.12
X148.263Y-139.07
X160.528Y-164.44
X160.528Y-167.589
X168.29Y-154.79
X174.07Y-155.9
T3
X57.325Y-108.545
X57.325Y-111.085
X61.225Y-108.57
X61.225Y-111.11
X67.93Y-136.03
X68.145Y-152.76
X69.57Y-125.91
X69.57Y-128.41
X69.57Y-130.91
X69.82Y-142.76
X69.82Y-145.26
X69.82Y-147.76
X70.47Y-136.03
X70.685Y-152.76
X89.46Y-111.1
X89.46Y-113.64
X89.46Y-116.18
X89.46Y-118.72
X89.46Y-121.26
X89.46Y-123.8
X89.46Y-126.34
X89.46Y-128.88
X92.0Y-111.1
X92.0Y-113.64
X92.0Y-116.18
X92.0Y-118.72
X92.0Y-121.26
X92.0Y-123.8
X92.0Y-126.34
X92.0Y-128.88
X95.81Y-131.445
X95.81Y-106.02
X95.81Y-108.56
X95.81Y-133.985
X98.35Y-106.02
X98.35Y-108.56
X98.35Y-131.445
X98.35Y-133.985
X100.89Y-108.56
X100.89Y-106.02
X100.89Y-131.445
X100.89Y-133.985
X101.0Y-165.46
X101.0Y-168.0
X101.0Y-170.54
X101.0Y-173.08
X101.18Y-142.291
X101.19Y-145.921
X103.43Y-106.02
X103.43Y-108.56
X103.43Y-131.445
X103.43Y-133.985
X103.72Y-142.291
X103.73Y-145.921
X105.97Y-106.02
X105.97Y-108.56
X105.97Y-131.445
X105.97Y-133.985
X106.26Y-142.291
X106.27Y-145.921
X108.51Y-106.02
X108.51Y-108.56
X108.51Y-133.985
X108.51Y-131.445
X108.8Y-142.291
X108.81Y-145.921
X111.05Y-106.02
X111.05Y-108.56
X111.05Y-131.445
X111.05Y-133.985
X113.59Y-106.02
X113.59Y-131.445
X113.59Y-133.985
X113.59Y-108.56
X117.3Y-103.78
X117.3Y-106.32
X117.4Y-111.1
X117.4Y-113.64
X117.4Y-116.18
X117.4Y-118.72
X117.4Y-121.26
X117.4Y-123.8
X117.4Y-126.34
X117.4Y-128.88
X119.94Y-111.1
X119.94Y-113.64
X119.94Y-116.18
X119.94Y-118.72
X119.94Y-121.26
X119.94Y-123.8
X119.94Y-126.34
X119.94Y-128.88
X121.0Y-103.76
X121.0Y-106.3
X126.949Y-141.021
X126.949Y-143.561
X129.06Y-134.95
X130.46Y-89.58
X131.6Y-134.95
X133.0Y-89.58
X134.14Y-134.95
X134.38Y-105.81
X135.54Y-89.58
X136.92Y-105.81
X139.46Y-105.81
X162.4Y-94.46
X162.4Y-97.0
X170.29Y-109.13
X170.29Y-111.67
X170.29Y-114.21
X170.29Y-116.75
X170.29Y-119.29
X170.29Y-121.83
X170.29Y-124.37
X170.29Y-126.91
X170.29Y-129.45
X170.29Y-131.99
X170.29Y-134.53
X170.29Y-137.07
X170.29Y-139.61
X170.29Y-142.15
X170.29Y-144.69
X170.29Y-147.23
X170.29Y-149.77
X170.29Y-152.31
X172.83Y-109.13
X172.83Y-111.67
X172.83Y-114.21
X172.83Y-116.75
X172.83Y-119.29
X172.83Y-121.83
X172.83Y-124.37
X172.83Y-126.91
X172.83Y-129.45
X172.83Y-131.99
X172.83Y-134.53
X172.83Y-137.07
X172.83Y-139.61
X172.83Y-142.15
X172.83Y-144.69
X172.83Y-147.23
X172.83Y-149.77
X172.83Y-152.31
T4
X82.55Y-85.09
X82.55Y-87.63
X85.09Y-85.09
X85.09Y-87.63
X87.63Y-85.09
X87.63Y-87.63
X90.17Y-85.09
X90.17Y-87.63
X92.71Y-85.09
X92.71Y-87.63
X95.25Y-85.09
X95.25Y-87.63
X105.41Y-85.09
X105.41Y-87.63
X107.95Y-85.09
X107.95Y-87.63
X110.49Y-85.09
X110.49Y-87.63
X113.03Y-85.09
X113.03Y-87.63
X115.57Y-85.09
X115.57Y-87.63
X118.11Y-85.09
X118.11Y-87.63
M30
