M48
; DRILL file {KiCad 9.0.6} date 2026-05-26T13:56:54+0300
; FORMAT={-:-/ absolute / metric / decimal}
; #@! TF.CreationDate,2026-05-26T13:56:54+03:00
; #@! TF.GenerationSoftware,Kicad,Pcbnew,9.0.6
; #@! TF.FileFunction,Plated,1,2,Blind
FMAT,2
METRIC
; #@! TA.AperFunction,Plated,Buried,ViaDrill
T1C0.100
%
G90
G05
T1
X140.11Y-111.76
X141.625Y-111.25
X141.625Y-111.6
X141.625Y-111.95
X141.625Y-112.3
X141.625Y-112.65
X142.05Y-110.825
X142.05Y-113.075
X142.26Y-109.18
X142.4Y-110.825
X142.4Y-113.075
X142.46Y-109.69
X142.659Y-109.191
X142.75Y-110.825
X142.75Y-113.075
X142.91Y-109.69
X143.1Y-110.825
X143.1Y-113.075
X143.11Y-109.18
X143.31Y-109.69
X143.45Y-110.825
X143.45Y-113.075
X143.85Y-111.25
X143.85Y-111.6
X143.85Y-111.95
X143.85Y-112.3
X143.85Y-112.65
X144.998Y-111.78
X144.998Y-112.59
X145.0Y-111.38
X145.0Y-112.19
X145.52Y-111.58
X145.52Y-111.99
X145.52Y-112.379
M30
