%TF.GenerationSoftware,KiCad,Pcbnew,9.0.6*%
%TF.CreationDate,2026-05-26T13:56:52+03:00*%
%TF.ProjectId,Didactic_wire_bond_PCB,44696461-6374-4696-935f-776972655f62,rev?*%
%TF.SameCoordinates,Original*%
%TF.FileFunction,Copper,L1,Top*%
%TF.FilePolarity,Positive*%
%FSLAX46Y46*%
G04 Gerber Fmt 4.6, Leading zero omitted, Abs format (unit mm)*
G04 Created by KiCad (PCBNEW 9.0.6) date 2026-05-26 13:56:52*
%MOMM*%
%LPD*%
G01*
G04 APERTURE LIST*
G04 Aperture macros list*
%AMRoundRect*
0 Rectangle with rounded corners*
0 $1 Rounding radius*
0 $2 $3 $4 $5 $6 $7 $8 $9 X,Y pos of 4 corners*
0 Add a 4 corners polygon primitive as box body*
4,1,4,$2,$3,$4,$5,$6,$7,$8,$9,$2,$3,0*
0 Add four circle primitives for the rounded corners*
1,1,$1+$1,$2,$3*
1,1,$1+$1,$4,$5*
1,1,$1+$1,$6,$7*
1,1,$1+$1,$8,$9*
0 Add four rect primitives between the rounded corners*
20,1,$1+$1,$2,$3,$4,$5,0*
20,1,$1+$1,$4,$5,$6,$7,0*
20,1,$1+$1,$6,$7,$8,$9,0*
20,1,$1+$1,$8,$9,$2,$3,0*%
%AMFreePoly0*
4,1,17,0.503536,2.633536,0.505000,2.630000,0.505000,0.505000,2.155000,0.505000,2.158536,0.503536,2.160000,0.500000,2.160000,-0.500000,2.158536,-0.503536,2.155000,-0.505000,-0.500000,-0.505000,-0.503536,-0.503536,-0.505000,-0.500000,-0.505000,2.630000,-0.503536,2.633536,-0.500000,2.635000,0.500000,2.635000,0.503536,2.633536,0.503536,2.633536,$1*%
%AMFreePoly1*
4,1,17,0.503536,2.633536,0.505000,2.630000,0.505000,-0.500000,0.503536,-0.503536,0.500000,-0.505000,-2.155000,-0.505000,-2.158536,-0.503536,-2.160000,-0.500000,-2.160000,0.500000,-2.158536,0.503536,-2.155000,0.505000,-0.505000,0.505000,-0.505000,2.630000,-0.503536,2.633536,-0.500000,2.635000,0.500000,2.635000,0.503536,2.633536,0.503536,2.633536,$1*%
%AMFreePoly2*
4,1,17,0.503536,0.503536,0.505000,0.500000,0.505000,-2.630000,0.503536,-2.633536,0.500000,-2.635000,-0.500000,-2.635000,-0.503536,-2.633536,-0.505000,-2.630000,-0.505000,-0.505000,-2.155000,-0.505000,-2.158536,-0.503536,-2.160000,-0.500000,-2.160000,0.500000,-2.158536,0.503536,-2.155000,0.505000,0.500000,0.505000,0.503536,0.503536,0.503536,0.503536,$1*%
%AMFreePoly3*
4,1,17,2.158536,0.503536,2.160000,0.500000,2.160000,-0.500000,2.158536,-0.503536,2.155000,-0.505000,0.505000,-0.505000,0.505000,-2.630000,0.503536,-2.633536,0.500000,-2.635000,-0.500000,-2.635000,-0.503536,-2.633536,-0.505000,-2.630000,-0.505000,0.500000,-0.503536,0.503536,-0.500000,0.505000,2.155000,0.505000,2.158536,0.503536,2.158536,0.503536,$1*%
G04 Aperture macros list end*
%TA.AperFunction,SMDPad,CuDef*%
%ADD10RoundRect,0.140000X-0.170000X0.140000X-0.170000X-0.140000X0.170000X-0.140000X0.170000X0.140000X0*%
%TD*%
%TA.AperFunction,SMDPad,CuDef*%
%ADD11RoundRect,0.015000X-0.885000X0.060000X-0.885000X-0.060000X0.885000X-0.060000X0.885000X0.060000X0*%
%TD*%
%TA.AperFunction,SMDPad,CuDef*%
%ADD12RoundRect,0.015000X-0.060000X-0.885000X0.060000X-0.885000X0.060000X0.885000X-0.060000X0.885000X0*%
%TD*%
%TA.AperFunction,SMDPad,CuDef*%
%ADD13RoundRect,0.015000X-0.035000X0.085000X-0.035000X-0.085000X0.035000X-0.085000X0.035000X0.085000X0*%
%TD*%
%TA.AperFunction,SMDPad,CuDef*%
%ADD14RoundRect,0.015000X-0.085000X-0.035000X0.085000X-0.035000X0.085000X0.035000X-0.085000X0.035000X0*%
%TD*%
%TA.AperFunction,SMDPad,CuDef*%
%ADD15RoundRect,0.015000X0.085000X0.035000X-0.085000X0.035000X-0.085000X-0.035000X0.085000X-0.035000X0*%
%TD*%
%TA.AperFunction,ComponentPad*%
%ADD16R,1.700000X1.700000*%
%TD*%
%TA.AperFunction,ComponentPad*%
%ADD17C,1.700000*%
%TD*%
%TA.AperFunction,SMDPad,CuDef*%
%ADD18RoundRect,0.140000X-0.219203X-0.021213X-0.021213X-0.219203X0.219203X0.021213X0.021213X0.219203X0*%
%TD*%
%TA.AperFunction,SMDPad,CuDef*%
%ADD19RoundRect,0.140000X0.219203X0.021213X0.021213X0.219203X-0.219203X-0.021213X-0.021213X-0.219203X0*%
%TD*%
%TA.AperFunction,SMDPad,CuDef*%
%ADD20RoundRect,0.140000X0.021213X-0.219203X0.219203X-0.021213X-0.021213X0.219203X-0.219203X0.021213X0*%
%TD*%
%TA.AperFunction,SMDPad,CuDef*%
%ADD21RoundRect,0.140000X-0.140000X-0.170000X0.140000X-0.170000X0.140000X0.170000X-0.140000X0.170000X0*%
%TD*%
%TA.AperFunction,SMDPad,CuDef*%
%ADD22RoundRect,0.140000X0.140000X0.170000X-0.140000X0.170000X-0.140000X-0.170000X0.140000X-0.170000X0*%
%TD*%
%TA.AperFunction,SMDPad,CuDef*%
%ADD23FreePoly0,0.000000*%
%TD*%
%TA.AperFunction,SMDPad,CuDef*%
%ADD24R,3.400000X1.000000*%
%TD*%
%TA.AperFunction,SMDPad,CuDef*%
%ADD25FreePoly1,0.000000*%
%TD*%
%TA.AperFunction,SMDPad,CuDef*%
%ADD26R,1.000000X3.800000*%
%TD*%
%TA.AperFunction,SMDPad,CuDef*%
%ADD27FreePoly2,0.000000*%
%TD*%
%TA.AperFunction,SMDPad,CuDef*%
%ADD28FreePoly3,0.000000*%
%TD*%
%TA.AperFunction,SMDPad,CuDef*%
%ADD29RoundRect,0.140000X-0.021213X0.219203X-0.219203X0.021213X0.021213X-0.219203X0.219203X-0.021213X0*%
%TD*%
%TA.AperFunction,SMDPad,CuDef*%
%ADD30RoundRect,0.140000X0.170000X-0.140000X0.170000X0.140000X-0.170000X0.140000X-0.170000X-0.140000X0*%
%TD*%
%TA.AperFunction,ViaPad*%
%ADD31C,0.500000*%
%TD*%
%TA.AperFunction,ViaPad*%
%ADD32C,0.230000*%
%TD*%
%TA.AperFunction,Conductor*%
%ADD33C,0.150000*%
%TD*%
%TA.AperFunction,Conductor*%
%ADD34C,0.300000*%
%TD*%
%TA.AperFunction,Conductor*%
%ADD35C,0.200000*%
%TD*%
%TA.AperFunction,Conductor*%
%ADD36C,0.100000*%
%TD*%
G04 APERTURE END LIST*
D10*
%TO.P,C106,1*%
%TO.N,IOVDD*%
X142130000Y-115000000D03*
%TO.P,C106,2*%
%TO.N,GND*%
X142130000Y-115960000D03*
%TD*%
D11*
%TO.P,U101,1,GND*%
%TO.N,GND*%
X142748000Y-110525600D03*
D12*
X144168000Y-111935600D03*
X141318000Y-111955600D03*
D11*
X142748000Y-113385600D03*
%TO.P,U101,2,CVDD*%
%TO.N,CVDD*%
X142748000Y-110255600D03*
D12*
X144438000Y-111935600D03*
X141048000Y-111955600D03*
D11*
X142748000Y-113655600D03*
%TO.P,U101,3,IOVDD*%
%TO.N,IOVDD*%
X142748000Y-109985600D03*
D12*
X144708000Y-111935600D03*
X140778000Y-111955600D03*
D11*
X142748000Y-113925600D03*
D13*
%TO.P,U101,4,N_BIAS*%
%TO.N,/N_BIAS*%
X143308000Y-109435600D03*
%TO.P,U101,5,GPIO_15*%
%TO.N,/GPIO15*%
X143208000Y-108865600D03*
%TO.P,U101,6,GPIO_14*%
%TO.N,/GPIO14*%
X143108000Y-109435600D03*
%TO.P,U101,7,GPIO_13*%
%TO.N,/GPIO13*%
X143008000Y-108865600D03*
%TO.P,U101,8,GPIO_12*%
%TO.N,/GPIO12*%
X142908000Y-109435600D03*
%TO.P,U101,9,GPIO_11*%
%TO.N,/GPIO11*%
X142768000Y-108865600D03*
%TO.P,U101,10,GPIO_10*%
%TO.N,/GPIO10*%
X142658000Y-109435600D03*
%TO.P,U101,11,GPIO_9*%
%TO.N,/GPIO9*%
X142558000Y-108865600D03*
%TO.P,U101,12,GPIO_8*%
%TO.N,/GPIO8*%
X142458000Y-109435600D03*
%TO.P,U101,13,GPIO_7*%
%TO.N,/GPIO7*%
X142358000Y-108865600D03*
%TO.P,U101,14,GPIO_6*%
%TO.N,/GPIO6*%
X142258000Y-109435600D03*
%TO.P,U101,15,GPIO_5*%
%TO.N,/GPIO5*%
X142158000Y-108865600D03*
D14*
%TO.P,U101,16,GPIO_4*%
%TO.N,/GPIO4*%
X140378000Y-111555600D03*
%TO.P,U101,17,GPIO_3*%
%TO.N,/GPIO3*%
X139798000Y-111655600D03*
%TO.P,U101,18,GPIO_2*%
%TO.N,/GPIO2*%
X140378000Y-111755600D03*
%TO.P,U101,19,GPIO_1*%
%TO.N,/GPIO1*%
X139798000Y-111855600D03*
%TO.P,U101,20,GPIO_0*%
%TO.N,/GPIO0*%
X140378000Y-111955600D03*
D13*
%TO.P,U101,21,SPI_DATA3*%
%TO.N,/SPI_DATA3*%
X142728000Y-114405600D03*
%TO.P,U101,22,SPI_DATA2*%
%TO.N,/SPI_DATA2*%
X142928000Y-114405600D03*
%TO.P,U101,23,SPI_DATA1*%
%TO.N,/SPI_DATA1*%
X143128000Y-114405600D03*
D15*
%TO.P,U101,24,SPI_SCK*%
%TO.N,/SPI_SCK*%
X145838000Y-112705600D03*
%TO.P,U101,25,SPI_DATA0*%
%TO.N,/SPI_DATA0*%
X145268000Y-112585600D03*
%TO.P,U101,26,SPI_CSN1*%
%TO.N,/SPI_CSN1*%
X145838000Y-112505600D03*
%TO.P,U101,27,SPI_CSN0*%
%TO.N,/SPI_CSN0*%
X145268000Y-112385600D03*
%TO.P,U101,28,CLK_IN*%
%TO.N,/CLK*%
X145838000Y-112275600D03*
%TO.P,U101,29,RST_N*%
%TO.N,/RST_N*%
X145268000Y-112185600D03*
%TO.P,U101,30,UART_TX*%
%TO.N,/UART_TX*%
X145838000Y-112065600D03*
%TO.P,U101,31,UART_RX*%
%TO.N,/UART_RX*%
X145268000Y-111985600D03*
%TO.P,U101,32,JTAG_TRST*%
%TO.N,/JTAG_TRST*%
X145838000Y-111855600D03*
%TO.P,U101,33,JTAG_TMS*%
%TO.N,/JTAG_TMS*%
X145268000Y-111785600D03*
%TO.P,U101,34,P_BIAS*%
%TO.N,/P_BIAS*%
X145838000Y-111645600D03*
%TO.P,U101,35,JTAG_TDO*%
%TO.N,/JTAG_TDO*%
X145268000Y-111585600D03*
%TO.P,U101,36,JTAG_TDI*%
%TO.N,/JTAG_TDI*%
X145838000Y-111435600D03*
%TO.P,U101,37,JTAG_TCK*%
%TO.N,/JTAG_TCK*%
X145268000Y-111385600D03*
%TD*%
D16*
%TO.P,J603,1,Pin_1*%
%TO.N,unconnected-(J603-Pin_1-Pad1)*%
X130175000Y-120650000D03*
D17*
%TO.P,J603,2,Pin_2*%
%TO.N,GND*%
X127635000Y-120650000D03*
%TO.P,J603,3,Pin_3*%
%TO.N,unconnected-(J603-Pin_3-Pad3)*%
X130175000Y-118110000D03*
%TO.P,J603,4,Pin_4*%
%TO.N,unconnected-(J603-Pin_4-Pad4)*%
X127635000Y-118110000D03*
%TO.P,J603,5,Pin_5*%
%TO.N,unconnected-(J603-Pin_5-Pad5)*%
X130175000Y-115570001D03*
%TO.P,J603,6,Pin_6*%
%TO.N,unconnected-(J603-Pin_6-Pad6)*%
X127635000Y-115570000D03*
%TO.P,J603,7,Pin_7*%
%TO.N,unconnected-(J603-Pin_7-Pad7)*%
X130175000Y-113030000D03*
%TO.P,J603,8,Pin_8*%
%TO.N,unconnected-(J603-Pin_8-Pad8)*%
X127635000Y-113030000D03*
%TO.P,J603,9,Pin_9*%
%TO.N,/GPIO0*%
X130175000Y-110490000D03*
%TO.P,J603,10,Pin_10*%
%TO.N,unconnected-(J603-Pin_10-Pad10)*%
X127635000Y-110490000D03*
%TO.P,J603,11,Pin_11*%
%TO.N,/GPIO2*%
X130175000Y-107950000D03*
%TO.P,J603,12,Pin_12*%
%TO.N,/GPIO1*%
X127635000Y-107950000D03*
%TO.P,J603,13,Pin_13*%
%TO.N,/GPIO4*%
X130175000Y-105410000D03*
%TO.P,J603,14,Pin_14*%
%TO.N,/GPIO3*%
X127635000Y-105410000D03*
%TO.P,J603,15,Pin_15*%
%TO.N,GND*%
X130175000Y-102869999D03*
%TO.P,J603,16,Pin_16*%
%TO.N,IOVDD*%
X127635000Y-102870000D03*
%TD*%
D18*
%TO.P,C102,1*%
%TO.N,CVDD*%
X144491389Y-113655789D03*
%TO.P,C102,2*%
%TO.N,GND*%
X145170211Y-114334611D03*
%TD*%
D16*
%TO.P,J201,1,Pin_1*%
%TO.N,GND*%
X155575000Y-102870000D03*
D17*
%TO.P,J201,2,Pin_2*%
%TO.N,CVDD*%
X158115000Y-102870000D03*
%TO.P,J201,3,Pin_3*%
%TO.N,/JTAG_TCK*%
X155575000Y-105410000D03*
%TO.P,J201,4,Pin_4*%
%TO.N,/JTAG_TDI*%
X158115000Y-105410000D03*
%TO.P,J201,5,Pin_5*%
%TO.N,/JTAG_TDO*%
X155575000Y-107949999D03*
%TO.P,J201,6,Pin_6*%
%TO.N,/P_BIAS*%
X158115000Y-107950000D03*
%TO.P,J201,7,Pin_7*%
%TO.N,/JTAG_TMS*%
X155575000Y-110490000D03*
%TO.P,J201,8,Pin_8*%
%TO.N,/JTAG_TRST*%
X158115000Y-110490000D03*
%TO.P,J201,9,Pin_9*%
%TO.N,/UART_RX*%
X155575000Y-113030000D03*
%TO.P,J201,10,Pin_10*%
%TO.N,/UART_TX*%
X158115000Y-113030000D03*
%TO.P,J201,11,Pin_11*%
%TO.N,/RST_N*%
X155575000Y-115570000D03*
%TO.P,J201,12,Pin_12*%
%TO.N,/CLK*%
X158115000Y-115570000D03*
%TO.P,J201,13,Pin_13*%
%TO.N,/SPI_CSN0*%
X155575000Y-118110000D03*
%TO.P,J201,14,Pin_14*%
%TO.N,/SPI_CSN1*%
X158115000Y-118110000D03*
%TO.P,J201,15,Pin_15*%
%TO.N,/SPI_DATA0*%
X155575000Y-120650001D03*
%TO.P,J201,16,Pin_16*%
%TO.N,/SPI_SCK*%
X158115000Y-120650000D03*
%TD*%
D19*
%TO.P,C104,1*%
%TO.N,CVDD*%
X141055411Y-110219811D03*
%TO.P,C104,2*%
%TO.N,GND*%
X140376589Y-109540989D03*
%TD*%
D16*
%TO.P,J202,1,Pin_1*%
%TO.N,GND*%
X151765000Y-123190000D03*
D17*
%TO.P,J202,2,Pin_2*%
%TO.N,CVDD*%
X151765000Y-125730000D03*
%TO.P,J202,3,Pin_3*%
%TO.N,/SPI_DATA1*%
X149225000Y-123190000D03*
%TO.P,J202,4,Pin_4*%
%TO.N,IOVDD*%
X149225000Y-125730000D03*
%TO.P,J202,5,Pin_5*%
%TO.N,/SPI_DATA3*%
X146685001Y-123190000D03*
%TO.P,J202,6,Pin_6*%
%TO.N,/SPI_DATA2*%
X146685000Y-125730000D03*
%TO.P,J202,7,Pin_7*%
%TO.N,unconnected-(J202-Pin_7-Pad7)*%
X144145000Y-123190000D03*
%TO.P,J202,8,Pin_8*%
%TO.N,unconnected-(J202-Pin_8-Pad8)*%
X144145000Y-125730000D03*
%TO.P,J202,9,Pin_9*%
%TO.N,unconnected-(J202-Pin_9-Pad9)*%
X141605000Y-123190000D03*
%TO.P,J202,10,Pin_10*%
%TO.N,unconnected-(J202-Pin_10-Pad10)*%
X141605000Y-125730000D03*
%TO.P,J202,11,Pin_11*%
%TO.N,unconnected-(J202-Pin_11-Pad11)*%
X139065000Y-123190000D03*
%TO.P,J202,12,Pin_12*%
%TO.N,unconnected-(J202-Pin_12-Pad12)*%
X139065000Y-125730000D03*
%TO.P,J202,13,Pin_13*%
%TO.N,unconnected-(J202-Pin_13-Pad13)*%
X136525000Y-123190000D03*
%TO.P,J202,14,Pin_14*%
%TO.N,unconnected-(J202-Pin_14-Pad14)*%
X136525000Y-125730000D03*
%TO.P,J202,15,Pin_15*%
%TO.N,unconnected-(J202-Pin_15-Pad15)*%
X133984999Y-123190000D03*
%TO.P,J202,16,Pin_16*%
%TO.N,unconnected-(J202-Pin_16-Pad16)*%
X133985000Y-125730000D03*
%TD*%
D20*
%TO.P,C101,1*%
%TO.N,CVDD*%
X144491389Y-110169011D03*
%TO.P,C101,2*%
%TO.N,GND*%
X145170211Y-109490189D03*
%TD*%
D21*
%TO.P,C105,1*%
%TO.N,IOVDD*%
X145671600Y-110642400D03*
%TO.P,C105,2*%
%TO.N,GND*%
X146631600Y-110642400D03*
%TD*%
D22*
%TO.P,C107,1*%
%TO.N,IOVDD*%
X139530000Y-112710000D03*
%TO.P,C107,2*%
%TO.N,GND*%
X138570000Y-112710000D03*
%TD*%
D23*
%TO.P,J101,SH1,SHIELD*%
%TO.N,GND*%
X136486400Y-118668800D03*
D24*
%TO.P,J101,SH2,SHIELD__1*%
X142741400Y-118668800D03*
D25*
%TO.P,J101,SH3,SHIELD__2*%
X148996400Y-118668800D03*
D26*
%TO.P,J101,SH4,SHIELD__3*%
X148996400Y-111938800D03*
D27*
%TO.P,J101,SH5,SHIELD__4*%
X148996400Y-105208800D03*
D24*
%TO.P,J101,SH6,SHIELD__5*%
X142741400Y-105208800D03*
D28*
%TO.P,J101,SH7,SHIELD__6*%
X136486400Y-105208800D03*
D26*
%TO.P,J101,SH8,SHIELD__7*%
X136486400Y-111938800D03*
%TD*%
D29*
%TO.P,C103,1*%
%TO.N,CVDD*%
X141004611Y-113706589D03*
%TO.P,C103,2*%
%TO.N,GND*%
X140325789Y-114385411D03*
%TD*%
D16*
%TO.P,J601,1,Pin_1*%
%TO.N,GND*%
X133985000Y-100330000D03*
D17*
%TO.P,J601,2,Pin_2*%
%TO.N,CVDD*%
X133985000Y-97790000D03*
%TO.P,J601,3,Pin_3*%
%TO.N,/GPIO5*%
X136525000Y-100330000D03*
%TO.P,J601,4,Pin_4*%
%TO.N,/GPIO6*%
X136525000Y-97790000D03*
%TO.P,J601,5,Pin_5*%
%TO.N,/GPIO7*%
X139064999Y-100330000D03*
%TO.P,J601,6,Pin_6*%
%TO.N,/GPIO8*%
X139065000Y-97790000D03*
%TO.P,J601,7,Pin_7*%
%TO.N,/GPIO9*%
X141605000Y-100330000D03*
%TO.P,J601,8,Pin_8*%
%TO.N,/GPIO10*%
X141605000Y-97790000D03*
%TO.P,J601,9,Pin_9*%
%TO.N,/GPIO11*%
X144145000Y-100330000D03*
%TO.P,J601,10,Pin_10*%
%TO.N,/GPIO12*%
X144145000Y-97790000D03*
%TO.P,J601,11,Pin_11*%
%TO.N,/GPIO13*%
X146685000Y-100330000D03*
%TO.P,J601,12,Pin_12*%
%TO.N,/GPIO14*%
X146685000Y-97790000D03*
%TO.P,J601,13,Pin_13*%
%TO.N,/GPIO15*%
X149225000Y-100330000D03*
%TO.P,J601,14,Pin_14*%
%TO.N,/N_BIAS*%
X149225000Y-97790000D03*
%TO.P,J601,15,Pin_15*%
%TO.N,GND*%
X151765001Y-100330000D03*
%TO.P,J601,16,Pin_16*%
%TO.N,IOVDD*%
X151765000Y-97790000D03*
%TD*%
D30*
%TO.P,C108,1*%
%TO.N,IOVDD*%
X144018000Y-108988800D03*
%TO.P,C108,2*%
%TO.N,GND*%
X144018000Y-108028800D03*
%TD*%
D31*
%TO.N,GND*%
X136500000Y-104150000D03*
D32*
X142750000Y-113075000D03*
D31*
X139750000Y-114975000D03*
X135550000Y-111950000D03*
X146625000Y-109800000D03*
D32*
X141625000Y-112650000D03*
X143850000Y-111250000D03*
X143850000Y-111950000D03*
X143850000Y-111599999D03*
D31*
X150075000Y-105225000D03*
X145710000Y-114860000D03*
D32*
X141625000Y-111250001D03*
D31*
X139842500Y-109067500D03*
X142725000Y-119525000D03*
D32*
X142050000Y-110825000D03*
X142400000Y-113075000D03*
D31*
X150225000Y-112175000D03*
D32*
X143449999Y-110825000D03*
D31*
X142120000Y-116610000D03*
X143625000Y-104200000D03*
D32*
X143850000Y-112649999D03*
X143100001Y-113075000D03*
D31*
X149000000Y-119600000D03*
D32*
X143450000Y-113075000D03*
D31*
X138030000Y-112710000D03*
X145750000Y-108950000D03*
D32*
X142050001Y-113075000D03*
X141625000Y-112300000D03*
X141625000Y-111600000D03*
X143100000Y-110825000D03*
D31*
X144850000Y-108030000D03*
D32*
X142750000Y-110825000D03*
D31*
X136475000Y-119700000D03*
D32*
X141625000Y-111950000D03*
X142399999Y-110825000D03*
X143850000Y-112300000D03*
%TO.N,/SPI_CSN0*%
X145520000Y-112379192D03*
D31*
%TO.N,CVDD*%
X144070000Y-113290000D03*
X141420000Y-113320000D03*
X144070000Y-110620000D03*
X141430000Y-110630000D03*
D32*
%TO.N,/SPI_DATA0*%
X144998000Y-112590000D03*
D31*
%TO.N,IOVDD*%
X143850000Y-109630000D03*
X141790000Y-109500000D03*
X145080000Y-110630000D03*
X140300000Y-112550000D03*
X145470000Y-113090000D03*
X142130000Y-114400000D03*
X140270000Y-110980000D03*
X143700000Y-114400000D03*
D32*
%TO.N,/GPIO6*%
X142260000Y-109180000D03*
%TO.N,/N_BIAS*%
X143310000Y-109690000D03*
%TO.N,/GPIO8*%
X142460000Y-109690000D03*
%TO.N,/GPIO10*%
X142659030Y-109191014D03*
%TO.N,/GPIO12*%
X142910000Y-109690000D03*
%TO.N,/GPIO14*%
X143110000Y-109180000D03*
%TO.N,/GPIO2*%
X140110000Y-111760000D03*
%TO.N,/UART_RX*%
X145520000Y-111990000D03*
%TO.N,/JTAG_TDO*%
X145520000Y-111580000D03*
%TO.N,/RST_N*%
X145000000Y-112190000D03*
%TO.N,/JTAG_TCK*%
X145000000Y-111380000D03*
%TO.N,/JTAG_TMS*%
X144998000Y-111780000D03*
%TD*%
D33*
%TO.N,GND*%
X143850000Y-111250000D02*
X144124999Y-111250000D01*
X142750000Y-110825000D02*
X142750000Y-110525000D01*
X142050001Y-113075000D02*
X142050001Y-113324999D01*
D34*
X148996400Y-119596400D02*
X149000000Y-119600000D01*
X142741400Y-105208800D02*
X143341200Y-105208800D01*
X146631600Y-110642400D02*
X146631600Y-109806600D01*
D35*
X142130000Y-116600000D02*
X142120000Y-116610000D01*
D34*
X148996400Y-118668800D02*
X148996400Y-119596400D01*
X144018000Y-108028800D02*
X144848800Y-108028800D01*
X142741400Y-119508600D02*
X142725000Y-119525000D01*
X145184611Y-114334611D02*
X145710000Y-114860000D01*
X148996400Y-105208800D02*
X150058800Y-105208800D01*
D33*
X143100000Y-110825000D02*
X143100000Y-110550001D01*
D34*
X145209811Y-109490189D02*
X145750000Y-108950000D01*
X149988800Y-111938800D02*
X150225000Y-112175000D01*
D33*
X143100001Y-113075000D02*
X143100000Y-113350000D01*
D34*
X135561200Y-111938800D02*
X135550000Y-111950000D01*
D33*
X142050001Y-113324999D02*
X142050000Y-113325000D01*
D34*
X139750000Y-114975000D02*
X139750000Y-114961200D01*
D33*
X143449999Y-110575001D02*
X143450000Y-110575000D01*
X142050000Y-110825000D02*
X142050000Y-110550001D01*
D34*
X136486400Y-119688600D02*
X136475000Y-119700000D01*
D33*
X144099999Y-112649999D02*
X144100000Y-112650000D01*
X143850000Y-112300000D02*
X144124999Y-112300000D01*
X143850000Y-111950000D02*
X144150000Y-111950000D01*
D34*
X139842500Y-109067500D02*
X140315989Y-109540989D01*
D33*
X143850000Y-111599999D02*
X144125000Y-111600000D01*
X143850000Y-112649999D02*
X144099999Y-112649999D01*
X141375001Y-111250001D02*
X141375000Y-111250000D01*
D34*
X150058800Y-105208800D02*
X150075000Y-105225000D01*
X136486400Y-111938800D02*
X135561200Y-111938800D01*
X144848800Y-108028800D02*
X144850000Y-108030000D01*
D33*
X141625000Y-111600000D02*
X141350000Y-111600000D01*
X142750000Y-113075000D02*
X142750000Y-113375000D01*
D34*
X136486400Y-118668800D02*
X136486400Y-119688600D01*
X142741400Y-118668800D02*
X142741400Y-119508600D01*
D33*
X141625000Y-112650000D02*
X141350000Y-112650000D01*
D34*
X143341200Y-105208800D02*
X143625000Y-104925000D01*
X140315989Y-109540989D02*
X140376589Y-109540989D01*
D33*
X141625000Y-111250001D02*
X141375001Y-111250001D01*
D34*
X143625000Y-104925000D02*
X143625000Y-104200000D01*
D33*
X142400000Y-113075000D02*
X142400000Y-113349999D01*
X141625000Y-112300000D02*
X141350000Y-112300000D01*
X143449999Y-110825000D02*
X143449999Y-110575001D01*
X143450000Y-113075000D02*
X143450000Y-113349999D01*
X142399999Y-110825000D02*
X142400000Y-110550000D01*
D34*
X148996400Y-111938800D02*
X149988800Y-111938800D01*
D33*
X141625000Y-111950000D02*
X141325000Y-111950000D01*
D35*
X142130000Y-115960000D02*
X142130000Y-116600000D01*
D34*
X145170211Y-114334611D02*
X145184611Y-114334611D01*
X146631600Y-109806600D02*
X146625000Y-109800000D01*
D35*
X138570000Y-112710000D02*
X138030000Y-112710000D01*
D34*
X145170211Y-109490189D02*
X145209811Y-109490189D01*
X139750000Y-114961200D02*
X140325789Y-114385411D01*
X136486400Y-104163600D02*
X136500000Y-104150000D01*
X136486400Y-105208800D02*
X136486400Y-104163600D01*
D36*
%TO.N,/SPI_CSN1*%
X147500000Y-112730000D02*
X147500000Y-114360000D01*
D33*
X153010000Y-116850000D02*
X156855000Y-116850000D01*
D36*
X147275600Y-112505600D02*
X147500000Y-112730000D01*
X148150000Y-115010000D02*
X149770000Y-115010000D01*
D33*
X151170000Y-115010000D02*
X153010000Y-116850000D01*
D36*
X147500000Y-114360000D02*
X148150000Y-115010000D01*
D33*
X156855000Y-116850000D02*
X158115000Y-118110000D01*
X149770000Y-115010000D02*
X151170000Y-115010000D01*
D36*
X145838000Y-112505600D02*
X147275600Y-112505600D01*
%TO.N,/SPI_CSN0*%
X145513592Y-112385600D02*
X145520000Y-112379192D01*
X145268000Y-112385600D02*
X145513592Y-112385600D01*
%TO.N,/CLK*%
X145838000Y-112275600D02*
X147465600Y-112275600D01*
X147790000Y-112600000D02*
X147790000Y-114180000D01*
D33*
X156845000Y-114300000D02*
X158115000Y-115570000D01*
D36*
X148200000Y-114590000D02*
X149770000Y-114590000D01*
D33*
X151470000Y-114300000D02*
X156845000Y-114300000D01*
X151180000Y-114590000D02*
X151470000Y-114300000D01*
X149770000Y-114590000D02*
X151180000Y-114590000D01*
D36*
X147790000Y-114180000D02*
X148200000Y-114590000D01*
X147465600Y-112275600D02*
X147790000Y-112600000D01*
%TO.N,/SPI_SCK*%
X146925600Y-112705600D02*
X147200000Y-112980000D01*
D33*
X150870000Y-115570000D02*
X154680000Y-119380000D01*
D36*
X147200000Y-114610000D02*
X148160000Y-115570000D01*
X147200000Y-112980000D02*
X147200000Y-114610000D01*
D33*
X149760000Y-115570000D02*
X150870000Y-115570000D01*
D36*
X145838000Y-112705600D02*
X146925600Y-112705600D01*
X148160000Y-115570000D02*
X149760000Y-115570000D01*
D33*
X154680000Y-119380000D02*
X156845000Y-119380000D01*
X156845000Y-119380000D02*
X158115000Y-120650000D01*
D36*
%TO.N,/SPI_DATA0*%
X145002400Y-112585600D02*
X144998000Y-112590000D01*
X145268000Y-112585600D02*
X145002400Y-112585600D01*
D35*
%TO.N,IOVDD*%
X140140000Y-112710000D02*
X140300000Y-112550000D01*
X145080000Y-110630000D02*
X145080000Y-111050000D01*
X141790000Y-109500000D02*
X141950000Y-109660000D01*
X145080000Y-110630000D02*
X145659200Y-110630000D01*
X144018000Y-108988800D02*
X144018000Y-109462000D01*
X139530000Y-112710000D02*
X140140000Y-112710000D01*
X140470000Y-111180000D02*
X140730000Y-111180000D01*
X144940000Y-113000000D02*
X144740000Y-112800000D01*
X145380000Y-113000000D02*
X144940000Y-113000000D01*
X145470000Y-113090000D02*
X145380000Y-113000000D01*
X143700000Y-114400000D02*
X143480000Y-114180000D01*
X144760000Y-111050000D02*
X144714000Y-111096000D01*
X144018000Y-109462000D02*
X143850000Y-109630000D01*
X145659200Y-110630000D02*
X145671600Y-110642400D01*
X143480000Y-114180000D02*
X143480000Y-113980000D01*
X143850000Y-109630000D02*
X143520000Y-109960000D01*
X141950000Y-109660000D02*
X141950000Y-109960000D01*
X144714000Y-111096000D02*
X144714000Y-111219108D01*
X142130000Y-115000000D02*
X142130000Y-114400000D01*
X142130000Y-114400000D02*
X142130000Y-113980000D01*
X140270000Y-110980000D02*
X140470000Y-111180000D01*
X145080000Y-111050000D02*
X144760000Y-111050000D01*
X140300000Y-112550000D02*
X140730000Y-112550000D01*
D36*
%TO.N,/SPI_DATA3*%
X145010000Y-117900000D02*
X142728000Y-115618000D01*
X145010000Y-119440000D02*
X145010000Y-117900000D01*
D33*
X145010000Y-119440000D02*
X145010000Y-121514999D01*
D36*
X142728000Y-115618000D02*
X142728000Y-114405600D01*
D33*
X145010000Y-121514999D02*
X146685001Y-123190000D01*
%TO.N,/SPI_DATA2*%
X147980000Y-122260000D02*
X147980000Y-124435000D01*
X145680000Y-119440000D02*
X145680000Y-119960000D01*
D36*
X145680000Y-117830000D02*
X145680000Y-119440000D01*
X142928000Y-114405600D02*
X142928000Y-115078000D01*
D33*
X145680000Y-119960000D02*
X147980000Y-122260000D01*
X147980000Y-124435000D02*
X146685000Y-125730000D01*
D36*
X142928000Y-115078000D02*
X145680000Y-117830000D01*
%TO.N,/SPI_DATA1*%
X143128000Y-114728000D02*
X146320000Y-117920000D01*
D33*
X146320000Y-119840000D02*
X146320000Y-119440000D01*
D36*
X146320000Y-117920000D02*
X146320000Y-119440000D01*
D33*
X147740000Y-121260000D02*
X146320000Y-119840000D01*
X149225000Y-123190000D02*
X149225000Y-121775000D01*
X149225000Y-121775000D02*
X148710000Y-121260000D01*
D36*
X143128000Y-114405600D02*
X143128000Y-114728000D01*
D33*
X148710000Y-121260000D02*
X147740000Y-121260000D01*
D36*
%TO.N,/GPIO6*%
X142258000Y-109182000D02*
X142260000Y-109180000D01*
X142258000Y-109435600D02*
X142258000Y-109182000D01*
D33*
%TO.N,/GPIO7*%
X139840000Y-101210000D02*
X139064999Y-100434999D01*
D36*
X142358000Y-107328000D02*
X141890000Y-106860000D01*
D33*
X139840000Y-104450000D02*
X139840000Y-101210000D01*
D36*
X140650000Y-106860000D02*
X139840000Y-106050000D01*
X142358000Y-108865600D02*
X142358000Y-107328000D01*
X139840000Y-106050000D02*
X139840000Y-104450000D01*
X141890000Y-106860000D02*
X140650000Y-106860000D01*
D33*
X139064999Y-100434999D02*
X139064999Y-100330000D01*
D36*
%TO.N,/N_BIAS*%
X143308000Y-109435600D02*
X143308000Y-109688000D01*
X143308000Y-109688000D02*
X143310000Y-109690000D01*
%TO.N,/GPIO13*%
X143008000Y-108865600D02*
X143008000Y-107382000D01*
X145760000Y-106450000D02*
X145760000Y-104440000D01*
X143480000Y-106910000D02*
X145300000Y-106910000D01*
D33*
X145760000Y-103650000D02*
X146685000Y-102725000D01*
X146685000Y-102725000D02*
X146685000Y-100330000D01*
X145760000Y-104440000D02*
X145760000Y-103650000D01*
D36*
X143008000Y-107382000D02*
X143480000Y-106910000D01*
X145300000Y-106910000D02*
X145760000Y-106450000D01*
%TO.N,/GPIO8*%
X142458000Y-109688000D02*
X142460000Y-109690000D01*
X142458000Y-109435600D02*
X142458000Y-109688000D01*
%TO.N,/GPIO10*%
X142658986Y-109191014D02*
X142658000Y-109192000D01*
X142659030Y-109191014D02*
X142658986Y-109191014D01*
X142658000Y-109192000D02*
X142658000Y-109435600D01*
%TO.N,/GPIO15*%
X143208000Y-107562000D02*
X143520000Y-107250000D01*
D33*
X149230000Y-100335000D02*
X149225000Y-100330000D01*
X149230000Y-101340000D02*
X149230000Y-100335000D01*
D36*
X146310000Y-106950000D02*
X146310000Y-104450000D01*
D33*
X146310000Y-104260000D02*
X149230000Y-101340000D01*
X146310000Y-104450000D02*
X146310000Y-104260000D01*
D36*
X143520000Y-107250000D02*
X146010000Y-107250000D01*
X146010000Y-107250000D02*
X146310000Y-106950000D01*
X143208000Y-108865600D02*
X143208000Y-107562000D01*
%TO.N,/GPIO9*%
X142558000Y-108865600D02*
X142558000Y-107068000D01*
X140780000Y-106490000D02*
X140500000Y-106210000D01*
X142558000Y-107068000D02*
X141980000Y-106490000D01*
X141980000Y-106490000D02*
X140780000Y-106490000D01*
D33*
X140500000Y-104440000D02*
X140500000Y-101435000D01*
D36*
X140500000Y-105880000D02*
X140500000Y-104440000D01*
D33*
X140500000Y-101435000D02*
X141605000Y-100330000D01*
D36*
X140500000Y-106210000D02*
X140500000Y-105880000D01*
D33*
%TO.N,/GPIO11*%
X145160000Y-104440000D02*
X145160000Y-101345000D01*
D36*
X145120000Y-106240000D02*
X145160000Y-106200000D01*
X143370000Y-106460000D02*
X144360000Y-106460000D01*
X144360000Y-106460000D02*
X144900000Y-106460000D01*
D33*
X145160000Y-101345000D02*
X144145000Y-100330000D01*
D36*
X142768000Y-107062000D02*
X143270000Y-106560000D01*
X143270000Y-106560000D02*
X143370000Y-106460000D01*
X142768000Y-108865600D02*
X142768000Y-107062000D01*
X145160000Y-106200000D02*
X145160000Y-104440000D01*
X144900000Y-106460000D02*
X145120000Y-106240000D01*
%TO.N,/GPIO12*%
X142908000Y-109688000D02*
X142910000Y-109690000D01*
X142908000Y-109435600D02*
X142908000Y-109688000D01*
D33*
%TO.N,/GPIO5*%
X139160000Y-102965000D02*
X136525000Y-100330000D01*
D36*
X142158000Y-108865600D02*
X142158000Y-107668000D01*
X141740000Y-107250000D02*
X140350000Y-107250000D01*
X139160000Y-106060000D02*
X139160000Y-104430000D01*
X140350000Y-107250000D02*
X139160000Y-106060000D01*
X142158000Y-107668000D02*
X141740000Y-107250000D01*
D33*
X139160000Y-104430000D02*
X139160000Y-102965000D01*
D36*
%TO.N,/GPIO14*%
X143108000Y-109435600D02*
X143108000Y-109182000D01*
X143108000Y-109182000D02*
X143110000Y-109180000D01*
D33*
%TO.N,/GPIO1*%
X133730000Y-109260000D02*
X128945000Y-109260000D01*
X128945000Y-109260000D02*
X127635000Y-107950000D01*
D36*
X139798000Y-111855600D02*
X139335600Y-111855600D01*
D33*
X135720000Y-108860000D02*
X134130000Y-108860000D01*
D36*
X139215000Y-111735000D02*
X139215000Y-111405000D01*
X139335600Y-111855600D02*
X139215000Y-111735000D01*
X136670000Y-108860000D02*
X135720000Y-108860000D01*
X139215000Y-111405000D02*
X136670000Y-108860000D01*
D33*
X134130000Y-108860000D02*
X133730000Y-109260000D01*
%TO.N,/GPIO3*%
X132280000Y-106680000D02*
X128905000Y-106680000D01*
X134110000Y-108510000D02*
X132280000Y-106680000D01*
X128905000Y-106680000D02*
X127635000Y-105410000D01*
D36*
X139460000Y-111540000D02*
X139460000Y-111180000D01*
X139460000Y-111180000D02*
X136790000Y-108510000D01*
D33*
X135710000Y-108510000D02*
X134110000Y-108510000D01*
D36*
X139575600Y-111655600D02*
X139460000Y-111540000D01*
X136790000Y-108510000D02*
X135710000Y-108510000D01*
X139798000Y-111655600D02*
X139575600Y-111655600D01*
%TO.N,/GPIO2*%
X140114400Y-111755600D02*
X140110000Y-111760000D01*
X140378000Y-111755600D02*
X140114400Y-111755600D01*
%TO.N,/GPIO0*%
X138720000Y-111750000D02*
X138720000Y-111440000D01*
X138720000Y-111300000D02*
X137070000Y-109650000D01*
X139100000Y-112130000D02*
X138830000Y-111860000D01*
X137070000Y-109650000D02*
X136630000Y-109210000D01*
D33*
X134620000Y-109210000D02*
X133340000Y-110490000D01*
D36*
X140294400Y-111955600D02*
X140120000Y-112130000D01*
X140050000Y-112130000D02*
X140120000Y-112130000D01*
X140378000Y-111955600D02*
X140294400Y-111955600D01*
X138830000Y-111860000D02*
X138720000Y-111750000D01*
X138720000Y-111440000D02*
X138720000Y-111300000D01*
X140050000Y-112130000D02*
X139100000Y-112130000D01*
X136630000Y-109210000D02*
X135710000Y-109210000D01*
D33*
X133340000Y-110490000D02*
X130175000Y-110490000D01*
X135710000Y-109210000D02*
X134620000Y-109210000D01*
D36*
%TO.N,/GPIO4*%
X140378000Y-111555600D02*
X140285600Y-111555600D01*
X140220000Y-111490000D02*
X140100000Y-111490000D01*
D33*
X134650000Y-108190000D02*
X131880000Y-105420000D01*
D36*
X140040000Y-111430000D02*
X139930000Y-111430000D01*
X139930000Y-111430000D02*
X139725000Y-111225000D01*
D33*
X130185000Y-105420000D02*
X130175000Y-105410000D01*
D36*
X136920000Y-108190000D02*
X135720000Y-108190000D01*
D33*
X135720000Y-108190000D02*
X134650000Y-108190000D01*
D36*
X139725000Y-110995000D02*
X136920000Y-108190000D01*
X140100000Y-111490000D02*
X140040000Y-111430000D01*
X140285600Y-111555600D02*
X140220000Y-111490000D01*
X139725000Y-111225000D02*
X139725000Y-110995000D01*
D33*
X131880000Y-105420000D02*
X130185000Y-105420000D01*
D36*
%TO.N,/UART_RX*%
X145268000Y-111985600D02*
X145515600Y-111985600D01*
X145515600Y-111985600D02*
X145520000Y-111990000D01*
%TO.N,/UART_TX*%
X148080000Y-113960000D02*
X148310000Y-114190000D01*
X145838000Y-112065600D02*
X147625600Y-112065600D01*
D33*
X153290000Y-111800000D02*
X156885000Y-111800000D01*
D36*
X148310000Y-114190000D02*
X149770000Y-114190000D01*
X148080000Y-112520000D02*
X148080000Y-113960000D01*
X147625600Y-112065600D02*
X148080000Y-112520000D01*
D33*
X156885000Y-111800000D02*
X158115000Y-113030000D01*
X149770000Y-114190000D02*
X150900000Y-114190000D01*
X150900000Y-114190000D02*
X153290000Y-111800000D01*
D36*
%TO.N,/JTAG_TRST*%
X148380000Y-109380000D02*
X149750000Y-109380000D01*
X147634400Y-111855600D02*
X148080000Y-111410000D01*
X148080000Y-109680000D02*
X148380000Y-109380000D01*
X148080000Y-111410000D02*
X148080000Y-109680000D01*
D33*
X149750000Y-109380000D02*
X157005000Y-109380000D01*
X157005000Y-109380000D02*
X158115000Y-110490000D01*
D36*
X145838000Y-111855600D02*
X147634400Y-111855600D01*
%TO.N,/JTAG_TDO*%
X145268000Y-111585600D02*
X145514400Y-111585600D01*
X145514400Y-111585600D02*
X145520000Y-111580000D01*
D33*
%TO.N,/JTAG_TDI*%
X151660000Y-108280000D02*
X153740000Y-106200000D01*
X153740000Y-104930000D02*
X154510000Y-104160000D01*
X156865000Y-104160000D02*
X158115000Y-105410000D01*
D36*
X147410000Y-111210000D02*
X147410000Y-108850000D01*
D33*
X153740000Y-106200000D02*
X153740000Y-104930000D01*
D36*
X145838000Y-111435600D02*
X147184400Y-111435600D01*
D33*
X154510000Y-104160000D02*
X156865000Y-104160000D01*
D36*
X147184400Y-111435600D02*
X147410000Y-111210000D01*
X147980000Y-108280000D02*
X149770000Y-108280000D01*
D33*
X149770000Y-108280000D02*
X151660000Y-108280000D01*
D36*
X147410000Y-108850000D02*
X147980000Y-108280000D01*
%TO.N,/RST_N*%
X145004400Y-112185600D02*
X145000000Y-112190000D01*
X145268000Y-112185600D02*
X145004400Y-112185600D01*
%TO.N,/JTAG_TCK*%
X145005600Y-111385600D02*
X145000000Y-111380000D01*
X145268000Y-111385600D02*
X145005600Y-111385600D01*
D33*
%TO.N,/P_BIAS*%
X152480000Y-108870000D02*
X154690000Y-106660000D01*
D36*
X147720000Y-109410000D02*
X148260000Y-108870000D01*
D33*
X156825000Y-106660000D02*
X158115000Y-107950000D01*
D36*
X145838000Y-111645600D02*
X147374400Y-111645600D01*
D33*
X149760000Y-108870000D02*
X152480000Y-108870000D01*
D36*
X147720000Y-111300000D02*
X147720000Y-109410000D01*
X147374400Y-111645600D02*
X147720000Y-111300000D01*
X148260000Y-108870000D02*
X149760000Y-108870000D01*
D33*
X154690000Y-106660000D02*
X156825000Y-106660000D01*
D36*
%TO.N,/JTAG_TMS*%
X145003600Y-111785600D02*
X144998000Y-111780000D01*
X145268000Y-111785600D02*
X145003600Y-111785600D01*
%TD*%
%TA.AperFunction,Conductor*%
%TO.N,CVDD*%
G36*
X141134352Y-112854352D02*
G01*
X141134601Y-112854601D01*
X141148011Y-112879686D01*
X141149200Y-112885663D01*
X141149201Y-112885666D01*
X141174728Y-112923871D01*
X141200256Y-112940927D01*
X141212934Y-112949399D01*
X141216791Y-112950166D01*
X141218910Y-112950588D01*
X141230511Y-112956789D01*
X141230723Y-112956265D01*
X141239998Y-112959998D01*
X141240000Y-112960000D01*
X141690972Y-112950980D01*
X141725899Y-112964636D01*
X141740941Y-112998990D01*
X141740942Y-112999028D01*
X141747491Y-113339541D01*
X141747500Y-113340483D01*
X141747500Y-113456972D01*
X141747501Y-113456980D01*
X141749143Y-113465236D01*
X141749144Y-113465240D01*
X141749990Y-113469499D01*
X141750000Y-113470000D01*
X141750112Y-113470112D01*
X141751156Y-113475366D01*
X141751157Y-113475368D01*
X141754200Y-113490663D01*
X141754201Y-113490666D01*
X141779728Y-113528871D01*
X141795031Y-113539095D01*
X141817934Y-113554399D01*
X141820557Y-113554920D01*
X141832442Y-113562860D01*
X141845648Y-113568331D01*
X141847567Y-113572965D01*
X141851740Y-113575753D01*
X141860000Y-113602979D01*
X141860000Y-113681000D01*
X141845648Y-113715648D01*
X141811000Y-113730000D01*
X141660000Y-113730000D01*
X141124392Y-114265607D01*
X141089744Y-114279959D01*
X141055353Y-114265863D01*
X141055093Y-114265607D01*
X140511493Y-113730000D01*
X140445163Y-113664645D01*
X140430555Y-113630104D01*
X140444650Y-113595350D01*
X140970000Y-113070000D01*
X140970000Y-112889000D01*
X140984352Y-112854352D01*
X141019000Y-112840000D01*
X141099704Y-112840000D01*
X141134352Y-112854352D01*
G37*
%TD.AperFunction*%
%TD*%
%TA.AperFunction,Conductor*%
%TO.N,CVDD*%
G36*
X144434645Y-109634135D02*
G01*
X144993074Y-110184352D01*
X145016738Y-110207668D01*
X145031346Y-110242209D01*
X145017251Y-110276963D01*
X144995030Y-110289902D01*
X144944711Y-110303386D01*
X144944710Y-110303386D01*
X144864794Y-110349527D01*
X144864784Y-110349534D01*
X144799534Y-110414784D01*
X144799527Y-110414794D01*
X144753386Y-110494710D01*
X144753385Y-110494713D01*
X144729500Y-110583853D01*
X144729500Y-110600204D01*
X144715148Y-110634852D01*
X144520000Y-110829999D01*
X144520000Y-111011001D01*
X144505648Y-111045649D01*
X144471000Y-111060001D01*
X144390298Y-111060001D01*
X144355650Y-111045649D01*
X144352589Y-111042588D01*
X144339178Y-111017498D01*
X144337886Y-111011001D01*
X144336799Y-111005534D01*
X144321359Y-110982426D01*
X144311271Y-110967328D01*
X144273066Y-110941801D01*
X144239377Y-110935100D01*
X144239374Y-110935100D01*
X144096627Y-110935100D01*
X144096624Y-110935101D01*
X144058201Y-110942742D01*
X144058069Y-110942081D01*
X144048775Y-110944024D01*
X143799028Y-110949019D01*
X143764100Y-110935363D01*
X143749058Y-110901009D01*
X143749057Y-110900971D01*
X143747692Y-110829999D01*
X143743779Y-110626509D01*
X143744709Y-110616034D01*
X143748500Y-110596977D01*
X143748499Y-110454224D01*
X143741799Y-110420534D01*
X143729077Y-110401495D01*
X143716271Y-110382328D01*
X143678067Y-110356801D01*
X143673611Y-110354956D01*
X143673850Y-110354376D01*
X143653496Y-110343495D01*
X143644353Y-110334353D01*
X143629999Y-110299708D01*
X143629999Y-110218999D01*
X143644351Y-110184352D01*
X143678999Y-110170000D01*
X143829999Y-110170000D01*
X143830000Y-110170000D01*
X144365608Y-109634391D01*
X144400255Y-109620040D01*
X144434645Y-109634135D01*
G37*
%TD.AperFunction*%
%TD*%
%TA.AperFunction,Conductor*%
%TO.N,CVDD*%
G36*
X144505648Y-112844352D02*
G01*
X144520000Y-112879000D01*
X144520000Y-113050000D01*
X145055607Y-113585607D01*
X145069959Y-113620255D01*
X145055863Y-113654646D01*
X144454645Y-114264836D01*
X144420104Y-114279444D01*
X144385350Y-114265349D01*
X144385093Y-114265093D01*
X143860000Y-113740000D01*
X143678999Y-113740000D01*
X143644351Y-113725648D01*
X143629999Y-113691000D01*
X143629999Y-113610296D01*
X143633635Y-113601517D01*
X143644349Y-113575650D01*
X143651994Y-113568004D01*
X143673679Y-113556416D01*
X143673608Y-113556245D01*
X143675349Y-113555523D01*
X143677091Y-113554592D01*
X143678066Y-113554399D01*
X143716271Y-113528871D01*
X143741799Y-113490666D01*
X143741993Y-113489688D01*
X143742926Y-113487942D01*
X143743646Y-113486206D01*
X143743817Y-113486276D01*
X143747328Y-113479708D01*
X143746264Y-113479280D01*
X143749997Y-113470002D01*
X143750000Y-113470000D01*
X143748499Y-113394982D01*
X143748499Y-113314224D01*
X143746703Y-113305196D01*
X143740980Y-113019026D01*
X143754636Y-112984099D01*
X143788990Y-112969058D01*
X143789006Y-112969057D01*
X144260000Y-112960000D01*
X144302579Y-112909678D01*
X144311271Y-112903871D01*
X144325454Y-112882643D01*
X144355321Y-112847347D01*
X144388657Y-112830169D01*
X144392725Y-112830000D01*
X144471000Y-112830000D01*
X144505648Y-112844352D01*
G37*
%TD.AperFunction*%
%TD*%
%TA.AperFunction,Conductor*%
%TO.N,CVDD*%
G36*
X141104590Y-109651574D02*
G01*
X141104847Y-109651830D01*
X141629941Y-110176924D01*
X141810942Y-110176924D01*
X141845590Y-110191276D01*
X141859942Y-110225924D01*
X141859942Y-110306626D01*
X141845590Y-110341274D01*
X141845582Y-110341283D01*
X141843577Y-110343287D01*
X141822276Y-110354670D01*
X141822394Y-110354953D01*
X141819518Y-110356144D01*
X141818501Y-110356688D01*
X141817935Y-110356800D01*
X141779728Y-110382328D01*
X141754201Y-110420532D01*
X141754200Y-110420534D01*
X141754088Y-110421101D01*
X141753546Y-110422114D01*
X141752354Y-110424993D01*
X141752070Y-110424875D01*
X141740683Y-110446181D01*
X141739942Y-110446921D01*
X141739940Y-110446925D01*
X141748959Y-110897895D01*
X141735303Y-110932824D01*
X141700949Y-110947865D01*
X141700911Y-110947866D01*
X141325232Y-110955091D01*
X141324739Y-110955100D01*
X141246624Y-110955101D01*
X141238275Y-110956761D01*
X141233922Y-110956845D01*
X141233921Y-110956846D01*
X141229895Y-110956924D01*
X141218562Y-110960681D01*
X141212936Y-110961800D01*
X141212933Y-110961801D01*
X141174728Y-110987328D01*
X141149201Y-111025534D01*
X141144835Y-111047483D01*
X141136894Y-111059367D01*
X141131425Y-111072572D01*
X141126788Y-111074492D01*
X141124001Y-111078665D01*
X141096777Y-111086924D01*
X141018941Y-111086924D01*
X140984293Y-111072572D01*
X140969941Y-111037924D01*
X140969941Y-110866923D01*
X140969940Y-110866922D01*
X140434333Y-110331316D01*
X140419981Y-110296668D01*
X140434075Y-110262279D01*
X141035295Y-109652086D01*
X141069836Y-109637479D01*
X141104590Y-109651574D01*
G37*
%TD.AperFunction*%
%TD*%
M02*
