%TF.GenerationSoftware,KiCad,Pcbnew,9.0.6*%
%TF.CreationDate,2026-05-26T13:56:53+03:00*%
%TF.ProjectId,Didactic_wire_bond_PCB,44696461-6374-4696-935f-776972655f62,rev?*%
%TF.SameCoordinates,Original*%
%TF.FileFunction,Soldermask,Top*%
%TF.FilePolarity,Negative*%
%FSLAX46Y46*%
G04 Gerber Fmt 4.6, Leading zero omitted, Abs format (unit mm)*
G04 Created by KiCad (PCBNEW 9.0.6) date 2026-05-26 13:56:53*
%MOMM*%
%LPD*%
G01*
G04 APERTURE LIST*
G04 Aperture macros list*
%AMRoundRect*
0 Rectangle with rounded corners*
0 $1 Rounding radius*
0 $2 $3 $4 $5 $6 $7 $8 $9 X,Y pos of 4 corners*
0 Add a 4 corners polygon primitive as box body*
4,1,4,$2,$3,$4,$5,$6,$7,$8,$9,$2,$3,0*
0 Add four circle primitives for the rounded corners*
1,1,$1+$1,$2,$3*
1,1,$1+$1,$4,$5*
1,1,$1+$1,$6,$7*
1,1,$1+$1,$8,$9*
0 Add four rect primitives between the rounded corners*
20,1,$1+$1,$2,$3,$4,$5,0*
20,1,$1+$1,$4,$5,$6,$7,0*
20,1,$1+$1,$6,$7,$8,$9,0*
20,1,$1+$1,$8,$9,$2,$3,0*%
G04 Aperture macros list end*
%ADD10C,0.100000*%
%ADD11C,0.010000*%
%ADD12RoundRect,0.140000X-0.170000X0.140000X-0.170000X-0.140000X0.170000X-0.140000X0.170000X0.140000X0*%
%ADD13RoundRect,0.015000X-0.885000X0.060000X-0.885000X-0.060000X0.885000X-0.060000X0.885000X0.060000X0*%
%ADD14RoundRect,0.015000X-0.060000X-0.885000X0.060000X-0.885000X0.060000X0.885000X-0.060000X0.885000X0*%
%ADD15RoundRect,0.015000X-0.035000X0.085000X-0.035000X-0.085000X0.035000X-0.085000X0.035000X0.085000X0*%
%ADD16RoundRect,0.015000X-0.085000X-0.035000X0.085000X-0.035000X0.085000X0.035000X-0.085000X0.035000X0*%
%ADD17RoundRect,0.015000X0.085000X0.035000X-0.085000X0.035000X-0.085000X-0.035000X0.085000X-0.035000X0*%
%ADD18R,1.700000X1.700000*%
%ADD19C,1.700000*%
%ADD20RoundRect,0.140000X-0.219203X-0.021213X-0.021213X-0.219203X0.219203X0.021213X0.021213X0.219203X0*%
%ADD21RoundRect,0.140000X0.219203X0.021213X0.021213X0.219203X-0.219203X-0.021213X-0.021213X-0.219203X0*%
%ADD22RoundRect,0.140000X0.021213X-0.219203X0.219203X-0.021213X-0.021213X0.219203X-0.219203X0.021213X0*%
%ADD23RoundRect,0.140000X-0.140000X-0.170000X0.140000X-0.170000X0.140000X0.170000X-0.140000X0.170000X0*%
%ADD24RoundRect,0.140000X0.140000X0.170000X-0.140000X0.170000X-0.140000X-0.170000X0.140000X-0.170000X0*%
%ADD25RoundRect,0.102000X-1.700000X-0.500000X1.700000X-0.500000X1.700000X0.500000X-1.700000X0.500000X0*%
%ADD26RoundRect,0.102000X-0.500000X-1.900000X0.500000X-1.900000X0.500000X1.900000X-0.500000X1.900000X0*%
%ADD27RoundRect,0.140000X-0.021213X0.219203X-0.219203X0.021213X0.021213X-0.219203X0.219203X-0.021213X0*%
%ADD28RoundRect,0.140000X0.170000X-0.140000X0.170000X0.140000X-0.170000X0.140000X-0.170000X-0.140000X0*%
G04 APERTURE END LIST*
%TO.C,U101*%
D10*
X139893000Y-111600600D02*
X139698000Y-111600600D01*
X139698000Y-111905600D01*
X139893000Y-111905600D01*
X139893000Y-111600600D01*
G36*
X139893000Y-111600600D02*
G01*
X139698000Y-111600600D01*
X139698000Y-111905600D01*
X139893000Y-111905600D01*
X139893000Y-111600600D01*
G37*
X140483000Y-111510600D02*
X140278000Y-111510600D01*
X140278000Y-112005600D01*
X140483000Y-112005600D01*
X140483000Y-111510600D01*
G36*
X140483000Y-111510600D02*
G01*
X140278000Y-111510600D01*
X140278000Y-112005600D01*
X140483000Y-112005600D01*
X140483000Y-111510600D01*
G37*
X141403000Y-111055600D02*
X140713000Y-111055600D01*
X140713000Y-112855600D01*
X141403000Y-112855600D01*
X141403000Y-111055600D01*
G36*
X141403000Y-111055600D02*
G01*
X140713000Y-111055600D01*
X140713000Y-112855600D01*
X141403000Y-112855600D01*
X141403000Y-111055600D01*
G37*
X143178000Y-114305600D02*
X142678000Y-114305600D01*
X142678000Y-114505600D01*
X143178000Y-114505600D01*
X143178000Y-114305600D01*
G36*
X143178000Y-114305600D02*
G01*
X142678000Y-114305600D01*
X142678000Y-114505600D01*
X143178000Y-114505600D01*
X143178000Y-114305600D01*
G37*
X143258000Y-108765600D02*
X142108000Y-108765600D01*
X142108000Y-108965600D01*
X143258000Y-108965600D01*
X143258000Y-108765600D01*
G36*
X143258000Y-108765600D02*
G01*
X142108000Y-108765600D01*
X142108000Y-108965600D01*
X143258000Y-108965600D01*
X143258000Y-108765600D01*
G37*
X143358000Y-109335600D02*
X142208000Y-109335600D01*
X142208000Y-109535600D01*
X143358000Y-109535600D01*
X143358000Y-109335600D01*
G36*
X143358000Y-109335600D02*
G01*
X142208000Y-109335600D01*
X142208000Y-109535600D01*
X143358000Y-109535600D01*
X143358000Y-109335600D01*
G37*
X143648000Y-109910600D02*
X141848000Y-109910600D01*
X141848000Y-110600600D01*
X143648000Y-110600600D01*
X143648000Y-109910600D01*
G36*
X143648000Y-109910600D02*
G01*
X141848000Y-109910600D01*
X141848000Y-110600600D01*
X143648000Y-110600600D01*
X143648000Y-109910600D01*
G37*
X143648000Y-113310600D02*
X141848000Y-113310600D01*
X141848000Y-114000600D01*
X143648000Y-114000600D01*
X143648000Y-113310600D01*
G36*
X143648000Y-113310600D02*
G01*
X141848000Y-113310600D01*
X141848000Y-114000600D01*
X143648000Y-114000600D01*
X143648000Y-113310600D01*
G37*
X144783000Y-111035600D02*
X144093000Y-111035600D01*
X144093000Y-112835600D01*
X144783000Y-112835600D01*
X144783000Y-111035600D01*
G36*
X144783000Y-111035600D02*
G01*
X144093000Y-111035600D01*
X144093000Y-112835600D01*
X144783000Y-112835600D01*
X144783000Y-111035600D01*
G37*
X145368000Y-111340600D02*
X145168000Y-111340600D01*
X145168000Y-112630600D01*
X145368000Y-112630600D01*
X145368000Y-111340600D01*
G36*
X145368000Y-111340600D02*
G01*
X145168000Y-111340600D01*
X145168000Y-112630600D01*
X145368000Y-112630600D01*
X145368000Y-111340600D01*
G37*
X145938000Y-111390600D02*
X145738000Y-111390600D01*
X145738000Y-112750600D01*
X145938000Y-112750600D01*
X145938000Y-111390600D01*
G36*
X145938000Y-111390600D02*
G01*
X145738000Y-111390600D01*
X145738000Y-112750600D01*
X145938000Y-112750600D01*
X145938000Y-111390600D01*
G37*
D11*
%TO.C,J101*%
X138741400Y-105808800D02*
X137086400Y-105808800D01*
X137086400Y-107938800D01*
X135886400Y-107938800D01*
X135886400Y-104608800D01*
X138741400Y-104608800D01*
X138741400Y-105808800D01*
G36*
X138741400Y-105808800D02*
G01*
X137086400Y-105808800D01*
X137086400Y-107938800D01*
X135886400Y-107938800D01*
X135886400Y-104608800D01*
X138741400Y-104608800D01*
X138741400Y-105808800D01*
G37*
X137086400Y-118068800D02*
X138741400Y-118068800D01*
X138741400Y-119268800D01*
X135886400Y-119268800D01*
X135886400Y-115938800D01*
X137086400Y-115938800D01*
X137086400Y-118068800D01*
G36*
X137086400Y-118068800D02*
G01*
X138741400Y-118068800D01*
X138741400Y-119268800D01*
X135886400Y-119268800D01*
X135886400Y-115938800D01*
X137086400Y-115938800D01*
X137086400Y-118068800D01*
G37*
X149596400Y-107938800D02*
X148396400Y-107938800D01*
X148396400Y-105808800D01*
X146741400Y-105808800D01*
X146741400Y-104608800D01*
X149596400Y-104608800D01*
X149596400Y-107938800D01*
G36*
X149596400Y-107938800D02*
G01*
X148396400Y-107938800D01*
X148396400Y-105808800D01*
X146741400Y-105808800D01*
X146741400Y-104608800D01*
X149596400Y-104608800D01*
X149596400Y-107938800D01*
G37*
X149596400Y-119268800D02*
X146741400Y-119268800D01*
X146741400Y-118068800D01*
X148396400Y-118068800D01*
X148396400Y-115938800D01*
X149596400Y-115938800D01*
X149596400Y-119268800D01*
G36*
X149596400Y-119268800D02*
G01*
X146741400Y-119268800D01*
X146741400Y-118068800D01*
X148396400Y-118068800D01*
X148396400Y-115938800D01*
X149596400Y-115938800D01*
X149596400Y-119268800D01*
G37*
%TD*%
D12*
%TO.C,C106*%
X142130000Y-115000000D03*
X142130000Y-115960000D03*
%TD*%
D13*
%TO.C,U101*%
X142748000Y-110525600D03*
D14*
X144168000Y-111935600D03*
X141318000Y-111955600D03*
D13*
X142748000Y-113385600D03*
X142748000Y-110255600D03*
D14*
X144438000Y-111935600D03*
X141048000Y-111955600D03*
D13*
X142748000Y-113655600D03*
X142748000Y-109985600D03*
D14*
X144708000Y-111935600D03*
X140778000Y-111955600D03*
D13*
X142748000Y-113925600D03*
D15*
X143308000Y-109435600D03*
X143208000Y-108865600D03*
X143108000Y-109435600D03*
X143008000Y-108865600D03*
X142908000Y-109435600D03*
X142768000Y-108865600D03*
X142658000Y-109435600D03*
X142558000Y-108865600D03*
X142458000Y-109435600D03*
X142358000Y-108865600D03*
X142258000Y-109435600D03*
X142158000Y-108865600D03*
D16*
X140378000Y-111555600D03*
X139798000Y-111655600D03*
X140378000Y-111755600D03*
X139798000Y-111855600D03*
X140378000Y-111955600D03*
D15*
X142728000Y-114405600D03*
X142928000Y-114405600D03*
X143128000Y-114405600D03*
D17*
X145838000Y-112705600D03*
X145268000Y-112585600D03*
X145838000Y-112505600D03*
X145268000Y-112385600D03*
X145838000Y-112275600D03*
X145268000Y-112185600D03*
X145838000Y-112065600D03*
X145268000Y-111985600D03*
X145838000Y-111855600D03*
X145268000Y-111785600D03*
X145838000Y-111645600D03*
X145268000Y-111585600D03*
X145838000Y-111435600D03*
X145268000Y-111385600D03*
%TD*%
D18*
%TO.C,J603*%
X130175000Y-120650000D03*
D19*
X127635000Y-120650000D03*
X130175000Y-118110000D03*
X127635000Y-118110000D03*
X130175000Y-115570001D03*
X127635000Y-115570000D03*
X130175000Y-113030000D03*
X127635000Y-113030000D03*
X130175000Y-110490000D03*
X127635000Y-110490000D03*
X130175000Y-107950000D03*
X127635000Y-107950000D03*
X130175000Y-105410000D03*
X127635000Y-105410000D03*
X130175000Y-102869999D03*
X127635000Y-102870000D03*
%TD*%
D20*
%TO.C,C102*%
X144491389Y-113655789D03*
X145170211Y-114334611D03*
%TD*%
D18*
%TO.C,J201*%
X155575000Y-102870000D03*
D19*
X158115000Y-102870000D03*
X155575000Y-105410000D03*
X158115000Y-105410000D03*
X155575000Y-107949999D03*
X158115000Y-107950000D03*
X155575000Y-110490000D03*
X158115000Y-110490000D03*
X155575000Y-113030000D03*
X158115000Y-113030000D03*
X155575000Y-115570000D03*
X158115000Y-115570000D03*
X155575000Y-118110000D03*
X158115000Y-118110000D03*
X155575000Y-120650001D03*
X158115000Y-120650000D03*
%TD*%
D21*
%TO.C,C104*%
X141055411Y-110219811D03*
X140376589Y-109540989D03*
%TD*%
D18*
%TO.C,J202*%
X151765000Y-123190000D03*
D19*
X151765000Y-125730000D03*
X149225000Y-123190000D03*
X149225000Y-125730000D03*
X146685001Y-123190000D03*
X146685000Y-125730000D03*
X144145000Y-123190000D03*
X144145000Y-125730000D03*
X141605000Y-123190000D03*
X141605000Y-125730000D03*
X139065000Y-123190000D03*
X139065000Y-125730000D03*
X136525000Y-123190000D03*
X136525000Y-125730000D03*
X133984999Y-123190000D03*
X133985000Y-125730000D03*
%TD*%
D22*
%TO.C,C101*%
X144491389Y-110169011D03*
X145170211Y-109490189D03*
%TD*%
D23*
%TO.C,C105*%
X145671600Y-110642400D03*
X146631600Y-110642400D03*
%TD*%
D24*
%TO.C,C107*%
X139530000Y-112710000D03*
X138570000Y-112710000D03*
%TD*%
D25*
%TO.C,J101*%
X142741400Y-118668800D03*
D26*
X148996400Y-111938800D03*
D25*
X142741400Y-105208800D03*
D26*
X136486400Y-111938800D03*
%TD*%
D27*
%TO.C,C103*%
X141004611Y-113706589D03*
X140325789Y-114385411D03*
%TD*%
D18*
%TO.C,J601*%
X133985000Y-100330000D03*
D19*
X133985000Y-97790000D03*
X136525000Y-100330000D03*
X136525000Y-97790000D03*
X139064999Y-100330000D03*
X139065000Y-97790000D03*
X141605000Y-100330000D03*
X141605000Y-97790000D03*
X144145000Y-100330000D03*
X144145000Y-97790000D03*
X146685000Y-100330000D03*
X146685000Y-97790000D03*
X149225000Y-100330000D03*
X149225000Y-97790000D03*
X151765001Y-100330000D03*
X151765000Y-97790000D03*
%TD*%
D28*
%TO.C,C108*%
X144018000Y-108988800D03*
X144018000Y-108028800D03*
%TD*%
M02*
