%TF.GenerationSoftware,KiCad,Pcbnew,9.0.6*%
%TF.CreationDate,2026-05-26T13:56:52+03:00*%
%TF.ProjectId,Didactic_wire_bond_PCB,44696461-6374-4696-935f-776972655f62,rev?*%
%TF.SameCoordinates,Original*%
%TF.FileFunction,Paste,Top*%
%TF.FilePolarity,Positive*%
%FSLAX46Y46*%
G04 Gerber Fmt 4.6, Leading zero omitted, Abs format (unit mm)*
G04 Created by KiCad (PCBNEW 9.0.6) date 2026-05-26 13:56:52*
%MOMM*%
%LPD*%
G01*
G04 APERTURE LIST*
G04 Aperture macros list*
%AMRoundRect*
0 Rectangle with rounded corners*
0 $1 Rounding radius*
0 $2 $3 $4 $5 $6 $7 $8 $9 X,Y pos of 4 corners*
0 Add a 4 corners polygon primitive as box body*
4,1,4,$2,$3,$4,$5,$6,$7,$8,$9,$2,$3,0*
0 Add four circle primitives for the rounded corners*
1,1,$1+$1,$2,$3*
1,1,$1+$1,$4,$5*
1,1,$1+$1,$6,$7*
1,1,$1+$1,$8,$9*
0 Add four rect primitives between the rounded corners*
20,1,$1+$1,$2,$3,$4,$5,0*
20,1,$1+$1,$4,$5,$6,$7,0*
20,1,$1+$1,$6,$7,$8,$9,0*
20,1,$1+$1,$8,$9,$2,$3,0*%
G04 Aperture macros list end*
%ADD10C,0.010000*%
%ADD11RoundRect,0.140000X-0.170000X0.140000X-0.170000X-0.140000X0.170000X-0.140000X0.170000X0.140000X0*%
%ADD12RoundRect,0.140000X-0.219203X-0.021213X-0.021213X-0.219203X0.219203X0.021213X0.021213X0.219203X0*%
%ADD13RoundRect,0.140000X0.219203X0.021213X0.021213X0.219203X-0.219203X-0.021213X-0.021213X-0.219203X0*%
%ADD14RoundRect,0.140000X0.021213X-0.219203X0.219203X-0.021213X-0.021213X0.219203X-0.219203X0.021213X0*%
%ADD15RoundRect,0.140000X-0.140000X-0.170000X0.140000X-0.170000X0.140000X0.170000X-0.140000X0.170000X0*%
%ADD16RoundRect,0.140000X0.140000X0.170000X-0.140000X0.170000X-0.140000X-0.170000X0.140000X-0.170000X0*%
%ADD17R,3.400000X1.000000*%
%ADD18R,1.000000X3.800000*%
%ADD19RoundRect,0.140000X-0.021213X0.219203X-0.219203X0.021213X0.021213X-0.219203X0.219203X-0.021213X0*%
%ADD20RoundRect,0.140000X0.170000X-0.140000X0.170000X0.140000X-0.170000X0.140000X-0.170000X-0.140000X0*%
G04 APERTURE END LIST*
D10*
%TO.C,J101*%
X138641400Y-105708800D02*
X136986400Y-105708800D01*
X136986400Y-107838800D01*
X135986400Y-107838800D01*
X135986400Y-104708800D01*
X138641400Y-104708800D01*
X138641400Y-105708800D01*
G36*
X138641400Y-105708800D02*
G01*
X136986400Y-105708800D01*
X136986400Y-107838800D01*
X135986400Y-107838800D01*
X135986400Y-104708800D01*
X138641400Y-104708800D01*
X138641400Y-105708800D01*
G37*
X136986400Y-118168800D02*
X138641400Y-118168800D01*
X138641400Y-119168800D01*
X135986400Y-119168800D01*
X135986400Y-116038800D01*
X136986400Y-116038800D01*
X136986400Y-118168800D01*
G36*
X136986400Y-118168800D02*
G01*
X138641400Y-118168800D01*
X138641400Y-119168800D01*
X135986400Y-119168800D01*
X135986400Y-116038800D01*
X136986400Y-116038800D01*
X136986400Y-118168800D01*
G37*
X149496400Y-107838800D02*
X148496400Y-107838800D01*
X148496400Y-105708800D01*
X146841400Y-105708800D01*
X146841400Y-104708800D01*
X149496400Y-104708800D01*
X149496400Y-107838800D01*
G36*
X149496400Y-107838800D02*
G01*
X148496400Y-107838800D01*
X148496400Y-105708800D01*
X146841400Y-105708800D01*
X146841400Y-104708800D01*
X149496400Y-104708800D01*
X149496400Y-107838800D01*
G37*
X149496400Y-119168800D02*
X146841400Y-119168800D01*
X146841400Y-118168800D01*
X148496400Y-118168800D01*
X148496400Y-116038800D01*
X149496400Y-116038800D01*
X149496400Y-119168800D01*
G36*
X149496400Y-119168800D02*
G01*
X146841400Y-119168800D01*
X146841400Y-118168800D01*
X148496400Y-118168800D01*
X148496400Y-116038800D01*
X149496400Y-116038800D01*
X149496400Y-119168800D01*
G37*
%TD*%
D11*
%TO.C,C106*%
X142130000Y-115000000D03*
X142130000Y-115960000D03*
%TD*%
D12*
%TO.C,C102*%
X144491389Y-113655789D03*
X145170211Y-114334611D03*
%TD*%
D13*
%TO.C,C104*%
X141055411Y-110219811D03*
X140376589Y-109540989D03*
%TD*%
D14*
%TO.C,C101*%
X144491389Y-110169011D03*
X145170211Y-109490189D03*
%TD*%
D15*
%TO.C,C105*%
X145671600Y-110642400D03*
X146631600Y-110642400D03*
%TD*%
D16*
%TO.C,C107*%
X139530000Y-112710000D03*
X138570000Y-112710000D03*
%TD*%
D17*
%TO.C,J101*%
X142741400Y-118668800D03*
D18*
X148996400Y-111938800D03*
D17*
X142741400Y-105208800D03*
D18*
X136486400Y-111938800D03*
%TD*%
D19*
%TO.C,C103*%
X141004611Y-113706589D03*
X140325789Y-114385411D03*
%TD*%
D20*
%TO.C,C108*%
X144018000Y-108988800D03*
X144018000Y-108028800D03*
%TD*%
M02*
