%TF.GenerationSoftware,KiCad,Pcbnew,9.0.6*%
%TF.CreationDate,2026-05-26T13:49:29+03:00*%
%TF.ProjectId,Didactic_main_PCB,44696461-6374-4696-935f-6d61696e5f50,rev?*%
%TF.SameCoordinates,Original*%
%TF.FileFunction,Soldermask,Bot*%
%TF.FilePolarity,Negative*%
%FSLAX46Y46*%
G04 Gerber Fmt 4.6, Leading zero omitted, Abs format (unit mm)*
G04 Created by KiCad (PCBNEW 9.0.6) date 2026-05-26 13:49:29*
%MOMM*%
%LPD*%
G01*
G04 APERTURE LIST*
G04 Aperture macros list*
%AMRoundRect*
0 Rectangle with rounded corners*
0 $1 Rounding radius*
0 $2 $3 $4 $5 $6 $7 $8 $9 X,Y pos of 4 corners*
0 Add a 4 corners polygon primitive as box body*
4,1,4,$2,$3,$4,$5,$6,$7,$8,$9,$2,$3,0*
0 Add four circle primitives for the rounded corners*
1,1,$1+$1,$2,$3*
1,1,$1+$1,$4,$5*
1,1,$1+$1,$6,$7*
1,1,$1+$1,$8,$9*
0 Add four rect primitives between the rounded corners*
20,1,$1+$1,$2,$3,$4,$5,0*
20,1,$1+$1,$4,$5,$6,$7,0*
20,1,$1+$1,$6,$7,$8,$9,0*
20,1,$1+$1,$8,$9,$2,$3,0*%
G04 Aperture macros list end*
%ADD10R,1.700000X1.700000*%
%ADD11C,1.700000*%
%ADD12C,1.804000*%
%ADD13RoundRect,0.102000X-0.750000X-0.750000X0.750000X-0.750000X0.750000X0.750000X-0.750000X0.750000X0*%
%ADD14C,2.374900*%
%ADD15C,0.990600*%
%ADD16O,1.700000X1.700000*%
%ADD17C,3.200000*%
%ADD18RoundRect,0.102000X-0.754000X0.754000X-0.754000X-0.754000X0.754000X-0.754000X0.754000X0.754000X0*%
%ADD19C,1.712000*%
%ADD20C,0.900000*%
%ADD21C,1.500000*%
%ADD22C,2.000000*%
%ADD23RoundRect,0.225000X-0.225000X-0.250000X0.225000X-0.250000X0.225000X0.250000X-0.225000X0.250000X0*%
%ADD24RoundRect,0.200000X-0.200000X-0.275000X0.200000X-0.275000X0.200000X0.275000X-0.200000X0.275000X0*%
%ADD25RoundRect,0.225000X0.250000X-0.225000X0.250000X0.225000X-0.250000X0.225000X-0.250000X-0.225000X0*%
%ADD26RoundRect,0.225000X0.225000X0.250000X-0.225000X0.250000X-0.225000X-0.250000X0.225000X-0.250000X0*%
%ADD27RoundRect,0.200000X0.275000X-0.200000X0.275000X0.200000X-0.275000X0.200000X-0.275000X-0.200000X0*%
%ADD28RoundRect,0.225000X-0.250000X0.225000X-0.250000X-0.225000X0.250000X-0.225000X0.250000X0.225000X0*%
%ADD29RoundRect,0.200000X0.200000X0.275000X-0.200000X0.275000X-0.200000X-0.275000X0.200000X-0.275000X0*%
%ADD30RoundRect,0.250000X-0.475000X0.250000X-0.475000X-0.250000X0.475000X-0.250000X0.475000X0.250000X0*%
%ADD31RoundRect,0.250000X0.250000X0.475000X-0.250000X0.475000X-0.250000X-0.475000X0.250000X-0.475000X0*%
G04 APERTURE END LIST*
D10*
%TO.C,J401*%
X101180000Y-142290800D03*
D11*
X103720000Y-142290800D03*
X106259999Y-142290800D03*
X108800000Y-142290800D03*
%TD*%
D10*
%TO.C,JP301*%
X139460000Y-105810000D03*
D11*
X136920000Y-105810000D03*
X134380001Y-105810000D03*
%TD*%
D12*
%TO.C,J605*%
X82550000Y-87630000D03*
X85090000Y-87630000D03*
X87630000Y-87630000D03*
X90170000Y-87630000D03*
X92710000Y-87630000D03*
X95250000Y-87630000D03*
D13*
X82550000Y-85090000D03*
D12*
X85090000Y-85090000D03*
X87630000Y-85090000D03*
X90170000Y-85090000D03*
X92710000Y-85090000D03*
X95250000Y-85090000D03*
%TD*%
D10*
%TO.C,JP302*%
X135540000Y-89580000D03*
D11*
X133000000Y-89580000D03*
X130460001Y-89580000D03*
%TD*%
D10*
%TO.C,JP702*%
X67930000Y-136030000D03*
D11*
X70470000Y-136030000D03*
%TD*%
D14*
%TO.C,J403*%
X104660000Y-171980000D03*
D15*
X107200000Y-171980000D03*
D14*
X109740000Y-171980000D03*
X104660000Y-168805000D03*
X109740000Y-168805000D03*
D15*
X106184000Y-166900000D03*
X108216000Y-166900000D03*
%TD*%
D10*
%TO.C,JP501*%
X57324997Y-108545000D03*
D16*
X57324997Y-111085000D03*
%TD*%
D10*
%TO.C,J402*%
X101190000Y-145920800D03*
D11*
X103730000Y-145920800D03*
X106269999Y-145920800D03*
X108810000Y-145920800D03*
%TD*%
D17*
%TO.C,REF\u002A\u002A*%
X170000000Y-80000000D03*
%TD*%
D10*
%TO.C,JP601*%
X117300000Y-103780000D03*
D11*
X117300000Y-106320000D03*
%TD*%
D10*
%TO.C,J603*%
X92000000Y-128880000D03*
D11*
X89460000Y-128880000D03*
X92000000Y-126340000D03*
X89460000Y-126340000D03*
X92000000Y-123800001D03*
X89460000Y-123800000D03*
X92000000Y-121260000D03*
X89460000Y-121260000D03*
X92000000Y-118720000D03*
X89460000Y-118720000D03*
X92000000Y-116180000D03*
X89460000Y-116180000D03*
X92000000Y-113640000D03*
X89460000Y-113640000D03*
X92000000Y-111099999D03*
X89460000Y-111100000D03*
%TD*%
D18*
%TO.C,RV701*%
X69570000Y-125910000D03*
D19*
X69570000Y-128410000D03*
X69570000Y-130910000D03*
%TD*%
D17*
%TO.C,REF\u002A\u002A*%
X170000000Y-170000000D03*
%TD*%
D10*
%TO.C,JP502*%
X61224998Y-108570000D03*
D16*
X61224998Y-111110000D03*
%TD*%
D20*
%TO.C,J301*%
X169630000Y-92310000D03*
X169630000Y-87910000D03*
%TD*%
D21*
%TO.C,J206*%
X134045400Y-169365200D03*
X158245400Y-169365200D03*
%TD*%
D17*
%TO.C,REF\u002A\u002A*%
X56000000Y-170000000D03*
%TD*%
%TO.C,REF\u002A\u002A*%
X56000000Y-80000000D03*
%TD*%
D10*
%TO.C,JP703*%
X68145000Y-152760000D03*
D11*
X70685000Y-152760000D03*
%TD*%
D10*
%TO.C,J204*%
X170290000Y-109130000D03*
D11*
X172830000Y-109130000D03*
X170290000Y-111670000D03*
X172830000Y-111670000D03*
X170290000Y-114210000D03*
X172830000Y-114210000D03*
X170290000Y-116750000D03*
X172830000Y-116750000D03*
X170290000Y-119290000D03*
X172830000Y-119290000D03*
X170290000Y-121830000D03*
X172830000Y-121830000D03*
X170290000Y-124370000D03*
X172830000Y-124370000D03*
X170290000Y-126910000D03*
X172830000Y-126910000D03*
X170290000Y-129450000D03*
X172830000Y-129450000D03*
X170290000Y-131990000D03*
X172830000Y-131990000D03*
X170290000Y-134530000D03*
X172830000Y-134530000D03*
X170290000Y-137070000D03*
X172830000Y-137070000D03*
X170290000Y-139610000D03*
X172830000Y-139610000D03*
X170290000Y-142150000D03*
X172830000Y-142150000D03*
X170290000Y-144690000D03*
X172830000Y-144690000D03*
X170290000Y-147230000D03*
X172830000Y-147230000D03*
X170290000Y-149770000D03*
X172830000Y-149770000D03*
X170290000Y-152310000D03*
X172830000Y-152310000D03*
%TD*%
D10*
%TO.C,J202*%
X113590000Y-131445000D03*
D11*
X113590000Y-133985000D03*
X111050000Y-131445000D03*
X111050000Y-133985000D03*
X108510001Y-131445000D03*
X108510000Y-133985000D03*
X105970000Y-131445000D03*
X105970000Y-133985000D03*
X103430000Y-131445000D03*
X103430000Y-133985000D03*
X100890000Y-131445000D03*
X100890000Y-133985000D03*
X98350000Y-131445000D03*
X98350000Y-133985000D03*
X95809999Y-131445000D03*
X95810000Y-133985000D03*
%TD*%
D10*
%TO.C,J601*%
X95810000Y-108560000D03*
D11*
X95810000Y-106020000D03*
X98350000Y-108560000D03*
X98350000Y-106020000D03*
X100889999Y-108560000D03*
X100890000Y-106020000D03*
X103430000Y-108560000D03*
X103430000Y-106020000D03*
X105970000Y-108560000D03*
X105970000Y-106020000D03*
X108510000Y-108560000D03*
X108510000Y-106020000D03*
X111050000Y-108560000D03*
X111050000Y-106020000D03*
X113590001Y-108560000D03*
X113590000Y-106020000D03*
%TD*%
D20*
%TO.C,J404*%
X90989998Y-169625000D03*
X95389998Y-169625000D03*
%TD*%
D10*
%TO.C,J203*%
X126949200Y-141020800D03*
D11*
X126949200Y-143560800D03*
%TD*%
D18*
%TO.C,RV702*%
X69820000Y-142760000D03*
D19*
X69820000Y-145260000D03*
X69820000Y-147760000D03*
%TD*%
D22*
%TO.C,J501*%
X68450000Y-78383500D03*
%TD*%
D12*
%TO.C,J604*%
X105410000Y-87630000D03*
X107950000Y-87630000D03*
X110490000Y-87630000D03*
X113030000Y-87630000D03*
X115570000Y-87630000D03*
X118110000Y-87630000D03*
D13*
X105410000Y-85090000D03*
D12*
X107950000Y-85090000D03*
X110490000Y-85090000D03*
X113030000Y-85090000D03*
X115570000Y-85090000D03*
X118110000Y-85090000D03*
%TD*%
D10*
%TO.C,J201*%
X117400000Y-111100000D03*
D11*
X119940000Y-111100000D03*
X117400000Y-113640000D03*
X119940000Y-113640000D03*
X117400000Y-116180000D03*
X119940000Y-116180000D03*
X117400000Y-118720000D03*
X119940000Y-118720000D03*
X117400000Y-121260000D03*
X119940000Y-121260000D03*
X117400000Y-123800000D03*
X119940000Y-123800000D03*
X117400000Y-126340000D03*
X119940000Y-126340000D03*
X117400000Y-128880000D03*
X119940000Y-128880000D03*
%TD*%
D10*
%TO.C,JP602*%
X121000000Y-103760000D03*
D11*
X121000000Y-106300000D03*
%TD*%
D10*
%TO.C,J405*%
X101000000Y-165460000D03*
D11*
X101000000Y-168000000D03*
X101000000Y-170540000D03*
X101000000Y-173080000D03*
%TD*%
D10*
%TO.C,JP303*%
X162400000Y-94460000D03*
D16*
X162400000Y-97000000D03*
%TD*%
D10*
%TO.C,JP201*%
X129060000Y-134950000D03*
D11*
X131600000Y-134950000D03*
X134139999Y-134950000D03*
%TD*%
D23*
%TO.C,C312*%
X151975000Y-84900000D03*
X153525000Y-84900000D03*
%TD*%
D24*
%TO.C,R418*%
X84773000Y-125095000D03*
X86423000Y-125095000D03*
%TD*%
%TO.C,R422*%
X84773000Y-120015000D03*
X86423000Y-120015000D03*
%TD*%
D25*
%TO.C,C718*%
X101070000Y-114335000D03*
X101070000Y-112785000D03*
%TD*%
D26*
%TO.C,C321*%
X142925000Y-88350000D03*
X141375000Y-88350000D03*
%TD*%
D27*
%TO.C,R409*%
X102108000Y-138493000D03*
X102108000Y-136843000D03*
%TD*%
D25*
%TO.C,C410*%
X102449998Y-152909998D03*
X102449998Y-151359998D03*
%TD*%
D26*
%TO.C,C713*%
X110145000Y-126130000D03*
X108595000Y-126130000D03*
%TD*%
D25*
%TO.C,C318*%
X149750000Y-83125000D03*
X149750000Y-81575000D03*
%TD*%
D26*
%TO.C,C313*%
X142925000Y-89950000D03*
X141375000Y-89950000D03*
%TD*%
D25*
%TO.C,C726*%
X110900000Y-118505000D03*
X110900000Y-116955000D03*
%TD*%
D23*
%TO.C,C314*%
X151975000Y-89750000D03*
X153525000Y-89750000D03*
%TD*%
D25*
%TO.C,C727*%
X105670000Y-117460000D03*
X105670000Y-115910000D03*
%TD*%
D28*
%TO.C,C310*%
X143400000Y-92050000D03*
X143400000Y-93600000D03*
%TD*%
D25*
%TO.C,C725*%
X109330000Y-119965000D03*
X109330000Y-118415000D03*
%TD*%
%TO.C,C405*%
X99099998Y-152909999D03*
X99099998Y-151359999D03*
%TD*%
D29*
%TO.C,R207*%
X123735000Y-118760000D03*
X122085000Y-118760000D03*
%TD*%
D27*
%TO.C,R407*%
X104648000Y-138493000D03*
X104648000Y-136843000D03*
%TD*%
D26*
%TO.C,C715*%
X100015000Y-117440000D03*
X98465000Y-117440000D03*
%TD*%
D23*
%TO.C,C411*%
X106150000Y-156609997D03*
X107700000Y-156609997D03*
%TD*%
D24*
%TO.C,R206*%
X113945000Y-118710000D03*
X115595000Y-118710000D03*
%TD*%
%TO.C,R416*%
X84773000Y-127635000D03*
X86423000Y-127635000D03*
%TD*%
D30*
%TO.C,C719*%
X102330000Y-123500000D03*
X102330000Y-125400000D03*
%TD*%
D25*
%TO.C,C717*%
X102670000Y-114335000D03*
X102670000Y-112785000D03*
%TD*%
D23*
%TO.C,C408*%
X106174999Y-158310000D03*
X107724999Y-158310000D03*
%TD*%
D27*
%TO.C,R415*%
X94234000Y-138493000D03*
X94234000Y-136843000D03*
%TD*%
D30*
%TO.C,C729*%
X105020000Y-111060000D03*
X105020000Y-112960000D03*
%TD*%
D26*
%TO.C,C716*%
X100495000Y-120520000D03*
X98945000Y-120520000D03*
%TD*%
%TO.C,C724*%
X102125000Y-115910000D03*
X100575000Y-115910000D03*
%TD*%
D23*
%TO.C,C319*%
X151975000Y-86550000D03*
X153525000Y-86550000D03*
%TD*%
D28*
%TO.C,C722*%
X106000000Y-121890000D03*
X106000000Y-123440000D03*
%TD*%
%TO.C,C311*%
X151200000Y-92100000D03*
X151200000Y-93650000D03*
%TD*%
%TO.C,C317*%
X145100000Y-92075000D03*
X145100000Y-93625000D03*
%TD*%
D31*
%TO.C,C730*%
X111790000Y-122960000D03*
X109890000Y-122960000D03*
%TD*%
D29*
%TO.C,R204*%
X123735000Y-113630000D03*
X122085000Y-113630000D03*
%TD*%
D26*
%TO.C,C406*%
X100774999Y-158259998D03*
X99224999Y-158259998D03*
%TD*%
D25*
%TO.C,C721*%
X104130000Y-117460000D03*
X104130000Y-115910000D03*
%TD*%
D24*
%TO.C,R203*%
X113965000Y-113640000D03*
X115615000Y-113640000D03*
%TD*%
D28*
%TO.C,C714*%
X104430000Y-124335000D03*
X104430000Y-125885000D03*
%TD*%
%TO.C,C728*%
X107560000Y-121885000D03*
X107560000Y-123435000D03*
%TD*%
D26*
%TO.C,C308*%
X142925000Y-85850000D03*
X141375000Y-85850000D03*
%TD*%
D25*
%TO.C,C316*%
X144200000Y-83125000D03*
X144200000Y-81575000D03*
%TD*%
D28*
%TO.C,C320*%
X148500000Y-92075000D03*
X148500000Y-93625000D03*
%TD*%
D24*
%TO.C,R420*%
X84773000Y-122555000D03*
X86423000Y-122555000D03*
%TD*%
D25*
%TO.C,C409*%
X100699999Y-152885000D03*
X100699999Y-151335000D03*
%TD*%
D28*
%TO.C,C315*%
X146800000Y-92075000D03*
X146800000Y-93625000D03*
%TD*%
D30*
%TO.C,C720*%
X98200000Y-111414999D03*
X98200000Y-113314999D03*
%TD*%
D28*
%TO.C,C309*%
X141700000Y-92050000D03*
X141700000Y-93600000D03*
%TD*%
D27*
%TO.C,R411*%
X99550000Y-138493000D03*
X99550000Y-136843000D03*
%TD*%
D24*
%TO.C,R205*%
X113975000Y-116160000D03*
X115625000Y-116160000D03*
%TD*%
D27*
%TO.C,R413*%
X97028000Y-138493000D03*
X97028000Y-136843000D03*
%TD*%
D25*
%TO.C,C711*%
X107460000Y-114665000D03*
X107460000Y-113115000D03*
%TD*%
%TO.C,C412*%
X103999996Y-152909998D03*
X103999996Y-151359998D03*
%TD*%
D26*
%TO.C,C723*%
X102115000Y-118960000D03*
X100565000Y-118960000D03*
%TD*%
D28*
%TO.C,C712*%
X110840000Y-113455000D03*
X110840000Y-115005000D03*
%TD*%
%TO.C,C407*%
X104649997Y-158284998D03*
X104649997Y-159834998D03*
%TD*%
M02*
